<?xml version="1.0" encoding="utf-8"?>
<!-- Generator: Adobe Adobe Illustrator 24.2.0, SVG Export Plug-In . SVG Version: 6.00 Build 0)  -->
<svg version="1.1" id="Layer_1" xmlns="http://www.w3.org/2000/svg" xmlns:xlink="http://www.w3.org/1999/xlink" x="0px" y="0px"
	 width="1920px" height="1080px" viewBox="0 0 1920 1080" style="enable-background:new 0 0 1920 1080;" xml:space="preserve">
<style type="text/css">
	.st0{fill:#92839E;}
	.st1{fill:#362820;}
	.st2{fill:#854E2E;}
	.st3{fill:#A6755A;}
	.st4{fill:#DBBC21;}
	.st5{fill:#D9CF9C;}
	.st6{fill:none;stroke:#D9CF9C;stroke-width:0;stroke-linecap:round;stroke-linejoin:round;}
	.st7{fill:#CAC0D1;}
</style>
<g id="Layer_3">
</g>
<g id="Layer_2">
</g>
<g>
	<path class="st0" d="M725,609.87c0.01,0.02,0.02,0.04,0.02,0.06C724.98,609.82,724.97,609.8,725,609.87z"/>
	<path class="st0" d="M725.1,610.13c-0.02-0.06-0.05-0.13-0.07-0.19c0,0,0,0,0-0.01C725.04,609.98,725.07,610.04,725.1,610.13z"/>
	<g>
		<path class="st0" d="M719.31,422.46c0-0.03,0-0.05-0.01-0.08c0,0,0,0,0,0c0,0,0,0,0,0v0c-0.01-0.05-0.01-0.1-0.01-0.15
			c0.01,0.18,0.02,0.35,0.04,0.51C719.32,422.65,719.32,422.55,719.31,422.46z"/>
		<path class="st0" d="M1366.98,467.75c-3.45-15.03-10.28-28.79-26.86-31.76c-9.83-2.25-20.04-0.38-29.44,2.87
			c-7.15,2.45-14.19,5.55-20.32,10.02c-1.67,0.73-3.29,1.58-4.78,2.65c-2.52,1.85-4.5,4.3-6.55,6.64c-2.28,2.54-4.54,5.12-6.32,8.04
			c-0.24,0.37-0.46,0.74-0.67,1.12c0.31-4.72,0.5-7.94,0.7-9.98c1.35-17.38,4.83-34.77,3.63-52.25c0.08,1.27,0.17,2.53,0.26,3.8
			c-0.56-19.16-2.68-39.54-14.53-55.33c-5.13-5.62-12.35-8.8-19.24-11.71c-10.58-4.49-21.61-7.75-32.69-10.75
			c-19.19-5.43-34.41-7.62-57.79-9.86c-19.33-2.16-38.69-4.05-58.04-6.06c-18.45-2.05-37.03-2.02-55.56-1.69
			c-18.83,0.02-37.65,0.27-56.47,0.84c-14.02,0.31-28.05,0.22-42.08,0.56c-9.37,0.33-18.74,0.54-28.1,1.02
			c-11.84,0.83-23.66,1.86-35.5,2.61c-17.56,0.72-35.17,0.68-52.63,3.01c-18,1.93-35.37,7.02-52.62,12.28
			c-3.35,1.02-6.71,2.01-10.06,3.01c-7.06,0.77-14.1,1.78-21.1,2.87c-7.1,0.86-14.25,1.29-21.37,1.9c-3.37,0.34-6.59,1.48-9.89,2.17
			c-5.11,1.02-10.44,2.24-14.66,5.47c-3.46,2.42-5.68,5.75-7.26,9.45c-0.12-1.19-0.26-2.37-0.37-3.56
			c-0.05,1.58-0.08,3.16-0.11,4.75c-1.64,4.28-2.53,8.98-3.51,13.35c-3.51,13.61-2.69,27.68-1.97,41.57
			c0.65,14.59,2.49,29.32,8.6,42.71c0.45,1.04,0.91,2.08,1.37,3.12c0.27,0.82,0.51,1.66,0.72,2.5c1.7,8.74,3.28,17.5,5.21,26.18
			c1.34,7.34,2.09,14.8,4.35,21.94c0.77,2.77,1.84,5.45,2.84,8.15c0.94,3.98,1.88,7.96,2.85,11.93c1,6.98,2.55,13.27,3.37,17.13
			c1.12,5.68,2.86,13.38,4.56,21.69c-0.01-0.3-0.01-0.59-0.02-0.89c0.17,1.21,0.36,2.42,0.55,3.62c0.36,2.88,0.81,5.75,1.45,8.59
			c0.16,0.58,0.3,1.18,0.44,1.78c-0.02,0.13-0.04,0.27-0.06,0.41c-0.07,5.6,1.77,10.96,3.47,16.3c0.4,1.83,0.8,3.47,1.18,4.83
			c0.23,2.35,1.46,4.02,2.61,3.91c0.16,0.41,0.31,0.83,0.48,1.24c0.5,1.19,0.82,2.22,1.28,3.27c0.33,1.33,0.67,2.65,1.02,3.97
			c2.49,11.47,4.74,22.29,6.73,32.22c3.81,19.3,8.57,38.45,15.17,57c8.62,22.31,11.57,30.43,20.9,53.66
			c4.66,10.91,9.15,21.89,13.76,32.81c4.84,11.32,9.81,22.86,17.7,32.43c4.53,5.38,9.99,9.86,15.3,14.44
			c6.27,5.24,12.43,10.61,18.89,15.62c8.5,6.71,18.73,10.78,28.99,13.95c10.72,3.25,21.63,5.89,32.7,7.64
			c15.94,2.45,32.01,4.45,48.16,4.62c12.79,0.17,25.56-1.03,38.35-0.7c16.33,0.36,32.63,1.56,48.97,1.52
			c16.72-0.19,33.49,0.22,50.18-0.94c9.15-1.04,32.67-2.33,47.76-6.55c18.07-4.92,35.34-14.06,48.47-27.55
			c11.8-13.02,17.35-30.14,23.23-46.36c5.44-17.03,10.8-34.09,16.75-50.95c6.3-17.73,11.56-35.8,15.91-54.11
			c7.91-30.98,13.13-62.57,18.01-94.15c3.95-25.26,7.99-50.5,11.7-75.8c1.05-3.91,2.11-7.81,3.23-11.7
			c2.33-8.07,6.15-19.7,7.37-22.26c2.11-5,3.69-6.38,7.12-11.18c2.62-3.88,5.7-7.36,8.96-10.67c0.82-0.31,1.65-0.61,2.49-0.88
			c8-3.21,19.9-4.08,26.42-0.99c6.04,3,4.56,2.79,7.6,5.34c2.16,2.2,4.34,4.41,6.18,6.89c0.79,1.32,1.54,2.66,2.21,4.04
			c0.2,0.4,0.38,0.81,0.55,1.22c0.85,2.38,1.6,4.79,2.22,7.24c0.07,0.25,0.12,0.5,0.18,0.75c0.47,2.44,0.83,4.89,1.08,7.36
			c0.22,6.89,0.35,13.79,0.05,20.68c-0.44,5.45-0.74,10.91-1.04,16.37c-0.45,5.16-1.12,10.3-1.28,15.48
			c-0.24,13.4,0.37,8.22-0.71,16.69c-1.24,6.67-2.38,13.36-3.35,20.07c-0.54,5.42-0.97,10.86-1.96,16.23
			c-0.68,2.87-1.63,5.66-2.41,8.49c-1.36,4.66-1.71,9.49-2.38,14.27c-0.02,0.06-0.03,0.12-0.05,0.19
			c-2.4,6.98-4.71,12.83-7.73,18.62c-5.73,11.3-7.53,13.71-11.65,19.08c-2.94,3.75-6.21,7.23-9.8,10.37
			c-3.62,2.87-7.63,5.29-11.93,6.99c-1.7,0.49-2.65,1.25-9.84,0.42c-0.21-0.04-0.41-0.09-0.62-0.13c-1.95-0.63-3.79-1.58-5.42-2.82
			c-0.73-0.71-1.4-1.49-2-2.32c-0.54-0.94-1.05-1.9-1.49-2.9c-0.3-0.89-0.56-1.8-0.79-2.71c-0.1-0.61-0.18-1.22-0.25-1.83
			c-0.01-0.78,0.01-1.56,0.04-2.35c0.12-1.23,0.28-2.45,0.49-3.67c0.12-0.49,0.22-0.99,0.36-1.48c1.95-6.68,1.7-5.55,2.93-8.57
			c3.2-6.57,2.76-5.67,6.42-10.62c3.3-3.73,2.61-3.56,6.93-5.8c2.07-0.8,8.21-0.82,11.53,2.7c2.64,4.51-0.69,10.19-3.04,14.33
			c-0.52,0.87-1.09,1.71-1.68,2.53c1.92-1.47,3.63-3.22,5.14-5.12c3.94-4.98,4.55-12.28,2.01-18.03c-2.69-5.07-8.27-8.56-13.96-9.09
			c-4.85,0.06-8.98,2.97-12.43,6.12c-14.43,13.24-19.91,34.64-16.44,53.6c1.91,10.42,6.36,21.27,15.7,27.08
			c4.24,2.43,9.26,3.69,14.13,3.71c8.2-0.61,15.95-4.48,22.16-9.74c8.32-6.46,14.33-15.15,19.79-24.05
			c8.2-13.82,14.05-28.83,18.87-44.12c5.99-18.56,11.84-37.2,16.08-56.25c5.09-23.77,8.69-47.97,9.55-72.28
			C1370.85,496.73,1370.17,481.99,1366.98,467.75z M749.55,594.4c-0.15-0.53-0.28-1.06-0.43-1.59c-0.08-0.19-0.19-0.64-0.33-1.19
			c0.39,1.13,0.78,2.26,1.17,3.4C749.85,594.8,749.7,594.6,749.55,594.4z M755.78,384.1c-0.48-0.54-1.36-0.7-2-0.31
			c-0.59,0.41-1,0.96-1.36,1.58c-1.3,2.62-0.8,5.58-0.76,8.39c0.02,0.77,0.05,1.54,0.08,2.3c-0.29-0.81-0.59-1.6-0.91-2.36
			c-0.37-2.43-0.74-4.85-1.11-7.3c-0.45-1.74-0.46-3.58-1.49-5.06c-1.58-2.66-3.94-0.7-4.47,1.71c-1.01,3.85,0.19,7.81,0.74,11.64
			c0.52,2.98,1.03,5.96,1.53,8.94c-0.1-0.23-0.2-0.46-0.3-0.69c-0.48-1.45-1.75-3.46-3.49-2.56c-0.89,0.65-1.43,1.51-1.77,2.47
			c-0.12,0.08-0.23,0.16-0.33,0.25c-2.53,1.29-3.55,3.98-3.98,6.64c-0.02,0.13-0.03,0.25-0.04,0.37c-1.2,1.04-1.73,3.52-1.76,4.8
			c0.01,0.81,0.06,1.63,0.11,2.46c-0.28,0.11-0.52,0.27-0.74,0.45c-0.47-1.04-1.02-2.06-1.69-3.02c-3.17-3.55-5.2-1.27-5.8,2.67
			c-0.22,5.65,1.18,11.3,1.65,16.93c0.13,0.96,0.26,1.92,0.38,2.88c-0.29-1.6-0.59-3.21-0.87-4.82c-0.8-4.41-1.55-8.84-2.33-13.25
			c-0.17-1.28-0.57-2.55-1.37-3.57c-0.52-0.73-1.52-1.05-2.3-0.6c-0.24,0.2-0.48,0.4-0.71,0.6c-1.41,1.84-1.62,4.35-1.39,6.6
			c-0.01-0.14-0.02-0.29-0.02-0.41c0.01,0.19,0.03,0.38,0.04,0.57c0,0,0,0,0,0c0,0,0,0,0,0c0,0.01,0,0.02,0,0.02
			c0,0.02,0,0.04,0,0.05c0.11,1.11,0.07,0.83,0.02,0.28c0.18,3.02,0.5,6.02,1.02,9c1.03,7.53,2.36,15.01,3.77,22.47
			c-1.09-3.31-2.37-6.56-4.08-9.6c-2.21-3.44-5.17-7.5-6.88-0.91c-0.12,0.48-0.18,0.97-0.21,1.46c-0.46-2.54-0.34-5.34-1.67-7.59
			c-0.34-0.61-0.92-1.16-1.66-1.18c-0.47,0.08-0.87,0.29-1.22,0.6c-0.2-0.54-0.41-1.07-0.64-1.59c-1.41-3.07-4.29-7.3-6.19-1.66
			c-0.1,0.35-0.17,0.71-0.23,1.06c-0.54-1.74-1.03-3.48-1.48-5.25c-0.29-1.74-0.53-3.49-0.73-5.25c-1.07-11.32-0.72-11.3-1.72-29.53
			c-0.06-1.15-0.06-2.3-0.04-3.45c0.27-2.66,0.63-5.31,1.07-7.95c0.33-1.95,0.64-3.91,0.99-5.86c0.42-0.49,0.87-0.96,1.35-1.41
			c0.33-0.25,0.64-0.51,0.98-0.74c2.65-1.98,5.69-3.29,8.67-4.66c2.88-1.36,5.59-3.06,8.5-4.36c3.47-1.46,7.09-2.54,10.64-3.82
			c0.98-0.36,1.95-0.73,2.92-1.09c3.48-0.45,6.97-0.92,10.45-1.41c9.95-1.23,19.99-1.39,29.99-2.19c8.77-0.59,17.51-1.62,26.27-2.31
			c-0.21,1.66-0.14,3.63,0.42,5.31c-2.73,2.83-2.42,9.15-0.21,12.12c0.1,0.14,0.21,0.26,0.33,0.36c0.38,1.12,0.99,2.12,1.95,2.81
			c0.38,0.2,0.78,0.37,1.19,0.51c-1.03,3.05-0.46,7.18,1.19,9.4c0.43,0.56,1,0.87,1.7,0.92c0.77,0.17,1.56,0.27,2.35,0.37
			c-0.29,2.27-0.03,6.5,2.08,7.96c-0.37,1.35-0.42,2.84-0.34,4.14c0.01,0.32,0.05,0.63,0.09,0.94c-3.15-0.02-6.31-0.03-9.46-0.05
			c-1.15,0.06-1.94,1.02-2.4,1.99c-0.66,1.53-1.03,3.35-1.01,5.13c-2.34-0.12-4.9-0.28-5.92,2.1c-1.43,3.22-1.39,7.4,0.67,10.33
			c0.69,0.93,1.88,0.97,2.98,1.14c-0.35,0.56-0.63,1.16-0.83,1.8c-0.92-1.32-1.98-2.54-3.2-3.65c-0.42-0.54-0.97-0.84-1.64-0.89
			c-2.82,0.51-3.1,4.21-3.28,6.55c-0.04,0.45-0.06,0.9-0.1,1.35c-0.75-3.48-1.55-6.94-2.43-10.38c-2.23-7.35-3.77-15.03-6.47-22.22
			c-0.08-0.29-0.16-0.58-0.24-0.87c-0.02,0.03-0.05,0.06-0.07,0.09c-0.24-0.62-0.48-1.25-0.74-1.86c-0.27-0.55-0.8-1.09-1.41-1.28
			c-0.39-0.82-0.8-1.63-1.25-2.41c-0.66-1.23-1.67-2.19-2.7-3.1c-0.64-0.61-1.22-1.34-2.16-1.44c-2.48,0.49-3.07,3.8-3.04,6.32
			c-0.33-0.91-0.71-1.79-1.25-2.61c-2.44-2.53-3.9,1.12-4.69,3.14c-0.34,0.74-0.59,1.51-0.78,2.28c-0.19-1.01-0.4-2.01-0.64-3.01
			C757.33,387.23,757.18,385.22,755.78,384.1z M766.33,524.09c-0.59-0.84-1.11-1.74-1.79-3.13c-1.07-2.18-1.95-4.31-2.77-6.55
			c-0.86-5.45-1.78-10.88-2.76-16.31c-0.52-2.86-1.07-5.71-1.64-8.56c0.5,1.5,1,2.99,1.5,4.48c0.2,0.58,0.4,1.17,0.59,1.75
			c2.03,8.53,4.08,17.06,6.18,25.58C765.86,522.28,766.1,523.18,766.33,524.09z M893.24,828.4c-1.53-0.38-3.06-0.75-4.59-1.12
			c-0.48,0.01-0.87,0.18-1.17,0.52c-0.16,0.16-0.31,0.32-0.44,0.5c-9.4-2.34-18.67-5.07-27.87-8.33c-0.33-0.12-0.66-0.25-0.99-0.37
			c-2.37-1.26-4.75-2.48-7.14-3.67c-4.19-3.28-8.49-6.41-12.8-9.53c-3.76-5.05-7.75-9.94-11.95-14.64c-1.32-2.93-2.7-5.83-4.14-8.7
			c0.19-0.52,0.36-0.97,0.43-1.19c0.09-0.18,0.18-0.35,0.26-0.5c0.38-0.52,0.77-1.03,1.2-1.52c1.99-3.07,7.09-3.31,14.1-1.48
			c3.53,0.68,15.36,7.69,21.17,11.55c13.98,9.27,26.83,20.1,40.52,29.78c0.08,0.06,0.17,0.12,0.25,0.18
			c-0.35,0.84-0.51,1.77-0.55,2.66c-0.16,1.5,0.13,3.01,0.68,4.4c0.11,0.37,0.9,2.61,1.19,3.29c0.02,0.05,0.05,0.09,0.07,0.14
			C898.73,829.74,895.98,829.07,893.24,828.4z M1221.84,571.06c-0.32,1.68-0.8,4.79-0.69,7.67c-1.33,11.13-1.97,22.32-2.51,33.51
			c-1,6.26-2.01,12.35-2.83,17.35c-0.66,4.6-1.56,9.17-2.19,13.77c-3.04,13.14-5.68,26.38-7.91,39.68
			c-0.45,3.45-1.07,7.15,0.4,10.43c0.12,0.33,0.33,0.66,0.58,0.94c-0.17,0.45-0.34,0.9-0.5,1.35c0-0.01,0,0-0.01,0.01
			c-0.05,0.13-0.08,0.22-0.1,0.28c-0.11,0.29-0.22,0.59-0.33,0.88c0.14-0.36,0.23-0.6,0.3-0.78c-0.01,0.04,0.1-0.23,0.21-0.52
			c-1.31,3.51-2.5,7.02-3.65,10.53c-0.49-0.48-1.19-0.64-2.17-0.32c-1.79,1.52-1.9,4.19-2.78,6.26c-1.28,4.42-2.53,8.86-3.79,13.28
			c-1.73,6.07-3.45,12.14-5.18,18.21c2.48-5.79,4.97-11.58,7.45-17.37c-2.16,7.98-4.67,15.92-5.83,24.07
			c-0.66,0.56-1.23,1.25-1.68,1.94c-0.68,1.21-1.34,2.43-1.99,3.65c-0.35,0.11-0.72,0.25-1.1,0.43c-4.26,1.72-7.18,5.58-9.59,9.34
			c-4.42,7.23-6.63,15.52-7.83,23.87c-2.69,2.63-5.17,5.5-7.45,8.46c-0.09,0.12-0.16,0.25-0.24,0.38
			c-8.24,1.75-15.61,6.89-20.95,13.33c-1.27,1.58-2.41,3.24-3.49,4.95c-1.55,0.38-3.09,0.8-4.61,1.22
			c-5.37,1.45-10.61,3.39-15.57,5.89c-0.13,0-0.27,0-0.4,0c-12.57,0.22-28.88,2.83-39.08,10.64c-0.65,0.51-1.19,1.1-1.66,1.75
			c-0.47,0.06-0.95,0.11-1.42,0.17c-4.74,0.63-9.45,1.5-14.19,2.18c-2.82,0.27-6.61-0.23-8.49,2.26c-2.15,0.02-4.3,0.05-6.45,0.05
			c-2.52,0.19-5.15-0.33-7.61,0.34c-0.84,0.4-1.52,1.12-2.06,2c-2.46-0.09-4.92-0.18-7.39-0.27c-0.91,0.02-1.81,0.04-2.72,0.06
			c-1.57-0.05-3.14-0.1-4.71-0.17c-14.31-0.5-28.62-0.86-42.93-1.09c-4.11-0.11-8.23-0.18-12.34-0.23
			c-0.18-0.36-0.37-0.71-0.61-1.04c-0.53-0.78-1.45-0.81-2.3-0.94c-2.2-0.39-4.42-0.58-6.64-0.84c-7.56-0.85-15.1-1.82-22.64-2.83
			c-0.33-0.04-0.65-0.09-0.98-0.14c-0.39-0.09-0.79-0.17-1.18-0.26c-4.78-1.17-7.05-1.55-12.16-3.71c-1.22-0.57-2.4-1.23-3.55-1.92
			c0.07,0.01,0.15,0.02,0.22,0.03c2.04,1.08,4.16,1.99,6.43,2.59c1.64,0.41,3.96,0.95,5.37-0.14c1.68-1.49,1.91-4.15,1.79-6.27
			c-0.08-4.75-3.21-6.23-7.42-6.77c-0.91-0.12-1.82-0.25-2.73-0.38c-4.54-2.31-9.49-6.22-13.73-9.3
			c-10.66-7.73-21.02-15.87-31.45-23.91c-9.57-6.99-19.34-13.95-30.05-19.08c-5.63-2.1-12.2-4.02-18.02-1.65
			c-3.51,1.97-5.85,5.26-7.42,8.88c-1.66-3.01-3.37-5.99-5.12-8.95c-0.22-1.34-0.46-2.7-0.72-4.09c-0.43-2.35-0.92-4.71-1.72-6.96
			c-0.51-1.49-1.35-3.21-3.12-3.32c-0.24,0-0.48,0.02-0.72,0.06c-0.9-2.64-1.8-5.32-2.67-7.98c-2.79-12.54-5.95-24.99-9.68-37.28
			c-0.66-2.18-1.3-4.38-2.15-6.5c-0.35-1.2-0.93-2.41-2.01-3.09c-0.3-0.08-0.6-0.16-0.89-0.24c-0.1,0-0.19,0.01-0.29,0.03
			c-1.87-8.2-5.09-16.17-7.79-24.06c-4.94-14.01-10.26-27.87-15.67-41.7c0.58-0.76,0.98-2.03,0.91-3.3
			c-0.09-0.93-0.29-1.84-0.54-2.75c-0.05-0.27-0.15-0.58-0.29-0.97c-0.3-0.93-0.64-1.85-1-2.77c-0.06-0.19-0.12-0.36-0.19-0.56
			c-2.11-6.81-4.19-13.66-6.24-20.52c1.96,0.55,3.53-3.49,3.31-5.84c0.01-0.4,0.01-0.79,0.01-1.19c0.03-0.03,0.07-0.06,0.1-0.09
			c1.37-1.8,1.57-4.11,1.5-6.3c0.26-9.06-2.1-17.92-3.95-26.73c-0.37-1.73-0.87-4.01-1.45-6.62c2.28,2.59,5.33,2.95,6.35-2.78
			c0.35-3.75-0.71-7.49-1-11.23c0-0.01,0-0.01,0-0.02c0.05-0.05,0.11-0.08,0.16-0.14c0.73-0.68,1.19-1.55,1.47-2.5
			c1.37,1.73,2.92,3.32,4.3,5.04c1.61,1.94,3.44,0.08,4.03-1.73c0.01,0.05,0.02,0.1,0.03,0.15c0.77,3.33,1.53,6.66,2.29,9.99
			c0.22,0.81,0.58,1.55,1.1,2.21c0.81,1.1,2.36,1.02,3.47,0.45c1.5-1.01,2.07-2.73,2.33-4.45c0.24-5.36-1.24-11.01-1.74-16.39
			c-0.93-6.84-2.1-13.64-3.22-20.45c2.8,0.77,5.24,0.29,7.31-1.5c0.45,1.49,1.06,2.88,2.45,3.35c1.18,0.51,2.12-0.85,2.64-1.73
			c0.65-1.87,0.88-2.85,0.94-3.52c0.92,0.39,1.92,0.01,2.73-1.62c0.02-0.05,0.03-0.11,0.04-0.16c0.91,1.36,2.24,2.38,3.41,3.51
			c2.29,2.92,4.51,0.2,4.9-2.51c0.68-3.35-0.26-6.8-0.37-10.18c-1.02-10.37-3.72-20.49-5.91-30.66c-0.02-0.08-0.04-0.17-0.06-0.25
			c1.45-0.21,2.9-0.41,4.35-0.63c0.46,2.21,0.9,4.46,1.32,6.73c0.28,10.58,0.74,21.16,2.05,31.66c0.73,4.04,1.57,8.11,2.92,11.98
			c1.14,2.4,3.23,2.48,4.49,0c0.85-1.7,0.93-3.62,0.98-5.49c0.41-4.53-0.01-9.07-0.4-13.58c-0.99-10.86-2.57-21.65-4.73-32.33
			c2.82-0.45,5.64-0.92,8.45-1.4c2.18-0.04,4.36-0.08,6.54-0.14c12.47-0.27,25.01-0.57,37.26-3.17c4.96-1.12,10.11-1.98,14.65-4.38
			c0.33-0.17,0.65-0.36,0.95-0.56c3.06,0.81,6.19,1.29,9.32,1.78c11.08,2.08,22.26,3.52,33.44,4.97c21.7,2.47,43.59,3.27,65.4,1.87
			c6.59-0.38,13.16-1.02,19.72-1.81c4.41-0.15,8.81-0.44,13.21-0.93c1.83-0.21,3.64-0.54,5.44-0.89c0.64,0.01,1.28,0,1.93-0.04
			c0.39-0.03,0.72-0.15,1.02-0.33c19.3,1.53,38.72,1.07,58.03-0.27c9.34-0.65,18.68-1.45,28.01-2.17
			c5.83-0.39,11.86-0.65,17.35-2.81c0.66-0.36,1.2-0.84,1.66-1.38c4.15-0.5,8.31-0.89,12.4-1.72c2.39-0.39,5.18-0.34,6.98-2.19
			c0.09-0.1,0.16-0.21,0.24-0.31c1.26-0.12,2.53-0.25,3.79-0.41c1.36-0.35,3.12,0.02,4.19-0.97c0.44-0.31,0.76-0.73,0.99-1.23
			c0.23,0.05,0.45,0.1,0.68,0.16c14.95,5.7,29.99,11.14,45.22,16.04c3.29,0.87,7.78,2.76,11.84,3.24c0.24,3.58,0.48,7.16,0.72,10.75
			c0.25,3.68,0.5,7.37,0.74,11.05c0.97,12.89,1.54,25.84,2.78,38.71c-0.85,8.62-1.58,17.26-1.72,25.93c0.15,2.7-0.22,5.67,0.85,8.19
			c0,0.89,0,1.75,0.04,2.56c0.33,2.33,1.01,5.06,3.19,6.3c0.46,0.18,0.95,0.33,1.46,0.41C1222.16,569.11,1222,570.08,1221.84,571.06
			z M1223.29,464.62c-0.23-1.21-0.46-2.42-0.69-3.63c0.21-0.35,0.39-0.74,0.57-1.16c0.21-0.2,0.39-0.43,0.56-0.69
			C1223.56,460.96,1223.42,462.79,1223.29,464.62z"/>
	</g>
</g>
<path class="st1" d="M1227.94,541.22c-0.34-1.71-0.94-3.34-1.54-4.97c0.41-2.39,0.66-4.81,0.55-7.22c0.12-2.12-0.29-5.34-1.21-8.33
	c-0.15-2.74-0.57-5.46-1.34-8.1c-1.43-4.62-3.92-8.8-6.7-12.73c-2.69-3.84-5.84-7.36-9.47-10.33c-3.62-3.09-7.67-5.61-11.72-8.09
	c-3.24-1.97-6.53-3.9-10.05-5.33c-4.88-1.86-9.96-3.11-15.01-4.4c-16.14-3.97-32.79-5.01-49.32-6.24c-0.64-0.06-1.27-0.11-1.91-0.17
	c-8.6-2.42-17.28-4.53-26.13-5.79c-8.77-1.4-17.67-1.7-26.53-2.04c-13.97-0.55-27.95-0.56-41.93-0.66
	c-31.29-0.32-62.62-0.4-93.82,2.27c-17.68,1.61-35.25,4.29-52.93,5.89c-28.18,2.03-56.33,4.63-84.23,9.12
	c-8.56,1.77-16.98,4.21-25.29,6.91c-6.28,2.57-12.68,5.77-17.95,10.09c-5.09,3.8-8.5,9.16-11.3,14.77
	c-4.23,7.51-4.78,16.5-3.48,24.88c0.91,6.21,3.26,12.06,5.04,18.05c1.31,4.68,2.11,9.49,3.45,14.17c1.42,5.15,3.69,9.99,5.7,14.93
	c0.28,0.89,0.57,1.78,0.81,2.69c0.48,1.87,1.08,3.7,1.75,5.5c0.45,1.53,0.93,3.07,1.42,4.59c3.66,11.78,5.87,23.93,8.69,35.93
	c-0.18-0.86-0.36-1.72-0.54-2.58c0.79,3.99,1.86,7.91,2.86,11.84c2.25,8.54,4.7,17.02,7.12,25.52c4.48,14.47,6.53,29.56,10.9,44.06
	c4.75,13.19,9.44,26.4,14.23,39.58c3.49,9.64,6.8,19.39,11.32,28.61c1.87,3.78,4.19,7.31,6.53,10.82c3.06,4.86,5.78,9.99,9.59,14.31
	c2.97,3.3,6.38,6.14,9.63,9.15c3.06,3.06,6.02,6.24,9.44,8.91c3.4,2.75,7.19,4.96,10.75,7.49c3.43,2.42,6.57,5.23,10.23,7.3
	c3.41,2.17,7.32,3.23,11.14,4.43c5.42,1.82,10.91,3.38,16.45,4.77c0.55,0.15,1.11,0.31,1.66,0.45c0.4,0.11,0.8,0.22,1.2,0.32
	c-4.54-1.21,4.39,1.36,5.93,1.61c12.96,1.99,26.07,2.66,39.16,3.14c12.52,0.31,25.05-0.14,37.58,0.04
	c7.38,0.28,14.73,1.16,22.12,1.01c11.21,0.07,22.39-1.24,33.51-2.6c7.5-0.88,15.02-1.56,22.41-3.21
	c11.01-2.07,22.22-1.66,33.37-1.96c6.12-0.57,12.27-0.86,18.38-1.52c5.23-0.86,10.3-2.47,15.49-3.52c3.13-0.46,5.7-1.47,7.97-2.85
	c0.27-0.07,0.55-0.14,0.82-0.22c2.09-0.68,3.91-1.92,5.73-3.12c1.8-1.22,3.7-2.33,5.29-3.82c0.35-0.36,0.67-0.74,0.99-1.13
	c2.31-1.36,4.29-3.25,6.23-5.15c3.68-3.48,7.34-7.03,10.41-11.08c4.34-5.75,7.36-12.33,10.98-18.53c1.25-2.13,6.31-9.7,9.5-16.71
	c2.68-5.79,5.11-11.67,7.2-17.7c3.26-8.31,7.09-16.39,10.15-24.79c6.13-16.66,11.56-33.7,13.86-51.36c0.19-2.24,0.42-4.5,0.42-6.74
	c1.06-3.96,2.06-7.93,2.99-11.91c1.67-8.09,1.55-8.06,2.06-10.62c0.75-3.32,1.47-6.65,2.14-10c0.91-4.7,1.44-9.46,2.26-14.17
	c0.83-4.97,1.9-9.9,2.49-14.91c1.09-12.09,0.66-10,1.58-21.31c0.5-6.87,0.58-13.75,0.44-20.64c0.12-5.6,0.21-4.11,0.71-10.92
	C1228.54,551.69,1228.99,546.38,1227.94,541.22z"/>
<path class="st2" d="M1229.13,468.62c-1.05-3.12-2.72-6-4.78-8.57c-1.01-1.23-2.09-2.4-3.27-3.46c0.13,0.06-2.54-2.28-3.65-2.88
	c-0.03-0.02-0.07-0.03-0.1-0.05c-0.03-0.07-0.05-0.14-0.08-0.2c-0.2-0.4-0.48-0.71-0.81-0.97c-0.29-0.66-0.69-1.21-1.19-1.52
	c-0.81-0.48-1.77-0.6-2.69-0.76c-0.08-0.07-0.15-0.14-0.24-0.19c-2.18-1.16-4.25-1.32-5.26-1.73c-1.27-0.35-2.54-0.72-3.81-1.08
	c-0.24-0.17-0.49-0.31-0.79-0.41c-1.56-0.44-3.57-0.93-5.78-1.38c-0.81-0.24-1.61-0.46-2.43-0.66c-0.36-0.08-0.75-0.12-1.09-0.04
	c-1.57-0.29-3.14-0.51-4.74-0.64c-0.09-0.01-0.18,0-0.27,0c-5.96-0.6-11.93-1.1-17.9-1.55c-0.75,0.01-1.65-0.31-2.35-0.02
	c-0.18-0.02-0.36-0.06-0.54-0.08c-16.6-1.71-33.36-0.18-49.71,2.93c-11.12,1.5-22.04,4.14-33.17,5.55
	c-8.54,1.05-17.18,0.94-25.77,1.17c-7.49,0.08-14.98,0.69-22.46,1.11c-3.46,0.47-6.92,0.93-10.38,1.43
	c-1.51,0.11-3.02,0.21-4.53,0.33c-4.09-0.44-8.19-0.84-12.29-1.2c-21.54-1.52-43.11-2.43-64.69-3.05
	c-14.02-0.46-27.99-1.68-41.97-2.81c-13.04-1.15-26.12-2.56-39.21-1.26c-11.07,0.62-22.13,1.76-32.93,4.35
	c-6.12,1.26-12.28,2.37-18.13,4.62c-14.11,5.32-29.05,8.7-42.34,16c-3.66,2.28-7.65,4.1-10.9,6.98c-3.62,3.13-6.44,7.05-9.33,10.84
	c-3.28,4.5-6.53,9.62-6.55,15.32c-2.43,2.69-4.32,5.78-5.03,9.48c-0.75,4.9-0.44,9.89-0.12,14.81c0.34,4.83,0.7,9.67,1.43,14.46
	c1.13,7.66,1.95,15.36,3.32,22.98c2.53,11.37,5.3,22.71,8.78,33.82c3.69,11.54,8.14,19.9,11.17,29.57
	c3.59,11.9,8.21,23.45,11.93,35.31c1.24,3.81,2.54,7.61,4.05,11.32c-0.19-0.7-0.37-1.4-0.56-2.1c-2.07-8.02-3.51-16.18-5.51-24.22
	c-2.58-9.33-4.72-18.77-7.15-28.15c-3.22-11-6.61-18.47-9.34-27.32c-3.11-9.87-5.31-19.98-7.93-29.99
	c-0.89-3.25-2.53-13.3-4.03-20.48c-2.05-10.08-4.02-20.02-4.09-28.62c0.37-3.11,1.57-5.88,3.2-8.43c0.29,3.18,1.56,6.97,4.87,7.82
	c4.04,0.89,8.69-0.96,12.77-1.47c6.29-1.17,12.56-2.44,18.84-3.63c5.11-1.1,10.35-1.26,15.53-1.83c6.39-0.78,12.68-2.24,19.02-3.3
	c11.13-1.84,21.85-5.55,33.05-7.02c10.97-1.77,22.02-2.87,33.07-4.02c16.48-1.79,32.98-3.44,49.48-4.97
	c8.94-0.8,17.89-1.08,26.85-1.09c11.86,0.87,23.72,1.83,35.6,2.36c12.73,0.49,25.49-0.1,38.22,0.11c8.56,0.45,17.13,0.99,25.71,1.64
	c5.34,0.51,10.67,1.09,15.99,1.78c6.87,1.03,13.75,2.04,20.69,2.44c1.63,0.12,3.27,0.24,4.9,0.37c2.87,0.34,5.73,0.68,8.6,1.01
	c12.16,1.6,24.41,2.04,36.67,2.22c2.43,0.26,4.86,0.57,7.28,0.94c3.5,0.64,7.02,1.11,10.55,1.46c2.21,0.86,4.41,1.74,6.76,2.09
	c3.95,0.43,7.81,1.41,11.67,2.29c1.59,0.23,3.2,0.24,4.77,0.53c0.74,0.14,1.48,0.28,2.21,0.42c0.2,0.15,0.42,0.28,0.67,0.35
	c1.63,0.52,3.27,1.03,4.92,1.47c0.76,0.26,1.5,0.49,2.17,0.66c1.07,0.6,1.92,0.36,2.53-0.27c1.61,0.97,3.46,1.59,5.16,2.33
	c3.22,1.29,6.56,2.3,9.84,3.43c0.19,0.08,0.38,0.16,0.57,0.24c1.97,0.84,3.97,1.6,5.93,2.45c1.01,0.62,1.9,0.51,2.64,0.03
	c0.2,0.09,0.38,0.16,0.54,0.22c1.85,9.58,0.37,18.84-0.97,28.49c-2,14-3.46,28.08-6.18,41.96c-1.21,6.94-2.23,13.92-2.83,20.93
	c-0.6,8.54-1.19,17.09-3.06,25.47c-0.9,3.53-4.73,18.92-7.12,26.12c-4.68,14.42-9.36,28.85-13.65,43.39
	c-3.87,12.38-7.9,24.76-12.34,36.93c-0.19,0.47-0.37,0.93-0.56,1.4c0.22-0.4,0.44-0.81,0.65-1.21c4.72-9.39,8.78-19.1,12.8-28.8
	c9.36-24.86,18.66-49.87,24.37-75.87c3.14-15.03,2.28-24.89,4.66-39.51c0.95-6.68,2.36-13.3,3.31-19.98
	c1.3-10.14,2.16-20.33,3.09-30.51c0.61-7.16,1.21-14.37,0.66-21.56c-0.3-2.37-0.8-4.7-1.31-7.03c1.66-0.27,2.46-2.48,2.7-4.01
	c0.03-0.3,0.05-0.59,0.06-0.89c0.81-1.77,1.07-3.78,1.66-5.63c0.57-2.22,1-4.46,1.42-6.71c1.13-4.13,2.61-8.2,3.02-12.48
	C1232.1,481.97,1231.06,475.09,1229.13,468.62z"/>
<path class="st2" d="M849.7,771.58c-2.17-3.41-3.74-7.16-5.59-10.75c-4.12-8.89-9.1-17.34-13.17-26.25
	c-6.25-14.35-10.71-25.27-15.07-38.67c-2.5-7.64-5.44-15.13-7.96-22.77c-3.29-10.46-6.12-21.07-8.57-31.76
	c-4.35-18.35-7.11-45.47-12.47-67.2c3.85,25.4,4.25,51.29,10.06,76.39c1.99,7.88,4.01,15.76,6.34,23.56
	c2.19,7.21,4.93,14.23,7.35,21.36c3.17,9.52,6.26,19.07,10.27,28.28c2.82,6.82,5.8,13.59,9.32,20.08
	c5.18,8.7,10.47,17.34,15.8,25.95c3.56,5.85,8.77,10.41,13.78,14.98C856.26,780.52,852.7,776.26,849.7,771.58z"/>
<path class="st3" d="M841.52,449.24c-9.22,1.09-18.49,2.46-27.09,6.11c-12.69,5.24-24.65,13.06-36.98,19.37
	c-6.03,2.98-11.56,6.38-16.54,10.93c0.43-0.27,0.85-0.53,1.28-0.8c6.48-4.53,14.15-6.65,21.34-9.74
	c11.18-4.43,21.72-10.35,33.1-14.3c10.62-3.81,21.66-5.29,33.61-7.22c14.54-1.93,29.24-1.63,43.88-1.32
	C876.79,449.2,859.08,446.9,841.52,449.24z"/>
<path class="st4" d="M815.01,288.7c-10.98-22.43-32.13-39.41-56.21-45.81c-30.26-8.64-62.84-8.03-92.18,3.78
	c-6.33,2.51-12.08,6.2-17.85,9.76c-9.65,6.28-18.94,13.29-27.06,21.49c-5.43,5.65-9.88,12.14-13.91,18.84
	c-4.53,7.21-8.24,15.01-10.21,23.33c-3.1,12.48-3.35,25.42-3.31,38.22c0.11,10.23,0.95,20.53,3.66,30.42
	c2.29,7.32,5.37,14.4,8.95,21.17c4.17,6.92,7.95,14.14,12.96,20.5c4.9,5.65,10.92,11.24,16.55,16.18c4.19,3.36,9.09,5.64,13.87,8.01
	c3.93,1.91,8.04,3.54,12.25,4.8c0.96,0.44,1.94,0.86,2.92,1.27c2.88,1.49,5.86,2.77,8.94,3.65c0.85,0.37,1.69,0.75,2.55,1.11
	c0.07,0.27,0.14,0.52,0.24,0.71c0.23,0.54,0.74,0.88,1.29,1.03c1.2,0.36,2.42,0.62,3.64,0.9c1.6,0.36,3.22,0.61,4.85,0.8
	c0.73,0.09,1.54,0.12,2.23-0.18c0.41,0.07,0.83,0.1,1.25,0.1c0.72,0.21,1.44,0.39,2.18,0.52c0.09,0.01,0.2-0.01,0.27-0.08
	c0.3-0.32,0.35-0.93,0.13-1.35c-0.06-0.25-0.13-0.49-0.19-0.73c0.02,0.04,0.03,0.08,0.05,0.12c-0.06-0.34-0.13-0.66-0.19-0.99
	c-0.03-0.7-0.08-1.41-0.19-2.1c0.34-1.69,0.11-3.53-0.3-5.17c-0.15-0.61-0.3-1.24-0.46-1.88c0.03,0.04,0.05,0.07,0.07,0.11
	c-0.04-0.11-0.08-0.2-0.12-0.31c-1.79-7.34-3.96-15.82-5.92-23.76c-0.28-9.31,0.41-18.46,1.34-29.38c0.7-11.03,1.52-21.73,2.4-33.92
	c1.01-2.38,2.14-4.87,3.6-7.9c0.6-1.07,1.21-2.13,1.8-3.21c0.66-1.05,1.26-2.2,1.62-3.4c0.09,0.26,0.18,0.52,0.29,0.77
	c0.07,0.16,0.15,0.31,0.24,0.44c0.07,0.35,0.15,0.71,0.21,1.06c0.04,0.14,0.06,0.28,0.1,0.42c-0.95,5.56-1.75,11.84-1.69,15.14
	c-0.08,0.96-0.54,4.35-0.21,6.92c0.4,3.01,0.79,6.03,1.24,9.04c0.02,0.28,0.06,0.56,0.13,0.82c0.09,0.58,0.18,1.16,0.28,1.74
	c0,0.03,0,0.07,0,0.1c0.02,1.44,0.14,2.76,0.2,3.56c0.06,1.14,0.14,2.58,0.29,4.1c-0.24,2.49-0.41,4.99-0.43,7.51
	c-0.01,2.29,0.06,4.6,0.2,6.91c0.15,7.53,0.85,15.03,2.34,22.39c0.04,0.89,0.19,1.96,0.37,3.07c0.08,1.67,0.22,3.33,0.45,4.99
	c0.01,1.22,0.03,2.44,0.19,3.65c0.37,2.83,1.22,5.58,1.9,8.35c1.28,4.77,2.35,9.64,4.23,14.23c0,0-0.01,0-0.01,0c0,0,0.01,0,0.01,0
	c0.13,0.32,0.26,0.65,0.4,0.97c-0.08-0.32-0.13-0.64-0.2-0.96c0.07,0,0.15,0,0.22,0c2.59,0.36,5.22,0.06,7.56-1.07
	c0.15-0.03,0.29-0.07,0.43-0.12c3.6,0.43,7.32-0.29,10.78-1.35c3.73-1.13,7.2-2.94,10.56-4.9c3.27-1.06,6.5-2.23,9.69-3.53
	c8.56-3.63,16.79-8.09,24.71-12.96c8.72-6.32,18.18-12.11,24.69-20.88c5.62-7.75,11.63-15.37,15.84-24
	c3.09-6.8,4.98-14.04,6.63-21.3c1.86-8.17,3.25-16.44,4.1-24.77C824.06,333.26,824.31,309.64,815.01,288.7z M707.19,470.44
	c-0.03-0.31-0.06-0.61-0.1-0.92c0.15,0.08,0.32,0.12,0.5,0.15c0.02,0.06,0.04,0.11,0.06,0.17c-0.01,0-0.01,0-0.02,0
	c0.01,0,0.01,0,0.02,0c0.04,0.13,0.09,0.26,0.13,0.39C707.59,470.31,707.39,470.37,707.19,470.44z M797.96,409.12
	c-0.73,1.01-1.49,2.05-2.28,3.16c0.82-1.2,1.68-2.37,2.34-3.66c0.27-0.63,0.48-1.3,0.63-1.98c0.18-0.32,0.35-0.64,0.52-0.97
	c0,0.03,0,0.06,0.01,0.1C798.78,406.89,798.38,408.01,797.96,409.12z"/>
<path class="st5" d="M801.79,331.58c-0.09-1.2-0.29-3.66-0.46-4.48c-1.16-7.11-2.41-14.2-4.36-21.14c-1.4-4.32-2.95-8.63-5.07-12.66
	c-1.99-3.38-2.06-3.4-4.66-7.66c-1.47-1.73-3.57-7-6.9-10.54c-2.03-2.19-5.45-3.08-7.57-3.61c-0.48-0.42-0.96-0.83-1.47-1.22
	c-2.97-2.02-5.95-4.04-9.1-5.77c-1.98-1.2-3.75-2.71-5.76-3.87c-4.16-2.04-8.49-3.77-12.95-5.04c-4.33-1.77-8.92-2.74-16.36-4.09
	c-1.35-0.07-2.71,0.12-4.06,0c-1.67-0.03-3.32-0.45-5-0.37c-2.48,0.29-4.98,0.04-7.46,0.27c-1.66,0.26-2.21,0.65-3.63,0.8
	c-2.16,0.18-4.24,0.75-6.34,1.25c-1.14,0.04-2.29,0.09-3.43,0.14c-6.93,0.49-13.93-0.06-20.81,0.95
	c-8.46,1.57-16.69,4.52-24.42,8.27c-5.4,3.78-11.09,7.3-15.63,12.16c-4.46,4.05-8.53,8.58-11.01,14.13
	c-1.23,2.44-2.27,4.79-3.2,7.11c-9.23,16.4-14.41,34.95-16.05,53.65c-0.64,8.76-0.3,17.69,2.39,26.11
	c1.52,6.6,4.66,12.57,7.45,18.69c1.26,2.97,0.74,2.34,2.84,7.18c1.01,2.11,2.4,4.01,3.45,6.09c1.02,2.03,1.78,4.16,2.72,6.23
	c1.36,2.73,3.18,5.19,4.85,7.73c4.45,6.95,10.37,12.76,17.07,17.54c0.88,0.69,2.77,2.54,5.15,4.49c1.95,1.4,4.06,2.57,6.1,3.83
	c3.55,1.91,7.33,3.35,10.96,5.12c3.13,1.18,5.57,1.73,9.02,2.48c2.44,0.49,4.95,0.54,7.4,0.98c1.11,0.25,2.17,0.7,3.3,0.85
	c-1.08-0.38-2.04-0.99-3.05-1.51c-1.79-0.77-3.67-1.29-5.5-1.95c-3.07-1.14-5.97-2.7-8.85-4.24c-2.8-1.64-5.25-3.8-7.97-5.57
	c-3.44-2.36-6.5-4.73-9.52-7.8c3.78-6.9,8.48-13.29,11.65-20.52c3.21-7.12,7.07-13.91,10.49-20.92c3.83-8.63,7.33-17.43,11.39-25.97
	c0.75,0.46,1.68,0.39,2.69-0.47c0.9,0.81,1.94,1.28,3.01,1.44c0.78,0.69,1.67,1.19,2.63,1.44c0.09,0.04,0.16,0.09,0.25,0.13
	c1.82,0.51,3.46,0.28,4.92-0.4c1.95,3.37,4.25,6.56,6.59,9.67c4.13,5.84,9.31,10.8,13.93,16.23c2.82,3.67,6.24,6.83,9.05,10.5
	c2.19,3.16,4.88,5.91,7.24,8.94c2.44,3.49,5.53,6.47,8.03,9.91c0.99,1.41,2.02,2.79,3.11,4.12c-1.09,1.14-2.17,2.27-3.23,3.44
	c-2.71,2.99-6.34,4.9-9.2,7.73c-2.39,2.31-5.32,3.93-8.17,5.6c-1.93,1.15-3.76,2.46-5.8,3.43c-0.87,0.42-1.78,0.77-2.7,1.06
	c0.44-0.03,0.89-0.07,1.32-0.14c0.85-0.12,1.69-0.33,2.51-0.57c-0.12,0.09-0.25,0.18-0.37,0.27c0.31-0.15,0.63-0.29,0.94-0.43
	c1.05-0.33,2.07-0.72,3.1-1.11c1.61-0.59,3.25-1.11,4.86-1.71c2.22-0.68,4.43-1.36,6.57-2.25c7.25-4.12,13.87-9.23,20.72-13.97
	c6.25-5.01,8.71-6.68,14.12-11.95c1.93-1.86,3.37-4.12,5.06-6.18c2.44-2.7,4.61-5.63,6.23-8.91c0.28-0.5,0.52-0.93,0.59-1.06
	c1.45-2.1,3.25-3.96,4.49-6.2c1.29-2.32,1.94-4.91,2.83-7.39c0.03-0.07,0.08-0.19,0.15-0.39c2.17-5.11,3.15-6.97,4.38-14.27
	c1.04-7.38,1.26-7.15,2.8-14.18c0.6-4.35,0.49-8.76,0.75-13.14c0.01-0.15,0.03-0.35,0.04-0.59
	C801.28,342.06,802.29,336.84,801.79,331.58z M673.6,389.82c-2.35,4.23-4.86,8.39-6.85,12.81c-2.95,6.49-3.98,9.91-5.78,14.25
	c-2.54,6.21-5.58,12.22-7.73,18.57c-1.09-1.15-2.18-2.39-3.28-3.77c-6.82-6.8-12.27-12.8-15.74-18.9
	c-2.73-4.11-5.01-8.43-6.74-13.05c-2.48-4.79-4.91-8.6-5.24-10.41c-1.63-4.66-3.94-9.03-5.97-13.53c-0.13-0.33-0.26-0.66-0.39-0.99
	c0.01,0.01-0.07-0.25-0.3-0.93c-0.92-3.05-1.87-6.1-2.62-9.19c-0.8-5.92-0.5-3.52-0.61-9.86c0.01-0.87,0.05-1.74,0.08-2.61
	c0.01-0.15,0.03-0.31,0.04-0.5c0.21-2.13,0.09-0.95,0.66-5.97c1.27-12.61,5.07-27.05,10.43-40.87c1.58-3.43,3.02-6.93,4.55-10.39
	c0.04-0.06,0.08-0.13,0.12-0.19c1.79-3.39,5.74-6.87,10.01-10.27c6.58,11.99,13.73,23.75,22.62,34.18
	c3.77,4.36,8.4,7.86,12.48,11.91c1.89,1.94,3.52,4.12,5.35,6.11c1.67,1.96,3.65,3.62,5.25,5.64c0.43,0.59,0.89,1.15,1.37,1.7
	c-1.61,1.91-2.5,4.36-2.9,6.89c-6.21,0.99-12.57,1.62-18.59,3.47c-8.36,2.08-16.32,5.36-24.24,8.7c-7.95,2.97-15.9,5.97-24.04,8.38
	c8.17,0.11,16.35-0.92,24.33-2.63c9.22-2.41,18.22-5.65,27.12-9.05c5.01-1.97,10.17-3.49,15.16-5.39c0,0.2,0,0.39,0,0.59
	c0.01,1.73,0.14,3.46,0.44,5.16c0.04,1.74,0.24,3.47,0.78,5.13c0.4,1.11,0.89,2.37,1.93,3.01c0.34,0.19,0.67,0.17,0.98,0.03
	C681.47,374.8,677.51,382.33,673.6,389.82z M790.82,358.03c0-0.27,0.08-0.89,0.01-0.37c-0.27,2.34-0.59,4.68-1,7
	c-0.87,3.57-3.08,9.3-4.65,13.18c-1.41,3.3-2.4,7.23-5.46,13.04c-1.14,2.4-3.85,5.41-6.73,9.38c-1.97,2.57-3.67,5.32-5.53,7.97
	c-2.52,3.32-5.27,6.45-7.9,9.68c-1.84,2.23-3.43,4.66-5.4,6.79c-1.69,1.78-3.41,3.55-5.11,5.33c-0.26-0.48-0.52-0.95-0.78-1.43
	c-2.05-4.5-4.47-8.79-7.12-12.97c-1.76-3.24-3.65-6.4-5.79-9.4c-0.54-0.84-1.09-1.67-1.64-2.51c-2.11-3.8-4.92-7.11-7.78-10.37
	c-4.94-6.23-11.37-10.99-16.92-16.63c-2.24-2.2-4.5-4.42-6.59-6.79c1.52-1.13,2.8-2.74,3.83-4.48c10.02,3.58,20.22,6.7,30.69,8.55
	c12.3,1.55,24.8,1.62,37.19,1.16c0.7-0.11,3.06,0.1,0.87-0.31c-4.62-1.12-9.24-2.22-13.86-3.36c-17.25-4.3-34.9-7.1-52.64-8.27
	c0.56-1.56,0.74-3.26,0.97-4.89c0.32-2.49,0.38-5.05-0.09-7.49c7.71-2.25,16.81-6.77,21.89-8.64c15.79-6.28,31.36-13.12,46.38-21.07
	c1.34-0.72,2.66-1.47,3.94-2.29c-1.17,0.44-2.37,0.81-3.56,1.19c-14.95,4.48-29.33,7.53-44.39,13.79
	c-6.84,3.29-13.31,7.28-19.71,11.35c-1.72,1.1-3.46,2.19-5.24,3.2c-0.35-0.92-0.79-1.82-1.37-2.67c-1.62-2.75-3.7-5.64-6.84-6.57
	c3.38-7.08,6.95-14.08,9.48-21.54c3-8.05,5.3-16.34,7.87-24.54c2.54-8.26,5.4-16.41,8.05-24.64c0.17-0.53,0.33-1.07,0.49-1.61
	c-1.82,3.52-3.73,6.99-5.52,10.52c-6.45,12.59-10.83,26.07-14.86,39.6c-2.14,7.37-4.88,14.57-7.12,21.91
	c-3.87-0.42-7.87,0.87-11.23,2.71c-0.15,0.09-0.29,0.2-0.43,0.29c-2.16-3.63-4.49-7.12-7.02-10.5c-2.28-3.22-4.26-6.67-6.99-9.55
	c-4.01-4.41-8.46-8.4-12.44-12.84c-7.55-8.28-15.03-16.6-22.49-24.96c1.27-1.02,2.57-2.02,3.85-3.02c3.11-2.19,6.56-3.84,9.67-6.03
	c3.28-2.07,7.1-3.1,10.6-4.74c5.72-1.83,9.12-3.24,13.57-3.92c7.44-1.16,15.05-0.55,22.55-1.23c10.89-0.52,21.97-0.73,32.71,1.36
	c1.14,0.23,6.96,2.25,10.36,3.38c6,1.66,11.82,3.89,17.3,6.86c3.33,1.7,9.71,6.49,10.35,7.04c1.96,2.03,3.66,4.3,5.66,6.3
	c3.42,3.82,3.49,4.35,6.02,9.12c3.17,6.33,3.89,7.99,5.62,13.94c3.81,12.1,3.11,16.31,3.71,30.5
	C790.38,347.51,791.06,356.63,790.82,358.03z M707.48,363.16c0.35-0.76,0.66-1.51,0.91-2.23c0.02-0.07,0.03-0.13,0.05-0.2
	c-0.03,0.85-0.08,1.74-0.21,2.47C707.98,363.18,707.73,363.17,707.48,363.16z"/>
<path class="st6" d="M697.14,341.39c-0.03,0.03-0.06,0.05-0.09,0.07"/>
<path class="st7" d="M1197.82,359.81c-19.2-0.49-38.57-3.95-57.64-0.44c-5.63,0.97-11.33,1.57-16.94,2.67
	c-8.78,1.79-17.52,3.77-26.46,4.61c-10.44,0.66-20.77,2.54-31.21,3.16c-11.98,0.38-23.96,0.76-35.94,1.29
	c-10.05,0.38-20.08-0.87-30.1-1.4c-11.31-0.58-22.65-0.34-33.92-1.55c-9.48-1.07-18.92-2.42-28.38-3.64
	c-10.59-1.31-21.21-2.32-31.77-3.91c-15.24-2.38-30.45-5.16-45.83-6.49c-12.55-0.84-25.16,0.05-37.69-1.24
	c-0.7-0.06-1.4-0.15-2.11-0.23c10.41,3.03,21.16,4.63,31.91,5.93c16.67,2.57,32.98,7.06,49.6,9.91c14.33,2.41,28.83,3.48,43.22,5.46
	c9.83,1.35,19.67,2.65,29.57,3.32c8.5,0.47,17.03,0.31,25.54,0.78c8.72,0.5,17.43,1.32,26.17,1.43c9.58-0.2,19.14-0.99,28.73-1.13
	c9.04-0.12,18.05-0.74,27-2.09c7.68-1,15.44-1.36,23.09-2.57c7.22-1.07,14.29-2.91,21.46-4.29c8.6-1.13,17.09-3.07,25.75-3.7
	c8.39-0.58,16.81,0.05,25.2,0.29c7.55,0.26,15.09-0.01,22.64-0.12c17.29,0.16,34.89,0.27,51.49-5.24
	C1233.43,363.88,1215.59,361.25,1197.82,359.81z"/>
<path class="st7" d="M1223.74,338.32c-10.85-4.99-21.8-9.94-33.17-13.63c-9.93-2.49-20.18-3.64-30.4-4
	c-6.71-0.14-13.43,0.33-20.15,0.02c-14.14-0.58-27.89-4.18-41.82-6.33c-6.77-0.87-13.6-0.77-20.41-1.1
	c-10.05-0.5-20.07-1.25-30.1-2.08c-8.66-0.76-17.36-1-26.03-0.28c-9.45,0.61-18.9,1.09-28.35,1.61c-9.46,1.06-18.8,3.2-28.36,3.27
	c-13.92-0.15-27.84,0.87-41.75,0.49c-13.18-0.6-26.25-3.01-39.46-2.72c-9.58,0.25-19.25-0.53-28.73,1.12
	c-6.72,1.11-13.17,3.46-19.9,4.51c-1.65,0.21-3.3,0.43-4.96,0.55c-0.94,0.07-1.87,0.13-2.8,0.22c0.49,0.04,0.98,0.07,1.47,0.12
	c9.68,1.26,19.23-1.34,28.9-1.51c6.41-0.08,12.81,0.72,19.2,1.21c5.95,0.47,11.93,0.65,17.87,1.29c12.34,1.7,24.79,3.18,37.27,2.88
	c12.82-0.52,25.67-0.38,38.49-1c7.58-0.48,15-2.23,22.54-3.05c10.88-0.62,21.75-1.28,32.63-1.96c8.18-0.61,16.37,0.03,24.52,0.64
	c9.17,0.77,18.36,1.36,27.56,1.81c6.91,0.3,13.84,0.21,20.72,1.08c10.63,1.64,21.12,4.12,31.81,5.37
	c9.46,1.29,19.02,0.82,28.54,0.69c8.34,0.24,16.67,0.96,24.93,2.15c9.8,1.15,18.2,4.76,28.21,7.89
	c12.23,4.32,24.92,8.05,36.01,14.93C1240.74,346.51,1232.16,342.44,1223.74,338.32z"/>
<path class="st7" d="M735.45,644.05c-3.3-11.24-7.07-22.36-9.38-33.86c-0.85-5.5-2.35-17.79-2.93-25.96
	c-0.29-6.27-0.64-12.53-1.08-18.79c-1.32-13-4.3-25.76-5.8-38.74c-0.7-5.03-1.41-10.07-2.18-15.09c-0.7-5.34-1.99-10.66-1.8-16.07
	c-0.61,8.86,1.11,17.71,1.6,26.55c0.72,7.88,1.25,15.78,2.35,23.62c0.95,6.98,2.04,13.94,2.61,20.97c0.44,11.17,1.82,31.9,5.1,46.04
	c2.72,11,7.08,21.48,11.15,32.02c0.78,1.99,1.58,3.98,2.38,5.97C736.79,648.49,736.12,646.27,735.45,644.05z"/>
<path class="st7" d="M1261.47,389.68c-0.91-8.43-2.44-16.76-4.79-24.9c1.61,9.24,2.34,16.81,2.76,25.62
	c0.49,7.33,0.81,14.67,0.28,22.01c-0.66,7.28-1.22,14.57-2.29,21.8c-1.34,8.49-3.13,16.92-3.86,25.5c-0.23,2.57-0.43,5.14-0.4,7.72
	c0.26-2.74,0.76-5.44,1.28-8.14c2.4-11.99,6.59-25.32,7.55-38.48C1263.3,410.44,1262.91,400,1261.47,389.68z"/>
<path class="st7" d="M1346.19,520.12c-0.23-7.71-1.23-23.21-4.41-33.12c1.45,7.18,1.82,14.66,2.14,20.94
	c-0.07,6.64-0.01,13.28,0.1,19.92c-0.07,4.47-1.06,10.41-1.22,16.84c-0.52,6.81-0.7,18.56-0.95,22.77
	c-1.1,10.15-3.2,20.16-4.42,30.29c-0.34,3.07-0.67,6.14-0.95,9.22c0.55-3.01,1.15-6.02,1.74-9.02c1.99-9.95,5.59-21.94,6.54-32.84
	c0.43-9.55,0.64-11.09,1.11-19.79C1346,538.16,1347.33,529.51,1346.19,520.12z"/>
</svg>
