<?xml version="1.0" encoding="utf-8"?>
<!-- Generator: Adobe Adobe Illustrator 24.2.0, SVG Export Plug-In . SVG Version: 6.00 Build 0)  -->
<svg version="1.1" id="Layer_1" xmlns="http://www.w3.org/2000/svg" xmlns:xlink="http://www.w3.org/1999/xlink" x="0px" y="0px"
	 width="1920px" height="1080px" viewBox="0 0 1920 1080" style="enable-background:new 0 0 1920 1080;" xml:space="preserve">
<style type="text/css">
	.st0{fill:#5E7073;}
	.st1{fill:#D9D9D9;}
	.st2{fill:#6A5246;}
	.st3{fill:#382F2B;}
	.st4{fill:none;}
	.st5{fill:#362B22;}
</style>
<g id="Layer_3">
	<path class="st0" d="M1162.55,499.72c-0.02-4.87-0.05-9.32-0.04-12.06c0.19-0.92,0.36-1.85,0.46-2.78c0-0.01,0-0.01,0.01-0.02
		c0.37-2.27,0.33-4.59-0.26-6.81c-0.43-1.86-2.11-4.27-4.21-2.95c-0.21,0.17-0.41,0.35-0.61,0.53c-0.54-0.98-1.29-1.73-2.3-2.08
		c-1.71,0.01-3.42,0.1-5.12,0.2c-0.28,0.26-0.56,0.53-0.84,0.78c-2.52,1.97-5.03,3.96-7.57,5.92c-1.59,1.23-3.18,2.46-4.77,3.69
		c-0.06,0.05-0.12,0.1-0.18,0.14c-0.12-0.15-0.25-0.3-0.38-0.43c-0.76-0.9-2.03-0.36-3.02-0.21c-3.8,0.73-7.54,1.71-11.27,2.73
		c-0.92,0.24-1.93,0.52-2.99,0.81c-5.5,1.05-10.98,2.23-16.22,4.17c-0.72,0.22-1.29,0.63-1.74,1.17c-1.24-0.06-2.47-0.11-3.71-0.14
		c-0.21-0.49-0.44-0.97-0.74-1.4c-0.81-1.1-2.29-0.74-3.47-0.91c-16.46-0.53-32.91,1.21-49.19,3.46c-3.78,0.55-7.56,1.11-11.35,1.66
		c-3.99,0.22-7.98,0.48-11.97,0.72c-7.65,0.46-15.31,0.93-22.96,1.4c-0.14-1.22-0.53-2.41-1.23-3.41c-0.33-0.43-0.77-0.67-1.31-0.71
		c-1.92-0.41-3.84-0.73-5.81-0.73c-7.02-0.04-14.05,0.21-21.07,0.29c-13.58,0.22-27.17,0.33-40.75,0.6
		c-0.47-0.02-0.94-0.05-1.4-0.07c-1.5-0.13-3-0.25-4.5-0.37c-7.01-0.31-14.03-0.4-21.05-0.29c-0.14,0-0.28,0-0.41,0
		c-0.25,0-0.51-0.01-0.76-0.01c-3.64-0.14-7.32-0.3-10.89,0.5c-0.39-0.82-0.97-1.49-1.89-1.6c-3.68,0.35-7.37,0.66-11.06,0.89
		c-9.68,0.76-19.38,0.95-29.08,1.35c-8.88,0.39-17.79,0.37-26.68,0.58c-0.34-1.38-1.04-2.56-2.24-3.1c-1.58-0.62-3.22,0.09-4.8,0.36
		c-2.77,0.34-5.54,0.61-8.31,0.92c-2.96,0.25-5.93,0.49-8.9,0.73c-0.35-0.35-0.77-0.61-1.27-0.71c-9.38-1.64-18.99-1.07-28.47-1.47
		c-10.59-0.23-21.17-0.69-31.75-1.1c-6.65-0.3-13.3-0.55-19.95-0.78c-7.36-0.41-14.72-0.73-22.08-0.81
		c-0.67,0.03-1.38,0.04-2.11,0.04c0-0.04,0.01-0.08,0.01-0.13c0.02-4.62-1.82-10.81-6.24-10.42c-0.45-0.16-0.92-0.25-1.4-0.26
		c-1.01-0.8-2.22-0.95-3.45-0.78c-0.96-0.68-2.06-0.95-3.26-0.67c-0.87-0.34-1.91-0.39-3.14-0.02c-0.05-0.02-0.09-0.05-0.14-0.07
		c-0.15-0.03-0.29-0.04-0.43-0.05c-0.24-0.36-0.51-0.7-0.82-1.01c-0.11,0.04-0.23,0.07-0.34,0.11c-2.37,0.85-5.39,1.26-7.44,2.84
		c-1.64,1.26-2.98,3.21-4.48,4.66c-0.1,0.1-0.2,0.21-0.31,0.3c-0.11,0.22-0.22,0.44-0.33,0.67c0.02,2.18,0.32,4.14,1.15,5.03
		c0.05,0.11,0.1,0.21,0.14,0.32c0.06,0.33,0.13,0.62,0.22,0.85c0.06,0.17,0.12,0.34,0.18,0.49c-0.32,4.69-0.15,9.41,0.2,14.1
		c0.34,2.33-0.05,4.65,0.63,10.56c0.1,0.69,0.31,1.36,0.6,1.95c0.07,0.78,0.15,1.55,0.23,2.27c-0.01,0.32-0.01,0.64-0.01,0.96
		c-0.48,3.07,0.05,6.26,0.12,9.35c0.02,0.23,0.04,0.46,0.06,0.68c-0.18,0.37-0.34,0.78-0.46,1.24c-0.83,3.09-0.33,6.31,0.16,9.44
		c-0.22,0.96-0.31,1.89-0.27,2.55c0.09,3.4,0.81,6.76,1.25,10.13c0.12,0.87,0.41,2.31,0.88,3.66c0.03,0.16,0.05,0.32,0.08,0.48
		c0.38,1.99,0.51,4.15,1.76,5.81c0.28,2.58,0.6,5.15,0.96,7.72c-0.28,1.43-0.2,2.96-0.11,4.38c2.73,14.26,6.18,28.39,9.34,42.57
		c-0.28,1.5-0.18,3.01,0.12,4.52c-0.06,1.31,0.1,2.62,0.35,3.54c0.82,2.56,1.66,5.12,2.48,7.68c0.06,0.38,0.13,0.75,0.21,1.12
		c1.26,4.62,2.76,9.18,4.12,13.77c0.16,0.52,0.33,1.04,0.49,1.56c-0.07,1.36,0.04,2.73,0.31,4.08c-0.61,1.95-0.43,3.9,0.1,5.82
		c-0.48,4.25,1.93,8.51,3.62,12.32c5.62,11.65,11.69,23.08,18.16,34.27c0.33,0.68,0.69,1.35,1.13,1.93
		c1.74,2.99,3.51,5.96,5.31,8.91c2.1,3.52,4.2,7.04,6.36,10.52c0.69,0.92,1.05,2.15,1.96,2.86c0.62,0.59,1.24,0.59,1.79,0.29
		c3.03,4.04,6.22,7.96,9.59,11.7c-0.01,0.14-0.02,0.29-0.02,0.43c-0.09,2.2,0.64,4.15,1.73,5.94c-0.3,2.19,0.14,4.6,1.12,6.21
		c1.36,1.72,3.4,2.85,5.12,4.25c2.01,1.76,4.02,3.52,6.03,5.28c1.77,1.53,3.56,3.04,5.33,4.56c3.99,3.36,7.95,6.78,12.07,10
		c2.43,2.05,4.91,4.05,7.45,5.96c1.34,1.27,2.44,1.67,3.32,1.49c1.59,0.89,3.25,1.66,5.05,2.03c0.59-0.04,1.08-0.3,1.46-0.76
		c7.61,4.15,15.46,7.85,23.49,11.08c2.31,0.9,4.65,1.72,6.92,2.72c2.92,1.49,5.57,2,6.35-2.55c0.03-0.13,0.04-0.25,0.07-0.38
		c4.13,1.79,8.32,3.44,12.46,5.21c-0.94,1.54-0.95,3.63-0.8,5.37c0.19,1.5,0.85,3.69,2.57,3.92c2.31,0.19,4.61,0.42,6.92,0.58
		c9.4,0.65,18.81,1.23,28.23,1.6c0.12,0.12,0.24,0.23,0.38,0.33c2.52,2.12,6.11,1.15,9.14,1.39c3.14,0.16,6.28,0.18,9.42,0.15
		c0.42,1.37,1.18,2.43,2.33,2.64c15.43-1.09,30.84-2.4,46.14-4.69c4.32-0.68,8.63-1.44,12.94-2.22c0.39-0.05,0.78-0.11,1.16-0.16
		c2.59-0.17,5.17-0.53,7.76-0.78c0.24-0.03,0.47-0.06,0.71-0.08c-0.07,0.61-0.07,1.23,0,1.84c0.1,1.6,0.51,3.48,1.91,4.43
		c2.3,1.55,5.14,0.24,7.61-0.15c4.58-0.79,9.1-1.91,13.64-2.94c2.89-0.67,5.77-1.36,8.65-2.05c3.47,0.23,6.92-0.19,10.33-0.83
		c11.06-1.97,21.8-5.3,32.52-8.58c0.47,0.35,1.05,0.47,1.77,0.18c1.24-0.46,2.38-1.14,3.5-1.86c1.07-0.36,2.14-0.73,3.21-1.12
		c0.33,0.36,0.75,0.63,1.29,0.66c0.73-0.18,1.47-0.32,2.21-0.49c5.18-1.25,9.87-3.92,14.53-6.45c1.38-0.5,2.62-1.31,3.86-2.14
		c1.57-0.88,3.13-1.77,4.68-2.68c-0.15,2.25,0.04,4.99,1.97,6.39c0.99,0.5,1.96-0.16,2.54-1c0.45-0.51,0.91-1.02,1.36-1.53
		c1.36-0.35,2.61-1.12,3.79-1.86c2.7-1.78,5.11-3.96,7.56-6.06c4.49-4.25,9.5-8.26,12.51-13.76c0.83-1.67,1.6-3.41,2.16-5.2
		c0.31,0.22,0.6,0.33,0.89,0.32c0.39,0.14,0.83,0.17,1.34,0.01c1.68-1.29,2.12-3.63,3.17-5.4c0.44-0.92,0.88-1.84,1.33-2.75
		c0.46-0.75,0.92-1.51,1.37-2.26c1.93-3.2,3.87-6.39,5.72-9.65c1.86-3.4,4.74-6.72,3.93-10.86c-0.04-0.53-0.18-1.12-0.39-1.69
		c1.17-2.96,2.32-5.93,3.46-8.9c0.27-0.7,0.55-1.46,0.84-2.24c0.36-0.78,0.72-1.56,1.08-2.33c1.07-2.2,2.19-4.68,3.32-7.29
		c0.05,0.13,0.1,0.25,0.15,0.37c0.02,0.15,0.02,0.3,0.05,0.45c0.1,1.99,1.98,5.72,4.14,3.37c0.63-0.85,1-1.83,1.32-2.84
		c0.33-0.77,0.66-1.54,0.98-2.31c3.19-8.04,6.98-16.87,11.49-26.94c0.22-0.47,0.43-0.94,0.64-1.42c0.4-0.8,0.8-1.61,1.15-2.43
		c0.1-0.21,0.19-0.42,0.3-0.62c-0.01-0.02-0.02-0.03-0.02-0.05c0.77-1.95,1.21-3.97,0.61-6.12c-0.2-1.1-0.7-2.51-1.69-3.14
		c0.27-1.64,0.44-3.24,0.47-4.74c0.07-0.19,0.12-0.4,0.19-0.6c0.8,0.69,2.08,0.76,2.75-0.24c1.13-1.5,1.38-3.34,1.6-5.17
		c0.31-0.52,0.53-1.1,0.67-1.56c0.54-2.53,1.08-5.07,1.61-7.6c0.12-0.56,0.23-1.12,0.35-1.68c0.2-0.12,0.4-0.28,0.6-0.49
		c1.7-2.38,1.74-5.53,2.17-8.34c0.36-3.55,0.56-7.11,0.68-10.68c0.09-2.93,0.42-5.91-0.33-8.78c-0.1-0.4-0.23-0.77-0.39-1.1
		c-0.06-0.32-0.13-0.65-0.23-0.97c-0.05-0.19-0.1-0.37-0.17-0.55c0.17-1.3,0.21-2.63,0.31-3.94c-0.03,0.45-0.06,0.9-0.1,1.35
		c0.36-5.23,0.21-2.94,0.75-9c0.02-0.2,0.04-0.39,0.06-0.59c0.65-0.41,1.13-1.12,1.48-2.03c2.44-2.29,1.48-7.56,1.52-10.54
		c-0.11-3.12-0.25-6.23-0.38-9.35c0.72-12.35,1.47-19.71,2.64-34.5c-0.02-4.17,0.62-8.76-0.59-12.81c0.1-2.04,0.18-4.08,0.12-6.12
		c-0.07-1.73-0.07-3.59-0.82-5.17c0.02-0.22,0.04-0.44,0.05-0.67c0.06-0.15,0.1-0.32,0.14-0.47c0.98-0.07,1.94-0.79,2.57-2.2
		c1.32-2.8,1.43-5.94,1.86-8.96c0.8-5.85,0.19-12.81,0.17-12.95C1162.98,501.2,1162.78,500.41,1162.55,499.72z M960.71,520.84
		c-12.29,0.82-24.59,1.19-36.9,1.11c-0.04-0.84-0.17-1.62-0.33-2.2c-0.3-1.03-0.8-1.92-1.63-2.45
		C934.77,518.78,947.73,519.97,960.71,520.84z M1141.94,614.66c-0.01,0.06-0.03,0.13-0.04,0.19c-0.03-1.48-0.06-2.96-0.07-4.47
		c-0.01-0.35,0-0.71-0.01-1.06c0.18,1.09,0.36,2.18,0.55,3.27C1142.21,613.27,1142.08,613.96,1141.94,614.66z M1144.31,608.67
		c-0.38,0.28-0.72,0.69-0.99,1.28c-0.23,0.44-0.42,0.89-0.58,1.36c-0.2-2.09-0.37-4.19-0.52-6.29c-0.08-1.11-0.15-2.22-0.25-3.33
		c0.12-0.75,0.24-1.48,0.4-2.1c0.59-3.28,1.16-6.56,1.7-9.84c0.11,0.09,0.22,0.18,0.33,0.24c0.01,5.06,0.17,10.12,0.57,15.16
		c0.01,0.19,0.03,0.38,0.05,0.57C1144.79,606.69,1144.55,607.68,1144.31,608.67z M1146.17,537.4c-0.53,0.24-1.01,0.66-1.33,1.11
		c-1.82,2.46-1.89,5.58-2.3,8.49c-0.89,6-1.2,12.07-1.68,18.11c-0.19,3.24-0.48,6.88-0.82,10.62c-0.11-0.45-0.31-0.88-0.71-1.15
		c-2.34-0.25-2.21,4.21-2.49,5.8c-0.44,3.53-0.67,7.07-0.97,10.61c-0.06,3.4-2.09,17.77,3.05,17.53c0.43-0.16,0.79-0.41,1.1-0.73
		c0,0.05-0.01,0.1-0.01,0.14c-0.33,4.81-0.61,11.62-0.83,17.3c-0.02,0.19-0.03,0.37-0.04,0.54c-0.08,1.04-0.19,2.16-0.31,3.32
		c-2.62,12.5-4.9,25.07-6.22,37.78c-0.3,4.41-1.41,8.92-0.99,13.33c-0.91,1.87-1.8,3.76-2.65,5.66c-0.96-0.73-2.23-0.53-3.02,1.17
		c-0.54,1.38-1.1,2.88-1.67,4.48c-1.58,3.49-4.13,9.79-5.5,12.97c-1.25,3.03-2.5,6.05-3.76,9.07c-0.17,0.36-0.34,0.73-0.49,1.1
		c-0.53,0.71-1.05,1.44-1.57,2.15c-1.39,1.92-2.76,3.87-4.1,5.83c-0.05,0.01-0.09,0.02-0.13,0.04c-1.4,0.63-2.3,1.88-3.12,3.18
		c-0.62,0.78-1.22,1.58-1.82,2.37c-3.88,5.12-7.5,10.42-11.06,15.76c-1.36,2.02-1.94,2.92-3.44,5.15c-0.68,0.97-1.36,1.94-2.04,2.91
		c-1.28,1.68-2.55,3.35-2.85,5.43c-0.69,0.51-1.38,1.03-2.05,1.56c-4.5,3.65-9.09,7.16-13.76,10.57c-0.78,0.35-1.56,0.68-2.35,1.01
		c-0.4-0.46-0.9-0.79-1.53-0.9c-6.17-0.51-12,1.83-17.79,3.61c-10.94,3.76-27.46,8.58-36.4,11.34c-0.16-0.34-0.34-0.66-0.55-0.94
		c-0.38-0.51-0.87-0.69-1.39-0.71v-0.05c-0.07,0.02-0.14,0.03-0.22,0.05c-0.91,0.04-1.92,0.47-2.78,0.54
		c-0.48,0.09-0.95,0.19-1.43,0.29c-9.36,1.66-18.69,3.52-28.05,5.13c-0.24-0.81-0.57-1.56-1.01-2.16c-0.34-0.48-0.84-0.68-1.39-0.75
		v0c0,0,0,0,0,0c-0.15-0.02-0.31-0.03-0.47-0.04c-2.33-0.26-4.67-0.1-6.99,0.03c-10.09,0.49-20.13,1.55-30.18,2.44
		c-5.67,0.41-11.34,0.8-17.02,1.16c-10.29-0.47-20.56-1.11-30.83-1.97c-0.69-0.08-1.37-0.16-2.06-0.24
		c2.53-0.45,5.04-0.89,7.14-1.32c20.94-3.82,41.73-8.42,62.31-13.84c8.57-2.48,25.91-5.26,28.95-14.82
		c1.47-5.93-0.25-13.3-6.12-16.14c-5.66-2.89-12.03-4.11-18.02-6.18c-13.53-4.22-24.67-6.8-38.45-12.36
		c-4.2-1.52-11.46-4.72-12.52-6.17c-2.79-2.94-3.19-3.58-4.12-5.93c0.93-3.11,4.29-7.68,7.87-9.99c8.58-5.93,17.8-10.79,27.04-15.57
		c21.27-11,42.58-21.99,63.16-34.26c0.67-0.4,1.34-0.8,2.01-1.2c-0.41,0.17-0.83,0.34-1.24,0.51c-5.53,2.26-11.07,4.49-16.59,6.75
		c-15.78,6.1-31.47,12.45-47.02,19.1c-7.63,3.34-15.34,6.59-22.48,10.93c-3.83,2.19-7.7,4.43-10.81,7.61
		c-7.07,7.48-10.04,18.2-3.68,27.1c3.15,5.3,8.78,8.12,14.37,10.17c14.36,6.08,29.54,9.87,44.33,14.75
		c5.18,1.77,12.84,3.69,16.22,6.26c-1.4,0.99-2.94,1.77-4.44,2.59c-4.38,2.34-9.28,3.34-14.01,4.71
		c-16.39,4.31-32.9,8.12-49.49,11.58c-7.64,1.54-15.33,2.86-22.99,4.33c-8.46,1.52-17.5,2.38-24.59,7.68
		c-0.54,0.75-0.9,1.63-1.13,2.55c-2.64-4.88-9.01-6.25-13.91-7.88c-4.25-1.07-8.47-2.29-12.8-3.02c-3.17-0.5-6.42-1.1-9.63-0.67
		c-1.08,0.18-2.37,0.07-3.17,0.96c-1.28,1.34-1.71,3.27-1.53,5.11c-4.36-0.85-8.23-1.69-10.92-2.49c-0.57-0.15-1.13-0.33-1.7-0.49
		c-2.7-1.4-5.42-2.77-8.18-4.06c-5.04-2.37-10.04-4.95-15.52-6.15c-0.42-0.1-0.77-0.18-1.08-0.25c-1.81-0.96-3.65-1.84-5.54-2.65
		c-0.06-0.31-0.12-0.61-0.2-0.91c-2.43-5.62-8.11-9.19-12.06-13.72c-0.21-0.22-0.42-0.44-0.64-0.65c0.67-0.92,1.03-2.32,1.18-3.27
		c0.83-4.53-2.03-8.22-4.89-11.36c-2.97-3.68-5.91-7.39-8.9-11.06c-2.23-2.23-12.48-15.39-18.26-20.09
		c-0.24-0.33-0.48-0.65-0.71-0.98c-6.51-8.95-9.72-13.46-15.18-22.66c-0.35-0.56-0.7-1.14-1.05-1.71
		c-2.86-8.47-6.26-16.77-9.33-24.74c-0.99-2.55-5.13-14.12-8.19-13.29c-0.76,0.14-1.32,0.88-1.64,1.57
		c-0.04,0.09-0.08,0.17-0.12,0.26c-0.2-0.48-0.4-0.97-0.6-1.45c-0.03-0.17-0.07-0.34-0.09-0.52c-3.75-16.78-7.32-33.69-12.18-50.2
		c-0.01-0.1-0.02-0.21-0.03-0.31l0,0l0,0c-0.13-1.41-0.4-2.82-0.55-4.15c-1.05-7.2-2.3-14.36-3.61-21.51
		c0.48-0.42,0.91-1.11,1.17-2.09c0.94-4.15-0.52-8.39-0.86-12.55c-0.51-3.78-0.96-7.56-1.37-11.35c1.1,0.07,2.18-0.94,2.96-2.45
		c0.36-0.01,0.72-0.1,1.04-0.3c0.35-0.29,0.69-0.58,1.04-0.88c1.08-1.42,1.61-3.08,1.98-4.8c0.24-0.76,0.41-1.55,0.5-2.36
		c0.01-0.04,0.01-0.08,0.02-0.13c0.21-0.41,0.4-0.85,0.57-1.34c6.07,1.75,12.51,2.39,18.72,3.33c6.83,0.98,13.72,1.24,20.6,0.82
		c2.39-0.12,4.8-0.11,7.18-0.4c0.43-0.01,0.78-0.16,1.05-0.47c0.14-0.13,0.24-0.29,0.36-0.43c0.23,0.03,0.45,0.05,0.68,0.08
		c2.01-0.3,2.53-2.95,2.64-4.66c0.06-1.31-0.01-2.86-0.56-4.13c2.65-0.13,5.29-0.29,7.93-0.44c14.78,1.19,29.63,1.18,44.45,1.31
		c0.1,0,0.2-0.01,0.3-0.01c1.53,0.19,3.1,0.15,4.65,0.24c1.89,0.13,3.78,0.19,5.68,0.23c0.86,0.06,1.72,0.12,2.58,0.18
		c17.35,0.91,34.7,2,52.06,2.72c7.94,0.34,15.89,0.6,23.84,0.88c0.08,1.76,0.56,3.48,1.33,4.39c0.35,0.45,0.81,0.7,1.37,0.74
		c2.92,0.78,5.9,1.21,8.91,1.41c7.29,0.52,14.6,0.73,21.9,1.06c21.06,0.6,42.11-0.43,63.08-2.43c16.7-1.88,33.4-3.92,50.08-5.96
		c0.75-0.24,1.7-0.09,2.26-0.7c0.06-0.05,0.11-0.11,0.17-0.16c0.2,0.46,0.44,0.88,0.71,1.25c1.33,1.65,3.68,0.29,5.44,0.27
		c6.95-1.09,13.92-2.16,20.91-2.99c-0.21,2.59,0.39,5.3,2.35,6.82c1.81,0.94,3.95,0.04,5.78-0.44c0.02-0.01,0.03-0.01,0.05-0.02
		c4.03-0.76,8.13-1.15,12.2-1.71c0.36,0.11,0.75,0.15,1.15,0.15c1.92,0,3.8-0.44,5.69-0.71c1.05-0.17,2.1-0.33,3.15-0.5
		c12.14-1.19,24.32-2.09,36.48-3.06c0.95-0.17,2.03-0.07,2.99-0.27c0.01,0,0.03,0,0.04,0v-0.01c0.43-0.09,0.84-0.25,1.2-0.53
		c1.98-1.77,2.01-4.88,1.8-7.35c-0.05-0.44-0.15-0.88-0.27-1.3c2.44-0.65,4.85-1.33,7.22-2.05c-0.04,3.69-0.65,10.96,0.09,16.56
		c0.15,2.21,0.62,4.37,2.02,6.16c0.2,0.28,0.45,0.5,0.72,0.67c0.33,0.26,0.68,0.45,1.07,0.58c0.47,0.11,0.91,0.08,1.31-0.08
		c1.21,0.76,2.5,0.21,3.49-1.11c0.47,0.89,1.08,1.53,1.74,1.88C1146.35,536.1,1146.26,536.75,1146.17,537.4z"/>
	<path class="st0" d="M740.12,551.33c-0.15-0.08-0.29-0.13-0.44-0.17c0.17-2.34-0.5-4.85-2-5.96c-0.66-0.4-1.35-0.09-1.97,0.24
		c-1.35,0.75-2.71,1.48-4.04,2.26c-3.02,1.78-5.89,3.79-8.63,5.98c-0.47,0.38-0.95,0.76-1.42,1.14c-0.18,0.13-0.35,0.28-0.51,0.43
		c-0.11,0.09-0.22,0.18-0.33,0.27c0,0.02,0.01,0.03,0.01,0.05c-0.11,0.13-0.23,0.27-0.32,0.43c-1.48,2.29-1.41,5.33-0.79,7.9
		c0.37,1.46,1.68,3.72,3.46,2.81c0.87-0.63,1.68-1.33,2.53-1.99c2.5-2,5.04-3.97,7.61-5.89c1.33-0.77,2.68-1.51,3.83-2.53
		c0.15-0.17,0.26-0.35,0.38-0.54c0.06-0.04,0.12-0.09,0.17-0.13c1.18-0.85,1.83-2.55,1.99-4.37
		C739.82,551.28,739.97,551.3,740.12,551.33z"/>
	<path class="st1" d="M972.5,486.9c-5.08-0.45-10.18-0.82-15.28-0.74c-4.86,0.26-9.71,0.59-14.57,0.09
		c-5.88-0.53-11.77-0.25-17.66-0.48c-7.55-1.02-15.09-2.18-22.71-2.57c-10.92-0.82-20.81-1.24-31.92-2.39
		c-8.92-0.75-17.78-2.27-26.76-2.37c-9.65-0.05-19.31,0.14-28.96-0.13c-8.74-0.12-17.48,0.5-26.22,0.24
		c-10.78-0.68-21.51-2.2-32.32-2.25c-16.68-0.37-33.52,1.15-50.03-1.92c-6.58-1.11-13.16-2.64-19.07-5.87
		c6.25,4.77,13.65,7.57,21.11,9.84c21,6.62,43.35,5.76,64.9,9.49c5.88,0.79,11.75,1.75,17.67,2.06c5.96,0.09,11.93-0.19,17.89-0.18
		c6.43-0.06,12.85,0.18,19.27,0.3c7.63-0.01,15.28-0.24,22.9,0.39c10.11,1.02,20.18,2.45,30.35,2.77
		c8.59,0.45,17.19,0.07,25.78,0.12c6.2-0.19,12.39,0.38,18.58,0.3c6.5-0.7,12.97-1.66,19.51-2.08c6.45-0.52,12.62-2.7,19.07-3.32
		c3.31-0.44,6.63-0.86,9.96-1.14C973.51,487,973.01,486.94,972.5,486.9z"/>
</g>
<g id="Layer_2">
</g>
<g>
	<path class="st0" d="M1117.31,727.81c0.01-0.01,0.01-0.03,0.02-0.04c0.01-0.02,0.01-0.03,0.02-0.05
		C1117.33,727.75,1117.32,727.77,1117.31,727.81z"/>
	<path class="st0" d="M1117.31,727.81C1117.07,728.4,1117.01,728.57,1117.31,727.81L1117.31,727.81z"/>
	<path class="st0" d="M1247.43,554.42c-1.87-11.55-7.34-23.1-17.15-29.91c-4.82-3.54-10.68-5-16.2-7.07
		c-0.65-0.26-1.31-0.5-1.98-0.73c-0.09-0.05-0.18-0.11-0.27-0.16c-3.58-1.83-7.58-2.63-11.47-3.54c-3.38-0.77-6.86-0.68-10.3-0.83
		c-7.69-0.22-15.51-0.56-23.11,0.83c-0.58,0.16-1.18,0.3-1.79,0.45c-0.21-3.84-0.44-7.67-0.72-11.5c0.07-0.67,0.14-1.33,0.19-2
		c0.09-1.77,0.08-3.54,0.03-5.31c0.05-2.45,0.05-4.91,0.01-7.36c0.14-3.04,0.19-6.09,0.14-9.13c-0.49-0.87-1.11-1.69-2.09-2.55
		c-0.91-0.8-1.91-1.36-2.94-1.87c-0.67-0.07-1.34-0.13-2.06-0.16c-4.19-0.17-8.28,0.35-12.43,0.36c-3.43,0.01-7.01-0.76-10.38,0.07
		c-1.11,0.27-2.27,0.23-3.38-0.05c-12.38,2.58-24.87,4.59-37.44,5.88c-50.47,5.32-101.31,1.72-151.88-0.09
		c-22.9-0.68-45.78-1.79-68.7-1.63c-44.86,0.43-89.74,1.45-134.57-0.91c-10.94-0.46-21.86-1.22-32.8-1.58
		c-9.69-0.47-19.5-0.45-29.06-2.21c-2.03,0.56-4.12,1-5.99,1.67c-2.37,0.85-5.39,1.26-7.44,2.84c-0.3,0.23-0.58,0.49-0.86,0.75
		c7.75,6.7,18.29,8.61,28.07,10.47c17.83,2.78,35.93,3.05,53.91,4.08c36.49,1.66,73.04,1.64,109.55,0.83
		c56.93-1.21,113.77,3.03,170.68,3.8c31.61,0.24,63.36-1.09,94.51-6.76c10.1-1.86,20.2-4.08,29.77-7.89
		c3.57-1.39,7.3-3.26,10.32-5.77c0.05,0.52,0.09,1,0.12,1.44c0,0.11,0,0.22,0.01,0.31c0.02,1.15,0.07,2.25,0.14,3.33
		c-0.02,11.07-0.21,22.14-0.49,33.21c-0.25,0.19-0.49,0.38-0.72,0.6c-3.17,4.05-3.63,13.19,0.2,17.21
		c-0.14,4.3-0.28,8.61-0.43,12.91c-1.8,35-2.99,59.55-7.95,95.26c-1.22,8.13-1.93,11.55-3.37,17.69c-0.18,0.6-0.34,1.14-0.49,1.6
		c-0.75,1.7-2.29,3.17-3.2,5.71c-1.01,3.14-2.52,5.75-3.28,10.23c-0.57,2.1-1.8,4.9-2.96,8.73c0,0,0,0.01,0,0.01
		c-0.05,0.14-0.11,0.28-0.17,0.42c-1.04,2.51-1.29,2.91-2.25,6.41c-0.79,2.29-0.24,0.86-1.44,3.84c-1.59,4.5-4.28,7.87-6.1,10.93
		c-2.08,2.51-2.86,5.64-3.8,8.67c-1.3,2.62-2.93,5.07-4.27,7.68c-0.38,0.6-1.39,3.03-1.84,4.15c-0.11,0.27-0.21,0.54-0.32,0.8
		c-0.55,1.56-1.44,2.94-2.3,4.34c-0.67,1.27-1.17,2.62-1.88,3.87c-0.06,0.1-0.1,0.17-0.13,0.23c-0.94,1.35-1.97,2.64-2.75,4.1
		c-0.8,1.49-1.31,3.11-1.89,4.69c-0.07,0.18-0.14,0.36-0.22,0.54c-1.14,2.45-2.66,4.71-3.88,7.12c-1.14,2.29-2.02,4.73-3.38,6.91
		c-0.08,0.13-0.17,0.27-0.25,0.4c-0.1,0.15-0.2,0.3-0.3,0.45c-2.56,3.52-4.76,7.32-7.6,10.62c-2.52,2.41-4.9,4.96-7.34,7.45
		c-1.21,1.14-3.62,2.86-5.45,4.55c-1.63,1.37-3.86,2.74-6.25,4.12c-1.86,0.67-3.73,1.33-5.58,2c-15.2,4.64-29.25,10.47-42.62,13.1
		c-9.05,1.8-18.26,2.5-27.37,3.9c-21.31,3.1-42.69,5.58-64.12,7.68c-26.78,2.46-54.2,1.78-80.39-4.74
		c-13.42-3.25-23.59-5.31-37.33-10.95c-9.62-3.53-19.61-5.92-29.3-9.23c-5.27-3.24-10.52-6.49-15.64-9.96
		c-3.89-2.55-7.48-5.53-11.13-8.41c-2.93-2.2-5.88-4.38-8.76-6.64c-5.43-5.92-11.17-11.54-16.26-17.76
		c-12.39-14.98-18.67-24.59-27.74-41c-5.48-10.19-11.69-20.03-16.19-30.71c-6.22-15.76-11.45-38.54-14.82-57.06
		c-3.45-18.23-6.81-36.49-9.39-54.87c-1.41-10.79-2.14-21.66-3.12-32.49c-1.65-18.9-2.79-32.74-3.26-49.44
		c-0.38,0.43-0.76,0.84-1.16,1.22c-0.1,0.1-0.2,0.21-0.31,0.3c-0.3,0.58-0.6,1.17-0.88,1.76c-0.63,9.72-0.93,19.46-0.84,29.22
		c0.12,15.71,0.28,31.45,1.44,47.12c0.5,8.13,1.82,16.17,3.09,24.2c1.73,12.59,4.03,25.08,6.3,37.58
		c3.82,20.62,7.82,41.38,15.28,61.04c3.08,8.46,7.47,16.33,11.88,24.15c6.98,12.64,11.59,21.07,18.43,30.45
		c6.37,8.31,13.6,15.99,21.48,22.9c1.67,2.23,3.43,4.4,5.34,6.45c4.08,4.18,8.21,8.35,12.59,12.23c4.96,4.08,10.38,7.59,15.77,11.08
		c3.8,2.48,8.03,4.16,12.14,6.07c3.09,1.35,6.18,2.7,9.35,3.85c4.72,2.21,9.5,4.29,14.35,6.19c7.43,2.78,14.31,6.85,21.81,9.45
		c11.32,4.01,23.1,6.48,34.78,9.17c26.51,4.96,53.7,4.88,80.43,1.82c16.82-1.81,33.65-3.61,50.38-6.19
		c10.84-1.67,21.78-2.66,32.57-4.66c8.16-1.57,16.1-4.1,23.83-7.14c11.86-4.93,23.96-9.48,35.02-16.1
		c4.13-2.48,7.67-5.78,11.48-8.71c1.57-2.28,3.25-4.48,4.94-6.59c2.77-3.47,5.44-7.37,7.61-11.25c2.44-4.37,5.38-8.27,7.99-12.55
		c3.17-5.22,6.28-10.3,9.9-15.03c0.2-0.41,0.4-0.81,0.6-1.22c1.63-3.25,3.31-6.9,5.34-10.1c2.51-5.2,4.89-10.45,7.25-15.72
		c0.24,0.42,0.55,0.78,0.99,1.03c0.06,0.03,0.16,0.06,0.27,0.09c0.21,0.27,0.44,0.53,0.74,0.74c0.04,0.02,0.09,0.03,0.13,0.04
		c0.11,0.1,0.2,0.2,0.32,0.29c0.23,0.08,0.47,0.14,0.7,0.19l0,0c0.01,0,0.02,0,0.03,0c0.19,0.04,0.39,0.07,0.58,0.09
		c0.09,0.01,0.18,0.03,0.28,0.04c0.94,1.12,2.65,1.1,4.13,0.9c0.66,0.06,1.32,0.13,1.98,0.12c1.15,0,2.47,0.18,3.52-0.31
		c2.8,0.64,5.61,1.27,8.43,1.85c6.2,1.15,12.5,1.7,18.81,1.41c5.16-0.01,10.33-0.16,15.43-1.05c4.57-0.67,8.87-2.47,12.98-4.52
		c2.34-1.2,4.79-2.24,6.92-3.79c0.89-0.67,1.71-1.42,2.49-2.21c3.6-1.44,7.04-3.25,9.85-6c6.4-6.15,6.9-16.06,8.69-24.29
		c1.41-10.35,2.97-20.67,4.72-30.97c1.26-9.61,1.89-19.31,3.72-28.83c0.29-2.55,4.11-16.58,5.01-26.36
		C1250.37,578.66,1249.36,566.44,1247.43,554.42z M1228.85,613.58c-0.6,7.46-1.58,14.89-2.08,22.36
		c-1.1,10.23-3.96,20.21-4.23,30.55c-0.58,8.07-0.06,4.44-0.78,10.03c-0.24,0.88-0.51,1.75-0.82,2.6c-0.05,0.13-0.09,0.25-0.13,0.35
		c-0.21,0.5-0.44,0.99-0.68,1.48c-1.21,2.04-0.28,1.27-3.74,4.98c-1.1,1.15-1.92,2.05-2.56,2.78c-1.36,0.51-2.73,0.99-4.08,1.47
		c-7.69,2.57-9.04,3.04-16.01,4.55c-7.6,1.79-15.4,3.18-23.22,3.21c-6.11-0.28-12.2-1.17-18.19-2.37c-1.72-0.36-3.45-0.68-5.16-1.09
		c-0.02-0.01-0.05-0.01-0.07-0.02c0.39-1,0.75-2,1.09-3.02c4.16-12.96,7.36-26.24,9.85-39.62c2.13-13.25,3.54-26.62,4.69-39.99
		c1.79-21.55,3.33-43.15,3.49-64.78c-0.04-3.94-0.11-7.88-0.2-11.81c1.91,0.23,3.82,0.49,5.72,0.75c8.48,0.9,17.12,0.52,25.48,2.44
		c3.93,1.16,7.49,3.3,10.94,5.47c4.49,2.82,8.86,5.84,13.09,9.04c1.15,0.99,2.27,2.02,3.18,3.24c0.07,0.09,0.14,0.2,0.21,0.29
		c0.26,0.46,0.49,0.92,0.7,1.4c0.35,1.03,0.66,2.06,0.94,3.11c0.22,1.3,0.38,2.6,0.51,3.91c0.86,9.08,2.51,26.51,2.38,27.22
		c0.15,3.98-0.34,7.95-0.38,11.93C1228.73,607.24,1228.96,610.41,1228.85,613.58z"/>
</g>
<g>
	<path class="st2" d="M1142.77,622.46c0-0.01-0.01-0.01-0.01-0.02c0,0.03,0.01,0.05,0.01,0.08
		C1142.77,622.5,1142.77,622.48,1142.77,622.46z"/>
	<path class="st2" d="M1149.02,526.59c-0.58-4.18-0.5-9.15-3.54-12.37c-1.45-1.41-3.67-1.51-5.59-1.39
		c-2.64,0.19-5.21,0.81-7.79,1.36c-7.23,1.65-14.42,3.56-21.86,3.99c-16.98,1.23-34.02,1.24-51.02,1.58
		c-11.19,0.25-22.36,1.16-33.55,0.95c-55.41-1.05-110.84-0.67-166.26-1.01c-24.22-0.63-48.45-2.24-72.68-1.28
		c-21.14,0.73-42.06,4.31-63.17,5.39c-5.59,0.16-11.18,0.17-16.77,0.18c-2.67,0-5.34,0-8.01,0c-1.98-0.02-3.97-0.11-5.86,0.61
		c-2.61,0.92-5.21,1.86-7.85,2.68c-2.26,0.53-3.79,2.49-4.54,4.6c-0.13,0.35-0.25,0.7-0.35,1.05c-0.14-0.06-0.28-0.12-0.44-0.15
		c-1.32-0.55-2.55,0.9-3.06,2c-0.71,1.44-1.03,2.98-1.14,4.54c-0.01-0.12-0.02-0.25-0.03-0.38c0,0.25,0.01,0.49,0.01,0.74
		c-0.02,0.49-0.03,0.98-0.01,1.48c-0.23,0.67-0.38,1.37-0.47,2.06c-0.6,3.55,0.11,7.12,0.64,10.63c0.13,0.8,0.27,1.59,0.41,2.39
		c0.3,4.88,0.72,9.75,1.32,14.61c1.41,8.46,2.69,16.96,4.63,25.31c2.5,9.66,6.31,18.92,8.66,28.62c2.61,10.8,5.37,21.6,10.09,31.71
		c1.38,3.18,2.8,6.34,4.17,9.53c0.34,0.79,0.66,1.58,0.99,2.37c1.38,3.76,2.61,7.57,4.41,11.16c2.13,4.62,4.51,9.11,6.58,13.76
		c1.74,4.12,2.26,6.18,4.83,12.04c3.77,7.17,8.22,13.35,10.87,17.75c2.74,5.18,6.13,9.92,10.23,14.11c4.07,5.13,8.5,9.78,13.4,14.13
		c2.37,2.18,4.39,4.72,6.79,6.86c3.21,2.94,6.83,5.37,10.26,8.04c3.84,3.4,8.18,6.13,12.66,8.61c4.01,2.46,8.04,4.92,12.33,6.88
		c6.87,3.32,14.6,3.58,21.97,5.04c7.01,1.26,13.92,3.18,21.02,3.85c16.16,1.68,32.34,3.28,48.51,4.87
		c5.61,0.37,11.23,0.5,16.83,1.02c6.41,0.89,12.83,1.76,19.31,2.04c10.98,0.19,21.91-1.77,32.9-0.76c4.35,0.25,8.75,0.53,13.06-0.23
		c5.92-1.13,11.27-2.94,15.28-3.89c5.34-1.13,10.79-1.59,16.16-2.53c4.06-0.79,8.01-2.03,11.93-3.34c1.19-0.39,2.35-0.86,3.5-1.34
		c4.79-0.69,9.62-1.12,14.32-2.3c5.71-1.68,7.34-2.18,13.92-2.95c5.83-1.09,11.46-3.07,16.97-5.23c0.5-0.19,0.98-0.42,1.45-0.67
		c0.06,0.09,0.1,0.18,0.16,0.27c0.21,0.31,0.49,0.48,0.83,0.53c0.43,0.22,0.86-0.06,1.27-0.25c2.05-1.04,4.19-1.93,6.11-3.22
		c3.08-2.3,5.11-5.7,7.85-8.36c2.24-2.05,4.38-4.23,6.24-6.63c1.66-2.12,4.27-6.4,5.86-9c0.34-0.45,0.68-0.9,1.03-1.34
		c2.97-3.62,6.1-7.12,8.92-10.87c1.92-2.7,3.39-5.68,5.1-8.51c2.44-4.05,2.75-4.15,5.4-8.43c3.15-4.95,5.05-10.51,7.41-15.85
		c0.29-0.26,0.53-0.58,0.69-0.95c0.36-0.84,0.65-1.7,0.93-2.57c1.2-2.49,2.47-4.96,3.69-7.44c0.47-0.75,0.9-1.55,1.2-2.5
		c1.05-2.24,2.02-4.52,2.82-6.87c2.78-9.07,4.34-18.44,7.04-27.53c0.84-3.34,1.98-6.63,2.26-10.08c1.5-6.24,3.2-12.65,2.98-19.02
		c0.15-0.66,0.29-1.31,0.44-1.99c0.68-3.27,0.68-6.63,0.86-9.96c0.09-0.28,0.02-1.32,0.24-2.55c0.01-0.1,0.03-0.2,0.04-0.3
		c0.17-0.54,0.16-1.16,0.02-1.71c0.08-3.86,0.49-5.44,0.62-9.67c0.04-6.98-0.16-13.96,0.01-20.93c0.49-3.55,1.04-7.1,1.69-10.63
		c1.22-7.81,1.51-15.71,1.9-23.59c0.16-2.04,0.3-4.08,0.38-6.13C1149.62,535.02,1149.48,530.79,1149.02,526.59z M725.54,557.02
		c1.18-0.64,2.38-1.23,3.61-1.76c0.57-0.24,1.16-0.45,1.75-0.67C729.16,555.49,727.36,556.3,725.54,557.02z M1142.91,621.73
		c-0.03,0.32-0.07,0.68-0.1,1.02c-0.01-0.08-0.02-0.15-0.04-0.23c0.01,0.1,0.02,0.2,0.03,0.3c-0.16,1.55-0.39,3.29-0.67,5.14
		c0.01-0.67,0.03-1.32,0.03-1.89c0.19-1.24,0.38-2.48,0.55-3.72c0.01,0.03,0.03,0.06,0.04,0.09c-0.01-0.05-0.02-0.1-0.03-0.16
		c0.07-0.5,0.13-0.99,0.2-1.48C1142.93,621.11,1142.92,621.42,1142.91,621.73z"/>
</g>
<path class="st3" d="M1146.58,527.73c-0.51-3.53-1.59-6.91-3.14-10.07c0.01-0.42-0.07-0.85-0.22-1.22c0.21-1.28,0.02-2.67-0.63-3.75
	c-0.16-0.31-0.41-0.52-0.72-0.65c-0.17-0.41-0.38-0.76-0.66-1.02c-0.06-0.23-0.12-0.46-0.2-0.68c-0.22-0.68-0.63-1.34-1.25-1.73
	c-0.69-0.29-1.43-0.32-2.16-0.26c-1.29-0.6-3-0.07-4.38,0c-0.68,0.12-1.36,0.23-2.05,0.35c-2.17,0.25-4.35,0.49-6.45,1.1
	c-0.56,0.37-0.95,0.93-1.21,1.55c-1.2,0.28-2.39,0.61-3.57,0.93c-5.51,1.54-9.3,2.58-15.21,4.22c-5.4,0.46-10.8,0.88-16.22,0.97
	c-6.62,0.01-13.23-0.61-19.85-0.8c-5.59-0.29-11.19-0.11-16.79-0.27c-6.38-0.36-12.76-0.18-19.14-0.36
	c-10.89-0.6-21.74-1.92-32.65-2.24c-15.07,0.02-30.12-0.62-45.19-0.52c-3.92,0.03-7.81,0.63-11.72,1.01
	c-5.57,0.42-11.14,0.74-16.71,1.18c-14.12,0.83-28.25,1.34-42.31,2.98c-0.65,0.05-1.3,0.08-1.94,0.12
	c-1.59-0.12-3.18-0.26-4.77-0.44c-5.97-0.46-11.97,0.08-17.96,0.01c-3.04,0.11-6.08,0.31-9.12,0.44c-3.26-0.15-6.53-0.29-9.79-0.41
	c-10.01-0.03-20,0.68-30-0.23c-5.1-0.3-10.23-0.16-15.33-0.45c-5.8-0.55-11.57-1.35-17.41-1.21c-7.25-0.12-14.4,0.79-21.54,1.88
	c-0.38,0-0.77,0-1.15,0.01c-0.95-0.02-1.9-0.03-2.86-0.04c-4.09-0.64-8.21-1.13-12.37-1c-4.22-0.12-8.45-0.3-12.67,0.03
	c-3.38,0.09-8.12,1.95-10.04,2.54c-2.06,0.2-4.13,0.38-6.19,0.49c-3.8,0.08-7.59,0.41-11.34,1.06c-2.18,0.31-4.39,0.43-6.56,0.76
	c-2.46,0.09-4.91,0.31-7.28,1.01c-3.06,1.3-5.45,3.95-7.11,6.76c-1.15,2.16-1.88,4.52-2.49,6.9c-0.57,1.81-0.87,3.69-0.79,5.55
	c0.04,4.39,3.74,8.24,5.71,2.3c0.19-0.68,0.35-1.25,0.48-1.75c0.22-0.56,0.78-1.59,0.98-1.97c0.24-0.32,0.48-0.64,0.75-0.94
	c2.34-2.27,3.63-3.85,7.45-5.36c5.95-0.33,11.9-0.51,17.8-1.5c3.42-0.34,6.89-0.63,10.17-1.69c3.98-0.41,7.95-0.87,11.95-1.09
	c9.8-0.52,19.61-0.36,29.42-0.27c5.22-0.01,10.43,0.55,15.65,0.4c1.49-0.02,2.98-0.07,4.46-0.14c4.21,0.36,8.4,0.85,12.62,1.02
	c8.84,0.34,17.67,0.9,26.51,0.45c5.71-0.06,11.46,0.48,17.12-0.48c1.53-0.18,3.06-0.34,4.59-0.48c3.4-0.19,6.82-0.19,10.23-0.25
	c7.4-0.55,14.82-0.43,22.23-0.56c6.8,0.28,13.56,1.32,20.39,1.3c6.08,0.2,12.17,0.33,18.24,0.78c6.79,0.83,13.6,1.42,20.39,2.25
	c9.72,1.5,19.53,2.28,29.27,3.58c8.14,0.68,16.28-0.13,24.4-0.54c4.41-0.14,8.8,0.44,13.21,0.52c5.92,0.03,11.83,0.13,17.74,0.29
	c8.49-0.09,16.94,0.98,25.42,1.34c6.9,0.81,13.81,1.79,20.78,1.58c5.41,0.28,10.78-0.25,16.11-1.1c3.99-0.57,8.04-0.97,11.82-2.46
	c3.77-1.48,7.27-3.56,11.16-4.78c0.75-0.27,1.51-0.52,2.26-0.8c0.51-0.15,1.68-0.55,1.93-0.65c0.5-0.12,1.01-0.25,1.46-0.47
	c0.98-0.26,1.95-0.53,2.93-0.8c0.28,0.22,0.59,0.38,0.99,0.44c3.47-0.75,3.5-0.96,6.77-1.78c2.9-0.78,5.83-1.48,8.72-2.29
	c0.72-0.19,1.48-0.43,2.03-0.92c2.06-0.6,4.12-1.24,6.13-1.99c0.23-0.18,0.42-0.38,0.6-0.59c0.59-0.26,1.19-0.5,1.8-0.72
	c0.78-0.19,1.56-0.44,1.92-1.24c0.2-0.33,0.36-0.69,0.5-1.05c0.09-0.03,0.17-0.06,0.25-0.09c0.72-0.12,1.44-0.26,2.09-0.54
	c0.15-0.16,0.27-0.34,0.35-0.55c1.05,3.05,1.75,6.21,1.91,9.48c0.31,4.1-0.34,8.17-0.66,12.48c-0.46,4.06-0.75,8.14-1.43,12.17
	c-2.72,12.2-6.52,24.17-8.13,36.59c-4.11,26.87-7.71,45.05-13.33,66.88c-3.02,10.32-9.11,21.26-14.81,33.46
	c-3.8,8.66-8.3,17.03-11.54,25.92c3.7-6.92,8.49-13.1,12.62-20.04c5.99-9.69,12.8-19,17.28-29.52c2.81-6.73,4.78-13.76,6.52-20.83
	c5.03-17.24,7.76-35.05,9.46-52.9c1.02-12.66,4.01-25.05,5.55-37.64c0.42-4.76,0.35-9.56,0.43-14.34
	C1147.04,536.15,1147.26,531.9,1146.58,527.73z"/>
<path class="st3" d="M776.49,739c-3.49-3.28-6.28-6.71-8.53-10.55c-2.42-3.9-5.06-7.65-7.56-11.5c-3.66-6.35-8.77-11.56-13.34-17.23
	c-6.53-10.46-9.16-13.76-14.54-23.16c-3.11-5.64-6.1-11.35-8.81-17.19c-3.26-7.87-6.72-15.64-11.48-22.75
	c-2.48-3.95-4.16-8.29-6.09-12.52c-1.28-2.68-4.85-8.57-5.13-9.51c-1.29-3.34-1.77-6.92-3.04-10.26c-1.16-3.11-3.13-5.83-4.76-8.69
	c-2.57-4.08-3.22-6.87-4.95-11.27c-1.05-2.86-2.54-5.58-3.06-8.62c-1.32-6.16-2.42-14.02-4.77-20.43c1.8,7.26,2.08,14.88,3.05,22.45
	c0.54,4.24,2.22,8.22,3.21,12.36c1.25,5.87,3.83,11.26,6.42,16.63c1.29,2.85,1.12,3.48,2.01,7.74c0.8,4.56,2.28,8.95,4.5,13.01
	c3.67,6.97,3.98,11.26,8.95,19.74c4.23,6.83,7.27,14.25,10.59,21.54c3.78,7.59,8.1,14.93,12.92,21.91c2.18,3.05,4.52,5.99,6.87,8.92
	c2.27,2.81,4.21,5.92,6.82,8.44c2.7,2.67,5.69,5.01,8.38,7.68c2.9,3.08,5.49,6.43,8.33,9.57c4.39,4.94,8.29,10.4,13.99,13.96
	c0.33,0.23,0.65,0.46,0.98,0.7C777.13,739.63,776.81,739.31,776.49,739z"/>
<path class="st3" d="M1032.67,769.65c-6.19,0.57-12.26,1.79-18.25,3.44c-4.49,1.08-9.04,1.86-13.56,2.83
	c-6.41,1.24-12.98,1.1-19.46,1.77c-6.08,0.64-12.2,0.58-18.31,0.67c-6.16,0.34-12.3,0-18.45-0.22c-11.74-0.07-23.51,0.36-35.24-0.24
	c-20.93-0.89-41.91-1.2-62.68-4.19c-13.92-2.15-27.37-6.58-41.2-9.25c14.7,5.37,28.75,12.67,43.99,16.42
	c20.92,5.71,42.62,7.35,64.2,8.56c11.61,0.32,23.22-0.16,34.82-0.57c8.86-0.01,17.67-1.24,26.46-2.23
	c7.34-1.31,14.69-2.64,21.98-4.22c4.24-1.08,8.32-2.72,12.46-4.12c6.62-2.3,12.9-5.5,19.68-7.35c1.65-0.5,3.3-0.98,4.96-1.46
	C1033.6,769.55,1033.14,769.6,1032.67,769.65z"/>
<path class="st4" d="M688.65,464.35L688.65,464.35c0.25,0.15,0.51,0.29,0.76,0.44l1.86,1.08l0,0c0.57,0.32,1.12,0.68,1.71,0.97l0,0
	c1.85,0.91,3.79,1.67,5.71,2.43l5.99,2.19l3.65,1.25l3.78,1.01l3.65,0.84l2.81,0.54l3.47,0.57l3.61,0.56l3.3,0.52l3.16,0.47
	l3.03,0.45l2.63,0.36l1.98,0.27l2.12,0.29l3.31,0.52l3.31,0.52l2.31,0.38l1.94,0.28l1.69,0.17l1.42,0.06l1.22,0l1.38-0.01l2.13-0.02
	l2.75,0.1l3.06,0.27l3.25,0.35l2.77,0.3l2.42,0.24l2.18,0.19l1.63,0.15l1.73,0.18l1.95,0.21l1.66,0.2l1.63,0.19l2.06,0.2l2.16,0.09
	l2.48-0.08l3.58-0.27l3.83-0.21l3.9,0.04l4.39,0.12l3.9,0.14l2.94,0.16l2.07,0.13l1.35,0.1"/>
<path class="st4" d="M694.79,465.61L694.79,465.61c0.16,0.16,0.32,0.31,0.47,0.47l1.18,1.16l1.14,1.1l0,0
	c0.5,0.45,0.99,0.91,1.52,1.32l0,0c1.67,1.27,3.46,2.39,5.25,3.5l5.57,3.2l0,0c1.1,0.61,2.18,1.24,3.31,1.78l0,0
	c0.98,0.47,2,0.89,3.01,1.28l4.02,1.41l4.61,1.54l4.54,1.48l5.05,1.51l4.79,1.27l3.93,0.96l3.07,0.68l2.64,0.47l3.2,0.41l3.42,0.4
	l3.59,0.51l3.83,0.56l3.36,0.41l3.3,0.24l4.46,0.27l4.12,0.33l2.79,0.27l2.25,0.24l1.93,0.2l2.45,0.29l2.63,0.26l1.99,0.2l1.48,0.16
	"/>
<path class="st1" d="M1121.72,461.79c-1.23-3.37-3.63-5.82-6.69-7.63c-0.99-1.23-2.15-2.32-3.41-3.3c-1.67-1.42-3.58-2.62-5.75-3.05
	c-1.34-0.03-2.39,0.5-3.21,1.38c-1.65-0.2-3.39-0.16-5.21,0.14c-3.23-0.37-6.41-0.59-9.3-0.82c-0.63-0.66-1.26-1.31-1.9-1.96
	c1.63-4.01,1.43-8.81-0.19-12.76c-1.07-2.19-2.87-3.94-4.73-5.47c-1.15-0.96-2.41-1.72-3.73-2.35c-0.11-0.34-0.22-0.68-0.35-1.01
	c-1.48-3.81-4.42-6.83-7.6-9.31c-1.46-1.24-2.88-2.32-4.32-3.27c-0.29-1.25-0.69-2.45-1.17-3.57c-1.79-3.89-5.43-6.43-8.81-8.86
	c-8.17-5.8-17.5-9.67-27.25-11.78c-3.07-1.63-6.32-2.97-9.65-4.04c-0.13-0.12-0.26-0.24-0.4-0.34c-3.73-1.95-3.26-1.06-8.08-3.09
	c-2.48-0.82-4.94-1.68-7.39-2.57c-5.31-2.89-11.03-5.05-16.72-7.07c-0.13-0.06-0.25-0.12-0.38-0.18c-1.69-0.78-3.36-1.62-5.03-2.45
	c0.21-5.09-1.71-10.4-4.92-14.28c-0.37-0.39-0.76-0.76-1.15-1.13c-0.27-2.44-0.86-4.75-1.75-6.68
	c-6.25-10.49-19.82-15.78-32.14-18.94c-0.32-4.45-2.36-8.01-7.3-9.85c-0.82-0.39-1.64-0.76-2.48-1.11c-0.16-2.03-0.63-4.04-1.41-5.9
	c-1.68-4.2-6.31-5.58-10.26-6.83c-3.74-0.94-7.56-1.96-11.42-2.13c-0.81-0.13-1.63-0.22-2.46-0.28c0.07-1.89-0.47-3.81-1.86-5.09
	c-0.81-0.7-1.84-1-2.91-1.15c-0.06-0.77-0.29-1.51-0.71-2.13c-0.38-0.52-1.06-0.4-1.63-0.35c-0.91,0.14-1.8,0.37-2.69,0.61
	c1.09-1.02,2.27-2.01,2.84-3.41c0.28-0.85,0.25-1.88-0.26-2.64c-0.64-0.79-1.66-1.2-2.59-1.55c-1.32-0.56-2.74-0.83-4.14-1.11
	c0.62,0.28,1.24,0.56,1.86,0.84c1.52,0.77,3.07,1.62,4.23,2.9c0.08,0.95-1.01,1.36-1.65,1.88c-1.68,1.16-3.42,2.24-5.1,3.42
	c-0.8,0.47-1.5,1.16-1.62,2.12c-0.01,0.07-0.02,0.13-0.03,0.2c-1.19,1.22-1.1,3.48-0.74,5.04c0.07,0.16,0.13,0.33,0.19,0.49
	c0,0,0,0,0,0c-0.8,0.07-1.61,0.14-2.41,0.22c-1.26,0.25-1.96,1.41-2.28,2.84c-0.87,0.24-1.73,0.51-2.58,0.82
	c-1.65,0.72-2.54,2.22-2.97,3.97c-2.25,1.69-4.18,3.8-5.57,6.36c-0.11,0.22-0.21,0.45-0.31,0.68c-0.95,0.64-1.79,1.43-2.48,2.4
	c-0.8,1.11-1.39,2.33-1.8,3.61c-7.67,1.02-14.93,3.12-16.11,12.15c-0.5,3.52,0,7.48,2.06,10.44c-4.56,2.36-8.05,6.08-8.94,12.1
	c-0.15,1.09-0.2,2.12-0.19,3.09c-2.7,0.68-5.23,1.4-7.76,2.27c-0.12,0.09-0.23,0.19-0.34,0.29c-0.24,0.04-0.46,0.07-0.64,0.1
	c-4.49,0.85-8.87,2.22-13.17,3.74c-1.92,0.62-3.79,1.41-5.54,2.39c-7.49,3.13-13.57,8.31-16.94,15.34
	c-0.45,0.59-0.84,1.21-1.18,1.87c-0.3,0.34-0.6,0.67-0.88,1.01c-0.18,0.27-0.33,0.56-0.5,0.83c-7.15,1.14-14.17,3.26-20.39,7.02
	c-3.75,2.69-8.53,4.99-10.07,9.64c-1.32,3.31-1.72,7.2-0.98,10.77c-6.79,1.36-13.35,4.3-17.94,7.77c-3.2,2.41-6.73,4.74-8.72,8.29
	c-1.46,0.77-2.88,1.6-4.27,2.49c-2.89,1.82-5.55,3.97-8.17,6.16c-1.86,1.64-2.93,4.03-3.62,6.37c-0.85,3.16-0.81,6.19-0.06,8.96
	c-0.97-0.16-1.95-0.32-2.92-0.47c-5.24-0.64-10.55-0.47-15.77,0.29c-3.57,0.57-7.94,0.11-10.51,3.06c-0.69,1.07-1.2,2.28-1.55,3.55
	c-1.31-0.05-2.61,0.22-3.62,1.1c-1.64,1.66-2.22,4.08-2.21,6.48c-0.65-0.34-1.29-0.7-1.92-1.09c-0.04,0.09-0.08,0.17-0.12,0.26
	c0.67,0.58,1.35,1.13,2.07,1.65c0.06,1,0.2,1.97,0.41,2.87c0.84,2.68,2.87,4.71,5.1,6.35c-4.04,6.08-3.94,14.59-0.89,21.08
	c2.6,5.01,7.79,7.89,12.48,10.68c8.9,4.71,19.02,5.65,28.89,6.39c4.45,0.13,8.86-0.78,13.31-0.87c12.13-0.21,24.28-0.26,36.39-1.08
	c2.75-0.12,5.5-0.12,8.25-0.12c2.36,0.49,4.8,0.6,7.21,0.73c5.65,0.23,11.31,0.33,16.96,0.36c4.78,0.37,9.56,0.7,14.35,1.03
	c19.93,1.37,40-0.91,59.83,2.19c2.73,0.26,5.46,0.43,8.2,0.56c0.17,0.11,0.34,0.21,0.53,0.29c5.49,1.38,11.27,1.38,16.89,1.81
	c5.8,0.22,11.63,0.62,17.44,0.39c6.03-0.87,12.06-1.67,18.17-1.63c7.6-0.37,15.19-0.2,22.79-0.18c7.66-0.33,15.31-0.74,22.98-0.83
	c5.7-0.38,11.4-0.52,17.1-0.83c2.85-0.2,5.7-0.54,8.55-0.76c3.94,0.95,7.88,1.89,11.83,2.8c3.69,1.11,14.51,4.65,21.88,6.26
	c3.21,0.9,6.52,1.35,9.82,1.79c3.59,0.69,7.24,0.62,10.8-0.21c3.17-0.64,6.11-2.1,8.68-4.04c1.74-1.21,2.66-2.01,3.77-3.04
	c5.22-0.92,10.85-1.65,14.79-5.52c6.55-5.27,12.41-12.04,14.19-20.46c1.28-6.18,1.21-8.16,1.28-10.27
	c1.82-5.15,3.16-10.54,2.55-16.02C1122.45,467.57,1122.58,464.86,1121.72,461.79z"/>
<path class="st5" d="M779.24,396.74c-3.19,2.23-5.56,5.78-6.54,9.54c-0.48,2.99,0.47,6.04,1.71,8.74c0.62,1.43,1.43,3.2,2.22,4.32
	c-0.97-1.61-1.61-3.39-2.32-5.12c-0.96-2.41-1.7-5.1-1.28-7.7c0.86-3.15,2.79-6.06,5.21-8.24c6.22-4.71,14.48-5.89,22.09-5.5
	C793.16,391.8,785.4,392.69,779.24,396.74z"/>
<path class="st5" d="M887.68,432.55c-18.48,0.52-36.96,1.1-55.43,0.2c-9.19-0.3-18.37-0.93-27.41-2.63
	c-4.18-0.8-8.29-1.6-12.31-2.75c-1.88-1.01-3.62-2.24-5.1-3.8c-2.97-3.02-4.66-7.08-5.17-11.29c5.59,5.04,13.16,7.04,20.2,9.25
	c7.11,1.98,14.26,3.98,21.62,4.8c35.58,3.27,71.4-3.85,106.93,0.97c8.33,1.07,18.96,2.45,25.9,4.48c-8.68-3.26-18.04-4.26-27.19-5.4
	c-35.02-4.53-70.32,2.43-105.39-0.77c-8.28-0.92-16.33-3.2-24.3-5.56c-6.13-2.03-12.67-3.74-17.77-7.84
	c-0.36-3.03-0.11-6.14,0.73-9.01c-0.96,2.75-1.32,5.75-1.1,8.71c-0.09-0.08-0.18-0.15-0.27-0.22c0.09,0.09,0.18,0.17,0.27,0.25
	c0.25,3.36,1.25,6.68,2.99,9.5c1.25,2.01,2.89,3.65,4.73,5.02c-1.69-0.58-3.36-1.24-5.01-2.02c-2.48-1.29-4.3-3.71-5.29-6.28
	c-0.85-3.04-0.4-6.21-0.03-9.29c-1.17,5.97-1.31,11.4,3.84,15.58c2.87,1.79,6.06,2.92,9.33,3.82c1.91,1.03,3.95,1.84,6.02,2.47
	c3.97,1.47,8.12,2.37,12.28,3.13c4.27,0.97,9.79,0.2,14.02-0.52c4.14,0.26,8.28,0.42,12.42,0.52c13.87,0.55,27.75,0.36,41.62-0.14
	c18.69-0.84,37.4,0.41,55.87,3.37C921.49,433.38,902.93,432.25,887.68,432.55z M814.77,433.51c-3.38-0.27-6.7-1.08-10.01-1.8
	c-2.32-0.66-4.79-1.32-7.21-2.17c0.95,0.22,1.89,0.44,2.82,0.66c7.46,1.63,15.03,2.53,22.63,3.06
	C820.26,433.47,817.51,433.64,814.77,433.51z"/>
<path class="st5" d="M873.08,360.94c-1.27-0.47-2.63-1.04-3.43-2.19c-0.28-0.46-0.5-0.94-0.68-1.42c5.58,3.89,13.55,4.08,20.1,4.81
	c3.89,0.23,7.79,0.49,11.69,0.37c5.86-0.32,11.67-1.26,17.55-1.3c8.94-0.12,20.5,1.62,27.49,4.93c-8.81-4.9-19.34-5.93-29.27-5.7
	c-5.22,0.16-10.4,0.97-15.61,1.27c-4.27,0.14-8.55-0.13-12.8-0.42c-5.96-0.66-14.28-1.05-19.45-4.94c-0.71-2.85-0.06-5.95,1.26-8.58
	c0.95-2.39,2.56-4.36,4.51-6.01c-2.07,1.49-3.75,3.41-4.76,5.76c-1.38,2.54-2.03,5.57-1.55,8.41c-1.14-0.95-2.1-2.1-2.81-3.49
	c-1.99-7.43,6.08-11.83,11.54-14.82c-4.27,2.08-9.24,4.2-11.36,8.76c-1.12,2.47-1.36,5.65,0.28,7.95c0.76,0.98,1.63,1.81,2.56,2.54
	c0.24,0.92,0.61,1.81,1.12,2.64c0.76,1.1,2.03,1.7,3.24,2.17c3.26,1.17,6.63,1.97,10.05,2.45c13.28,1.69,29.41,3.52,41.2,5.69
	c-14.51-4.15-29.68-4.65-44.5-7.11C877.21,362.28,875.27,361.66,873.08,360.94z"/>
<path class="st5" d="M933.21,314.85c-4.23-3.92-9.83-5.87-15.26-7.5c6.06,2.29,12.23,4.95,16.73,9.77c2.66,2.59,3.73,5.79,1.93,9.21
	c-1.71,3.64-5.86,4.86-9.46,5.77c-2.77,0.74-5.6,1-8.44,1.01c0.98-0.14,1.92-0.3,2.77-0.5c3.42-0.77,6.65-2.29,9.4-4.47
	c1.25-0.99,2.49-2.15,3.03-3.69c1.69-5.58-0.82-10.42-6.83-11.09c2.62,0.62,5.39,1.93,6.39,4.6c1.04,2.79,0.83,6.24-1.47,8.33
	c-4.36,4.21-10.16,5.8-16.01,6.76c-1.94-0.09-3.88-0.25-5.8-0.42c1.41,0.24,2.84,0.47,4.27,0.65c-1.33,0.19-2.65,0.36-3.96,0.53
	c1.43-0.07,3.36-0.18,5.35-0.37c4.09,0.43,8.22,0.42,12.21-0.79c2.88-0.78,5.97-1.78,7.86-4.24
	C939.65,323.32,937.74,318.54,933.21,314.85z"/>
<path class="st5" d="M968.25,347.92c-6.75-5.78-14.64-10.15-23.11-12.83c8.47,3.49,16.55,8.05,23.52,14.04
	c4.94,3.74,5.99,7.15,0.46,11.04c-1.44,0.97-3.44,1.78-4.84,2.39c1.61-0.54,3.23-1.09,4.72-1.91
	C975.66,356.55,973.74,351.89,968.25,347.92z"/>
<path class="st5" d="M987.42,382.47c-2.86-2.64-6.2-4.66-9.73-6.3c-6.44-3.23-14.22-5.01-19.61-4.86c4.59,0.25,9.04,1.41,13.35,2.96
	c4.83,1.8,9.56,4.12,13.47,7.53c1.96,1.91,3.78,4.64,4.19,7.44c-0.11,1.36-0.51,2.72-1.08,4c-0.66,0.77-1.68,1.09-2.6,1.42
	c-2.81,1.02-5.67,1.54-8.73,1.98c-9.03,1.06-18.11,1.67-27.19,2.23c10.13-1.46,20.09-3.99,29.47-8.15
	c-9.52,3.06-19.04,5.73-28.99,7.18c-3.96,0.52-7.92,0.93-11.89,1.27c-3.94-0.29-7.87-0.6-11.8-0.84c-11.65-0.8-23.32-1.3-34.99-1.56
	c-10.09-2.91-20.6-4-31.03-5.09c-9.88-1.07-19.77,0.24-29.66,0.21c-6.13-0.02-12.62-2.32-15.57-8.15c-0.48-1.6-0.6-3.35-0.38-5.06
	c7-12.66,28.63-11.45,40.8-7.98c-11.74-4.62-32.93-5.45-40.48,6.31c0.37-1.35,0.99-2.62,1.85-3.7c1.51-1.97,3.78-3.11,6.06-3.97
	c2.72-1.12,5.4-1.97,8.15-2.6c5.32-1.19,10.8-2.33,16.26-1.54c-7.13-1.52-14.57,0.02-21.42,2.16c-3.74,1.34-7.95,2.68-10.06,6.32
	c-0.84,1.38-1.34,2.96-1.56,4.58c-0.74,1.42-1.3,2.99-1.65,4.74c-0.6,3.25-0.23,7.27,1.01,10.01c-1.19-3.3-1.32-6.95-0.54-10.36
	c0.27-1.05,0.63-2.04,1.05-2.96c-0.05,1.34,0.07,2.68,0.33,3.95c1.01,2.94,3.55,5.13,6.1,6.77c4.09,2.4,9.07,2.44,13.68,2.38
	c5.42-0.15,10.82-0.61,16.23-0.69c12.85,0.42,25.68,2.03,38.28,4.59c-8.03-0.16-16.07-0.21-24.1-0.15
	c-7.94,0.06-18.35,0.13-24.92,1.17c4.76-0.23,9.53-0.17,14.3-0.22c13-0.15,26-0.19,38.99,0.11c0.31,0.07,0.61,0.13,0.92,0.2
	c1.02,0.22,1.72,0.43,2.13,0.48c-0.63-0.23-1.27-0.44-1.9-0.65c7.17,0.18,14.34,0.45,21.5,0.87c5.58,0.23,11.16,0.65,16.74,1.08
	c-10.68,0.73-21.41,1.02-32.11,1.35c-1.87,0.07-3.86,0.14-5.66,0.23c1.18,0.05,2.37,0.11,3.55,0.15c6.66,0.33,13.31,0.23,19.96-0.05
	c-4.88,0.54-9.74,1.21-14.58,2.07c-0.55,0.1-1.1,0.2-1.62,0.29c0.04,0,0.09-0.01,0.13-0.01c10.41-0.81,20.79-2.06,31.2-2.83
	c2.65-0.21,5.3-0.39,7.96-0.55c8.01,0.53,16.01,0.86,24.03,0.42c4.38-0.31,8.75-0.8,13.06-1.61c3.29-0.7,6.81-1.59,9.11-4.22
	c0.27-0.23,0.51-0.48,0.73-0.74c0.03-0.03,0.06-0.04,0.08-0.07c0.01-0.02,0.02-0.04,0.03-0.06c1.03-1.29,1.38-2.86,1.26-4.45
	C989.77,386.97,989.17,384.38,987.42,382.47z M988.2,385.37c-0.55-1.13-1.31-2.21-2.23-3.23c1.02,0.82,1.94,1.73,2.45,2.96
	c0.31,0.68,0.51,1.38,0.62,2.08C988.82,386.55,988.53,385.94,988.2,385.37z M985.51,395.69c-4.38,2.68-9.74,2.95-14.71,3.66
	c-7.52,0.89-15.06,0.84-22.6,0.47c6.69-0.39,13.37-0.78,20.04-1.41c4.77-0.41,9.57-0.82,14.24-1.93c1.05-0.34,2.21-0.6,3.29-0.99
	C985.68,395.56,985.59,395.63,985.51,395.69z"/>
<path class="st5" d="M1078.75,440.49c-0.97-5.83-3.52-11.19-7.18-15.78c0.05-2.55-0.4-5.12-1.5-7.4
	c-4.29-5.86-10.54-9.77-17.12-12.61c-8.4-4.09-17.01-7.78-26.03-10.26c-0.85-0.35-1.69-0.69-2.54-1.02
	c-6.21-2.42-12.71-4.02-19.38-4.42c4.93,0.71,9.74,1.94,14.46,3.5c-3.92-0.97-7.88-1.79-11.91-2.04c6.59,1.1,12.65,3.26,19.12,4.88
	c0.46,0.12,0.92,0.27,1.39,0.4c4.32,1.86,8.46,4.17,11.6,7.72c-2.83-1.32-5.7-2.55-8.7-3.4c-2.4-0.64-4.91-0.75-7.37-1.08
	c6.22,0.84,11.84,3.38,17.41,6.07c1.01,1.3,1.88,2.7,2.93,3.97c0.78,0.93,1.36,2.16,1.12,3.39c-0.33,1.1-1.43,2.42-1.91,3.12
	c0.79-1.02,1.84-2.02,2.1-3.33c0.23-1.73-0.81-3.21-1.82-4.51c-0.48-0.74-0.97-1.47-1.47-2.19c0.65,0.31,1.3,0.63,1.94,0.94
	c4.65,2.17,9.71,4.79,13.39,8c2.94,2.62,5.29,5.83,7.46,9.09c1.62,2.69,3.38,5.9,4.36,9.19c-2.88,6.17-8.53,10.6-14.89,13.18
	c-7.99,3.58-16.84,4.12-25.62,4.11c-8.94-0.09-17.86-0.62-26.8-0.93c-5.49-0.21-11.71-0.08-16.83,0.16
	c5.12,0.29,10.25,0.49,15.37,0.76c8.7,0.3,17.4,0.86,26.1,0.99c-6.51,0.48-13.02,0.91-19.54,1.3c-9.67-0.8-19.35-1.5-29.04-1.86
	c-5.88-0.27-12.26-0.16-17.87,0.34c6.26,0.06,12.52,0.39,18.77,0.67c6.88,0.26,13.75,0.71,20.62,1.24
	c-28.62,1.17-57.25-0.28-85.87-0.51c-2.4,0.01-4.91,0.04-7.24,0.07c2.49,0.2,4.98,0.37,7.47,0.51c28.32,1.03,56.71,1.84,85.05,0.83
	c2.56-0.1,5.12-0.22,7.67-0.36c5.51,0.46,11.02,0.94,16.53,1.39c8.13,0.43,16.4,1.35,24.5,0.16c4.64-1.2,9.47-2.61,13.77-4.9
	c0.59,0.01,1.19,0.02,1.78,0.05c-0.51-0.07-1.03-0.11-1.55-0.17c2.29-1.24,4.43-2.73,6.29-4.58c2.92-3.67,3.06-8.01,1.93-12.27
	c0.53-1.21,0.96-2.47,1.27-3.79c0.28-1.14,0.45-2.32,0.53-3.51c1.32,1.69,2.56,3.43,3.61,5.29c1.6,3.14,2.63,6.58,3.3,10.04
	c0.75,4.81,1.02,10.69-2.84,14.29c-5.63,5.73-14.31,5.95-21.83,6.79c-7.65,0.7-15.28,1.65-22.89,2.7c7.15-0.4,14.28-1.06,21.4-1.78
	c7.49-0.86,15.9-0.88,22.09-5.74C1079.64,453.41,1079.82,446.34,1078.75,440.49z M1037.74,454.34c-5.22-0.02-10.42-0.4-15.63-0.76
	c-2.9-0.25-5.81-0.5-8.71-0.75c8.64-0.55,17.27-1.24,25.9-1.9c6.67-0.31,13.33-1.06,20.01-1.07c-3.36,1.53-6.94,2.62-10.19,3.56
	C1045.43,454.48,1041.55,454.37,1037.74,454.34z M1067.78,444.11c-2.17,2.33-4.91,4.09-7.85,5.48c-4.62-0.4-9.27-0.27-13.91,0
	c2.6-0.56,5.15-1.31,7.62-2.36c6.63-2.54,12.68-7.17,15.76-13.55C1070.29,437.29,1070.15,440.95,1067.78,444.11z M1069.52,423.13
	c0.52,0.62,1.03,1.24,1.53,1.87c-0.04,1.11-0.17,2.22-0.42,3.29c-0.28,1.29-0.69,2.51-1.18,3.67c-1.18-3.81-3.31-7.51-5.32-10.54
	c-2.08-2.97-4.31-5.9-7.11-8.24c-4.17-3.45-9.07-5.81-13.93-8.1c-0.74-0.35-1.48-0.7-2.22-1.06c-0.54-0.7-1.11-1.39-1.74-2.02
	c-1.81-1.98-3.97-3.5-6.28-4.79c7.03,2.37,14.03,5.49,20.71,8.76c6.44,2.85,12.34,6.62,16.36,12.41c0.73,1.8,1.09,3.75,1.13,5.7
	c-0.23-0.28-0.45-0.56-0.69-0.84c-3.98-4.79-8.78-8.85-14.33-11.71C1061.15,414.64,1065.62,418.62,1069.52,423.13z"/>
<path class="st5" d="M819.77,508.65c-17.73-0.14-35.34,2.7-53.06,2.74c-10.7,0.44-21.35-0.61-31.86-2.6
	c-6.4-1.16-12.77-2.1-18.84-4.13c-4.72-1.78-10.25-3.6-12.58-8.47c-1.62-3.91-1.14-8.48,0.03-12.46c1.67-3.78,4.25-7.17,7.18-10.07
	c-2.09,1.8-3.96,3.82-5.42,6.17c-1.01,1.41-1.99,2.86-2.38,4.57c-1.53,5.77-1.37,13.13,4.06,16.81c8.17,5.3,18.08,6.61,27.47,8.34
	c9.16,1.66,18.41,2.96,27.75,2.77c19.9,0.24,39.66-3.08,59.56-2.77c18.64,0.13,36.99,3.81,55.11,7.87
	C862.51,512.49,838.1,508.6,819.77,508.65z"/>
<path class="st5" d="M1116.36,467.24c-0.24-1.37-0.67-2.63-1.23-3.8c-0.01-0.08-0.02-0.17-0.04-0.25
	c-0.85-4.11-3.46-7.68-6.32-10.66c-4.31-4.21-9.48-6.79-15.6-6.39c-1.44-0.03-2.94-0.24-4.16-0.64c-0.61-0.16-1.23-0.43-1.49-1.05
	c-1.51-4.6-2.32-9.4-2.24-14.33c-0.3,4,0.27,7.98,1.13,11.88c0.27,1.13,0.37,2.35,1.02,3.35c0.22,0.37,0.58,0.63,0.97,0.78
	c2.23,0.86,4.64,0.88,6.99,0.92c3.37-0.04,6.36,1.2,9.18,3.04c4.08,2.83,7.79,6.76,9.51,11.48c-3.4-5.11-9.73-8.15-15.46-10.14
	c6.04,2.73,13.03,6.19,16.07,12.29c0.75,5.3,0.59,10.67,0.74,16.03c-0.3-1.73-0.84-3.51-1.69-5.34c-1.46-3.22-3.89-5.81-6.32-8.33
	c-3.33-3.67-7.58-6.25-11.79-8.79c6.51,4.5,12.92,9.6,17.12,16.41c5.89,10.64,0.67,20.25-7.8,27.41
	c-5.11,4.4-11.07,7.66-16.92,10.95c-5.24,2.85-10.98,3.91-16.88,4.6c-8.92,0.76-17.88-0.07-26.78-0.71
	c-10.99-0.74-21.95-1.87-32.92-2.83c-23.39-0.6-46.79-0.82-70.16-1.8c-9.38-0.27-20.61-0.26-28.97,0.63
	c5.77,0.11,11.55,0.02,17.32,0.12c12.82,0.1,25.64,0.71,38.45,1.07c14.73,0.48,29.49,0.39,44.21,1c11.79,1.12,23.58,2.21,35.4,3.02
	c8.94,0.6,18.01,1.39,26.91-0.02c3.91-0.66,7.81-1.58,11.46-3.16c5.12-2.63,10.12-5.54,14.86-8.83
	c8.38-5.88,15.61-14.15,14.68-24.01c0.06-3.98,0.22-11.01-0.27-15.89c0.23,0.64,0.43,1.29,0.57,1.98c1.53,6.63,1.74,12.9,1.18,19.69
	c-0.13,1.59-0.3,3.84-0.47,5.6c0.28-2.12,0.56-4.24,0.75-6.38C1118.13,479.85,1117.78,473.46,1116.36,467.24z"/>
<path class="st5" d="M1099.6,486.11c1.31-1.84,1.76-4.07,2.47-6.18c-0.63,1.53-1.03,3.18-1.84,4.62c-1.69,2.75-4.02,5.05-6.4,7.21
	c-3.43,3.04-6.88,6.15-11.01,8.21c-0.27,0.14-0.54,0.27-0.82,0.41c-1.57,0.24-3.14,0.49-4.7,0.74c4.88-2.5,8.61-5.66,11.71-11.46
	c-1.87,2.8-3.96,5.48-6.65,7.53c-2.52,1.86-5.35,3.19-8.23,4.42c-11.45,1.81-22.89,3.62-34.43,4.73
	c-7.23,0.64-14.48,1.14-21.72,1.58c-12.43-0.23-24.93-0.84-37.26-0.8c4.87,0.38,9.75,0.67,14.64,0.91
	c-5.32-0.1-10.58-0.14-15.61-0.02c6.58,0.46,13.18,0.7,19.78,0.91c-7.67,0.38-15.34,0.74-23.01,1.16c-1.63,0.1-3.47,0.19-4.97,0.29
	c1.7,0.04,3.39,0.09,5.09,0.1c11.15,0.06,22.3-0.54,33.43-1.22c0.27,0.01,0.55,0.02,0.82,0.03c9.43,0.27,18.86,0.58,28.3,0.51
	c8.85,0.06,17.75-0.99,26.15-3.76c5.8-1.08,11.67-2.32,16.96-4.91c4.46-0.8,8.91-1.69,13.32-2.73c-3.76,0.51-7.52,1.06-11.27,1.64
	c0.76-0.44,1.5-0.9,2.23-1.41C1091.39,495.03,1096.19,491.11,1099.6,486.11z M1022.25,508.75c1.56,0.01,3.12,0.02,4.69,0.03
	c10.42,0.04,20.84-0.4,31.17-1.69C1046.49,509.52,1034.28,509.09,1022.25,508.75z M1065.07,505.23c-0.73,0.13-1.46,0.25-2.19,0.37
	c-10.55,1.7-21.21,2.21-31.88,2.35c11.05-0.82,22.06-2.14,33.01-3.86c2.23-0.35,4.46-0.69,6.69-1.05
	C1068.86,503.89,1066.98,504.61,1065.07,505.23z M1069.9,504.32c0.31-0.13,0.62-0.25,0.92-0.39c1.28-0.49,2.49-0.98,3.64-1.48
	c1.54-0.25,3.08-0.51,4.62-0.77C1076.11,502.85,1073.02,503.67,1069.9,504.32z"/>
<path class="st5" d="M948.58,477.05c3.31,0.18,6.61,0.37,9.92,0.58c-4.17-0.59-8.36-1.02-12.56-1.37c-1.76-0.49-3.54-0.94-5.31-1.37
	c-8.5-1.95-17.21-2.72-25.86-3.76c-13.03-1.45-26.12-2.18-39.22-2.47c-17.21-0.5-34.41-1.35-51.61-2.17
	c-0.62-0.03-1.24-0.04-1.86-0.06c2.86-0.13,5.73-0.25,8.59-0.35c16.64-0.74,34.12,0.05,50.33-1.32
	c-17.05-0.18-34.09-0.13-51.13,0.41c-7.32,0.29-14.65,0.66-21.97,0.94c-8.12-0.11-16.24-0.19-24.34-0.64
	c-7.03-0.4-14.05-1-21.04-1.88c-4.22-0.78-8.3-1.82-11.83-4.53c-4.89-3.03-8.52-8.56-6.5-14.41c1.14-3.81,3.01-8.39,6.89-10.05
	c-3.72,1.18-5.61,5.19-6.91,8.59c-2.25,5.45-0.38,11.61,4.28,15.14c2.01,1.59,4.12,3.11,6.48,4.12c0.13,0.06,0.27,0.1,0.41,0.16
	c-3.2-0.5-6.39-1.06-9.57-1.7c4.24,1.13,8.52,2.03,12.82,2.75c2.05,0.53,4.16,0.88,6.24,1.26c8.29,1.63,16.72,2.43,25.17,2.5
	c7.18,0.02,14.36-0.22,21.53-0.52c2.26,0.05,4.52,0.1,6.77,0.17c17.48,0.58,34.93,1.75,52.41,2.24c14.68,0.41,29.35,1,43.95,2.69
	c8.88,1.02,17.79,1.99,26.53,3.92c-12.01-0.81-24.07-1.06-36.06-2.12c-6.23-0.56-12.48,0.3-18.72,0.17
	c-8.12-0.9-16.23,0.12-24.36,0.36c-16.06,0.28-32.13-0.08-48.19-0.23c-10.01-0.44-20-1.21-30-1.81c-9.1-0.74-18.11-2.17-27.08-3.82
	c-4.99-1.12-10.36-1.54-14.81-4.21c-4.98-3.67-7.54-9.22-5.06-15.22c-2.72,6.02-0.24,11.95,4.81,15.8c3.89,2.48,8.64,3,13.06,3.96
	c9.46,1.84,18.98,3.36,28.58,4.19c9.92,0.65,19.85,1.33,29.78,1.86c16.47,0.17,32.95,0.53,49.42,0.22
	c7.93-0.27,15.86-1.24,23.78-0.37c5.74,0.1,11.48-0.57,17.22-0.29c13.92,1.13,27.89,1.74,41.83,2.48c3.45,0.78,6.86,1.65,10.18,2.9
	C953.32,478.68,950.97,477.8,948.58,477.05z M790.28,466.49c-4.57-0.04-9.13-0.28-13.67-0.75c5.03,0.37,10.08,0.59,15.14,0.74
	C791.25,466.48,790.77,466.49,790.28,466.49z"/>
<path class="st5" d="M948.44,435.6c-6.11-1.67-12.4-2.44-18.64-3.43c-6.52-0.91-13.05-1.85-19.62-2.29
	c-13.19-0.6-26.38,0.28-39.54,1.01c-18.62,1.11-37.25,0.05-55.88-0.26c16.49,1.59,33.1,1.85,49.65,1.34
	c12.59-0.5,25.15-1.56,37.76-1.45c15.57,0.02,31,2.99,46.31,5.59c2.02,0.5,4.3,1.06,6.17,1.54
	C952.59,436.91,950.52,436.25,948.44,435.6z"/>
<path class="st5" d="M907.09,305.59c-5.75-0.14-11.63,0.19-17.06,2.24c-7.29,3.27-9,9.81-5.62,16.79c0.44,1.12,0.99,2.38,1.47,3.38
	c-0.66-1.56-1.21-3.17-1.8-4.75C878.63,308.24,896.39,306.16,907.09,305.59z"/>
<path class="st5" d="M706.4,456.59c-0.3,0.09-0.59,0.19-0.89,0.28c1.52-0.98,3.13-1.82,4.84-2.45c-2.46,0.65-4.71,1.75-6.8,3.15
	c-6.04,2.42-11.1,6.74-12.74,13.37c-0.19,0.52-0.37,1.01-0.56,1.5c-0.73,1.22-1.36,2.5-1.82,3.85c0.04,2.37,1.43-0.89,2.47-3.67
	c1.34-2.16,2.96-4.17,4.47-6.2c2.03-2.49,4.26-4.94,6.74-7.04c1.31-0.62,2.67-1.17,4.03-1.63c4.61-1.15,10.63-1.6,15.62-1.15
	C716.75,455.64,711.43,455.63,706.4,456.59z M695.06,465.7c-1.05,1.42-2.16,2.84-3.19,4.3c0.1-0.28,0.16-0.47,0.18-0.54
	c1.36-3.88,4.18-6.68,7.58-8.74C697.98,462.26,696.45,463.96,695.06,465.7z"/>
<path class="st5" d="M754.21,418.08c-6.88,0.97-13.91,2.58-19.18,7.37c-7.16,6.43-14.03,15.01-14.4,25.01
	c-0.06,1.07-0.04,2.12-0.09,3.23c-0.01,0.33,0.06,0.88,0.38,0.84c0.7-1.77,0.9-3.8,1.5-5.64c0.95-3.24,2.48-6.29,4.46-9.03
	c4.19-6.06,9.86-10.34,15.72-14.52c6.13-4.25,12.87-7.83,20.22-9.38C759.85,416.3,756.98,417.04,754.21,418.08z M740.31,425.98
	c-5.39,3.81-10.49,8.18-14.18,13.71c-2.36,3.38-3.95,7.25-4.81,11.27c-0.11,0.48-0.22,0.95-0.33,1.43c0.06-2.2-0.02-5.36,0.94-7.53
	c3.21-8.84,9.65-16.66,17.66-21.58c4-2.29,8.46-3.46,12.92-4.52C748.15,420.59,744.08,423.13,740.31,425.98z"/>
<path class="st5" d="M779.75,394.16c3.86-1,7.81-1.67,11.77-2.14c-3.48,0.1-6.95,0.47-10.38,1.06c-3.08,0.38-5.81,2.18-7.79,4.53
	c-1.4,1.94-2.31,4.17-3.22,6.38c-1.12,2.08-1.93,4.34-2.53,6.62c-0.43,1.64-0.46,3.68-0.33,5.18c0,0.2,0.07,0.59,0.34,0.51
	c0.36-0.39,0.14-1.03,0.24-1.52c0.07-0.56,0.24-2.65,0.49-3.75c0.49-2.31,1.47-4.69,2.47-7.02c0.25-0.47,0.5-0.94,0.78-1.4
	c1.74-2.34,3.99-4.25,6.14-6.2c0.32-0.29,0.73-0.63,1.01-0.87c-0.58,0.41-1.15,0.83-1.72,1.25c-1.72,1.38-3.49,2.75-4.97,4.39
	C773.62,397.86,776.24,395.34,779.75,394.16z"/>
<path class="st5" d="M806.24,375.44c1.12-1.38,2.41-2.59,3.92-3.48c3.59-2.22,7.79-3.06,11.86-3.97c-0.49,0.06-1.06,0.12-1.58,0.18
	c-5.3,0.57-11.17,1.9-14.51,6.42c-0.54,0.78-1.07,1.6-1.59,2.46c-0.76,0.71-1.47,1.46-2.1,2.3c-1.49,2.2-2.75,4.8-2.8,7.5
	c0.03,0.36,0.32,0.87,0.74,0.62c1.06-1.23,1.17-2.99,1.85-4.49c0.67-1.68,1.49-3.41,2.48-5.05c0.88-0.85,1.83-1.64,2.77-2.39
	c3.07-2.41,6.24-4.85,9.97-6.11c-2.9,0.66-5.5,2.17-7.96,3.8C808.28,373.95,807.24,374.67,806.24,375.44z M800.89,384.64
	c-0.21,0.67-0.63,1.88-0.95,1.86c0.08-1.04,1.06-4.12,2.19-5.75c0.21-0.32,0.44-0.63,0.68-0.93
	C802.03,381.36,801.36,382.97,800.89,384.64z"/>
<path class="st5" d="M850.97,348.71c1.7-1.85,4.05-3.09,6.41-3.96c-3.79,0.85-6.06,2.55-7.89,5.03c-2.31,1.83-4.15,4.22-5.02,7.09
	c-0.21,0.66-0.81,1.63-0.29,2.43c0.3,0.32,0.61,0.06,0.83-0.2c0.67-0.72,0.96-1.7,1.39-2.56c0.97-2.15,2.15-4.21,3.36-6.24
	c0.22-0.36,0.46-0.71,0.72-1.04c0.62-0.51,1.27-0.99,1.95-1.41C851.93,348.12,851.45,348.41,850.97,348.71z M846.83,354.28
	c-0.83,1.37-1.19,3.18-2.24,4.22c-0.06,0.04-0.1,0.04-0.14,0.03c0.61-2.78,2.18-5.45,4.28-7.65
	C848.08,351.9,847.46,353.03,846.83,354.28z"/>
<path class="st5" d="M872.69,322.02c-1.6,0.16-3.2,0.36-4.79,0.58c1-0.47,2.01-0.9,3.02-1.3c-0.27,0.08-0.53,0.15-0.8,0.23
	c-1.08,0.31-2.25,0.74-3.44,1.27c-0.64,0.1-1.29,0.19-1.93,0.3c-3.53,0.47-7.66,1.65-9,5.34c-1.39,3.91-1.08,8.37,0.01,12.31
	c0.22,0.31,0.33,0.44,0.62,0.11c0.68-1.25,0.33-2.75,0.13-4.09c-0.19-1.3-0.51-2.33-0.17-3.31c1.41-4.04,5.36-7.06,8.96-9.47
	c0.46-0.28,0.93-0.54,1.41-0.79C868.72,322.8,870.76,322.48,872.69,322.02z M855.67,334.43c0.01,1.85,0.91,3.96,0.53,5.39
	c-0.03,0.12-0.04,0.18-0.07,0.23c-0.02,0.03-0.02,0.03,0,0c-0.01,0.01-0.03,0.03-0.01,0.01c-0.02,0.01-0.02,0.01-0.03,0.02
	c-0.67-2.14-0.86-5.28-0.7-7.77c0.14-2.16,0.88-4.6,2.78-6.08c2.1-1.41,4.53-2.18,7.04-2.73
	C860.61,325.85,856.16,329.68,855.67,334.43z"/>
<g>
	<path class="st5" d="M893.31,298.09c0.1,0.01,0.19,0.01,0.29,0.03C893.5,298.1,893.4,298.09,893.31,298.09z"/>
	<path class="st5" d="M890.12,299.27c-5.1,2.95-8.15,8.22-10.94,13.22c-0.38,0.48-0.64,1.09-1.12,1.48
		c-1.64,0.98-3.64,1.11-5.37,1.92c-0.95,0.43-1.93,0.95-2.82,1.41c1.27-0.49,2.52-1.05,3.84-1.38c1.45-0.41,3.02-0.47,4.38-1.14
		c1.59-1.32,2.38-3.39,3.5-5.09c2.43-3.9,5.53-8.46,9.97-10.87c0.55-0.29,1.12-0.71,1.75-0.71
		C892.19,298.02,891.12,298.84,890.12,299.27z"/>
</g>
<path class="st5" d="M897.48,287.02c-0.12-0.21-0.26-0.45-0.4-0.67c-0.24-0.64-0.73-1.22-0.74-0.24c0.05,0.25,0.25,0.46,0.42,0.67
	c0.06,0.2,0.07,0.43,0.06,0.73c-0.1,0.78-0.24,2.1-0.54,2.95c-0.09,0.26-0.33,0.68-0.58,0.96c-1.71,1.97-3.58,3.81-4.98,6.03
	c1.63-2.28,3.99-3.92,5.65-6.15c0.55-1.2,0.76-2.57,0.81-3.9c0.38,0.61,0.57,1.23,0.66,2c0.42,1.56-1.72,4-2.23,4.81
	c0.97-1.11,2.02-2.29,2.45-3.72C898.23,289.33,898.04,288.04,897.48,287.02z"/>
<path class="st5" d="M922.88,308.24c-1.89-1.15-3.73-2.44-5.78-3.31c-2.59-0.78-5.2-1.48-7.76-2.65c-1.93-0.74-3.39-2.23-5.05-3.4
	c-2.25-1.51-4.84-2.27-7.5-2.6c2.7,0.58,5.28,1.56,7.51,3.22c1.61,1.28,3.08,2.82,5.04,3.58c2.48,1.15,5.14,1.76,7.77,2.43
	c2.02,0.76,3.87,1.88,5.78,2.87c0.45,0.26,0.99,0.55,1.4,0.76C923.81,308.85,923.34,308.54,922.88,308.24z"/>
<path class="st5" d="M985.05,366.75c-0.14-1-0.3-2-0.51-2.99c-0.67-2.86-2.15-5.33-3.92-7.64c-1.37-2.63-2.12-5.46-2.75-8.36
	c-1.38-4.65-5.75-7.18-9.53-9.72c-7.22-4.63-15.25-8.31-23.77-9.63c6.75,1.55,13.15,4.46,19.25,7.73c2.5,1.36,4.88,2.93,7.21,4.56
	c1.63,1.17,3.36,2.26,4.56,3.91c1.82,2.11,2.27,4.85,2.87,7.47c0.23,0.85,0.55,1.67,0.91,2.48c-1.1-1.32-2.24-2.59-3.34-3.85
	c-0.65-0.76-1.32-1.51-2-2.25c-0.11-0.17-0.22-0.34-0.33-0.5c-2.04-3.48-4.63-6.54-7.87-8.97c-1.99-1.62-4.11-3.43-6.64-4.05
	c-0.83-0.16-0.86,0.83-0.37,1.26c5.65,3.75,10.56,8.18,15.12,13.08c1.01,1.57,1.99,3.11,2.91,4.46c1.57,2.42,3.04,4.92,4.71,7.27
	c0.19,0.28,0.53,0.65,0.87,0.34c0.32-0.39,0.17-0.95,0.03-1.38c-0.14-0.38-0.3-0.75-0.48-1.12c1.42,2.13,2.51,4.44,2.87,6.99
	C984.95,366.15,985,366.56,985.05,366.75z M959.25,335.72c-0.01,0-0.01-0.01-0.02-0.01c0.27,0.02,0.54,0.11,0.8,0.21
	c3.88,1.9,7.26,4.85,10.2,7.99c0.59,0.75,1.18,1.56,1.75,2.38C968.11,342.35,963.87,338.77,959.25,335.72z M981.12,358.14
	c0.4,0.7,1.02,2.23,1.14,2.52c-0.08,0.04-0.18,0.02-0.24-0.05c-0.33-0.37-0.6-0.79-0.88-1.2c-1.58-2.43-3.26-5.07-4.96-7.69
	c0.86,0.98,1.72,1.97,2.57,2.98c0.54,0.6,1.06,1.22,1.57,1.85C980.58,357.08,980.85,357.61,981.12,358.14z"/>
<path class="st5" d="M1054.92,399.91c-4.12-3.37-8.3-6.86-13.19-9.05c-6.17-2.7-12.86-3.99-19.31-5.85
	c-5.75-1.28-11.2-3.11-16.88-4.88c-7.19-2.09-14.21-4.66-21.03-7.76c6.66,3.66,13.69,6.48,20.99,8.54c6.48,2.11,13,4.04,19.63,5.61
	c4.92,1.52,10.54,2.61,15.47,4.68c5.22,2.17,9.75,5.66,14.3,8.97c0.85,0.62,1.86,1.39,2.59,1.92
	C1056.64,401.36,1055.78,400.63,1054.92,399.91z"/>
</svg>
