<?xml version="1.0" encoding="utf-8"?>
<!-- Generator: Adobe Adobe Illustrator 24.2.0, SVG Export Plug-In . SVG Version: 6.00 Build 0)  -->
<svg version="1.1" xmlns="http://www.w3.org/2000/svg" xmlns:xlink="http://www.w3.org/1999/xlink" x="0px" y="0px" width="1920px"
	 height="1080px" viewBox="0 0 1920 1080" style="enable-background:new 0 0 1920 1080;" xml:space="preserve">
<style type="text/css">
	.st0{fill:#FFFFFF;stroke:#FFFFFF;stroke-miterlimit:10;}
	.st1{fill:#3B2514;stroke:#FFFFFF;stroke-miterlimit:10;}
	.st2{fill:#FFFFFF;}
	.st3{fill:#A6A6A6;}
	.st4{fill:none;}
	.st5{stroke:#B0B0B0;stroke-miterlimit:10;}
	.st6{fill:#3B2514;}
	.st7{fill:#6A5246;}
	.st8{fill:#5C504A;}
</style>
<g id="Layer_1">
	<g id="Layer_3">
		<path class="st0" d="M1386.06,475.71c-0.59,12.36,0.75,24.73,0.16,37.1c0.02-0.34,0.05-0.75,0.07-1
			c-0.11,1.58-0.21,3.16-0.31,4.74c-0.85,10.82-2.87,21.45-4.82,32.11c-1.04,8.95-1.55,17.95-2.82,26.88
			c-0.5,3.87-1.05,7.73-1.7,11.58c0.64-1.93,1.25-3.87,1.85-5.81c2.76-9.02,5.18-22,6.35-29.5c1.38-5.88,4.4-17.72,4.74-25.86
			C1391.52,509.08,1387.86,492.41,1386.06,475.71z"/>
		<path class="st1" d="M729.08,733.18c-3.01-14.35-4.78-28.9-6.23-43.48c-1.45-11.89-3.46-23.73-6-35.44
			c-2.55-10.69-8.11-30.79-9.47-36.7c-1.38-6.36-1.67-8.21-2.83-15.55c-1.16-7.68-2.5-15.35-3.13-23.09
			c-0.49,7-0.23,14.02-0.11,21.03c0.27,8.37,0.66,16.75,2.01,25.02c2.66,17.88,5.67,29.22,7.69,39.43c-0.13-0.63-0.41-1.94-0.32-1.5
			c1.66,8.15,3.22,16.33,5.06,24.44c0,0.01,0,0.02,0.01,0.03c2.9,15.33,5.77,30.76,11.72,45.26c0.76,1.97,1.81,5.01,2.75,7.72
			C729.86,737.97,729.51,735.57,729.08,733.18z"/>
		<path class="st2" d="M1387.1,487.73c-0.62-1.46-1.23-2.35-1.81-2.82c0.14-3.81,0.34-7.62,0.52-11.43
			c0.03-0.34,0.06-0.68,0.08-1.02c0.14-2.17,0.51-4.37-0.15-6.49c-0.92-3.01-2.55-3.39-3.78-2.27c-0.18-1.42-0.51-2.82-1.16-4.12
			c-0.62-1.29-1.41-1.67-2.16-1.53c-0.08-0.63-0.18-1.27-0.27-1.9c-0.07-0.54-0.13-1.09-0.24-1.62c-0.04-0.41-0.27-1.03-0.76-0.86
			c-0.69,0.59-0.37,1.56-0.37,2.34c0.05,1.02,0.08,2.05,0.11,3.07c-0.48,0.58-0.87,1.34-1.07,2.11c-1.31,5.62-1.01,12.03-0.64,19.77
			c0.06,0.98,0.18,1.96,0.33,2.92c-0.37,6.41-0.59,12.83,0,19.22c0.1,0.7,0.35,2.06,0.76,3.43c-0.59,2.8-1.1,5.62-1.35,8.46
			c0,0.35,0.02,0.66,0.03,0.99c-0.48,3.42-0.91,6.86-1.54,10.23c-1.96,9.14-4.1,19.34-5.88,28.89c-1.53,7.98-3.1,15.97-4.14,24.03
			c-0.53,1.41-0.68,3.04-1.12,4.44c-0.82,3.87-1.62,7.76-2.4,11.64c-0.23,1.29-0.48,2.57-0.74,3.85c-0.76,3.54-1.44,7.11-2.18,10.64
			c-0.2,1.68-0.85,4.49-1.24,7.37c-1.03,2.65-2.04,5.31-2.98,7.99c-0.05,0.09-0.1,0.18-0.15,0.27c-0.74,1.72-1.52,3.43-2.25,5.16
			c-2.87,6.48-5.49,13.08-8.37,19.55c-0.3,0.62-0.59,1.25-0.88,1.87c-1.12,2.09-2.16,4.21-2.77,6.47c-0.01,0.06-0.02,0.11-0.03,0.17
			c-0.21,0.56-0.42,1.12-0.62,1.68c-0.23,0.55-0.44,1.11-0.61,1.68c-0.03,0.1-0.07,0.2-0.11,0.3c0.01,0.01,0.01,0.01,0.02,0.02
			c-0.13,0.49-0.25,0.98-0.33,1.48c-0.79,1.21-1.59,2.45-2.59,3.92c-0.68,0.26-1.09,1-1.56,1.56c-1.45,1.92-2.86,3.88-4.29,5.81
			c-2.27,2.95-4.48,5.96-6.71,8.94c-0.38,0.3-0.76,0.61-1.16,0.89c-3.89,2.75-7.12,6.27-9.87,10.14c-0.65,0.83-1.3,1.71-1.88,2.61
			c-1.31,1.06-2.59,2.07-3.85,3.03c-3.24,1.91-6.41,3.95-9.45,6.18c-0.51,0.42-1.07,0.81-1.63,1.21c-1.37,0.65-2.76,1.27-4.18,1.83
			c-3.75,1.38-7.65,2.28-11.49,3.36c-3.04,0.8-6.12,1.41-9.19,2.11c-1.64,0.58-3.89,0.47-5.09,1.8c-0.04,0.01-0.07,0.01-0.11,0.02
			c-4.84,0.88-5.73,1.09-9.57,2.23c-1.35,0.45-2.77,0.84-4,1.55c-0.67,0.01-1.34,0.11-2.01,0.38c-0.42,0.22-0.77,0.5-1.08,0.81
			c-0.61-0.25-1.22-0.49-1.83-0.72c-3.69-1.41-7.4-2.73-11.16-3.95c-0.11-0.03-0.21-0.06-0.32-0.09c-1.89-1.52-3.85-2.98-5.91-4.26
			c-0.65-0.47-1.49-1.04-2.38-1.44c-0.68-0.81-1.4-1.6-2.08-2.35c-0.81-0.95-1.62-1.89-2.42-2.83c-2.18-3.81-4.47-7.57-6.47-11.48
			c-0.74-1.5-1.52-2.98-2.24-4.49c-0.54-1.08-0.88-2.39-1.89-3.13c-0.21-0.2-0.43-0.33-0.64-0.41c-0.4-0.89-0.77-1.8-1.14-2.7
			c-0.03-0.08-0.06-0.16-0.09-0.25c0,0,0,0,0,0l0,0c0,0,0,0,0,0c-0.24-0.86-0.67-1.73-1.44-2.21c-3.15-0.99-3.43,5.38-2.67,7.3
			c0.55,2,1.12,3.86,1.72,5.66c0.13,0.98,0.35,1.94,0.64,2.87c0.16,0.49,0.33,0.98,0.51,1.47c-0.31,2.2,0.04,4.7,0.74,6.04
			c2.01,3.7,4.47,7.13,7.13,10.41c0.23,0.41,0.45,0.83,0.68,1.24c0.14,0.28,0.27,0.56,0.41,0.84c0.97,1.81,1.87,3.66,2.94,5.42
			c0.89,1.33,1.75,3.07,3.48,3.32c0.06-0.01,0.11-0.04,0.17-0.06c0.47,0.44,0.94,0.88,1.45,1.29c0.71,0.26,1.32,0.29,1.87,0.18
			c3.44,3.6,8.11,8.04,11.34,7.01c0.5-0.36,0.93-0.8,1.29-1.27c0.53,0.15,1.07,0.3,1.59,0.46c1.4,0.42,2.82,0.75,4.25,0.99
			c0.81,0.15,1.62,0.28,2.43,0.4c0.73,0.93,1.63,1.72,2.73,2.29c5.16,1.96,10.56,0.34,15.76-0.59c0.09,0,0.18,0,0.27-0.01
			c5.94-0.01,11.73-1.58,17.31-3.5c0.8-0.61,1.37-1.49,1.77-2.49c0.53,0.45,1.33,0.04,2.23-0.44c0.72-0.12,1.44-0.24,2.15-0.4
			c0.79,0.9,1.91,1.14,3.26-0.27c0.05-0.05,0.1-0.09,0.15-0.14c1.55-1.02,3.09-2.05,4.62-3.1c1.6,1.97,3.53-0.05,5.64-1.78
			c1.11-0.94,2.18-1.93,3.22-2.95c0.67,0.74,1.57,1.1,2.69,0.45c4.5-3.52,7.94-8.19,11.54-12.58c1.15-1.41,2.33-2.81,3.51-4.2
			c6.14-6.4,11.45-13.54,16.6-20.76c1.44-2.06,2.84-4.14,4.18-6.26c0.36-0.08,0.71-0.31,1.05-0.73c0.73-1.01,1.34-2.09,1.87-3.21
			c0.3,0.02,0.59-0.05,0.85-0.21c1.61,1.19,3.22-1.23,3.6-3.21c0.06-0.1,0.13-0.2,0.19-0.31c1.23-2.41,1.64-5.09,2.28-7.69
			c0.16-0.6,0.31-1.21,0.47-1.81c1.79-1.98,2.59-4.77,3.52-7.24c1.42-4.33,2.51-8.76,3.81-13.12c1.22-4.24,2.46-8.47,3.96-12.63
			c1.04-2.57,1.72-5.36,1.28-8.12c1.45-3.69,3.04-7.55,4.97-12.57c0.89-2.8,2.08-5.74,1.33-8.71c-0.11-1.21-1.03-2.93-2.15-3.28
			c0.51-1.38,0.9-2.81,0.99-4.26c0.26-0.49,0.46-0.99,0.56-1.43c0.18-0.44,0.52-2.09,0.63-2.65c0.75-3.15,1.26-6.35,1.7-9.56
			c0.89-0.84,1.53-2.53,1.66-3.97c2.6-12.49,4.22-34.12,6.08-49.74c0.21-2.09,0.46-4.17,0.72-6.26c0.11-0.48,0.23-0.99,0.36-1.57
			c0.68-3.14,2.07-6.48,1.13-9.67c0.19-1.37,0.38-2.75,0.56-4.12C1386.54,497.66,1388.25,492.63,1387.1,487.73z"/>
		<path class="st2" d="M1105.87,493.44c-1.91,0.24-3.04,2.51-3.39,5.15c-4.81-4.1-9.4-8.48-14.63-12.05
			c4.43,4.68,9,9.44,14.56,12.75c-0.29,3.69,0.86,7.81,3.46,8.15C1110.55,506.87,1110.54,494.04,1105.87,493.44z"/>
		<path class="st3" d="M1119.63,373.77c-18.59-5.88-37.68-9.97-56.89-13.26c-18.64-3.5-37.42-6.34-56.37-7.42
			c-8.95-0.71-17.86-1.82-26.83-2.29c-8.17-0.4-16.32-1.41-24.5-1.62c-13.47,0.2-26.93,0.99-40.39,1.5
			c-10.61,1.15-21.15,2.8-31.76,4.01c-7.68,1.05-15.35,2.29-22.92,3.99c0.47-0.03,0.94-0.07,1.41-0.09
			c10.31-0.52,20.63-0.41,30.95-0.31c7.56-0.07,15.11-0.33,22.66-0.42c7.48,0.37,14.96,0.66,22.45,0.87
			c11.35-0.21,22.67,0.35,33.97,1.45c16.73,0.82,33.37,2.78,50.09,3.76c10.95,1.2,21.84,2.92,32.78,4.27
			c16.25,2.17,32.57,3.81,48.8,6.18c13.59,2.47,27.34,4.36,40.76,7.65C1136,378.66,1127.72,376.46,1119.63,373.77z"/>
	</g>
	<g id="Layer_2">
		<g>
			<path class="st2" d="M1208.6,621.8c0.04-0.46,0.08-0.99,0.07-1.27C1208.65,620.95,1208.62,621.37,1208.6,621.8z"/>
			<g>
				<path class="st2" d="M1236.38,540.92c0.04-0.54,0.09-1.15,0.09-1.38C1236.45,540,1236.41,540.46,1236.38,540.92z"/>
				<g>
					<path class="st2" d="M1145.67,485.54c-0.03-0.01-0.06-0.01-0.1-0.02c0.11,0.03,0.21,0.05,0.29,0.07
						C1145.8,485.58,1145.73,485.56,1145.67,485.54z"/>
					<path class="st2" d="M1391.43,479.23c-0.05-0.64-0.1-1.27-0.14-1.91c-0.06-0.9-0.11-1.79-0.17-2.69
						c0.03,0.44,0.06,0.9,0.08,1.16c-0.15-2.01-0.19-4.03-0.21-6.05c-0.21-8.02-1.45-16.21-5.03-23.46
						c-0.97-1.76-1.93-3.54-2.91-5.3c-3.56-10.06-8.14-18.99-12.04-14.83c-0.39-0.31-0.76-0.64-1.15-0.94
						c-1.75-1.22-1.87-1.92-6.05-4.62c-3.77-1.94-9.14-4.01-13.26-4.86c-8.34-2.17-16.75,0.8-25.01,1.98
						c-6.64,1.32-13.31,2.48-19.98,3.63c-6.81,1.31-13.57,2.91-20.41,4.02c-6.4,1.18-12.76,2.76-19.29,2.97
						c-0.23,0.01-0.46,0.02-0.69,0.03c-0.01-0.02-0.02-0.05-0.03-0.07c-0.97-1.95-3.32-2.38-5.23-2.94
						c-0.58-0.14-1.23-0.28-1.9-0.41c-2.69-1.3-5.37-2.64-8.09-3.87c-0.43-0.2-0.86-0.39-1.28-0.58c-0.11-0.39-0.24-0.79-0.4-1.17
						c-0.01-0.27-0.02-0.52-0.05-0.73c-0.07-1.64-0.4-3.38-1.36-4.73c-2.66-4.04-5.5,0.72-5.69,3.77c-0.1,0.89-0.22,1.79-0.34,2.68
						c-0.09,0.22-0.16,0.45-0.24,0.68c0.05-1.91,0.02-3.81-0.16-5.69c-0.02-1.56-0.08-3.11-0.16-4.67c0.03-0.14,0.06-0.28,0.08-0.41
						c0.68-3.17,1.03-6.43,0.92-9.67c-0.02-0.93-0.08-1.89-0.28-2.81c0.04-0.92,0-1.83-0.2-2.69c1.05-0.61,2.06-1.29,2.97-2.11
						c2.24-2.5,2.11-6.61,0.83-9.55c-0.92-2.06-3.22-2.37-5.23-2.11c-0.36-0.88-0.9-1.65-1.74-2.21c-0.11-0.05-0.23-0.09-0.34-0.13
						c-3.23-4.13-9.56-3.91-14.39-3.98c-2.49,0.19-5.5-0.06-7.82,1.03c-0.85-0.1-1.7-0.2-2.55-0.3c-0.28-1.23-0.73-2.32-1.32-3.07
						c-0.66-0.94-1.79-0.91-2.81-1.01c-1.64-0.14-3.28-0.29-4.91-0.46c-9.96-1.4-19.95-2.59-29.89-4.1
						c-5.82-0.85-11.59-2.07-17.36-3.21c-1.87-0.36-3.71-0.82-5.57-1.24c-1.05-0.2-2.32-0.77-3.19,0.13
						c-0.73,0.7-1.19,1.58-1.5,2.54c-0.9-0.09-1.8-0.17-2.7-0.23c-1.3-0.17-2.47-0.31-3.49-0.09c-1.35-0.2-2.69-0.39-4.04-0.57
						c-3-0.72-5.78-1.4-8.49-2.08c-0.12-0.6-0.22-1.21-0.36-1.8c-0.28-1.3-1-4.34-1.05-6.69c-0.31,2.73-0.17,5.48,0.24,8.2
						c-5.25-1.32-10.34-2.63-16.5-4.07c-2.13-0.31-4.63-1.29-6.73-0.63c-0.64-0.21-1.29-0.42-1.92-0.65
						c-0.74-1.33-2.35-1.75-3.68-2.32c-1.93-0.75-3.93-1.35-5.99-1.65c-0.92-0.07-2.03-0.42-2.75,0.28
						c-0.08-0.13-0.16-0.26-0.25-0.39c-1.31-1.57-3.86-1.1-5.7-1.43c-6.14-0.44-12.26-1.16-18.4-1.5c-0.34-0.03-0.68-0.06-1.02-0.09
						c-0.22-0.04-0.45-0.07-0.66-0.08c-0.05-0.01-0.1-0.01-0.15-0.02v0.02c-0.03,0-0.07,0-0.1,0c-1.52-0.11-3.04-0.15-4.55,0.19
						c-0.48,0.01-0.88,0.16-1.21,0.45c-1.27-0.21-2.74-0.41-4.47-0.64c-8.31-1.61-16.71-2.61-25.15-3.24
						c-0.88-0.25-1.94-0.28-3.24-0.29c-3.38-0.34-6.76-0.81-10.15-1.11c-1.92-0.12-4.51-0.77-6.11,0.4
						c-2.33-0.13-4.66-0.26-6.99-0.41c-2.11-0.08-4.2-0.39-6.31-0.46c-0.46,0-0.97-0.04-1.44,0.01c-0.08-0.2-0.16-0.38-0.24-0.55
						c-0.57-0.96-1.23-2.03-2.48-2.05v0c-7.1-1.3-18.66-1.92-28.73-1.74c-2.36,0.01-4.73,0-7.09,0.05
						c-0.56,0.01-1.02,0.21-1.37,0.61c-0.21,0.16-0.4,0.35-0.58,0.57c-0.71,0.05-1.42,0.1-2.13,0.15c-1.37,0.02-3-0.09-4.16,0.74
						c-0.84,0.13-1.68,0.29-2.51,0.51c-1.81,0.33-2.8,1.95-3.27,3.93c-0.23,0-0.46,0-0.7,0c-1.73-0.08-3.46-0.16-5.18-0.24
						c-6.56-0.22-13.13-0.36-19.7-0.49c-3.13-0.01-6.26-0.02-9.39-0.02c-1.65,0.03-3.32,0.06-4.9,0.57
						c-0.57,0.12-1.13,0.32-1.57,0.65c-0.34-0.27-0.72-0.45-1.14-0.51c-7.6,0.29-15.21,0.65-22.79,1.21c-0.67,0.01-1.33,0.02-2,0.05
						c-5.43,0.32-10.86,0.77-16.27,1.32c-6.97,0.73-13.95,1.42-20.9,2.32c-1.75,0.2-3.5,0.41-5.24,0.66
						c-0.85,0.17-1.48,0.7-1.94,1.43c-9.22,1.18-18.43,2.37-27.64,3.61c-5.68,0.84-11.33,1.86-16.97,2.93
						c-1.17,0.17-2.33,0.36-3.49,0.55c-0.45-1.23-1.77-1.5-2.96-1.31c-0.02-0.04-0.03-0.07-0.05-0.11
						c-0.97-2.24-3.03-2.22-5.12-1.83c-0.08,0.01-0.16,0.03-0.24,0.05c-0.32-0.08-0.58-0.14-0.72-0.17
						c-6.05-1.21-16.01-1.45-19.23,4.56c-10.94,1.8-21.81,3.94-32.58,6.57c-3.79,0.93-7.55,1.98-11.33,2.98
						c-1.27,0.47-2.84,0.66-4.05,1.34c-0.06,0.01-0.13,0.02-0.19,0.04c-0.48,0.08-0.95,0.17-1.43,0.26c-0.9-1.6-1.99-2.05-2.99-1.74
						c-0.81-0.44-1.63-0.25-2.34,0.33c-0.62-0.05-1.22,0.24-1.76,0.79c-1.22-0.2-2.45,0.9-3.25,2.58c-0.7-0.31-1.44-0.23-2.21,0.44
						c-0.04-0.12-0.08-0.23-0.11-0.35c-0.69-1.84-1.27-3.99-2.96-5.16c-0.63-0.32-1.2-0.29-1.7-0.05c-0.8-0.1-1.6,0.37-2.24,1.27
						c-0.07,0.06-0.15,0.12-0.22,0.18c-0.93-0.29-1.93,0.18-2.89,1.96c-0.73,1.51-0.99,3.12-1,4.75c-0.17,0.03-0.33,0.11-0.49,0.22
						c-0.28,0.14-0.57,0.4-0.86,0.84c-0.99,1.5-0.97,3.47-0.76,5.19c0.27,1.6,2.01,10.72,4.38,13.76c0.14,0.3,0.29,0.6,0.44,0.9
						c-0.39,2.33-0.36,4.69-0.37,7.04c0.2,2.17,0.05,10.79,1.7,14.74c-0.01,0.01-0.02,0.03-0.02,0.04c-0.23,0.58-0.4,1.17-0.55,1.77
						c-0.46,0.73-0.8,1.71-0.91,2.83c-0.18,1.43-0.38,2.87-0.57,4.32c-0.53,1.93-0.73,4.38-0.78,6.79
						c-0.09,1.14-0.15,2.28-0.17,3.42c-0.51,2.49-0.49,5.13-0.77,7.64c-0.07,0.89-0.12,2.08-0.06,3.33
						c-0.11,1.5-0.29,2.22-0.33,7.15c0.03,0.53,0.07,1.08,0.11,1.64c-0.11,2.43-0.14,4.85,0.07,7.27c-0.02,0.53-0.04,1.07-0.06,1.6
						c0.01,1.67,0,3.41,0.29,5.07c-0.04,1.17-0.07,2.35-0.14,3.5c-0.04,2.24-0.03,4.49,0.23,6.72c-0.09,1.73,0.02,3.48-0.03,4.81
						c0.04,0.69,0.07,1.39,0.11,2.09c0.02,2.1,0.05,4.21,0.15,6.31c0.18,2.82-0.11,5.96,1.02,8.58c-0.16,1.52-0.15,3.06-0.06,4.59
						c-0.01-0.2-0.03-0.4-0.04-0.6c0.01,0.25,0.02,0.49,0.03,0.74c0.2,5.7,0.83,11.37,1.54,17.03c0.24,1.28,0.43,3.02,1.05,4.39
						c0.1,0.79,0.18,1.58,0.21,2.34c0.37,2.69,0.33,5.52,1.49,8.02c0.11,0.22,0.22,0.42,0.35,0.6c-0.82,1.95-0.97,4.26-1.03,6.3
						c0.05,2.06,0.38,4.09,0.8,6.1c0.74,3.95,1.49,7.91,2.23,11.86c0.23,1.46,0.44,2.93,0.64,4.4c0.01,1.52,0.13,3.04,0.23,4.54
						c0,0.05,0.01,0.1,0.01,0.15c0.01,0.11,0.01,0.21,0.02,0.32c0,0.02,0,0.03,0,0.05c0.11,1.74,0.26,3.47,0.44,5.2
						c0.15,1.49,0.32,2.98,0.52,4.47c0.34,2.71,0.7,5.41,1.01,8.12c0.8,5.01,1.03,10.2,2.1,15.17c0.16,2.29,0.33,4.58,0.49,6.87
						c0.2,1.77,0.75,3.34,1.5,4.47c0.02,0.2,0.04,0.4,0.05,0.61c-0.79,4.11-0.2,8.34,0.39,12.46c1.21,8.16,2.2,16.36,3.65,24.48
						c0.4,1.57,1.13,2.78,1.99,3.51c0.08,2.08,0.26,4.16,0.55,6.24c0.75,11.37,1.68,22.72,3.09,34.03c1.1,8.92,2.6,17.62,4.6,26.41
						c0.09,2.22,0.35,4.43,0.71,6.61c0.06,0.48,0.13,0.96,0.19,1.44c0.07,0.57,0.14,1.14,0.23,1.71c0.03,0.2,0.05,0.4,0.08,0.6
						c0.56,4.65,1.21,9.31,2.86,13.7c0.53,5.21,1.31,10.38,2.26,15.52c-0.77,1.99-1.54,3.99-2.31,5.98
						c-3.54,12.19-2.25,25.14,0.41,37.38c2,8.74,2.88,18.28,8.78,25.44c1.39,1.88,3.19,3.11,5.13,3.7c0.42,1.34,0.83,2.68,1.26,4.01
						c-0.72,1.94-1.12,4.07-1.55,6c-0.56,4.21-0.33,8.56,0.83,12.65c0.07,0.17,0.13,0.35,0.19,0.52c0.07,0.22,0.15,0.44,0.19,0.66
						c1.25,4.21,3.03,13.47,8.03,14.4c0.27,0.14,0.53,0.22,0.8,0.26c1.01,3.1,1.96,6.22,2.99,9.32c1.91,5.44,2.21,6.13,2.87,7.76
						c1.05,3.09,2.22,6.13,3.46,9.15c0.36,1.51,0.85,2.99,1.44,4.47c0,0-0.01,0.01-0.01,0.01c0.03,0.05,0.05,0.11,0.08,0.16
						c0.7,1.75,1.54,3.49,2.48,5.27c0.74,1.58,1.54,3.13,2.45,4.62c0.82,1.62,1.62,3.24,2.43,4.87c0.52,1.33,1.12,2.6,1.96,3.7
						c0.09,0.36,0.18,0.73,0.28,1.09c1.9,5.79,4.46,11.33,7.12,16.8c2.17,3.91,5.93,13.65,10.8,18.31c0.47,0.74,0.96,1.47,1.49,2.18
						c0.86,1.37,1.98,2.3,3.35,2.79c1.05,0.28,2.1,0.56,3.14,0.85c0.43,2.47,1.18,4.83,2.27,6.95c0.69,2.13,1.72,4.1,3.12,5.87
						c2.21,2.33,5.08,3.95,7.82,5.58c1.5,0.92,3.22,1.78,4.86,0.93c1.15-0.17,2.11-0.74,2.93-1.53c0.8-0.34,1.53-0.86,2.19-1.55
						c2.83,1.47,5.69,2.89,8.53,4.36c1.8,0.9,3.54,1.95,5.42,2.63c1.86,0.84,3.75,1.63,5.66,2.37c2.57,1.18,5.27,1.64,7.58-0.66
						c1.49-1.06,2.59-2.46,3.28-4.22c0.51-1.19,0.97-2.41,1.38-3.63c1.12,0.7,2.24,1.4,3.38,2.07
						c15.74,9.07,32.73,16.24,50.58,19.84c0.08,0.02,0.13,0.03,0.2,0.05c1.54,0.43,3.09,0.83,4.67,1.02
						c2.41-0.01,4.71-0.85,6.97-1.7c0.02-0.02,0.04-0.03,0.06-0.05c11.62,2.44,23.45,3.92,35.33,4.08
						c4.11-0.03,8.27,0.44,12.33-0.35c0.92-0.24,1.86-0.46,2.8-0.67c1.71,0.56,3.44,1.07,5.17,1.58c6.95,2.04,14.04,3.67,21.26,4.33
						c13.5,1.37,27.27-0.54,40.06-5.03c1,1.15,2.58,1.46,4.03,1.67c0.34,0.01,0.69-0.01,1.03,0c0.69,2.54,1.76,4.93,3.27,6.97
						c0.01,0.01,0.01,0.01,0.02,0.02c1.36-0.55,2.76-0.8,4.25-0.93c2.74-0.22,5.45,0.05,8.13-0.4c0.81-0.13,1.62-0.26,2.44-0.38
						c0.41-0.17,0.86-0.3,1.37-0.37c7.53-1.04,14.7-3.56,21.91-5.87c0.46-0.5,0.9-1.02,1.28-1.59c0.84-0.18,1.68-0.37,2.52-0.59
						c0.12,0.03,0.24,0.06,0.36,0.08c0.33,0.22,0.67,0.29,1.02,0.2c1.29-0.22,2.52-0.71,3.66-1.35c0.33-0.2,0.66-0.39,0.99-0.59
						c0.07-0.02,0.13-0.04,0.2-0.06c0.36,0.18,0.74,0.32,1.18,0.35c0.12,0.05,0.23,0.08,0.35,0.11c2.28-0.79,4.54-1.57,6.75-2.38
						c4.05-1.49,8.35-2.81,12.42-4.36c4.18-2.51,8.25-5.23,12.34-7.83c2.96-1.98,6.15-3.7,8.66-6.26c1.89-2.54,3.18-5.52,3.84-8.63
						c0.91-0.71,1.96-1.3,2.95-1.95c0.57,0.7,1.33,1.03,2.32,0.69c3.44-1.67,6.94-3.39,10-5.72c1.71,0.29,3.42-0.27,5.11-1.25
						c4.32-3.08,6.96-7.62,9.02-12.42c0.02-0.02,0.03-0.04,0.05-0.05c-0.06,0.15-0.11,0.29-0.17,0.44c0.06-0.15,0.12-0.31,0.19-0.46
						c0.34-0.37,0.68-0.75,1.02-1.12c0.58-0.07,1.19-0.4,1.82-1.1c0.09-0.12,0.17-0.25,0.26-0.37c0.49,0.48,1.04,0.86,1.68,0.99
						c2.77,0.65,4.28-2.04,5.28-4.99c1.83-3.84,2.53-9.76,2.65-12.1c0.08-2.33-0.34-4.56-1.07-6.36c-0.02-0.08-0.03-0.16-0.05-0.23
						c0.71-1.11,1.43-2.2,2.12-3.32c3.74-8.19,6.49-16.83,8.01-25.72c0.75-4.73,1.17-9.49,1.43-14.27c2.11-1.33,3.29-4.2,4.11-6.98
						c1.37-2.03,2.07-4.58,2.74-6.9c0.79-2.94,1.42-5.91,1.96-8.9c0.75-3.17,1.23-6.39,1.6-9.62c0.09-0.61,0.17-1.22,0.25-1.83
						c0.59-1,1.1-2.04,1.54-3.11c0.81-10.88,3.33-21.76,3.87-32.71c0.36-7.43,0.64-15.86,2.4-23.66c-0.59-2.54-1.53-4.98-3.01-7.15
						c-0.52-1.09-1.22-1.95-2.01-2.61c0.01-0.12,0.01-0.25,0.02-0.37c1.86-0.81,3.38-3.26,3.85-5.39
						c1.23-5.19,1.92-10.49,2.82-15.75c1.13-7.82,2.88-16.32-0.49-23.82c-0.1-0.21-0.2-0.4-0.31-0.59c0.69-0.65,1.25-1.41,1.65-2.31
						c1.68-2.17,2.58-4.72,3.33-7.36c0.49-2.56,1.21-5.09,1.45-7.68c1.67-10.78,2.47-21.69,2.84-32.59c0.2,2.43,0.76,4.8,2.29,6.77
						c0.38,0.32,0.76,0.64,1.13,0.96c0.63,0.4,1.26,0.45,1.89,0.17c0.49-0.04,0.89-0.25,1.2-0.65c0.42-0.38,0.77-0.81,1.08-1.26
						c0.14,0.35,0.29,0.69,0.44,1.03c0.07,0.21,0.15,0.43,0.22,0.64c0.02,0.09,0.04,0.18,0.06,0.27c0.54,2.21,0.48,5.04,1.84,6.94
						c0.27,0.6,0.61,1.15,1.07,1.62c0.04,0.03,0.08,0.06,0.12,0.09c0.11,0.24,0.23,0.48,0.39,0.7c0.58,1.08,1.46,1.28,2.22,0.88
						c0.54,1.85,1.1,3.7,1.7,5.53c0.28,1.39,0.58,2.78,1.31,3.97c1.43,2.18,2.91,1.06,3.73-0.61c0.41,1.13,0.84,2.25,1.71,3.05
						c0.78,0.92,2.26,0.28,2.68-0.7c0.15-0.24,0.27-0.5,0.38-0.75c2.47,2.11,4.72,3.32,5.5,1.62c0.31-0.51,0.52-1.07,0.66-1.66
						c0.1,0.04,0.2,0.09,0.3,0.13c2.06,0.82,2.98-1.85,1.92-3.31c-0.93-1.1-2.17-1.85-3.36-2.64c-0.53-0.63-1.18-1.17-1.73-1.79
						c-2.92-2.96-5.32-6.35-7.66-9.78c-1.25-2.99-2.48-5.98-3.66-9c-0.08-0.25-0.16-0.51-0.24-0.76c-0.42-2.86-0.78-5.8-1.1-8.71
						c0.13-2.32-0.03-4.69-0.01-6.93c-0.26-4.02-0.54-8.04-0.92-12.05c0.7-6.48,1.3-12.97,1.88-19.46
						c0.26-4.63,1.18-9.33,0.91-13.97c0.88-4.53,1.59-9.1,2.46-13.63c0.03-0.14,0.06-0.28,0.09-0.42
						c3.77-14.13,5.18-28.74,6.93-43.22c1.01-9.02,2.96-10.5,4.25-22.46c0.41-3.81,0.93-7.61,1.16-11.44
						c-0.02,0.25-0.04,0.48-0.05,0.66c-0.05-3.45,2.51-15.57,3.51-25.92c0.18-1.99,0.3-3.57,0.39-4.86c0.45-2.1,0.47-4.35,0.69-6.47
						c0.34-4.01,0.77-7.72,1.25-11.15c1.26-7.68,2.81-15.42,3.24-17.27c0.45-2.49,0.52-5.27-0.27-7.73c0.25-1.73,0.48-3.46,0.68-5.2
						c0.5-3.26,0.97-6.72-0.09-9.89c0.33-2.71,0.67-5.42,0.99-8.13c0.06-0.43,0.11-0.86,0.17-1.28c0.01-0.02,0.01-0.03,0.02-0.04
						c1.02-2.4,0.82-5.12,0.9-7.68c0-0.15,0-0.3,0.01-0.45c0.17-1.24,0.35-2.49,0.52-3.73c0.04-0.45,0.09-0.9,0.14-1.36
						c3.87,2.03,10.1,4.84,14.03,5.83c0.78,0.17,1.39,0.03,1.88-0.3c4.04,0.96,8.22,1.41,12.35,1.61
						c10.03,0.38,20.05,0.35,30.07-0.24c8.2-0.07,16.36-0.86,24.51-1.72c4.92-0.43,9.86-1.58,14.81-1.1
						c5.92,0.85,5.14,0.68,9.92,2.64c2.07,0.79,4.19,1.53,6.03,2.78c0.79,0.51,1.53,1.09,2.26,1.68c0.46,0.4,0.93,0.8,1.4,1.18
						c2.77,2.3,3.78,2.89,5.96,5.42c0.1,0.41,0.2,0.81,0.3,1.2c0.02,0.14,0.05,0.28,0.07,0.41c-0.05-0.24-0.07-0.29,0.01,0.12
						c0.39,3.31,1.12,6.55,1.83,9.8c-0.03,0.82,0.04,1.65,0.15,2.41c0.09,0.7,0.17,1.4,0.26,2.1c0.44,4.22,0.48,4.64,0.65,10.68
						c0.04,3.45,0.05,6.9,0.1,10.35c-0.25,2.49-0.48,4.98-0.72,7.48c-0.2,2.7-0.34,5.41-0.47,8.12c-0.24,1.99-0.47,3.99-0.7,5.98
						c-0.22,1.57-0.45,3.18-0.67,4.82c-0.09,0.5-0.2,1-0.29,1.49c-0.36,2.05-0.7,4.11-1.02,6.16c-0.2,0.94-0.39,1.87-0.61,2.78
						c-0.05,0.24-0.09,0.49-0.13,0.73c-0.29,1.02-0.46,2.1-0.7,3.08c-0.37,2.12-0.71,4.25-1.01,6.38
						c-0.78,3.89-1.96,9.95-1.92,15.07c-0.02,0.2-0.04,0.4-0.07,0.6c-0.1,0.33-0.2,0.65-0.3,0.96c-0.43,2.05-0.81,4.1-1.17,6.16
						c-0.18,0.73-0.35,1.47-0.53,2.19c-1.74,7.13-3.01,14.36-4.09,21.61c-0.05,0.14-0.11,0.28-0.16,0.42
						c-1.24,3.06-2.31,6.18-3.13,9.38c-2.07,8.49-3.52,17.11-5.08,25.7c-0.22,0.92-0.45,1.83-0.67,2.75
						c-2.57,5.62-3.94,11.71-5.26,17.74c-0.05,0.21-0.09,0.4-0.13,0.6c-1.04,3.33-1.93,6.71-2.75,10.1
						c-0.69,2.39-1.27,4.74-1.68,6.96c-0.03,0.15-0.05,0.32-0.07,0.49c-0.64,2.85-1.28,5.69-1.9,8.54
						c-0.23,1.14-0.61,2.53,0.28,3.45c0.15,0.16,0.4,0.21,0.6,0.09c0.62-0.46,0.63-1.34,0.93-2c0.4-1.12,0.79-2.24,1.21-3.35
						c0.59,0.92,1.43,1.43,2.59,1.07c0.9-0.53,1.31-1.5,1.65-2.44c1.08-2.59,1.6-5.37,2.21-8.1l0.36-0.31
						c1.9-3.13,1.11-3.39,1.77-5.25c0.33-1.44,0.67-2.87,1-4.31c2.36-1.03,3.01-7.71,3.68-9.99c0.39-1.82,0.76-3.65,1.12-5.48
						c0.2-0.64,0.41-1.27,0.58-1.92c0.26-1.01,0.5-1.98,0.74-2.93c0.04-0.12,0.08-0.23,0.13-0.35c0.01-0.03,0.01-0.03,0.01-0.04
						c0.45-1.11,0.93-2.22,1.11-3.4c1.64-2.2,1.89-8.18,2.31-9.81c0.04-0.25,0.1-0.5,0.14-0.76c1.13-1.84,1.09-4.16,1.49-6.24
						c0.01-0.06,0.02-0.11,0.03-0.17c0.06-0.08,0.12-0.14,0.18-0.23c1.08-1.97,1.4-4.26,1.73-6.53c0.37-0.04,0.75-0.22,0.96-0.47
						c2.66-2.8,2.02-7.26,2.69-10.83c0.03-0.28,0.05-0.56,0.08-0.84c0,0,0,0,0-0.01c1.34-3.17,1.36-6.72,1.85-10.1
						c0.61-5.38,0.96-10.79,1.33-16.2c0.27-1.93,0.54-3.78,0.8-5.44c0.36-2.53,1.02-5.2,0.69-7.76c0.14-0.3,0.27-0.64,0.38-1.03
						c0.88-3.23,1.61-6.51,2.21-9.81c0.66-1.95,0.66-4.23,1.03-6.23c0.51-1.01,0.77-2.32,0.88-3.15c0.13-2.43,0.21-4.87,0.28-7.3
						c0.03-0.28,0.06-0.56,0.09-0.84c0.12-0.27,0.24-0.56,0.34-0.89c0.74-2.64,0.53-5.41,0.72-8.11c0.02-0.56,0.04-1.12,0.06-1.69
						c0.42-4.04,1.4-8.06,1.04-12.12c-0.05-0.52-0.2-1.15-0.43-1.76c0.13-1.78,0.41-3.59,0.49-5.39c0.17-0.02,0.33-0.05,0.5-0.1
						c0.11,0.69,0.22,1.38,0.35,2.06c0.36,2.55,1.2,5.28,3.4,6.81c1.02,0.67,2.42,0.31,3.17-0.49
						C1391.72,488.11,1391.76,483.11,1391.43,479.23z M1205.15,495.38c1.31-2.26,2.51-4.59,3.6-6.97c-0.42,1.35-0.89,2.71-1.4,4.07
						c-0.47,1.21-0.38,1.14-1.99,4.94c-0.74,1.87-1.75,3.97-2.78,5.93c0.02-0.06,0.05-0.12,0.07-0.19
						C1203.49,500.57,1204.32,497.98,1205.15,495.38z M751.49,420.79c0.39-0.82,0.78-1.64,1.16-2.48c0.88-0.17,1.75-0.35,2.63-0.51
						c-1.03,1.03-2.05,2.06-3.05,3.12c-0.5,0.51-0.97,1.04-1.46,1.56C751,421.91,751.25,421.35,751.49,420.79z M1192.31,472.84
						c-4.36,7.13-9.67,14.92-8.73,23.66c0.05,0.43,0.12,0.86,0.2,1.28c-0.86,3.89-1.46,7.82-0.39,11.74
						c0.68,1.91,1.69,4.3,3.96,4.59c0.55-0.02,1.06-0.15,1.56-0.35c-0.43,1.24-0.84,2.49-1.21,3.76c-0.9,3.66-2.25,7.33-1.88,11.15
						c0.01,1.87,0.61,4.5,1.82,6.22c-0.27,0.28-0.55,0.59-0.82,0.98c-2.31,3.24-2.61,7.39-3.84,11.09
						c-0.25,0.94-0.49,1.89-0.74,2.83c-1.27-0.39-2.74-0.01-3.58,1.2c-1.42,1.78-1.99,4-2.7,6.14c-0.26,0-0.52,0.03-0.79,0.17
						c-1.9,0.39-2.63,2.51-3.55,4c-0.45,0.71-0.87,1.44-1.27,2.17c-1.45-1.72-3.37-2.61-5.23-0.72c-0.13-2.32-0.68-4.62-1.96-6.53
						c-1.97-3.4-5.12-2.5-6.7,0.8c-1.49,3.25-1.63,6.91-2.48,10.35c-1.14,5.82-2.32,11.63-3.34,17.47
						c-4.72,24.04-7.33,48.39-9.05,72.82c-0.11,1.52-0.22,3.03-0.33,4.55c-0.21-0.98-0.42-1.97-0.62-2.95
						c-1.58-6.81-4.42-12.98-8.5-18.51c-1.59-3.56-4.02-6.39-7.28-8.48c-2.12-2.75-4.9-4.25-8.33-4.5c-2.92-1.57-5.85-1.57-8.77,0
						c-5.09,0.7-9.17,3.31-12.27,7.83c-2.2,2.97-4.29,6.01-6.21,9.16c-2.2,3.42-4.59,6.75-6.08,10.57
						c-0.13,0.34-0.26,0.68-0.39,1.03c-0.44-0.6-0.87-1.2-1.33-1.78c-4.12-5.33-9.51-8.24-16.15-8.74
						c-7.64,0.42-13.26,4.59-17.75,10.62c-3.59,4.15-6.38,8.93-9.24,13.59c-2.23,3.93-3.62,8.26-5.28,12.45
						c-0.17,0.41-0.31,0.82-0.48,1.23c-1.36-2.73-3.04-5.3-5.06-7.69c-2.11-1.78-4.22-3.56-6.33-5.34c-4.69-2.52-9.39-2.52-14.08,0
						c-0.92,0.36-1.89,0.6-2.84,0.89c-2.02,0.61-3.66,1.98-5.08,3.53c-1.29,1.11-2.67,2.14-3.87,3.34c-1.33,1.61-2.4,3.41-3.51,5.17
						c-0.72-1.86-1.44-3.71-2.15-5.57c-1.88-3.9-3.99-7.56-7.13-10.48c-2.64-3.86-6.13-6.08-10.47-6.68
						c-6.03-2.84-11.31,0.45-15.77,4.8c-1.53,1.42-3.38,2.55-4.67,4.2c-2.27,3.49-4.66,6.92-6.79,10.51
						c-0.19,0.41-0.38,0.83-0.57,1.24c-0.28-0.87-0.56-1.74-0.85-2.6c-1.32-5.69-3.69-10.85-7.1-15.48
						c-2.11-4.18-5.24-7.47-9.38-9.87l-7.33-1.97c-5.15,0.38-9.42,2.47-12.81,6.23c-1.11,0.96-2.21,1.93-3.32,2.87
						c-0.56-6.05-1.27-12.09-1.71-18.15c-0.03-0.34-0.05-0.66-0.08-0.99c0.32-8.49,0.74-16.98,1.04-25.47
						c0.73-8.57,1.31-17.15,1.96-25.73c0.67-7.48,4.04-26.44-1.18-32.66c0.22-1.89,0.44-3.78,0.67-5.66
						c0.98-5.46,1.37-11.24-1.08-16.39c-0.44-1.1-1.12-1.98-2.06-2.64c-0.32-0.42-0.73-0.68-1.21-0.8
						c0.27-5.66-1.55-11.72-5.46-12.14c-1.07,0.11-1.97,0.65-2.73,1.47c-1.11-1.82-2.64-3.21-4.73-2.51
						c-3.99,0.82-5.1,7.79-6.03,12.71c-0.2-0.22-0.4-0.43-0.63-0.64c-0.41-0.53-0.95-0.82-1.61-0.87c-0.56-0.3-1.13-0.3-1.69,0
						c-0.75,0.05-1.32,0.43-1.82,0.91c-1.48-3.11-3.85-5.11-7.09-2.81c-1.76,1.16-2.31,3.33-3.13,5.17c-0.18,0.43-0.33,0.86-0.5,1.3
						c-0.95-2.39-2.49-4.46-5.03-4.73c-3.09-0.2-4.98,2.44-6.37,4.82c-2.12,4.05-2.81,8.54-3.17,13.05
						c-0.41-0.59-0.88-1.14-1.45-1.62c-0.41-0.52-0.94-0.81-1.59-0.86c-0.56-0.3-1.12-0.3-1.67,0c-0.11,0.01-0.22,0.03-0.33,0.06
						c-0.16-0.47-0.34-0.94-0.54-1.4c-0.9-1.35-1.71-3.2-3.51-3.36c-0.54-0.29-1.08-0.29-1.62,0c-0.05,0.01-0.09,0.04-0.14,0.05
						c-0.63-2-1.64-3.86-3.39-5.01c-1.99-0.9-4.22,0.17-5.11,2.1c-0.58,0.82-0.99,1.71-1.32,2.65c-0.38-0.6-0.85-1.11-1.43-1.53
						c-0.39-0.5-0.89-0.77-1.51-0.82c-0.53-0.29-1.06-0.29-1.59,0c-0.62,0.05-1.13,0.32-1.51,0.82c-0.88,0.62-1.52,1.45-1.93,2.48
						c-0.41,0.85-0.76,1.71-1.04,2.59c-0.64-0.49-1.38-0.84-2.28-0.97c-1.44,0.29-2.49,1.02-3.28,2c-0.24-0.36-0.49-0.72-0.77-1.05
						c-0.35-0.33-0.71-0.64-1.08-0.95c-0.03-0.02-0.05-0.05-0.08-0.07c-0.88-1.25-2.35-1.74-3.7-1.47c-0.3-3.7-0.71-7.94-3.69-10.4
						c-3.9-3.56-7.41,2.84-8.13,6.19c-0.62,2.32-0.82,4.68-0.89,7.05c-0.4,0.09-0.78,0.26-1.15,0.49c-1.44-5.44-5.56-7.91-8.63-4.99
						c-0.55-0.6-1.2-1.05-2.07-1.13c-0.59-0.32-1.17-0.32-1.76,0c-0.85,0.12-1.56,0.52-2.13,1.17c-1.34-2.38-2.78-3.97-5.17-3.68
						c-0.26-0.42-0.53-0.84-0.81-1.24c-0.6-0.88-1.4-1.39-2.39-1.53c-0.57-0.31-1.14-0.31-1.71,0c-0.07,0.01-0.12,0.03-0.19,0.04
						c-0.01-0.02-0.02-0.04-0.04-0.06c-0.59-0.87-1.37-1.36-2.35-1.5c-0.56-0.3-1.12-0.3-1.68,0c-0.66,0.05-1.19,0.34-1.59,0.86
						c-0.42,0.33-0.79,0.71-1.12,1.13c-0.08-0.19-0.15-0.38-0.24-0.57c-0.9-1.33-1.68-3.16-3.47-3.32
						c-7.49-1.75-7.8,16.92-7.65,28.27c-0.51-1.47-1.28-2.8-2.53-3.86c-0.71-0.84-1.71-1.09-2.69-0.92
						c-0.11-0.71-0.23-1.42-0.36-2.12c-0.81-2.61-1.88-4.2-3.02-4.98c-0.03-8.25,0.14-16.5,0.52-24.75
						c0.01-0.48,0.04-0.96,0.07-1.44c0.2-1.37,0.27-2.76,0.28-4.11c0.13-3.11,0.21-6.22,0.36-9.33c0.25-4.22,0.51-8.91-1.98-12.55
						c-1.35-2.79-4.75-3.19-6.66-0.49c-0.25,0.34-0.48,0.69-0.69,1.04c-1.02-0.86-2.6-0.73-3.79-0.18
						c-3.33,2.29-4.46,6.38-5.04,10.32c-0.53-0.34-1.13-0.56-1.8-0.58c-0.95,0.05-1.92,0.23-2.79,0.63
						c-0.62,0.45-1.14,0.99-1.62,1.55c-0.43-0.69-0.95-1.33-1.6-1.88c-0.27-0.35-0.6-0.57-0.98-0.7c0.01-0.04,0.01-0.08,0.02-0.11
						c1.84-8.95,3.6-17.92,5.29-26.9c0.56,0.22,1.19,0.22,1.89-0.08c1.5-0.93,2.05-2.73,3.03-4.12c0.82-1.35,1.63-2.71,2.45-4.06
						c1.37,0.05,2.75-0.07,4.08-0.42c4.08-0.94,8.03-2.32,12.03-3.54c2.46-0.76,4.92-1.53,7.38-2.31c2.33,0.25,5.1,0.14,8.29,0.06
						c10.8-1.02,21.55-2.49,32.27-4.14c1.88,0.13,3.77,0.27,5.65,0.41c0.5,2.32,1.45,4.49,3.4,5.9c2.75,1.93,6.06,2.17,9.37,2.01
						c0.53,2.66,1.75,5.44,4.43,5.82c3.36,0.31,6.72,0.68,10.09,0.96c10.74,0.67,21.51,0.8,32.26,1.22
						c26.64,0.61,53.18,3.02,79.73,5.14c13.37,1.48,26.76,2.86,40.1,4.63c3.3-0.41,4.39-4.59,4.72-7.84
						c6.62,0.82,13.23,1.74,19.83,2.77c0.53,0.09,1.06,0.18,1.59,0.27c2.69,0.45,5.38,0.92,8.07,1.38c1.53-0.06,2.61-1.28,3.29-2.55
						c0.05,0,0.09,0,0.14,0c4.83-0.01,9.64-0.33,14.44-0.85c11.33-1.1,22.44-3.68,33.42-6.62c3.89-1.14,7.79-2.24,11.68-3.37
						c9.06-1.07,18.09-2.45,27.07-4.06c0.26,1.92,0.85,3.84,2.19,5.18c-0.13,1.05-0.15,2.11-0.08,3.08
						c0.14,2.37,0.89,6.03,3.66,6.46c3.63-0.18,7.18-1.02,10.72-1.77c7.84-1.67,15.57-3.71,23.23-5.97
						c-1.78,3.33-2.33,7.43-1.32,11.08c0.48,1.58,1.38,3.59,3.24,3.72c0.06,0.01,0.09,0.02,0.14,0.03
						c-0.11-0.03-0.23-0.06-0.35-0.11c0.15,0.04,0.3,0.08,0.45,0.12c0.48,0.09,0.45,0.11,0.19,0.05c1.62,0.46,3.25,0.99,4.94,0.73
						c6.1-0.94,11.89-3.42,17.58-5.73c7.27-3.26,14.56-6.54,21.48-10.52c1.92-1.12,3.79-2.32,5.63-3.56
						c-1.09,2.08-2.15,4.17-3.16,6.28C1192.32,472.82,1192.32,472.83,1192.31,472.84z M1193.71,538.03
						c-0.12-0.45-0.27-0.88-0.45-1.29c0.03-0.49,0.06-0.97,0.09-1.46c0.31-0.3,0.62-0.61,0.92-0.92
						C1194.09,535.54,1193.91,536.76,1193.71,538.03z M1200.46,481.27c-0.51,1.62-1.03,3.23-1.55,4.84
						c-1.11,1.84-2.19,3.33-3.85,5.35c-0.27-0.07-0.54-0.13-0.81-0.19c1.06-2.69,2.76-6.36,4.7-10.29c0.17-0.29,0.34-0.58,0.51-0.87
						c1.19-2.23,2.34-4.48,3.43-6.75C1202.08,475.99,1201.27,478.63,1200.46,481.27z M1203.85,674.81
						c-0.11-1.99-0.26-3.99-0.42-5.98c-0.03-0.41-0.05-0.82-0.08-1.24c-0.33-2.25-0.69-4.54-1.17-6.81c2.31-3.1,2.79-10.07,3.55-13
						c0.36-1.88,0.67-3.76,0.95-5.65c-0.62,7.26-0.77,13.67-1.25,19.53c0.06-0.85,0.11-1.7,0.17-2.54
						c-0.32,4.51-1.2,8.95-1.59,13.45C1203.95,673.31,1203.9,674.06,1203.85,674.81z M1231.58,499.4c-0.37,3.02-0.62,6.05-0.78,9.09
						c-0.02,0.21-0.03,0.41-0.05,0.62c-0.76,8.2-2.31,16.29-3.55,24.43c-0.16,1.74-0.29,3.5-0.33,5.25
						c-0.21,2.4-0.55,4.78-0.78,7.17c-0.46,4.1-0.61,5.47-0.85,6.62c-0.9-0.95-2.07-1.45-3.43-0.75c-2.2,1.38-2.76,4.15-3.52,6.47
						c-0.91,3.15-1.64,6.35-2.37,9.55c-1.51,6.53-2.93,13.09-3.81,19.74c-0.51,5.47-0.92,16.59-1.1,20.33
						c-0.22,1.72-0.44,3.45-0.66,5.17c-0.27,3.69-1.23,7.36-1.08,11.06c-0.56,2.7-1.03,5.3-1.4,7.8c0.3-3.38,0.53-6.76,0.72-10.15
						c-0.02,0.2-0.04,0.39-0.05,0.54c0.38-5.33,0.39-10.71-0.19-16.03c-0.07-0.67-0.14-1.36-0.23-2.06c-0.01-1.02-0.04-2.14-0.1-3.3
						c0.32-2.65,0.64-5.3,0.96-7.95c0.09-0.68,0.18-1.35,0.27-2.03c1.18-2.61,1.3-5.64,1.89-8.44c1.54-9.12,2.99-18.25,4.25-27.42
						c0.09-0.51,0.16-1.02,0.21-1.54c0.55-4.09,1.06-8.19,1.53-12.29c0.08-0.04,0.16-0.07,0.24-0.12c3.32-0.83,4.53-4.73,5.17-7.72
						c0.26-1.06,0.39-2.14,0.59-3.22c1.76-8.3,2.97-14.28,4.34-27.23c0.12-0.31,0.23-0.63,0.32-0.96c0.35-1.11,0.69-2.22,1.03-3.34
						c0.34-1.1,0.65-2.21,0.96-3.31c0.53-0.72,0.88-1.64,1.13-2.64c0.46-0.28,0.86-0.64,1.18-1.08
						C1231.85,494.24,1231.7,496.82,1231.58,499.4z M1233.9,401.76c-0.64,0.63-1.13,1.67-1.32,2.61c-0.05-1.52-0.13-2.97-0.23-4.36
						c0.34-0.25,0.67-0.52,0.98-0.83c0.23-0.33,0.43-0.67,0.61-1.03c0.25-0.11,0.51-0.22,0.77-0.33
						C1234.15,399.08,1233.95,400.41,1233.9,401.76z M1236.78,453.41c-0.05,1.61-0.08,3.22-0.11,4.83c-0.14,1.22-0.3,2.43-0.45,3.65
						c-0.07-1.17-0.28-2.58-0.79-3.78c0.15-1,0.29-2.01,0.48-2.97c0.29-2.17,0.49-4.36,0.65-6.54c0.14-0.05,0.28-0.08,0.41-0.15
						C1236.9,450.1,1236.83,451.75,1236.78,453.41z"/>
				</g>
			</g>
		</g>
	</g>
	<path class="st4" d="M1332.12,875.32C1315,851,1304,823,1304,794c-1-12,5-24,11.91-34.08"/>
	<path class="st4" d="M908.57,813.53c12.09,0.08,24.18-0.07,36.26-0.6"/>
	<path class="st4" d="M859.91,811.08c10.95,1.2,21.84,1.98,32.85,2.22"/>
	<path class="st4" d="M1387.66,504.97L1387.66,504.97c-0.05,0.32-0.1,0.63-0.14,0.95l-0.35,2.31l-0.39,2.48l-0.59,3.4l-0.99,5.14
		l-0.87,4.22l-0.81,4.02l-0.82,4.33l-0.68,4.28l-0.45,4.29l-0.18,4.04l-0.05,3.66l-0.04,3.35l-0.08,2.85l-0.07,2.07l-0.1,1.75
		l-0.09,1.56l-0.07,1.33l-0.06,1.17l-0.07,1.14l-0.06,1.46l-0.06,1.72l-0.06,1.71l-0.09,1.62l-0.12,1.45l-0.11,1.15l-0.1,0.95
		l-0.11,0.81l-0.15,0.89l-0.17,0.91l-0.13,0.71l-0.13,0.64l-0.13,0.57"/>
	<g>
		<path class="st5" d="M682.47,401.04c0-0.04-0.01-0.08-0.01-0.12C682.47,401.1,682.48,401.19,682.47,401.04z"/>
		<path class="st5" d="M1405.21,487.67c-0.34-9.04-1.05-18.1-2.78-26.98c-3.67-19.05-12.57-40.3-32-47.62
			c-8.74-3.45-18.26-3.7-27.51-2.87c-6.86,0.35-13.67,1.17-20.5,1.84c-10.95,1.44-21.88,3.02-32.75,4.97
			c-12.88,2.13-28.03,4.82-38.75-0.47c-2.6-1.7-3.25-2.1-5.22-4.96c-0.54-1.11-0.97-2.28-1.32-3.47c0.44-3.29,0.83-6.57,0.86-9.87
			c1.37-1.22,2.62-2.56,3.62-4.12c4.57-8.95,0.22-18.5-9.18-21.8c-13.17-5.14-27.41-6.51-41.32-8.35
			c-16.64-2.02-33.3-3.99-49.85-6.67c-22.72-3.55-45.31-7.95-68.09-11.12c-27.46-3.72-55.03-6.94-82.71-8.64
			c-28.85-1.16-57.74-2.08-86.61-0.96c-27.85,0.7-55.57,3.47-83.22,6.68c-22.69,2.75-45.38,5.48-67.99,8.77
			c-18.59,2.63-37.26,5.19-55.33,10.45c-6.58,1.85-13.1,3.95-19.37,6.66c-3.77,1.75-8.47,3.27-9.92,7.58
			c-1.97,5.64-0.31,11.94,2.44,17.03c0.02,0.04,0.04,0.07,0.06,0.11c-0.98,20.53-1.41,41.08-1.31,61.64
			c-0.11,25.85,0.21,51.72,1.83,77.53c2.07,31.24,6.16,62.31,9.52,93.44c3.17,24.13,7.11,48.15,10.38,72.27
			c3.76,28.55,8.07,57.01,12.43,85.47c3.41,22.34,6.5,44.81,12.11,66.73c5.73,22.26,14.06,43.72,22.8,64.95
			c-0.44-1.06,1.14,2.94,1.47,4c1.82,5.35,3.55,10.74,5.69,15.98c5.15,12.61,10.97,25.67,21.05,35.15c4.34,3.94,9.53,6.7,14.79,9.2
			c5.06,2.39,10.2,4.62,15.5,6.41c10.77,3.63,21.69,6.83,32,11.7c11.18,4.98,22.34,10.11,34.01,13.87
			c13.68,3.93,27.79,6.21,41.93,7.71c25.57,2.35,51.26,2.36,76.91,2.36c13.03-0.05,26.1,0.13,39.1-0.73
			c0.06-0.03,0.1-0.05,0.16-0.08c1.52-0.71,3.08-0.99,4.76-1.12c2.74-0.22,5.45,0.05,8.13-0.4c0.8-0.13,1.61-0.25,2.42-0.38
			c0.42-0.17,0.87-0.31,1.39-0.38c0.62-0.09,1.24-0.18,1.85-0.29c5.55-1.35,11.09-2.83,16.57-4.45c3.63-1.17,7.26-2.36,10.93-3.35
			c2-0.62,3.99-1.24,5.99-1.85c1.65-0.57,3.27-1.14,4.87-1.73c5.27-1.93,10.95-3.58,16.03-5.84c1.46-0.65,2.81-1.18,4.2-1.6
			c0.34-0.22,0.69-0.43,1.03-0.66c3.71-1.77,7.22-3.95,10.59-6.34c13.35-5.39,25.55-13.74,35.87-23.72
			c5.1-5.22,8.45-11.79,11.47-18.36c3.4-7.57,5.81-15.52,7.78-23.58c2.24-9.07,4.82-18.05,7.04-27.12
			c3.01-12.7,5.44-25.55,7.27-38.47c0.24-1.76,0.46-3.53,0.68-5.29c-0.03-0.28-0.05-0.56-0.04-0.86c0.35-6.41,1.38-12.83,2.32-19.25
			c0.57-5.41,1.14-10.81,1.74-16.22c0.41-8.54,0.77-18.29,3.43-26.84c1-7.17,2.01-14.34,2.89-21.52
			c2.27-22.06,5.03-44.06,7.62-66.08c0.97,2.58,1.98,4.96,2.62,6.68c0.72,2.02,1.47,3.81,2.24,5.44c0.44,2.76,2.34,5.1,3.81,7.42
			c1.39,2,2.84,3.97,4.32,5.9c0.46,0.64,0.94,1.27,1.45,1.88c0.09,0.11,0.17,0.23,0.26,0.34c0.05,0.05,0.1,0.11,0.15,0.16
			c0.12,0.14,0.24,0.28,0.37,0.42c0.64,0.78,1.33,1.7,2.21,1.88c0.24,0.07,0.45,0.06,0.66,0.03c1.44,1.36,3.1,2.5,4.89,3.42
			c1.51,0.87,3.11,1.57,4.8,2.05c0.94,0.32,1.9,0.6,2.87,0.82c6.41,3.14,13.57,4.81,20.7,4.91c13.49,0.18,26.95-2.47,39.39-7.69
			c8.39-3.37,16.49-7.55,23.6-13.18c6.69-5.23,12.85-11.12,18.47-17.48c8.41-8.94,15.91-18.76,21.59-29.67
			c9.92-18.66,14.53-39.45,21.71-59.2c7.06-20.07,13.88-40.26,18.76-60.99c3.05-14.09,4.94-28.41,5.49-42.83
			C1405.87,506.61,1405.64,497.12,1405.21,487.67z M1244.85,386.89c-0.22,0.28-0.46,0.54-0.67,0.69c-0.27,0.28-0.6,0.59-0.97,0.91
			c-0.07-1.12-0.13-2.24-0.2-3.36C1243.73,385.68,1244.35,386.27,1244.85,386.89z M1242.97,385.09c-0.03,1.2-0.07,2.43-0.11,3.69
			c-0.26,0.22-0.54,0.45-0.84,0.68c-0.04-1.71-0.07-3.41-0.11-5.12C1242.29,384.58,1242.64,384.84,1242.97,385.09z M678.48,385.79
			c-0.04-0.87-0.08-1.74-0.12-2.61c-0.03,0.45-0.05,0.9-0.07,1.35c-0.1-0.83-0.17-1.67-0.17-2.52c0.41-2.09,5.76-3.12,9.01-4.2
			c6.34-1.78,16.71-4.16,25.19-6.02c15.26-3.57,30.75-5.91,46.26-8.08c16.95-2.53,33.96-4.62,50.97-6.78
			c26.69-3.33,53.44-6.35,80.29-8.15c15.2-0.65,30.4-1.19,45.61-1.48c20.38,0.02,40.75,0.56,61.11,1.33
			c30.88,1.74,61.65,5.35,92.27,9.67c22.75,3.39,45.36,7.7,68.12,11.03c14.85,2.16,29.77,3.86,44.67,5.64
			c12.31,1.7,31.64,3.75,40.29,9.35c-0.18,1.87-0.35,3.74-0.5,5.61c-2.68,2-6.37,4.31-9.76,6.14c-9.23,5.14-18.86,9.6-28.84,13.07
			c-10.75,3.52-21.78,6.15-32.68,9.17c-7.82,1.63-23.11,5.48-33.75,7.15c-20.27,3.82-40.74,6.42-61.18,9.17
			c-15.33,2.13-30.73,3.77-46.13,5.34c-9.24,0.54-18.47,1.17-27.7,1.68c-10.72,0.06-21.44,0.28-32.16,0.23
			c-33.66-0.08-67.33-1.16-100.83-4.61c-43.07-4.12-85.74-11.8-127.72-22.21c-13.53-3.34-26.91-6.33-40.16-9.85
			c-0.2-0.09-0.39-0.18-0.59-0.28c-2.57-1.27-5.41-1.97-7.84-3.51c-4.29-2.57-6.51-4.52-9.59-7.7c-0.99-1.07-1.8-2.06-2.49-3.09
			C679.29,389.08,678.79,387.47,678.48,385.79z M1205.11,626.15c-1.31,8.72-2.51,17.45-3.03,26.26c-0.08,1.27-0.14,2.54-0.17,3.81
			c-0.83,4.16-1.07,8.42-1.75,12.61c-0.49,3.38-1.38,6.7-1.67,10.11c-0.83,9.47-1.17,19.01-1.07,28.51
			c-0.19,3.83-0.24,7.13-0.55,9.04c0.22,1.82,0.12,3.86-0.02,5.5c-0.47,5.46-1.52,10.86-2.03,16.31c-1.09,11.8-2.53,23.83-4.5,35.51
			c-1.95,11.61-2.3,23.21-3.36,34.89c-0.23,2.49-0.7,4.91-1.35,7.27c-1.93,16.74-3.49,33.52-6.07,50.17
			c-3.05,17.73-5.36,27.96-10.14,45c-2.24,8.26-4.04,16.65-6.92,24.72c-2.54,6.41-6.4,16.5-13.26,23
			c-11.05,10.13-28.12,22-44.74,29.14c-5.2,2.28-10.58,4.11-15.81,6.31c-2.91,1.3-5.78,2.69-8.67,4.02c-0.29,0.1-0.59,0.2-0.88,0.3
			c-2.08,0.86-4.13,1.8-6.19,2.7c-0.19,0.07-0.38,0.15-0.57,0.22c-2.21,0.84-4.44,1.62-6.72,2.26c0.34-0.01,0.68-0.02,1.02-0.02
			c-4.63,1.7-9.32,3.25-14.02,4.72c-26.39,1.91-52.85,2.14-79.3,1.84c-27.99-0.27-56.18-0.55-83.8-5.59
			c-7.83-1.56-11.52-2.1-18.99-4.43c-11.47-3.77-22.44-8.85-33.47-13.73c-9.41-4.37-19.3-7.48-29.16-10.63
			c-6.12-2.05-12.11-4.47-17.93-7.28c-4.61-2.22-9.21-4.57-13.17-7.87c-5.64-4.65-11.98-15.24-16.33-25.65
			c-4.3-9.57-5.58-15.13-9.62-26.3c-8.83-21.91-16.77-42.08-23.21-67.37c-4.16-16.99-7.61-39.73-10.87-61.36
			c-3.64-23.39-7.23-46.78-10.52-70.22c-3.6-26.87-7.74-53.66-11.72-80.46c-3.57-29.76-8.39-70.63-10.34-94.63
			c-1.91-25.51-2.05-51.08-2.55-76.64c0.67-7.15,0.43-16.11,0.7-20.33c0,0,0.01-0.07,0.01-0.18c1.09-9.11,1.37-18.3,1.05-27.46
			c-0.05-2.55-0.42-5.04-1.02-7.49c0.09-0.62,0.12-1.25,0.09-1.88c-0.01-0.12-0.02-0.24-0.03-0.36c0,0,0.01,0,0.01,0
			c0.01,0.12,0.02,0.24,0.02,0.35c0,0.02,0,0.04,0.01,0.06c-0.01-0.12-0.01-0.27-0.02-0.41c0.25,0.12,0.51,0.25,0.76,0.37
			c0.68,0.63,1.39,1.24,2.12,1.81c0.68,0.67,1.38,1.32,2.07,1.96c2.54,2.36,5.22,4.6,8.22,6.35c3.42,1.76,6.98,3.27,10.53,4.77
			c3.46,1.16,6.85,2.54,10.38,3.49c4.08,0.87,8.24,1.35,12.37,1.87c2.68,0.52,5.22,0.59,7.78,0.62c0.53,0.13,1.07,0.26,1.6,0.37
			c0.27,0.08,0.54,0.16,0.81,0.25c1.26,0.42,2.52,0.84,3.76,1.32c3.14,1.16,6.31,2.29,9.53,3.24c2.52,0.6,5.1,0.93,7.66,1.35
			c6.83,1.74,13.71,3.31,20.65,4.65c28.45,5.94,57.19,10.6,86.09,13.69c45.45,5.02,91.26,6.18,136.95,5.39
			c32.77-1.31,65.31-5.62,97.76-10.22c24.95-3.35,49.79-7.78,74.15-14.13c10.05-2.83,20.24-5.24,30.1-8.7
			c10.74-3.92,21.09-8.91,30.93-14.73c0.97-0.62,1.96-1.24,2.95-1.88c-0.58,3.74-1.02,7.51-1.46,11.27
			c-0.49,4.51-0.26,2.32-0.68,6.31c-0.15,2.29-0.98,6.34,0.7,8.29c-0.03,0.71-0.06,1.41-0.09,2.08c-0.95,6.01-1.97,12.02-3.1,18
			c-1.22,8.9-2.52,17.79-4.09,26.64c-0.47,3.37-2.36,9.26-3.7,16c-1.19,6.98-2.15,14-3.52,20.94c-1.8,9.66-5.03,20.8-7.6,33.93
			c-4.68,25.88-9.14,51.91-10.5,78.2C1205.38,624.6,1205.23,625.3,1205.11,626.15z M1364.03,613.57
			c-3.17,13.96-7.34,27.66-11.11,41.47c-0.49,1.6-0.97,3.23-1.46,4.85c-0.14,0.25-0.28,0.5-0.42,0.75c-1.05,2.1-1.99,4.26-3.2,6.28
			c-2.14,3.67-2.48,3.9-4.83,7.56c-1.75,2.53-3.25,5.2-4.8,7.86c-0.78,1.17-1.59,2.31-2.4,3.46c-0.33,0.48-1.09,1.67-1.26,1.93
			c-0.01,0.02-0.02,0.04-0.04,0.06c-6.71,10.39-14.59,20.03-23.5,28.61c-0.75,0.76-1.48,1.53-2.21,2.31
			c-2.18,1.31-4.45,2.55-6.85,3.72c-13.69,6.54-23.73,9.23-38.35,11.21c-7.44,1.13-15.09,1.66-22.52,0.2
			c-3.22-0.32-8.68-2.47-12.73-4.69c-0.91-0.67-1.84-1.3-2.79-1.92c-0.16-0.64-0.36-1.28-0.66-1.86c-0.81-1.39-1.95-2.53-2.94-3.78
			c-4.87-7-7.1-8.92-10.21-15.61c-0.71-1.36-1.32-2.57-1.87-3.68c-1.05-3.34-2.08-7.59-2.85-11.14c-0.1-0.42-0.21-0.83-0.32-1.25
			c2.24-22.86,4.3-45.73,6.72-68.57c2.55-22.59,6.79-44.91,11.15-67.21c3.58-19.4,6.78-38.87,9.99-58.34
			c1.9-11.57,3.39-23.19,4.67-34.84c0.08-0.38,0.16-0.77,0.25-1.19c0.99-5.87,0.95-7.1,1.53-12.72c1.34-9.43,1.5-18.83,1.99-25.9
			c0.03-0.05,0.06-0.1,0.09-0.17c0.72-1.59,0.64-3.36,0.71-5.08c1.55,3.45,3.93,6.44,7.36,8.57c10.11,5.76,22.33,5.99,33.64,5
			c22.41-2.63,44.73-6.9,67.38-6.7c2.56,1.21,4.93,2.81,7.49,4.03c3.59,1.72,8.98,4.42,10.26,5.88c1.97,1.86,3.35,4.21,4.96,6.36
			c2.27,2.94,3.18,3.92,3.93,5.41c0.06,0.12,0.11,0.24,0.16,0.37c0.11,0.35,0.28,0.89,0.4,1.36c0.39,1.89,0.64,3.79,1.08,5.69
			c1.65,6.78,2.86,7.98,3.21,12.53c0.06,0.55,0.11,1.03,0.13,1.35c0.24,4.26,0,8.54,0.16,12.8c0.24,11.78,0.3,18.28-0.93,27.28
			c-0.96,6.03-1.64,12.1-2.24,18.18c-1.67,9.91-2.83,19.89-4.2,29.85C1372.22,577.15,1369.31,592.05,1364.03,613.57z M1386.7,515.84
			l-0.37,3.84l-0.28,3.54l-0.29,2.9l-0.37,3.23l-0.4,3.36l-0.4,3.18l-0.32,2.42l-0.4,2.71l-0.4,2.7l-0.37,2.65l-0.3,2.61l-0.26,2.21
			l-0.27,2.15l-0.35,2.82l-0.34,2.87l-0.32,2.54l-0.29,2.02l-0.38,2.24l-0.68,3.36l-0.67,2.9l-0.41,1.74l-0.27,1.18l-0.19,0.82
			l8.73-63.17l-0.12,1L1386.7,515.84z M1115.41,381.99c-8.4-2.43-16.91-4.46-25.48-6.19c-11.54-2.31-23.1-4.59-34.81-5.8
			c-5.73-0.69-11.41-1.8-17.16-2.3c-5.08-0.49-10.19-0.47-15.29-0.5c-9.96,0.15-19.95-0.44-29.9,0.29
			c-12.43,1.12-24.9,1.46-37.35,2.18c-8.58,0.67-17.01,2.71-25.62,3.18c-6.25,0.37-12.51-0.17-18.76,0.07
			c-7.84,0.41-15.64,1.35-23.46,1.96c-4.77,0.52-9.56,0.05-14.34,0.29c-7.41,0.43-14.75,1.8-22.18,2.03
			c-8.55,0.2-17.13-0.32-25.57,1.45c-2.76,0.43-5.52,0.9-8.28,1.36c0.5-0.01,1-0.01,1.5-0.02c5.61-0.04,11.23-0.29,16.84,0.03
			c7.05,0.84,14.07,1.99,21.18,2.14c5.5,0.17,11-0.22,16.5,0.02c5.03,0.24,10.03,1.1,15.08,0.89c7.61-0.07,15.21-0.54,22.82-0.66
			c6.22,0,12.45,0.63,18.67,0.25c8.65-0.45,17.13-2.5,25.77-3.14c12.41-0.67,24.83-1.01,37.2-2.19c13.39-0.84,26.84-0.13,40.25-0.52
			c9.35,0.17,18.63,1.53,27.98,1.76c14.69,0.92,29.35,2.34,43.98,3.88c7.64,1.19,15.53,1.72,23.04,3.52
			C1124.01,384.13,1119.62,383.29,1115.41,381.99z"/>
	</g>
</g>
<g id="Layer_4">
	<g>
		<path class="st6" d="M759.92,912.83c0,0.01,0.01,0.02,0.01,0.02c0,0,0,0,0,0C759.92,912.84,759.92,912.84,759.92,912.83z"/>
		<path class="st6" d="M1217.84,461.54c-0.66-2.26-2.04-5.16-4.67-5.37c-1.11,0.05-2.16,0.5-3.19,0.94
			c-3.89-1.27-7.49,0.56-11.09,2.24c-1.44,0.48-2.74,1.42-4.19,1.9c-2.77,1.24-5.68,2.13-8.55,3.08c-6.21,1.93-9.78,2.68-22.11,3.52
			c-6.38,0.36-12.81,0.91-19.19,0.22c-9.73-1.29-19.51-0.23-29.22,0.68c-18.66,1.78-36.96,6.18-55.65,7.73
			c-11.32,0.95-22.72,0.62-34,2.04c-13.59,1.66-27.01,4.55-40.63,5.99c-17.07,1.54-34.18,2.38-51.26,3.69
			c-9.13,0.98-18.22,2.36-27.34,3.43c-8.17,1.16-16.26,2.83-24.45,3.89c-0.21,0.02-0.41,0.04-0.62,0.06
			c-7.4,0.12-14.81,0.04-22.21-0.32c-12.17-0.64-24.34-0.02-36.47,1.06c-5.44-0.48-10.87-0.96-16.32-1.35
			c-7.21-0.51-14.41-0.94-21.56-2.01c-3.71-0.28-7.45-0.39-11.09-1.25c-5.19-1.1-10.35-2.35-15.56-3.37
			c-3.68-0.68-7.42-0.83-11.12-1.32c-7.01-1.46-14.17-1.77-21.29-1.11c-1.29,0.13-2.58,0.32-3.86,0.6
			c-0.06-0.05-0.11-0.11-0.17-0.16c-0.33-0.18-0.67-0.18-1,0c-0.51,0.2-1.04,0.36-1.58,0.53c-0.33-0.13-0.65-0.11-0.98,0.06
			c-0.47,0.2-0.93,0.43-1.38,0.67c-0.51,0.18-1.01,0.38-1.49,0.62c-0.02,0.01-0.04,0.02-0.06,0.02c-0.07,0.02-0.14,0.05-0.21,0.08
			c-0.04,0.02-0.09,0.03-0.13,0.05c0,0,0,0.01,0,0.01c-0.08,0.04-0.16,0.07-0.24,0.12c-1.36,0.78-3.14,1.5-3.72,3.06
			c-0.05,0.09-0.1,0.21-0.14,0.33c-1.76,0.41-2.75,2.32-3.31,3.92c-1.58,4.02-0.76,8.54-1.25,12.77c-0.06,2.11-0.1,4.22-0.13,6.33
			c-0.53,1.58-0.69,3.33-0.72,5.07h-0.02c0,0.11,0.01,0.23,0.01,0.34c-0.01,1.2,0.03,2.38,0.03,3.48c0.02,0.95,0.03,1.9,0.04,2.85
			c-0.56,1.66-0.73,3.51-0.78,5.15c-0.02,1.86-0.01,3.71,0,5.57c-0.1,1.21-0.11,2.43-0.09,3.61c0.04,1.76,0.12,3.53,0.21,5.29
			c0.16,6.87,0.47,13.74,0.89,20.6c0.65,15.28,1.57,30.58,3.46,45.75c0.36,5.86,0.76,11.84,1.31,18.18
			c0.67,5.81,1.26,11.64,1.83,17.46c0.29,4.3,0.6,8.6,1,12.89c0.66,7.33,1.51,14.64,2.51,21.93c0.11,0.94,0.21,1.87,0.32,2.81
			c-0.64,5.07,0.37,10.38,0.52,15.46c0.78,10.37,1.91,20.7,3.41,30.98c0.1,1,0.2,1.99,0.29,3c1.38,14.61,4.46,29,8.17,43.18
			c2.52,9.96,5.11,19.91,7.44,29.92c0.13,0.62,0.26,1.24,0.39,1.86c0.59,3.56,1.09,7.13,1.9,10.65c3.1,15.17,7.8,29.92,12.37,44.69
			c0.33,8,0.94,15.99,2.49,23.86c1.92,7.84,3.62,15.79,6.52,23.34c0.09,0.22,0.17,0.45,0.26,0.67c-0.09-0.23-0.18-0.46-0.26-0.67
			c0.07,0.19,0.14,0.39,0.21,0.58c0.16,0.4,0.31,0.8,0.47,1.19c0.04,0.1,0.08,0.21,0.12,0.31c0.19,0.53,0.94,2.54,1.23,3.29
			c0.26,0.47,1.99,6.02,4.81,11.48c2.79,4.88,5.58,9.91,8.92,14.49c-0.2-0.06-0.4-0.12-0.6-0.18c0.35,0.27,0.71,0.53,1.06,0.8
			c1.51,2.02,3.13,3.96,4.93,5.73c4.1,3.14,9.03,5.5,13.96,7.27c4.64,3.07,9.36,6.02,14.3,8.58c6.5,3.17,13.29,5.75,20.18,7.95
			c1.48,0.66,2.99,1.27,4.53,1.79c0.89,0.29,1.78,0.55,2.67,0.8c15.6,5.25,31,11.24,47.12,14.72c8.7,1.83,17.58,2.65,26.44,3.3
			c8.63,0.62,17.31,1.01,25.96,0.7c3.04,0.58,6.09,1.08,9.17,1.46c15.15,1.39,30.38,0.31,45.47-1.26c5.46-0.56,10.95-0.72,16.4-1.31
			c6.44-0.87,12.91-1.9,19.21-3.53c-0.77,0.21-1.55,0.42-2.32,0.62c8.66-1.61,17.36-3.08,25.8-5.65c3.57-1.06,6.93-2.68,10.33-4.16
			c4.14-1.84,8.34-3.57,12.32-5.74c8.34-4.54,16.23-9.87,24.61-14.34c6.64-3.41,13.86-6.33,19.43-11.37
			c3.24-0.97,6.49-1.88,9.1-4.17c2.84-1.95,5.49-4.17,8.04-6.48c2.98-2.4,1.62-1.25,4.14-3.25c3.05-1.87,6.04-3.86,8.34-6.65
			c4.21-4.51,6.7-10.19,9.09-15.8c2.56-5.54,5.14-11.08,7.12-16.85c5.96-14.41,6.13-30.25,7.62-45.56
			c0.63-8.93,1.12-14.49,2.06-26.83c0.56-10.39,0.88-12.73,2.2-25c0.67-8.88,0.81-10.86,1.38-20.94c0.43-4.02,0.86-8.04,1.15-12.07
			c0.13-0.04,0.26-0.1,0.4-0.18c0.69-0.58,0.95-1.56,1.08-2.43c0.75-3.62,1.21-7.28,1.74-10.94c1.05-7.89,2.02-15.79,2.98-23.69
			c3.56-26.28,4.86-52.73,5.31-79.21c0.04-0.43,0.09-0.86,0.14-1.29c0.14-1.5,0.27-3.01,0.4-4.51c0.98-5.19,1.91-10.45,2.75-15.7
			c3.89-24.12,6.41-48.42,9.06-72.7c1.97-10.44,3.81-21.25,5.43-32.4c0.14-0.77,0.28-1.54,0.41-2.31c1.03-4.33,2.04-8.66,3.06-12.99
			c0.49-1.77,0.99-3.53,1.5-5.3c3.06-2.24,4.12-8.76,3.19-13.99c0.11-0.43,0.21-0.87,0.33-1.3c0.56-2.71,1.44-5.43,1.79-8.18
			c1.05-2.62,1.62-5.44,1.6-8.24C1218.82,468.18,1218.69,464.75,1217.84,461.54z M1178.22,631.54c0.02-0.51,0.03-1.03,0.05-1.54
			c0.13-0.58,0.26-1.17,0.4-1.75C1178.52,629.35,1178.37,630.45,1178.22,631.54z"/>
	</g>
	<path class="st7" d="M1217.83,457.15c-0.7-4.46-3.26-9.64-8.2-10.21c-3.92-0.56-7.95-0.27-11.84-1.07
		c-1.14-0.37-2.28-0.75-3.45-0.99c-2.21-0.02-4.38,0.63-6.58,0.85c-2.96,0.45-5.96,0.58-8.94,0.89
		c-12.63,1.34-25.17,3.38-37.72,5.34c-7.74,1.28-15.55,2.01-23.33,2.95c-7.11,0.84-14.16,2.14-21.25,3.14
		c-19.07,2.03-37.95,5.4-56.99,7.68c-8.73,1.69-17.52,3-26.28,4.52c-0.45,0-0.9-0.01-1.35-0.01c-10.63-0.26-21.24-1.03-31.86-1.49
		c-14.8-0.35-29.63-0.32-44.33-2.33c-9.22-1.11-18.49-1.37-27.76-1.43c-10.9-0.88-21.81-1.71-32.66-3.12
		c-11-1.64-22.12-1.78-33.2-2.38c-9.04-0.53-18.1-1.31-27.17-1.24c-8.04,0.23-16.09,0.23-24.12,0.67
		c-5.29-1.79-10.64-3.41-16.07-4.74c-3.29-0.65-6.67-0.68-9.99-1.16c-2.18-0.18-4.35,0.21-6.53,0.07c-2.91-0.34-5.76-0.02-8.62,0.52
		c-3.69,0.27-7.3,1.06-10.73,2.44c-2.71,0.92-1.54,0.33-6.44,1.87c-3.04,1.23-5.99,2.69-9,3.99c-4.17,1.58-7.08,4.77-9.32,8.53
		c0,0,0,0,0,0c-0.59,0.75-1.08,1.56-1.35,2.48c-0.8,2-1.13,4.18-1.05,6.36c-0.12,0.21-0.24,0.42-0.36,0.64
		c-2.39,4.97-4.27,10.22-5.07,15.69c-0.68,6.23-1.2,12.85,0.95,18.84c1.32,3.35,3,4.33,4.53,3.89c1.29,2.44,3.19,4.52,6.02,4.72
		c1.15-0.08,2.27-0.42,3.39-0.79c1.3-0.22,2.5-0.81,3.75-1.25c2.35-0.51,4.75-0.75,7.14-0.99c5.94-0.58,11.88,0.1,17.81,0.34
		c13.36-0.42,26.73,0.4,39.92,2.59c11.23,2.24,22.65,3.12,33.94,4.95c11.87,2.09,23.58,5.28,35.62,6.31
		c6.57,0.68,13.18,0.69,19.77,1.05c11.75,0.8,23.52,1.26,35.3,1.19c8.69-0.12,17.37-0.54,26.07-0.71
		c8.67,0.07,17.37,0.39,26.04-0.15c12.57-1.19,25.06-3.58,37.25-6.87c10.25-3.5,20.72-6.28,30.97-9.74
		c8.76-3.11,17.58-5.98,26.49-8.64c7.1-2.27,5.44-1.92,10.42-3.17c13.21-1.4,26.31-3.68,39.31-6.44c13.56-2.5,24.41-6.44,32.68-7.87
		c2.12-0.39,4.25-0.79,6.35-1.3c1.13-0.34,2.35-0.47,3.4-1.01c1.23-0.71,2.16-1.68,2.83-2.87c1.55-0.31,3.1-0.61,4.64-0.95
		c8.07-1.71,16.14-3.36,24.27-4.71c2.92-0.47,5.76-1.45,8.74-1.46c4.07-0.14,8.14-0.26,12.21-0.45c3.04-0.21,6.32-0.52,8.47-2.91
		C1218.61,471.6,1219.28,463.77,1217.83,457.15z"/>
	<path class="st8" d="M1180.52,539.21c-3.72,15.13-7.96,30.14-11.2,45.38c-1.71,9.63-4.19,18.87-5.91,30.91
		c-0.93,7.63-1.87,15.26-3.09,22.85c-0.83,7.22-1.24,14.47-1.4,21.73c-0.01,10.11-2.04,18.08-2.94,30.79
		c-0.64,12.38-3.22,24.54-4.29,36.87c-0.67,6.36-1.45,12.7-2.65,18.98c-1.14,5.68-2.32,11.36-3.35,17.06
		c-2.88,12.1-5.46,24.27-8.34,36.36c-5.13,17.79-10.73,35.43-15.92,53.2c-3.7,10.16-6.8,20.53-9.41,31.02
		c0.25-0.67,0.5-1.35,0.75-2.02c3.71-10.17,8.51-19.88,12.71-29.84c5.39-14.28,11.75-29.95,17.11-46.61
		c3.82-14.78,7.37-29.68,10.21-44.68c2.74-12.52,4.51-25.2,5.59-37.97c0.82-6.65,1.94-13.27,2.66-19.94
		c0.57-5.94,0.88-11.9,1.47-17.83c0.67-6.06,1.76-12.1,1.98-18.2c0.44-11.59,0.24-17.18,1.4-26.74c1.8-11.79,2.73-23.68,4.89-35.42
		c1.32-6.76,2.38-13.55,3.45-20.35c1.77-10.25,4.07-20.39,5.92-30.62c1.37-7.39,2.77-14.78,4.06-22.18
		c1.35-7.34,2.12-14.86,4.7-21.9C1184.71,519.3,1183.3,529.51,1180.52,539.21z"/>
	<path class="st8" d="M756.2,838.18c-1.62-6.33-3.26-12.66-4.71-19.03c-2.03-11.04-3.62-22.15-5.5-33.21
		c-2.34-13.79-7.28-32.01-9.82-43.35c-0.58-4.04-2.14-14.76-2.64-21.16c0-0.01,0-0.01,0-0.01c-0.24-3.7-0.9-14.33-1.63-21.18
		c-1.12-10.34-2.78-20.6-4.02-30.92c-0.46-4.78-0.59-9.09-1.03-16.5c-0.62-13.34-1.9-26.65-4.81-39.69
		c-1.79-11.38-1.96-18.17-2.47-27.4c-0.27-9.17-1.71-18.28-1.81-27.45c0.18-5.55,0.75-11.11,1.75-16.57
		c-1.34,5.02-2.2,10.17-2.81,15.32c-0.75,9.5,0.29,19.03,0.05,28.55c-0.07,8.56,0.08,17.14,0.81,25.66
		c0.63,5.94,1.74,11.82,2.58,17.73c1.02,10.63,1.46,19.11,2.1,31.85c0.55,16.14,3.99,31.99,5.17,48.08
		c0.85,11.63,1.43,26.73,4.77,41.81c2.57,10.74,7.48,30.65,8.7,36.47c3.49,18.08,6.85,36.15,13.29,53.47
		c3.5,9.39,7.36,18.64,11.65,27.7C762.31,858.4,759.11,848.34,756.2,838.18z"/>
	<path class="st8" d="M1038,961.3c-16.03,5.45-32.58,10.48-49.68,10.27c-18.96-1.52-37.4-6.76-56.21-9.4
		c-7.14-0.95-14.3-1.7-21.44-2.62c-4.83-0.58-9.61-1.66-14.49-1.69c-8.1-0.12-16.18,0.68-24.28,0.44
		c-7.37-0.31-14.66-1.76-21.9-3.12c-9.17-1.61-20.84-6.15-32.28-11.72c-4.83-2.21-9.93-3.78-14.68-6.17
		c-4.83-2.73-9.27-6.22-13.16-10.16c-3.41-3.5-6.03-7.64-8.71-11.7c-2.64-4.52-6.71-11.65-8.12-17.73
		c1.67,8.97,5.71,17.3,10.11,25.23c6.33,11.58,16.57,20.85,28.7,26.02c8.41,4.48,16.58,9.4,25.52,12.78
		c7.36,3.05,15.21,4.51,23.05,5.73c12.22,2.53,24.67,0.65,37.02,1c3.78,0.12,7.48,0.9,11.22,1.42c5.35,0.78,10.73,1.29,16.09,2.02
		c10.47,1.16,20.79,3.29,31.24,4.59c12.03,1.55,24.28,3.77,36.41,2.21c12.75-2.07,25.02-6.47,36.46-12.42
		c3.64-1.84,7.29-3.68,10.9-5.58C1039.17,960.91,1038.58,961.1,1038,961.3z"/>
	<path class="st8" d="M1120.11,907.24c-12.52,11.08-27.99,17.63-42.96,24.64c19.82-3.95,32.14-9.31,44.68-25.74
		c0.35-0.45,0.67-0.92,1.01-1.38C1122.02,905.56,1120.77,906.64,1120.11,907.24z"/>
	<path class="st8" d="M984.84,492.68c-8.5-1.13-17.09-1.37-25.61-2.3c-16.59-1.59-33.04-4.26-49.55-6.57
		c-17.32-2.61-34.48-6.19-51.73-9.27c-10.65-2.54-21.42-4.48-32.2-6.36c-8.98-1.7-15.65-4.3-25.86-6.57
		c-10.25-1.74-20.67-1.84-31.04-1.57c-4.81,0.08-9.57,0.63-14.33,1.28c-4.85,0.39-9.55,1.55-13.97,3.62
		c-8.43,3.24-13.55,11.24-16.9,19.24c3.8-6.99,9.48-13.61,17.66-15.16c3.49-0.84,7.03-1.51,10.63-1.19
		c4.13,0.14,8.28,0.02,12.41,0.35c11.43,0.93,22.83,2.29,34.04,4.79c4.73,1.22,15.86,5.45,23.38,7.21
		c8.55,1.85,17.24,2.95,25.79,4.78c8.41,2.08,16.95,3.6,25.48,5.11c7.6,1.31,15.16,2.85,22.82,3.77
		c19.17,2.32,38.55,2.74,57.84,2.21c10.77-0.39,21.43-2.04,32.18-2.74c0.84-0.05,1.69-0.11,2.53-0.16
		C987.23,492.99,986.03,492.82,984.84,492.68z"/>
	<path class="st8" d="M821.88,841.52c-6.29-15.68-11.33-39.31-14.37-52.08c-1.47-7.25-4.67-21.52-5.64-25.33
		c-2.36-12.24-4.76-22.9-6.79-34.8c1.39,20.91,4.56,41.64,8.9,62.13c4.23,17.81,9.24,35.59,17.88,51.82
		c0.76,1.44,1.45,2.97,2.56,4.18C823.24,845.64,822.65,843.52,821.88,841.52z"/>
</g>
</svg>
