<?xml version="1.0" encoding="utf-8"?>
<!-- Generator: Adobe Adobe Illustrator 24.2.0, SVG Export Plug-In . SVG Version: 6.00 Build 0)  -->
<svg version="1.1" id="Layer_1" xmlns="http://www.w3.org/2000/svg" xmlns:xlink="http://www.w3.org/1999/xlink" x="0px" y="0px"
	 width="1920px" height="1080px" viewBox="0 0 1920 1080" style="enable-background:new 0 0 1920 1080;" xml:space="preserve">
<style type="text/css">
	.st0{fill:#C78F79;}
	.st1{fill:#332A1E;}
	.st2{fill:none;}
	.st3{fill:#C2B8AB;}
	.st4{fill:#69574A;}
	.st5{fill:#FFFFFF;}
</style>
<g id="Layer_2">
	<path class="st0" d="M1236.71,605.59c0.99-7.26,1.8-14.56,1.03-21.87c-0.04-0.23-0.09-0.46-0.14-0.7l0.02,0.08
		c-0.08-0.6-0.18-1.2-0.3-1.79c-0.04-1.36-0.09-2.73-0.17-4.09c-0.23-4.65-0.56-9.37-2.54-13.65c-0.55-0.96-1.15-2.06-1.94-2.93
		c-0.05-0.17-0.08-0.34-0.13-0.5c-0.7-2.03-2.08-5.24-4.17-6.43c0.09-0.97-0.08-2.02-0.39-2.65c-0.08-0.12-0.18-0.24-0.26-0.36
		c0.28-0.99,0.14-2.16-0.1-3.1c-0.76-1.99-2.12-3.52-3.47-5.51c-0.2-0.29-0.41-0.54-0.61-0.76c-0.31-2.39-1.08-4.69-2.48-6.62
		c-3-2.8-7.39-3.62-11.12-5.14c-3.87-1.46-7.73-2.92-11.54-4.55c-0.65-0.3-1.32-0.55-1.99-0.81c-0.09-0.05-0.17-0.12-0.25-0.17
		c-1.53-0.79-3.06-2.51-4.9-1.49c-0.55,0.4-1.02,0.89-1.42,1.42c-0.24-0.04-0.49-0.06-0.75-0.07v0h0c-2.4-0.52-4.81-0.99-7.22-1.46
		c-5.91-1.06-11.81-2.21-17.7-3.34c0-0.09,0.01-0.18,0.01-0.27c0.27,0.09,0.54,0.19,0.79,0.34c-0.23-0.28-0.5-0.52-0.78-0.75
		c-0.03-1.83-0.51-3.65-1.29-4.56c-0.57-0.83-1.72-1.24-2.63-1.66c-1.81-0.74-3.64-1.4-5.5-2.01c-0.82-1.69-2.63-2.28-4.32-2.85
		c-2.74-1.15-5.48-2.29-8.3-3.22c-0.88-0.31-1.84-0.62-2.85-0.94c-1.24-2.09-3.04-3.47-5.44-3.5c-8.29-1.5-16.57-3.23-24.92-4.36
		c-0.81-0.21-1.63-0.41-2.45-0.56c-5.1-1.58-7.16,3.54-7.35,8.76c-10.72-2.47-21.44-4.9-32.22-7.11c-4.76-1.05-9.55-1.96-14.34-2.84
		l-0.07-0.11c-2.02-2.74-5.72-2.41-8.75-2.96c-4.68-0.56-9.37-0.98-14.08-1.3c-0.02,0-0.04-0.01-0.06-0.01v0.01
		c-3.04-0.21-6.08-0.39-9.13-0.51c-2.34-0.08-4.67-0.17-7.01-0.16c-7.28-1.06-14.55-2.25-21.88-2.98c-3.8-0.38-7.61-0.62-11.42-0.78
		c-0.64-0.78-1.38-1.49-2.27-2.09c-2.98-1.1-5.98-1.33-9.12-0.98c-6.96,0.29-13.91,0.86-20.85,1.42c-1.46,0.27-3.11,0.25-4.26,1.18
		c-0.48-0.46-0.99-0.86-1.55-1.2c-6.27-1.84-12.97-1.29-19.44-1.45c-4.34,0.2-8.68,0.4-13,0.8c-2.32,0.14-4.64,0.31-6.83,1.15
		c-0.03,0.01-0.05,0.03-0.07,0.04c-0.84,0.1-1.66,0.26-2.39,0.6c-2.58,0.08-5.16,0.23-7.74,0.43c-3.02,0.15-5.96,0.86-8.85,1.72
		c-0.14,0.1-0.28,0.2-0.41,0.31c-2.84,0.31-5.96,0.89-7.2,3.79c-0.65,0.94-1.16,1.94-1.57,2.99c-3.96-0.03-7.93-0.01-11.9,0.05
		c-0.62-1.71-1.45-3.34-2.53-4.82c-1.03-1.33-2.37-2.06-4.03-2.18c-2.65-0.6-5.37-0.63-8.07-0.51c-8.09,0.26-16.15,1.08-24.19,1.98
		c-8.19,1.06-16.53,1.52-24.53,3.64c0.39-0.11,0.83-0.23,1.11-0.3c-1.32,0.13-2.52,0.42-3.36,1.46c-1.33,0.87-2.1,2.2-2.71,3.63
		c-0.92,0.21-1.85,0.44-2.77,0.65h0v0c-1.07,0.01-1.94,0.4-2.62,1.17c-0.24,0.2-0.45,0.44-0.67,0.67c-1.24,0.26-2.48,0.56-3.7,0.88
		c-0.29-1.13-0.71-2.19-1.28-3.12c-1.02-2.22-4.28-2.43-7.84-1.95c-0.32-0.14-0.65-0.24-1.01-0.3c-3.67,0.47-7.29,1.21-10.88,2.09
		c-0.01,0-0.01,0-0.02-0.01c-0.96,0.2-1.9,0.46-2.84,0.74c-1.73,0.46-3.46,0.94-5.17,1.44c-2.53,0.98-5.98,1.13-7.53,3.61
		c-1.81,0.82-3.61,1.67-5.36,2.61c-1.06,0.57-2.25,1.12-2.77,2.25c-0.81,1.07-1.35,2.93-1.55,4.97c-1.87-2.67-4.78-4.63-7.89-2.91
		c-0.85,0.54-1.68,1.12-2.5,1.71c-1.24-0.87-2.64-1.21-4.13-0.63c-0.57,0.08-1.08,0.27-1.55,0.51c-1.61,0.17-2.93,0.9-3.94,2.22
		c-1.49,1.52-2.87,3.14-4.1,4.87c-3.1,4.42-6.17,8.86-9.25,13.3c-0.58-0.57-1.2-1.11-1.91-1.57c-1.31-0.82-2.62-0.94-3.94-0.35
		c-1.52,0.21-2.75,0.99-3.67,2.34c-1.22,1.51-2.13,3.21-2.85,5c-0.2,0.38-0.39,0.77-0.57,1.16c-0.96,1.33-1.69,2.85-2.29,4.41
		c-1.28,3.18-2.49,6.38-3.2,9.75c-1.43,6.36-2.79,12.93-2.67,19.48c-0.39,0.8-0.69,1.58-0.91,2.28c-3.58,8.61-1.89,18.09-1.05,27.07
		c0.72,6.14,1.7,12.24,2.95,18.29c0.01,0.65,0.03,1.29,0.05,1.94c-0.09,2.66-0.16,5.33-0.22,7.99c-0.15,2.87-0.14,5.73,0.27,8.59
		c0.17,1.83,0.54,3.61,1.13,5.33c0.03,0.16,0.07,0.32,0.1,0.49c0.11,0.35,0.23,0.71,0.34,1.06c0.21,3,0.45,6.01,0.73,9.01
		c0.37,3.03,1.07,6,1.7,8.98c0.62,2.99,1.51,5.97,3.38,8.4c0.22,0.46,0.48,0.89,0.77,1.29c0.49,1.65,1.19,3.21,2.13,4.63
		c0.17,0.6,0.36,1.2,0.58,1.78c0.39,6.28,1.2,12.53,2.3,18.73c0.69,4.89,1.52,9.75,2.4,14.61c-0.08-0.72-0.13-1.64-0.18-2.54
		c0.1,1.45,0.21,2.9,0.41,4.34c-0.02-0.24-0.03-0.48-0.05-0.72c0.42,4.13,1.28,8.19,3.07,11.98c0.35,0.68,0.72,1.31,1.1,1.89
		c0.3,0.86,0.63,1.72,0.99,2.56c0.68,1.72,1.76,3.1,3.22,4.14c0.64,0.83,1.49,1.29,2.53,1.37c2.2,0.87,4.23-0.12,5.9-1.92
		c1.92-0.4,3.12-1.22,4.57-2.61c0.95,3.03,2.24,5.92,4.25,8.42c2.41,3.21,6.92,5.44,10.08,1.94c1.51-1.07,2.62-2.5,3.33-4.28
		c0.75-1.48,1.29-3.02,1.71-4.59c0.13,1.06,0.27,2.12,0.45,3.17c0.73,3.98,1.65,7.91,3.31,11.62c0.77,1.95,1.99,3.51,3.64,4.68
		c0.73,0.94,1.68,1.46,2.86,1.55c1.5,0.67,3.01,0.54,4.51-0.4c2.03-1.46,3.61-3.38,4.8-5.54c0.92,0.6,1.99,0.91,3.22,0.92
		c1.03-0.28,2.05-0.55,3.08-0.83c0.92-0.78,1.84-1.56,2.77-2.34c2.71-3.51,4.33-7.98,5.25-12.79c1.2,1.73,2.64,3.22,4.85,3.42
		c1.06,0.57,2.12,0.57,3.18,0c1.24-0.09,2.25-0.64,3.02-1.64c1.18-0.76,2.06-1.79,2.64-3.08c1.13-1.45,1.9-3.09,2.5-4.81
		c1,2.73,2.46,5.27,4.77,6.97c1.17,1.33,2.69,2.01,4.54,2.03c0.65-0.09,1.27-0.26,1.86-0.47c1.02,2.84,2.38,5.53,4.85,7.27
		c0.78,1.01,1.8,1.56,3.05,1.65c2.8,1.17,5.41-0.31,7.52-2.79c0.13,0.1,0.26,0.21,0.4,0.3c1.1,0.3,2.2,0.59,3.3,0.89
		c1.65-0.02,3.05-0.54,4.18-1.55c1.02,3.62,2.67,7.17,5.67,9.37c1.23,1.39,2.81,2.1,4.75,2.13c6.51-0.9,8.71-6.72,10.65-12.22
		c0.75-2.49,1.17-5.02,1.42-7.58c0.12,0.08,0.23,0.17,0.35,0.25c4.79,2.24,7.84-2.33,9.67-7.3c0.83,0.68,1.9,0.65,2.78-1.04
		c0.92-1.86,0.73-3.97,0.78-5.99c0.01-0.11,0.02-0.22,0.03-0.34c0.06-0.89,0.12-1.78,0.18-2.67c1.35,1.26,2.99,2.12,4.95,2.22
		c2.93,0,5.85,0.12,8.78,0.2c0.81,4.08,2.38,8.01,4.9,11.36c1.99,2.83,5.21,3.19,8.39,3.49c3.62,0.55,7.27,1.01,10.94,0.83
		c0.52-0.01,1.04-0.04,1.56-0.07c-0.14,1.41-0.21,2.83-0.19,4.27c0.07,6.79,1.27,14.01,5.58,19.46c3.36,4.68,9.14,2.54,13.99,2.54
		c11.8-0.67,23.42-2.91,35.07-4.81c18.98-3.01,37.92-6.2,56.94-8.95c16.06-2.32,32.09-4.78,48.14-7.2
		c3.66-0.62,7.28-1.45,10.93-2.18c1.04-0.28,2.08-0.56,3.13-0.84c0.94-0.79,1.87-1.58,2.81-2.37c0.21-0.3,0.41-0.6,0.62-0.9
		c2.48-0.41,4.84-2.27,7.04-3.53c1.92-1.15,3.84-2.3,5.74-3.47c3.77-2.3,7.54-4.6,11.31-6.89c0.14,1.71,0.38,3.42,0.65,5.1
		c0.82,4.13,1.68,8.81,5.16,11.55c1.34,1.69,3.72,1.71,5.69,1.22c1.05-0.33,2.19-0.42,3.14-0.99c1.18-0.82,2.29-1.77,3.31-2.78
		c6.21-7.28,11.73-15.15,18.23-22.19c1.26-1.42,2.54-2.83,3.82-4.23c-0.04,0.56-0.07,1.11-0.11,1.67c-0.32,4.9-0.61,9.8-0.45,14.7
		l-0.09-1.27c0.02,5.15,0.45,10.29,0.87,15.43c0.21,4.85,0.86,9.9,3.19,14.16c0.15,3.63,0.36,7.26,0.7,10.88
		c0.62,6.02,0.99,12.26,2.94,18.02c-0.11-0.28-0.22-0.57-0.33-0.85c1.21,3.62,1.81,8.08,5.03,10.49c0.53,0.69,1.22,1.06,2.08,1.12
		c2.01,1.01,3.81-0.63,5.25-1.95c3.31-4.36,4.15-9.94,4.11-15.3c-0.12-4.12-0.57-8.22-0.93-12.32c-0.07-1.01-0.16-2.03-0.3-3.03
		c-0.14-1.39-0.3-2.78-0.45-4.17c-0.04-2.32-0.06-4.63-0.07-6.95c0.1-0.28,0.2-0.56,0.28-0.83c0.66,1.26,1.41,2.47,2.27,3.62
		c0.94,1.21,2.24,2.18,3.48,3.06c0.15,0.07,0.31,0.12,0.46,0.17c0.23,0.6,0.48,1.2,0.78,1.79c0.6,1.52,1.55,2.73,2.84,3.65
		c0.88,1,2.01,1.5,3.4,1.52l2.34-0.63c2.99-1.75,4.16-5.01,5.27-8.11c1.14-4.49,1.41-9.09,1.37-13.72c0.19-0.05,0.37-0.1,0.56-0.15
		c0.06-0.04,0.11-0.08,0.17-0.12c0.29,0.32,0.61,0.61,0.95,0.88c0.03,1.95,0.22,3.89,0.65,5.78c-0.21,2.7-0.18,5.42,0.18,8.12
		c1.34,11.17,8.03,16.19,12.75,10.63c0.21,0.16,0.41,0.34,0.63,0.49c1.16,0.73,2.33,0.83,3.49,0.31c1.35-0.19,2.43-0.88,3.25-2.08
		c1.48-1.87,2.52-3.96,3.14-6.28c1.64-6.92,2.37-14,3.01-21.08c0.38-3.73,0.78-7.46,1.15-11.2c0.26-3.49,0.92-6.99,0.46-10.48
		c-0.04-0.92-0.13-1.88-0.25-2.83c0.36-2.13,0.64-4.28,1.03-6.39c1.15-7.09,2.32-14.18,3.5-21.26c0.88-5.08,1.7-10.17,2.7-15.22
		c0.71-2.93,1.23-5.94,1.4-8.96c0.38-2.51,0.63-5.04,0.7-7.57c1.76-1.17,2.97-3.86,3.47-5.63c0.07-0.27,0.13-0.54,0.2-0.81
		c0.87-1.8,1.29-3.81,1.62-5.82c0-0.01,0.01-0.02,0.01-0.02c1.47-2.94,1.98-6.16,2.42-9.38c0.18-1.15,0.36-2.3,0.53-3.46
		c0.47-1.57,0.78-3.09,0.94-4.28c0.27-2.37,0.35-4.75,0.48-7.13c-0.02,0.24-0.03,0.48-0.05,0.72c0.01-0.21,0.02-0.41,0.03-0.62
		C1236.27,610.45,1236.51,608.02,1236.71,605.59z M1135.1,570.12c-1.21-2.28-2.75-4.14-4.64-5.34c-0.75-0.36-1.51-0.64-2.29-0.87
		c1.46-0.36,2.88-0.89,4.23-1.68c1.76-1.2,3.04-2.79,4.07-4.56c0.76,0.26,1.53,0.51,2.3,0.75
		C1137.43,562.29,1136.23,566.19,1135.1,570.12z"/>
</g>
<path d="M1096.73,990.97c1.35-0.46,2.65-0.65,3.89-0.63c4.33-2.13,8.67-4.25,12.99-6.4c1.82-0.91,3.58-1.37,5.26-1.47
	c5.76-4.12,11.08-9.01,16.02-14.83c6.55-6.46,14.63-11.66,19.34-19.76c2.61-4.73,5.15-9.5,7.67-14.29c2.19-3.99,4.7-7.81,6.5-12
	c3.28-7.33,5.25-15.13,7.77-22.73c2.74-6.69,4.95-13.59,6.67-20.61c1.62-5.18,3.42-10.31,5-15.51c1.48-5.39,2.28-10.94,3.36-16.41
	c1.92-8.64,3.72-17.31,5.47-25.99c1.3-6.56,3.19-12.96,5.09-19.35c2.91-12.33,7.04-24.31,10.38-36.52
	c1.65-8.32,3.16-16.68,5.04-24.95c2.6-14.89,5.24-29.78,7.58-44.71c2.66-18.62,4.66-35.14,8.31-55.48c0.7-4.17,0.92-8.39,1.39-12.58
	c0.52-2.72,0.99-5.44,1.33-8.19c1.04-8.09,1.97-16.19,2.9-24.29c0.34-7.32,0.41-14.66,0.2-21.99c-0.45-4.76-0.24-9.56-0.82-14.29
	c-1.13-4.26-2.17-8.6-4.06-12.62c-3.11-5.79-5.85-12.22-11.41-16.12c-2.54-1.77-5.57-2.68-8.45-3.73
	c-3.89-1.48-7.87-2.64-11.83-3.92c-3.48-1.16-6.93-2.39-10.35-3.72c-7.61-3.51-15.65-5.89-23.67-8.29
	c-4.81-1.45-9.39-3.55-14.21-4.96c-11.16-2.63-22.18-5.85-33.34-8.46c-11.41-2.11-22.9-3.76-34.41-5.16
	c-10.63-0.83-21.28-1.45-31.85-2.88c-10.91-1.4-21.89-2.18-32.85-2.99c-9.83-0.85-19.69-1.1-29.54-1.57
	c-9.87-0.45-19.74-1.01-29.62-0.99c-11.3-0.31-22.6-0.85-33.91-0.72c-17.83-0.17-35.65,0.24-53.44,1.26
	c-17.92,0.55-35.74,2.43-53.57,4.19c-14.67,0.83-29.32,2.48-43.77,5.2c-7.26,0.92-14.5,1.96-21.58,3.88
	c-5.46,1.43-10.99,2.59-16.35,4.37c-5.29,2.17-10.47,4.83-15.05,8.27c-5.09,3.87-7.92,7.1-10.88,8.61
	c-11.04,5.34-17.99,7.75-24.17,19.45c-2.44,5.17-4.19,10.57-5.52,16.12c-0.88,3.34-2.11,6.6-2.56,10.04
	c-1.16,11.42-1.01,23.03,0.73,34.39c-0.1,4.37-0.12,8.75-0.02,13.13c0.47,9.8,1.48,14.02,2.53,23.55
	c0.93,12.1,2.87,24.08,5.07,36.01c2.71,13.78,3.28,21.98,4.99,35.38c1.13,7.14,2.75,14.19,4.19,21.27
	c1.73,10.76,3.59,21.49,5.55,32.21c2.79,16.98,8.63,33.23,12.98,49.84c2.92,10.79,5.18,21.75,7.88,32.6
	c1.79,6.08,3.81,12.09,5.6,18.17c1.87,6.03,4.28,11.86,6.64,17.71c2.54,6.26,4.9,12.6,7.97,18.63c1.45,2.8,3.29,5.38,4.76,8.17
	c3.25,5.77,6.11,11.73,8.91,17.73c1.52,3.03,2.51,6.38,4.72,9c4.48,5.37,9.83,9.95,14.52,15.14c5.4,5.53,10.43,11.5,16.66,16.15
	c6.9,4.8,14.21,8.99,20.78,14.26c-0.29-0.23-0.58-0.45-0.88-0.68c1.86,1.56,3.72,3.13,5.58,4.69c3.11,2.69,6.15,5.5,9.79,7.47
	c5.08,3.16,10.63,5.35,16.23,7.39c6.32,2.64,8.06,3.25,14.82,6.52c8.57,3.94,14.33,6.1,21.13,9.1c5.28,2.65,10.83,4.68,16.63,5.87
	c17.71,4.01,36,2.68,54.01,2.89c8.28-0.37,16.54-1.16,24.82-1.59c10.41-0.41,20.79-1.26,31.06-3.08c7.88-1.47,15.8-2.76,23.63-4.5
	c7.46-2.08,14.79-4.59,22.28-6.54c7.84-2.23,15.9-3.55,23.86-5.26C1084.67,995.71,1090.49,993.1,1096.73,990.97z M1027.99,1003.35
	c-10.87,2.1-22.71,4.34-30.62,5.28c-8.29,0.96-16.65,1.09-24.97,1.59c-11.68,1.1-23.4,1.38-35.13,1.21
	c-9,0.18-23.19-0.37-28.23-1.28c-9.57-1.47-16.24-3.53-22.92-6.87c-9.95-4.36-14.86-6.11-24.59-10.79
	c-10.2-5.06-18.01-6.64-26.06-11.62c-6.1-3.34-11.24-9.5-19-14.85c-6.93-5.5-15.12-9.27-19.31-13.51
	c-6.02-5.58-11.45-11.77-17.23-17.6c-3.12-3.24-9.51-9.24-9.63-10.19c-2.89-5.67-5.39-11.53-8.23-17.23
	c-3.03-6-6.73-11.62-9.81-17.59c-5.07-11.42-11.15-26-15.4-40.87c-2.86-8.31-4.79-16.88-6.76-25.44c-2.06-9.25-4.51-18.4-7.14-27.5
	c-2.57-9.49-5.62-18.85-7.91-28.41c-2.98-14.55-5.36-29.22-7.83-43.87c-1.7-8.3-3.83-17.46-4.35-22.78
	c-0.61-3.73-1.14-11.58-2.37-18.43c-1.64-10.52-3.85-20.95-5.56-31.46c-1.27-7.62-1.42-13.44-2.77-22.92
	c-0.67-6.31-1.86-11.03-2.47-18.5c-0.61-7.35-1.13-14.71-1.64-22.06c0.77-7.44,1.75-12.67,3.45-22.28c0.88-3.42,2.34-6.66,3.47-10
	c1.16-4.14,2.5-8.22,4.17-12.18c0.94-2.01,2.25-3.82,3.49-5.65c0.09-0.12,0.18-0.24,0.27-0.36c0.89-1.09,1.96-2.02,3.05-2.91
	c1.21-0.87,2.52-1.59,3.82-2.31c3.1-1.61,6.31-3.02,9.43-4.61c2.98-1.47,5.38-3.83,7.9-5.95c4.92-4.06,4.36-3.87,10.28-7.13
	c6.18-3.73,11.63-4.55,20.99-6.94c7.35-2.04,14.9-3.17,22.46-4.12c8.26-1.56,9.81-1.76,16.22-2.58c12.91-1.69,25.92-2.13,38.84-3.67
	c21.1-2.19,42.3-3,63.49-3.82c21.01-0.55,42.05-0.27,63.05,0.48c26.49,0.42,52.98,1.89,79.38,4.1c9.42,0.92,18.78,2.35,28.21,3.04
	c13.24,1.1,22.75,1.56,33.06,3.51c12.46,1.36,24.55,4.73,36.65,7.87c3.99,1.1,8.06,1.87,12.07,2.89c4.72,1.39,9.25,3.33,13.98,4.7
	c5.31,1.58,10.68,2.96,15.89,4.82c5.43,2.07,10.78,4.33,16.35,6.02c5.38,1.65,10.79,3.17,16.09,5.08c0.26,0.08,0.52,0.16,0.78,0.24
	c0.39,0.13,0.77,0.28,1.15,0.44c0.62,0.29,1.22,0.61,1.78,1c1.06,0.88,2.01,1.89,2.88,2.95c1.21,1.62,2.09,3.45,3.12,5.19
	c0.54,0.96,1.11,1.91,1.66,2.87c0.28,0.51,0.55,1.02,0.8,1.54c0.13,0.28,0.25,0.57,0.38,0.85c1.13,3.01,1.92,6.15,2.86,9.22
	c-0.05,2.88,1.17,15.01,0.96,21.95c0.14,7.11-0.12,14.19-1.16,21.23c-0.99,8.16-1.34,11.67-2.32,18.11
	c-0.95,4.2-1.25,8.5-1.62,12.78c-1.76,10.64-3.39,21.3-5.07,31.95c-2.56,18.66-4.72,34.4-8.44,54.48
	c-2.27,14.34-5.39,28.52-8.2,42.75c-2.44,8.7-5.24,17.29-7.64,26c-1.4,4.96-2.41,10.03-4.06,14.91c-2.61,8.73-4.29,17.71-5.99,26.65
	c-2.21,8.91-3.64,17.98-5.51,26.95c-1.78,7.54-4.9,14.71-6.64,22.27c-1.53,5.8-3.49,11.47-5.71,17.04
	c-2.05,6.32-3.67,12.77-6.14,18.95c-1.63,4.87-7.57,13.89-11.25,21.36c-1.69,2.96-3.09,6.11-5.08,8.88c-1.27,1.58-2.66,3.07-4.1,4.5
	c-3.23,3.23-6.94,5.94-10.23,9.12c-4.34,3.96-7.91,8.71-12.49,12.42c-3.5,3.09-6.72,5.2-12.48,8.54c-1.42,0.79-2.87,1.51-4.34,2.2
	c-0.71,0.33-1.43,0.65-2.15,0.96c-5.41,2.19-10.93,4.12-16.57,5.6c-7.33,1.83-14.82,2.92-22.17,4.67
	C1049.9,996.66,1039.15,1000.77,1027.99,1003.35z"/>
<path class="st1" d="M1211.05,762.73c0.04-5.43-0.33-11.01-2.77-15.95c-0.5-1.48-1.19-2.84-1.99-4.14
	c-0.41-1.04-0.83-2.08-1.07-3.18c-0.2-1.49-0.6-2.94-1.2-4.33c-0.97-2.78-2.05-5.58-3.53-8.13c-1.22-1.67-2.47-3.32-3.8-4.9
	c-1.31-1.21-2.8-2.21-4.19-3.33c-0.38-0.24-0.77-0.46-1.17-0.67c-0.45-0.67-0.97-1.28-1.66-1.76c-3.48-2.65-7.7-3.95-11.71-5.58
	c-0.25-0.12-0.5-0.25-0.76-0.37c-0.75-0.38-1.52-0.71-2.29-1.03c-0.1-0.04-0.2-0.09-0.29-0.13c-5.39-2.4-11.29-3.38-16.8-5.51
	c-2.44-0.89-5-1.31-7.52-1.89c-6.77-1.88-6.63-1.48-11.12-2.14c-5.16-0.27-10.35,0.31-15.51,0.6c-2.97,0.12-5.75,1.08-8.59,1.83
	c-6.39,1.09-12.63,2.89-18.76,5.01c-3.43,0.61-6.86,1.2-10.3,1.76c-0.07,0.01-0.15,0.02-0.22,0.03c-7.75,0.63-15.34,2.24-22.9,4
	c-3.99,0.94-7.98,1.87-12.01,2.62c-8.88,0.99-17.82,1.27-26.72,2.01c-4.4,0.45-8.77,1.16-13.16,1.76c-6,0.65-12.03,0.86-18.05,1.31
	c-7.47,0.44-14.93,1.03-22.4,1.52c-1.6,0-3.2,0.01-4.81,0c-9.9,0.14-17.56-1.16-23.39-1.94c-4.57-0.25-9.15-0.35-13.72-0.53
	c-2.37-0.37-4.75-0.67-7.14-0.92c-5.31-0.53-4.94-0.9-13.05-4.59c-6.9-2.8-14.06-5.01-21.22-7.03c-5.45-1.43-11.05-2.09-16.59-3.06
	c-3.87-0.68-7.61-1.96-11.38-3.04c-5.7-1.46-11.04-4.05-16.77-5.37c-4.75-1.09-9.68-1.22-14.52-0.6c-0.36-0.12-0.71-0.25-1.05-0.39
	c-2.1-0.66-4.25-1.12-6.38-1.71c-1.41-0.55-2.86-1.02-4.38-1.14c-3.38-0.42-6.8-0.25-10.19-0.62c-3.43-0.27-6.87,0.24-10.3,0.43
	c-1.56,0.12-3.12,0.26-4.67,0.45c-1.14-0.16-2.29-0.3-3.44-0.39c-9.67-0.62-19.32,0.53-28.96,1.16c-2.71,0.18-5.39,0.67-8.07,1.13
	c-2.21,0.21-4.41,0.55-6.6,0.96c-3.74,0.42-7.53,0.64-11.09,1.93c-1.19,0.47-2.37,0.99-3.54,1.53c-0.42,0.05-0.84,0.12-1.23,0.17
	c-3.46,0.47-6.6,2.1-9.71,3.6c-4.07,2.01-7.54,5.07-10.73,8.25c-1.26,1.54-2.41,3.19-2.99,5.11c-0.09,0.42-0.19,0.85-0.28,1.27
	c-1.63,2.69-3.02,5.59-0.24,8.97c0.32,0.32,0.67,0.58,1.03,0.8c0.11,1.34,0.25,2.67,0.42,4c0.05,0.54,0.1,1.09,0.17,1.63
	c-0.01,0.72,0.07,1.44,0.25,2.15c-2.65,6.63,0.38,14.07,2.05,20.67c0.76,2.81,1.29,5.76,2.17,8.56c0.66,2.44,1.32,4.88,1.98,7.32
	c2.19,6.49,4.48,12.95,6.56,19.47c1.21,3.59,2.38,7.21,4.39,10.36c0.1,0.62,0.21,1.24,0.34,1.85c0.11,0.45,0.25,0.88,0.4,1.31
	c0.89,3.76,1.76,7.52,2.98,11.19c0.77,2.35,1.55,4.69,2.33,7.04c0.62,3.11,1.35,6.19,2.27,9.23c2.22,9.08,5.02,18.02,8.25,26.8
	c-0.69,1.83-1.08,3.78-1.11,5.73c0,4.17,1.25,7.91,2.71,11.75c2.33,6.02,4.86,11.98,7.35,17.94c3.19,7.5,6.74,14.92,12.14,21.1
	c0.96,1.63,1.85,3.13,2.61,4.45c5.55,8.97,11.04,18.19,18.71,25.54c1.61,1.6,3.43,2.88,5.39,3.92c3.11,3.92,6.3,7.79,9.73,11.44
	c5.82,6,12.45,11.17,19.41,15.77c1.09,0.73,2.18,1.45,3.27,2.18c1.69,1.52,3.32,3.1,5.57,3.7c2.85,1.47,6.17,1.69,9.29,0.98
	c7.86,5.01,15.47,10.66,24.37,13.68c0.49,0.14,0.98,0.24,1.46,0.33c0.66,1.14,1.46,2.21,2.4,3.15c4.92,5.15,12.52,4.61,19.02,5.83
	c1.36,0.18,2.72,0.37,4.08,0.55c1.08,0.74,2.23,1.36,3.42,1.81c3.56,1.7,7.53,2.02,11.42,2.42c0.75,0.97,1.64,1.84,2.72,2.52
	c4.51,4.08,11.17,3.48,16.81,2.99c4.06-0.21,8.1-0.66,12.17-0.81c0.57-0.02,1.14-0.04,1.7-0.07c1.9-0.02,3.81-0.06,5.71-0.14
	c3.83-0.17,7.64-0.78,11.47-1.08c2.58-0.16,5.18-0.21,7.71-0.79c0.04-0.01,0.07-0.03,0.11-0.04c0.33,0,0.67,0,1,0
	c1.76,0.01,3.55-0.32,5.23-0.95c5.18,0.15,10.36,0.05,15.52,0.46c4.92,0.37,9.86,0.29,14.78,0.3c4.13-0.01,8.26,0.13,12.34-0.62
	c1-0.17,1.99-0.37,2.99-0.49c-1.37,0.18-2.74,0.37-4.11,0.55c8.9-1.1,17.76-2.63,26.53-4.48c5.59-1.44,11.03-3.39,16.54-5.09
	c5.39-1.49,10.67-3.46,15.76-5.8c1.32,0.54,2.74,0.89,4.24,0.96c1.91,0.31,3.82,0.32,5.71,0.14c0.78,0.51,1.61,0.94,2.47,1.31
	c5.76-3.36,11.82-6.12,18.35-8.35c1.35-0.46,2.65-0.65,3.89-0.63c4.33-2.13,8.67-4.25,12.99-6.4c2.03-1.02,4.01-1.47,5.86-1.49
	c0.75-0.62,1.5-1.25,2.24-1.89c0,0,0,0,0.01,0c2.51-1.9,5.04-3.82,7.46-5.85c2.02-1.31,4.04-2.64,5.87-4.22
	c4.55-3.51,8.49-7.84,11.36-12.83c0.13-0.2,0.25-0.41,0.37-0.62c3.25-3.39,5.68-7.68,8.54-11.67c0.83-1.3,1.5-2.14,2.43-3.35
	c2.49-2.61,5.02-5.26,6.37-8.6c2.31-2.62,3.49-6.9,4.95-9.78c2.4-5.69,3.55-8.46,4.79-11.28c0.69-1.43,1.3-2.88,1.86-4.35
	c2.01-3.3,3.78-6.74,5.29-10.3c1.36-3.3,3.2-6.41,4.29-9.81c0.85-3.84,0.87-7.1,0.99-7.21c0.06-0.32,0.13-0.64,0.2-0.95
	c0.35-1.29,0.72-2.56,1.19-3.81c1.49-3.21,3.16-6.34,4.4-9.65c0.04-0.18,0.07-0.33,0.1-0.5c0.3-0.44,0.54-0.92,0.68-1.44
	c0.29-1.7,0.57-3.4,0.78-5.11c0.89-6.87,0.95-7.55,1.91-12.97c0.23-1.54,0.53-3.08,0.85-4.6c0.87-1.27,1.11-2.89,1.68-4.31
	c0.63-1.84,1.35-3.65,1.75-5.56c2.15-10.7,4.57-21.34,6.97-31.99c1.07-4.88,2.15-9.76,2.72-14.73c0.07-1.35,0.35-2.78,0.21-4.12
	c0.2-0.67,0.4-1.33,0.56-2C1211.31,773.57,1211.15,768.15,1211.05,762.73z"/>
<path class="st2" d="M801.36,439.9L801.36,439.9c0.02-0.03,0.04-0.06,0.07-0.09l0.19-0.27l0,0c0.07-0.1,0.15-0.18,0.2-0.29l0,0
	c2.16-4.69,3.12-10.03,4.1-15.16l0,0c0.6-3.15,1.02-6.39,1.09-9.6l0,0c0.05-2.4-0.19-4.83-0.49-7.22l0,0
	c-0.26-2.08-0.59-4.18-1.15-6.19l0,0c-0.54-1.93-1.32-3.82-2.15-5.65l0,0c-0.99-2.18-2.2-4.25-3.36-6.35l0,0
	c-1.32-2.39-2.63-4.8-4.1-7.1l0,0c-1.61-2.53-3.26-5.08-5.18-7.38l0,0c-2.17-2.6-4.66-4.95-7.15-7.25l0,0
	c-1.75-1.62-3.72-3-5.49-4.61l0,0c-2.23-2.02-4.44-4.08-6.45-6.31l0,0c-2.33-2.57-4.39-5.38-6.52-8.12l0,0
	c-1.97-2.54-3.7-5.28-5.79-7.71l0,0c-2.05-2.4-4.32-4.62-6.61-6.79l0,0c-2.71-2.57-5.66-4.87-8.43-7.38l0,0
	c-1.71-1.55-3.46-3.08-5.07-4.73l0,0c-0.74-0.76-1.46-1.56-2.12-2.4l0,0c-1.87-2.37-3.5-4.94-5.19-7.44l-6.54-9.98l-6.04-10.21
	l-5.63-9.28l0,0c-1.42-2.3-3.03-4.49-4.31-6.86l0,0c-2.08-3.86-3.8-7.94-5.48-12.01l-2.95-7.94l-2.32-7.05l-1.51-5.24l-1.53-5.98
	l-2.38-10.27l0,0c-0.6-3.02-1.24-6.05-1.51-9.11l0,0c-0.26-2.94-0.29-5.93-0.09-8.86l0,0c0.14-2,0.41-4.03,0.9-5.98l0,0
	c0.5-1.99,1.35-3.89,2.09-5.82l3.03-7.49l0,0c1.1-2.46,2.28-4.89,3.59-7.24l0,0c0.88-1.58,1.89-3.09,2.86-4.62"/>
<path class="st3" d="M872.25,165.23c-23.87-13.81-52.76-4.07-73.03,11.85c-9.03,6.78-14.52,16.96-19.09,27.06
	c-2.26,4.8-4.61,9.59-6.31,14.63c-1.89,5.79-3.07,11.79-3.9,17.81c-1.17,8.52-2.32,17.15-1.29,25.75
	c1.79,14.25,4.81,28.6,11.12,41.58c7.45,15.14,17.77,28.6,28.35,41.66c6.18,7.58,13.12,14.49,19.17,22.18
	c1.72,2.44,3.43,4.88,5.17,7.3c2.72,3.9,5.73,7.6,8.23,11.66c6,11.58,12.15,22.62,13.04,31.21c1.05,8.3-1.76,16.46-5.81,23.61
	c-2.64,4.73-5.58,9.3-8.83,13.64c-2.05,2.64-3.97,5.47-6.71,7.44c3.27-1.63,5.78-4.34,8.41-6.81c5.49-5.47,10.68-11.37,14.68-18.03
	c8.16-12.86,7.13-27.31,1.63-40.96c-2.43-5.86-4.37-11.97-7.4-17.56c-4.07-6.68-8.42-13.21-13.06-19.51
	c-9.58-12.16-18.5-20.88-25.45-30.69c-8.18-9.88-19.43-28.83-21.69-35.28c-2.3-5.69-3.73-11.67-5.03-17.65
	c-1.98-10.49-2.7-11.94-2.67-22.55c0.38-6.39,0.85-9.77,1.26-12.8c-0.03,0.2-0.05,0.4-0.08,0.61c0.77-5.86,1.87-11.69,3.56-17.35
	c1.88-6.47,3.82-9.08,7.77-17.82c5.09-9.63,6.08-12.08,13.36-18.35c7.89-6.15,23.73-15.16,38.63-16.85
	c10.19-1.03,27.6,0.84,37.27,16.13c3.88,5.91,5.99,14.33,2.36,20.82c-1.26,2.24-2.66,4.4-4.29,6.39c0.73-0.62,1.47-1.24,2.17-1.89
	c1.99-1.96,4.04-3.96,5.45-6.4c1.49-2.76,2.07-5.91,2.22-9.01C891.84,183.94,883.26,171.7,872.25,165.23z"/>
<path class="st3" d="M1047.09,244.64c-1.07-14.23-5.23-28.87-14.61-39.89c-5.28-5.47-11.91-9.72-19.05-12.34
	c-4.77-1.47-9.85-1.8-14.81-1.58c-5.73,0.33-11.54,1.13-16.87,3.37c-8.56,3.63-16.44,9.06-22.85,15.79
	c-4.77,5.36-9.44,11.24-11.23,18.32c-2.64,10.5-2.89,25.72,8.21,31.35c1.15,0.4,2.37,0.54,3.55,0.83c-1.29-0.62-2.72-1.02-3.85-1.92
	c-5.95-5.28-5.55-14.38-3.43-21.4c2.43-7.74,4.35-10.63,9.52-15.4c5.23-4.72,5.8-5.26,12.52-9.26c11.73-5.92,14.56-7.22,28.05-6.98
	c0.75-0.01,2.02,0.12,2.84,0.21c0.92,0.14,1.83,0.31,2.73,0.54c3.55,1.12,1.62,0.2,6.79,3.08c5.33,3.54,3.37,1.63,8.16,6.61
	c7.9,10.45,12.26,28.93,9.49,51.39c-1.4,13.58-3.84,30.92-9.56,48.44c-0.64,2.13-4.13,9.1-7.27,15.48
	c-6.4,13.36-13.28,26.54-22.07,38.51c-9.28,13.67-14.14,20.28-25.09,32.36c-8.26,10.03-14.63,14.26-24.4,21.34
	c-7.17,5.2-14.46,10.3-22.3,14.47c-3.84,2.26-8.18,3.39-12.56,3.99c6.88,0.65,13.5-1.31,19.81-3.88c6.49-2.54,12.77-5.58,18.94-8.82
	c9.59-4.94,19.17-10.21,26.88-17.89c9.36-8.53,18.23-17.59,25.42-28.06c5.25-7.5,10.87-14.76,15.46-22.7
	c6.96-12.36,13.4-25.06,19.31-37.96c5.64-13.98,7.98-29.06,10.32-43.88C1046.64,267.46,1048.15,256.04,1047.09,244.64z"/>
<path class="st3" d="M1149.12,221.01c-3.03-12.9-7.33-25.71-14.42-36.64c-7.56-10.83-16.78-20.19-26.37-28.84
	c-8.77-8.19-17.44-16.52-25.73-25.3c-6.31-6.32-12.9-12.33-18.73-19.18c-6.72-7.7-15.58-17.42-18.36-22.27
	c-0.03-0.06-0.06-0.11-0.09-0.17c-0.08-0.31-0.16-0.61-0.22-0.92c0-0.11-0.02-0.22-0.02-0.33c0.29-1.37,0.09-0.85,1.46-3.46
	c1.98-3.15,2.94-3.86,8.16-7.62c4.45-3.05,9.27-5.37,14-7.84c6.86-3.63,14.44-5.61,22.07-5.54c2.19-0.06,4.38,0.25,6.56,0.48
	c-1.41-0.48-2.8-1.02-4.22-1.46c-10.16-3.08-20.87-2-30.84,1.43c-9.67,2.97-20.43,6.79-26.11,16.52c-5.2,8.85-1.05,16.63,4.38,23.75
	c4.91,6.96,10.34,13.43,15.95,19.71c5.09,5.64,10.66,10.74,16.01,16.07c9.11,9.42,18.48,18.53,28.1,27.32
	c8.57,7.4,20.64,20.72,23.81,25.76c9.94,15.36,14.51,37.49,15.9,53.12c0.48,8.47-0.33,16.96-1.01,25.4
	c-0.86,10.2-1.62,13.29-3.46,24.92c-2.04,10.65-4.04,21.44-7.81,31.56c-5.08,12.84-10.55,25.49-16.16,38.07
	c-3.77,8.82-9.53,22.2-12.95,26.19c-7.32,9.51-15.34,18.37-24.06,26.34c-8.35,8.49-16.42,17.33-24.06,26.59
	c8.77-7.43,17.8-14.63,27.07-21.78c6.81-4.74,13.32-9.97,19.39-15.78c4.68-4.51,9.43-9.07,13.07-14.66
	c7.23-11.62,12.5-24.56,18.22-37.12c4.24-9.68,8.58-19.34,12.2-29.32c2.44-7.37,4.03-15.04,5.74-22.65
	c3.49-18.51,6.25-37.37,6.15-56.32C1152.2,238.28,1150.89,229.56,1149.12,221.01z"/>
<path class="st4" d="M1131.99,710.51c-6.37-0.13-12.8-0.93-19.14,0.04c-5.34,0.98-5.67,1.08-12.17,1.92c0.5-0.07,1-0.13,1.5-0.2
	c-6.71,0.52-12.4,2.87-18.87,4.42c-2.62,0.7-5.35,0.91-7.93,1.73c-4.05,1.14-7.93,2.84-12.06,3.65c-8.33,1.72-16.49,4.15-24.69,6.38
	c-6.03,2.15-12.17,3.95-18.34,5.65c-3.64,1.22-7.32,2.26-11.08,3.06c-5.1,0.97-10.11,2.4-15.22,3.26
	c-8.8,0.71-17.59,1.89-26.43,1.82c-16.14-0.96-20.44-1.88-33.27-4.34c-7.91-1.19-15.79-2.52-23.44-4.9
	c-5.04-1.47-10.21-2.54-15.17-4.29c-10.9-4-21.78-8.06-32.57-12.36c-14.07-6.2-28.29-12.38-43.23-16.13
	c-5.19-1.39-10.5-1.86-15.84-2.03c-6.24-0.73-12.55-1.45-18.81-0.53c-5.8,0.41-11.22,2.46-16.74,4.1
	c-5.27,1.17-10.71,1.66-15.59,4.15c-5.48,2.46-6.87,2.67-11.5,4.99c-6.9,4.52-13.61,9.34-20.26,14.22
	c7.6-2.72,15.21-5.48,22.87-8.03c4.39-0.91,8.86-1.38,13.27-2.15c1.85-0.58,6.78-0.05,12.24-0.09c7.57-0.52,5.85-0.86,10.99-1.2
	c3.44-0.21,6.91-0.03,10.33,0.32c5.57,0.89,11.02,2.61,16.66,3.01c4.72,0.97,9.31,2.49,13.94,3.83
	c15.85,5.15,25.01,9.42,35.63,14.01c7.61,3.04,15.28,5.92,22.92,8.86c4.34,1.49,8.61,3.2,12.96,4.67c6.55,1.84,13.15,3.5,19.69,5.39
	c6.68,1.68,13.57,2.29,20.31,3.69c10.58,2.14,21.31,3.45,32.07,4.16c6.73,0.43,13.49-0.25,20.18-0.95c7.51-0.47,15-1.27,22.29-3.23
	c11.77-2.31,23.47-5.95,34.87-9.69c3.18-1.19,6.48-2,9.7-3.06c3.71-1.27,7.37-2.68,11.12-3.87c6.28-1.87,12.21-4.56,18.04-7.52
	c0.15-0.07,0.31-0.14,0.46-0.21c4.46-1.59,8.8-3.45,13.05-5.53c1.84-0.91,3.57-2.03,5.44-2.88c0.18-0.07,0.36-0.15,0.54-0.21
	c3.78-1.41,7.61-2.7,11.31-4.3c4.21-1.99,6.46-2.86,13-4.26c6.26-1.53,12.43-3.49,18.93-3.55
	C1140.04,711.42,1136.06,710.5,1131.99,710.51z"/>
<path class="st4" d="M1006.56,986.1c-8.05,2.94-16.83,2.27-25.26,2.64c-5.94-0.06-11.87,0.19-17.81-0.01
	c-7.72-0.75-15.5-0.77-23.22-1.52c-7.07-0.71-2.86-0.17-8.76-1.07c-5.69-1.18-11.46-1.78-17.22-2.5c-4.07-0.44-8.15-0.43-12.23-0.57
	c-8.23-0.51-9.93-0.95-12.85-1.43c-8.99-1.76-17.69-4.71-26.59-6.81c-7.46-2.02-14.53-5.21-21.74-7.94
	c-9.7-3.42-14.62-5.24-25.56-11.33c-8.55-5.4-17.07-11.04-24.57-17.87c3.84,7.01,8.99,13.16,14.17,19.21
	c8.01,9.47,18.21,17,29.05,22.96c6.65,3.9,13.21,8.06,20.35,11.04c8.65,3.33,17.38,6.68,26.41,8.85c7.16,1.68,14.52,2.43,21.85,2.87
	c5.58,0.01,11.16-0.01,16.74,0.39c6.37,0.14,12.7,1.15,19.08,0.66c10.33-0.45,20.33-2.19,26.14-2.79
	c8.51-1.56,16.95-3.67,25.21-6.27c6.62-2,13.38-4.24,18.63-8.93C1009.91,984.59,1007.2,985.93,1006.56,986.1z"/>
<path class="st4" d="M1192.09,812.08c-0.53-4.79-1.16-9.56-1.88-14.33c-0.04-0.83-0.21,0.52-0.3,0.77
	c-0.26,1.14-0.51,2.28-0.75,3.42c-0.94,4.48-2.02,8.92-2.84,13.42c-0.84,4.62-1.51,9.3-3.15,13.73
	c-4.6,13.25-6.78,22.47-10.85,31.28c0.28-0.67,0.56-1.34,0.85-2.01c-7.02,14.89-12.54,31.61-20.23,51.72
	c-0.09,1.4-5.76,11.14-8.85,17.5c-2.51,4.71-4.56,9.69-7.48,14.17c-2.88,4.13-6.4,7.75-9.89,11.36c5.17-2.58,10.35-5.28,14.82-8.98
	c4-3.51,7.53-7.55,11.09-11.5c5.36-6.06,11.17-11.8,15.16-18.92c7.05-12.01,12.71-24.78,17.19-37.96c2.4-7.42,5.24-14.82,6.2-22.61
	c0.99-8.99,2.24-17.99,2.39-27.05C1193.39,821.39,1192.56,816.75,1192.09,812.08z"/>
<path class="st1" d="M1215.28,545.57c-0.08-0.3-0.32-0.52-0.44-0.8c-0.11-0.2-0.17-0.42-0.31-0.6c-0.07-0.05-0.14-0.11-0.22-0.15
	c0.25,0.27,0.32,0.63,0.43,0.97c1.51,3.11-5.24,3.01-7.04,3.29c-3.49-0.02-6.99-0.52-10.49-0.19c-5.73,0.35-11.45,0.86-17.15,1.51
	c-11.2-0.32-22.41-0.95-33.62-0.92c-7.24-0.04-14.49,0.11-21.73-0.2c-6.28-0.46-12.53-1.23-18.83-1.4
	c-14.43-0.6-28.77-2.47-43.19-3.3c-14.64-1.72-29.32-3-44.01-4.1c-8.53-0.66-17.09-0.95-25.63-1.4c-7.67-0.48-15.33-0.97-23.02-1.06
	c-11.74-0.12-23.5,0.33-35.23-0.34c-6.1-0.53-8.42-1.54-15.38-2.58c-18.26-2.26-37.15-3.55-55.52-5.16
	c-6.16-0.46-12.34-0.59-18.5-1.09c-5.39-0.5-10.76-1.29-16.17-1.49c-5.69-0.31-11.39,0.12-17.07,0.36
	c-11.48,0.43-22.93,1.34-34.37,2.3c-4.26,0.25-8.45,1.05-12.62,1.94c-5.83,0.98-11.65,1.99-17.5,2.85
	c-11.34,1.47-22.32,4.76-33.21,8.15c-9.41,2.84-12.78,10.32-16.7,18.6c-3.5,7.22-6.54,14.65-9.5,22.11
	c4.28-7.06,8.49-14.16,13.04-21.05c2.63-3.82,4.85-8.13,8.55-11.05c0.85-0.62,1.76-1.17,2.72-1.61c0.38-0.15,0.94-0.38,1.23-0.47
	c2.71-0.99,5.57-1.36,8.36-2.04c6.75-1.73,13.58-3.09,20.41-4.48c8.18-1.34,16.39-2.46,24.55-3.89c5.69-1.11,6.14-1.33,11.66-1.75
	c11.11-0.94,22.23-1.82,33.37-2.25c6.48-0.33,12.96-0.7,19.44-0.28c9.81,1.02,19.63,1.96,29.5,2.22c11.75,0.9,23.49,1.82,35.21,2.96
	c5.92,0.25,20.06,1.91,22.27,2.16c5.3,0.92,10.4,2.17,15.8,2.61c15.51,0.94,31.08-0.01,46.6,0.76c14.05,1.03,28.14,1.42,42.18,2.52
	c8.82,0.81,17.66,1.53,26.49,2.34c6.37,0.66,12.71,1.6,19.11,1.85c14.74,1.23,29.47,2.67,44.25,3.26
	c12.13,1.42,24.33,1.26,36.52,1.17c10.4-0.22,20.85-0.27,31.22-1.16c4.7-0.94,9.36-2.12,14.09-2.91c3.51-0.8,7.06-1.32,10.65-1.53
	c1.53-0.03,3.01-0.42,4.48-0.82c1.6-0.37,3.25-0.75,4.56-1.77C1215.03,547.16,1215.43,546.32,1215.28,545.57z"/>
<path d="M1216.77,538.75c-0.04-1.51-0.48-3.47-1.53-4.01c-0.23-0.59-0.53-1.16-0.9-1.67c-0.26-0.33-0.54-0.53-0.83-0.65
	c-1.2-0.79-2.86-0.5-5.01,1.73c-0.11,0.09-0.21,0.19-0.31,0.28c-1.09,0.73-2.18,1.46-3.28,2.19c-0.57,0.27-1.15,0.51-1.75,0.69
	c-1.73,0.4-3.47,0.75-5.22,1.06c-4.88,0.84-9.82,1.19-14.72,1.91c-4.49,0.75-9.03,0.8-13.56,0.83c-4.46,0.19-8.87,0.96-13.2,2.02
	c-0.9,0.2-1.8,0.36-2.7,0.52c-5.23-0.03-10.38-1.47-15.64-1.19c-6.04,0.13-12.09,0.57-18.09,1.29c-1.94,0.22-3.79,1.07-5.77,0.94
	c-6.97-0.51-13.87-1.79-20.83-2.46c-7.1-0.6-14.25-1.05-21.37-0.74c-8.39,0.56-16.8,0.71-25.19,0.98
	c-4.14,0.09-8.24-0.63-12.33-1.17c-7.33-0.96-14.71-1.74-22.1-1.86c-5.58-0.05-11.16,0.34-16.75,0.27
	c-7.01-0.33-14.02-0.28-21.04-0.21c-5.24,0.06-10.47,0.18-15.71,0.37c-4.57-0.46-9.14-0.92-13.72-1.34
	c-18.91-1.66-37.89-2.87-56.67-5.74c-16.16-3-32.59-3.44-48.98-3.78c-8.85-0.1-17.7-0.31-26.55-0.18c-9.56-0.23-19.1,0.5-28.59,1.63
	c-8.17,0.71-16.37,1.22-24.44,2.77c-1.52,0.32-3.04,0.6-4.58,0.87c-9.49,1.23-19.09,1.35-28.64,1.88c-2.86,0.23-5.52,1.12-8.01,2.39
	c-0.84-0.76-2.2-0.36-3.14,0.09c-1.51,0.63-3,1.32-4.41,2.15c-7.83,4.85-13.69,12.33-18.1,20.31c-0.59,1.14-1.18,2.3-1.67,3.49
	c0,0-0.01,0.01-0.01,0.01c0,0,0,0,0,0c-0.5,1.23-0.89,2.49-1.06,3.8c-0.08,0.18-0.16,0.35-0.24,0.53
	c-2.44,4.08-5.47,8.15-4.83,13.11c-0.24,2.65,2.22,9.17,5.54,6.26c0.93-0.69,1.35-1.85,2.03-2.76c1.25-1.77,2.15-3.72,2.97-5.7
	c0.95-1.59,1.91-3.18,2.88-4.75c0.22-0.28,0.46-0.59,0.75-0.97c2.85-4.01,8.27-6.44,15.12-9.37c2.5-0.99,5.02-1.95,7.6-2.72
	c3.73-0.84,7.55-1.27,11.26-2.23c6.58-1.5,10.15-3.01,14.59-3.68c7.14-0.74,14.07-1.19,21.01-3.21c5.32-1.28,10.79-1.65,16.21-2.27
	c12.81,1.16,25.64,2.11,38.43,3.44c17.69,1.84,35.37,4.59,53.2,4.55c7.35-0.03,14.69-0.61,22.04-0.83
	c13.51,1.86,27.04,3.55,40.48,5.92c11.13,1.93,22.28,3.76,33.49,5.18c9.62,0.98,19.26,1.77,28.91,2.44
	c29.02,2.02,58.22,1.74,87.19-0.88c6.99-0.44,14.01-0.47,20.96-1.31c3.01-0.35,6-0.8,8.99-1.3c2.1-0.17,4.2-0.35,6.3-0.49
	c6.34-0.34,12.44-2.32,18.75-2.91c4.3-0.5,8.67-0.48,12.91-1.42c4.17-1.02,7.93-2.62,9.86-2.86c5.85-1.17,11.78-1.91,17.69-2.64
	c4.18-0.75,8.36-1.48,12.54-2.23c2.15,0.14,4.29,0.39,6.42,0.38c2.12-0.4,3.97-1.61,5.56-3.03c0.86-1.17,1.39-2.54,1.68-3.97
	c0,0,0.01-0.01,0.01-0.01c0.48-0.44,0.93-0.92,1.38-1.39c1.38-0.8,2.57-1.77,3.06-3.39c0.15-0.35,0.28-0.74,0.38-1.16
	c0.07-0.06,0.14-0.11,0.21-0.17C1216.53,541.36,1216.73,540.02,1216.77,538.75z"/>
<path class="st5" d="M1222.57,576.01c-1.63-6.41-2.03-14.12-4.89-24.36c0.7,6.5,0.06,13.53,0.24,20.31
	c0.37,7.47,0.34,11.58-0.01,15.45c-0.88,7.2-1.7,14.41-2.38,21.63c-0.96,8.17-2.4,16.26-3.71,24.38
	c-1.22,7.36-3.85,16.57-5.63,30.19c-0.58,3.96-1.18,7.92-1.82,11.87c0.87-2.05,1.71-4.1,2.51-6.17c3.56-9.5,5.64-15.54,8.58-23.16
	c3.44-9.69,5.71-19.81,7.24-29.97c0.71-5.65,0.83-11.36,0.99-17.05C1224.05,591.41,1224.03,583.62,1222.57,576.01z"/>
<path class="st5" d="M713.24,683.37c-1.19-9.1-3.01-13.95-4.04-22.09c-1.56-11.55-1.19-16.04-2.41-28.74
	c-1.54-15.28-4.82-30.92-5.87-45.9c-2.99,18.97-1.58,38.28,0.03,57.31c0.77,8.18,2.16,16.33,4.71,24.15
	c2.11,6.19,5.2,11.99,7.44,18.13c0.26,0.66,0.49,1.25,0.74,1.91C713.67,686.55,713.46,684.96,713.24,683.37z"/>
<path class="st5" d="M762.24,866.31c-1.9-4.63-3.94-13.34-5.64-19.49c-1.69-5.57-3.79-11.01-5.26-16.64
	c-2.32-9.18-5.15-18.2-7.84-27.27c-2.48-9.36-5.29-18.61-8.65-27.7c-3.74-11.63-5.96-23.77-11.08-34.92
	c3.25,16.09,3.08,32.69,7.32,48.6c2.28,8.76,3.69,17.74,6.29,26.42c3.87,10.73,7.17,21.75,12.43,31.9c4.42,7.9,7.19,16.8,13.08,23.8
	c1.06,1.19,2.19,2.33,3.38,3.39C764.68,871.83,763.41,869.09,762.24,866.31z"/>
<path class="st5" d="M1173.12,857.28c-2.14,5.3-4.85,10.35-7.32,15.5c-5.45,10.38-9.72,21.32-14.58,31.97
	c-6.01,12.34-11.58,24.95-19.15,36.44c-1.51,2.24-7.62,11.42-10.31,15.71c-0.8,1.29-1.6,2.59-2.4,3.89
	c0.22-0.22,0.45-0.43,0.68-0.64c4.18-4,8.03-7.13,12.35-11.14c9.12-8.04,15.88-18.22,22.24-28.48c4.08-6.35,7.37-13.15,10.62-19.95
	c4.65-9.63,9.03-19.39,12.67-29.45c2.52-6.92,3.77-14.24,4.95-21.49c2.42-15.1,3.25-30.4,4.23-45.65
	C1182.7,821.82,1179.16,839.92,1173.12,857.28z"/>
<path class="st5" d="M1000.32,695.5c-7.24,2.98-14.99,4-22.72,4.7c-6.82,1.02-13.68,0.87-20.52,0.11
	c-7.59-0.39-14.95-2.32-22.34-3.91c-7.33-1.86-14.79-3.12-22.11-5.01c-8.42-1.8-16.93-3.12-25.36-4.89
	c-7.38-1.78-14.93-2.66-22.4-3.96c-6.06-0.98-11.93-2.95-18.08-3.37c-5.26-0.59-10.56-0.68-15.86-0.71
	c-9.66-0.58-19.32-0.93-29-0.82c9.21,2.26,17.56,4.61,26.72,7.43c6.66,1.9,11.38,2.78,18.45,5.28c5.14,1.56,9.8,4.26,14.83,6.11
	c8.43,3.24,17.08,5.86,25.58,8.9c13.51,4.13,27.38,7.27,41.43,8.81c7.68,1.04,15.44,1.92,23.2,1.74c8.5-0.66,17.04-1.57,25.01-4.78
	c5.04-1.86,10.18-3.55,14.91-6.14c3.85-2.07,7.4-4.65,10.87-7.3c2.76-2.08,5.49-4.23,7.94-6.67
	C1007.54,692.89,1003.89,694.12,1000.32,695.5z"/>
<path class="st5" d="M950.08,574.95c-8.19-1.29-15.64-4.37-23.96-7.25c-8.82-3.12-18.03-4.76-27.22-6.4
	c-8.6-1.57-17.19-3.15-25.81-4.57c-7.74-1.34-15.41-3.08-23.16-4.36c-6.85-0.93-13.75-1.47-20.64-2.05
	c-6.33-0.5-12.69-0.96-19.04-0.7c-7.3,0.25-14.55,1.26-21.8,2.07c-16.95,2.31-34.31,4.58-50.04,11.68
	c-8.27,4.18-16.22,9.36-23.41,15.21c4.1-2.42,8.47-4.34,12.89-6.1c4.33-1.77,8.72-3.47,13.33-4.37c14.27-2.68,28.91-1.89,43.36-1.71
	c8.72,0.27,17.45,0.28,26.16,0.84c10.52,0.66,21.01,1.85,31.48,3.05c8.49,0.99,16.86,2.79,25.36,3.76
	c10.14,1.14,20.36,1.62,30.56,1.95c8.14,0.29,16.3-0.1,24.41,0.71c6.85,0.61,13.67,1.62,20.57,1.69c4.84-0.08,9.62-0.76,14.4-1.44
	c1-0.15,2-0.3,3-0.45C957.01,576.07,953.54,575.54,950.08,574.95z"/>
<path class="st5" d="M1166.88,564.73c-6.5-0.62-13.06-1.1-19.58-0.57c-16.58,1.92-33.14,4.16-49.51,7.42
	c-7.89,1.5-15.58,3.87-23.44,5.49c-8.6,1.66-17.27,3.11-25.99,4.03c-8.7,0.99-17.46,1.21-26.21,1.62
	c-10.02,0.53-20.03,1.19-30.04,1.85c-0.43,0.03-0.86,0.06-1.29,0.09c3.14,0.41,6.27,0.81,9.41,1.21
	c14.63,1.75,29.24,3.77,43.96,4.62c13.55,0.36,27.2-0.5,40.46-3.42c15.72-3.3,31.4-6.71,47.11-10.05c6.9-1.51,13.7-3.53,20.7-4.46
	c17.53-2.03,35.26-1.59,52.86-2.77C1192.51,568.02,1179.75,565.95,1166.88,564.73z"/>
<path class="st5" d="M1058.08,986.82c-10.92,1.04-21.84,3.04-32.83,2.68c-19.21-0.79-38.07-5.13-57.27-6.06
	c-8.12-0.31-16.26,0.05-24.39-0.01c-7.46-0.15-14.89-0.68-22.33-1.31c-9.96-0.95-19.9-2.23-29.92-2.32
	c-9.74,0.2-19.39,1.58-29.03,2.96c9.73,1.32,19.51,2.32,29.15,4.23c16.23,3.79,34.15,9.92,52.5,11.77c11.36,1,22.78,0.99,34.17,1.61
	c14.06,0.81,28.17,1.61,42.22,0.21c8.17-0.71,16.08-2.87,23.78-5.63c6.98-2.34,13.93-4.77,20.71-7.63c1.81-0.75,3.59-1.56,5.36-2.38
	C1066.22,985.76,1062.15,986.32,1058.08,986.82z"/>
<path class="st5" d="M836.78,357.57c-2.28-4.91-5.2-9.41-8.61-13.61c-2.76-4.24-6.3-7.84-9.49-11.73
	c-4.65-6.14-8.52-12.84-13.68-18.58c-0.87-1.13-1.58-2.38-3.88-5.93c-3.23-4.85-2.41-3.26-4.49-6.93c-5.03-9.51-4.99-9.61-7.51-19.9
	c-2.49-8.55-2.17-6.23-2.76-12.58c0-0.08-0.01-0.15-0.01-0.24c-0.12-9.54,0.44-7.89,1.41-19.63c1.8-20.15,2.2-30.17,10.12-44.99
	c2.5-4.07,4.62-8.5,8.01-11.92c4.75-4.5,9.37-9.26,15.13-12.47c-6.23,1.58-11.73,5.06-17.17,8.35
	c-6.58,5.24-11.84,12.14-15.75,19.56c-6.85,14.01-8.28,29.79-10.79,44.98c-1.55,9.97-1.93,20.29,0.34,30.17
	c0.72,3.24,1.97,6.33,2.97,9.49c1.27,4.09,2.34,8.25,4.19,12.13c2.84,5.22,5.83,10.53,9.92,14.88c2.09,2.11,3.96,4.42,6,6.57
	c3.08,2.76,5.21,4.14,6.54,5.6c3.81,3.83,7.56,7.76,11.81,11.11c3.57,2.52,5.18,3.92,8.18,6.72c3.02,2.51,5.96,5.15,8.22,8.4
	c0.99,1.28,2.07,2.48,3.15,3.68C837.99,359.66,837.38,358.62,836.78,357.57z"/>
<path class="st5" d="M1036.36,247.97c-0.99-3.7-2.25-7.33-3.34-11.01c-0.95-2.96-1.52-6.07-2.99-8.84
	c-2.36-3.99-4.86-8.04-8.31-11.18c-4.7-3.78-10.63-6.5-16.56-7.54c6.08,2.33,11.82,6.39,15.99,11.38c1.85,2.2,5.03,8.95,5.94,11.32
	c1.55,4.82,1.74,10.64,3.04,16.07c1.45,8.06,1.67,12.7,1.75,17.13c-0.66,6.83-2.22,13.56-3.27,20.34c-0.85,4.19-0.47,2.39-0.95,4.76
	c-0.18,0.78-1,4.56-1.25,5.78c-1.01,4.58-0.37,3.03-2.7,9.59c-0.01,0.03-0.03,0.07-0.04,0.1c-4.09,8.21-8.71,16.38-10.2,25.56
	c-0.07,0.33-0.13,0.66-0.19,0.98c-0.25,1-0.81,3.24-1.16,4.14c-1.65,4.78-1.15,3.64-2.26,5.93c-3.57,6.53-4.58,7.27-9.03,14.12
	c-1.8,2.69-4.12,4.99-5.94,7.66c-2.51,3.65-4.87,7.41-7.7,10.84c-2.22,2.59-4.77,4.88-6.73,7.7c-2.1,2.93-4.54,5.58-6.86,8.33
	c-3.44,4.4-6.73,8.93-10.64,12.95c-0.84,0.89-1.68,1.78-2.53,2.67c1.21-0.82,2.45-1.62,3.66-2.45c5.35-3.59,9.26-7.89,13.75-11.27
	c4.24-3.6,6.23-5.97,10.11-8.7c5.3-4.22,9.05-9.99,14.14-14.43c5.02-5.36,9.99-10.87,13.86-17.14c1.84-3.5,3.27-7.22,4.59-10.95
	c0.79-2.63,1.21-5.36,2.2-7.93c2.08-5.15,4.96-9.9,7.38-14.87c2.72-6.12,4.27-12.61,5.26-19.21c2.05-11.18,3.62-22.55,3.84-33.92
	C1039,259.88,1037.66,253.83,1036.36,247.97z"/>
<path class="st5" d="M1160.85,228.12c-2.16-9.24-4.29-18.51-8.18-27.21c-0.18-0.4-0.25-0.58-0.27-0.62
	c-1.22-3.13-2.37-6.28-3.85-9.3c-3.57-6.23-2.44-3.84-4.35-7.02c-2.94-5.87-7.09-10.94-10.67-16.4c-1.96-3.02-4.32-5.74-6.53-8.58
	c-1.86-2.54-3.55-5.24-5.93-7.35c-8.01-7.08-15.3-14.95-23.55-21.77c-3.74-3.05-7.96-5.42-11.84-8.27
	c-8.02-5.76-13.51-9.93-19.05-15.06c-3.4-2.96-2.91-2.25-6.05-5.32c-2.31-2.66-4.96-4.94-7.87-6.93c-0.08-0.06-0.15-0.12-0.22-0.18
	c-1-0.88-1.9-1.89-2.44-3.12c-0.88-1.99-1.24-3.7-1.23-5.04c0-3.07,2.33-5.84,4.82-7.62c2.65-2.21,5.64-3.95,8.55-5.79
	c-4.97,1.52-11.29,2.42-14.46,6.96c-3.7,5.97-2.42,14.58,0.59,20.6c1.83,3.4,5.01,5.74,7.12,8.93c2.34,3.78,5.26,7.11,8.17,10.45
	c3.29,4.22,6.97,8.09,10.79,11.84c8.26,8.26,18,14.15,23.53,19.66c5.35,5.1,10.78,10.13,16.3,15.05c4.03,3.44,2.88,1.86,8.7,9
	c3.6,3.67,6.58,7.81,9.54,12c3.99,4.97,3.02,4.06,6.65,9.83c3.7,5.54,3.56,4.67,6.35,11.12c3.15,7.3,4.18,9.03,6.59,18.48
	c2.31,9.2,3.52,12.09,4.35,18.65c0.88,5.29,0.26,22.23-0.33,27.98c-1.43,16.8-3.86,33.47-7.17,49.99
	c-1.66,9.52-3.22,16.59-7.02,26.74c-0.2,0.47-0.38,0.95-0.59,1.42c-1.11,2.57-2.53,4.99-3.69,7.54c-1.39,3-2.32,6.18-3.58,9.23
	c1.16-1.91,2.19-3.89,3.29-5.83c1.81-3.11,4.53-6.15,6.33-9.54c4.43-8.05,7.39-16.79,9.71-25.66c5.01-17.43,8.66-35.25,10.27-53.33
	C1164.96,258.46,1165.16,242.9,1160.85,228.12z"/>
</svg>
