<?xml version="1.0" encoding="utf-8"?>
<!-- Generator: Adobe Adobe Illustrator 24.2.0, SVG Export Plug-In . SVG Version: 6.00 Build 0)  -->
<svg version="1.1" id="Layer_1" xmlns="http://www.w3.org/2000/svg" xmlns:xlink="http://www.w3.org/1999/xlink" x="0px" y="0px"
	 width="1920px" height="1080px" viewBox="0 0 1920 1080" style="enable-background:new 0 0 1920 1080;" xml:space="preserve">
<style type="text/css">
	.st0{fill:#C7BECC;}
	.st1{fill:none;stroke:#FFFFFF;stroke-miterlimit:10;}
	.st2{fill:#FFFFFF;}
	.st3{fill:none;}
	.st4{fill:#A37734;}
	.st5{fill:#D1AE79;}
	.st6{fill:#403824;}
	.st7{fill:#827A65;}
	.st8{fill:#29261F;}
	.st9{fill:#7A7058;}
	.st10{fill:#C2C2C2;}
</style>
<g id="Layer_3">
	<path class="st0" d="M978.53,510.23c-2.9-3.73-5.92-2.45-9.83-1.61c-3.98,0.79-7.85,2-11.6,3.52c-1.59-1.24-3.51-1.76-5.52-0.65
		c-25.1,14.25-48.96,30.52-72.28,47.48c12.13-14.77,24.09-29.67,35.62-44.91c-21.96,20.82-44.63,40.86-66.81,61.45
		c-4.75,4.69-9.49,9.39-14.22,14.11c-4.83,4.74-9.36,10.26-10.93,16.95c-0.38,0.31-0.77,0.62-1.15,0.94
		c-8.8,7.1-17.5,14.57-23.39,24.36c-2.33,5.33-2.93,11.42-1.62,17.08c0.63,3.4,2.04,7.12,5.07,9.05c1.87,1.15,3.78,2.17,5.99,2.49
		c5.87-0.05,10.9-3.49,15.75-6.41c9.4-4.97,18.28-10.82,27.14-16.68c14.54-9.75,28.84-19.84,43.15-29.91
		c-1.68,3.27-3.21,6.6-4.52,10.04c2.7-5.13,6.61-9.61,10.3-14.11c3.44-2.42,6.89-4.84,10.34-7.25
		c14.75-10.36,29.77-20.35,44.19-31.18c5.71-4.31,11.54-8.46,17.5-12.4c1.98-1.67,4.19-3.21,5.69-5.36
		c2.35-3.02,3.58-6.67,4.6-10.31C984.31,528.18,984.1,517.72,978.53,510.23z"/>
</g>
<g id="Layer_2">
</g>
<path class="st1" d="M1332.12,875.32C1315,851,1304,823,1304,794c-1-12,5-24,11.91-34.08"/>
<path class="st2" d="M917.25,503.41c-0.52-4-1.9-7.84-4.31-11.1c-0.72-1.05-1.66-1.65-2.84-1.82c-0.68-0.36-1.36-0.36-2.03,0
	c-1.83,0.14-2.78,1.86-4.02,3.04c-0.06,0.07-0.12,0.15-0.18,0.22c-0.34-0.04-0.68-0.03-1.03,0.03c-1.64-6.16-4.72-10.65-10.31-11.13
	c-0.16,0.01-0.31,0.03-0.46,0.05c-0.39-0.48-0.82-0.92-1.31-1.3c-1.27-1.58-3.33-1.48-5.08-0.79c-1.5,0.92-2.55,2.29-3.37,3.81
	c-0.92-0.47-1.89-0.68-2.89-0.16c-1.23,0.17-2.22,0.8-2.96,1.89c-1.49,1.41-3.09,2.7-4.55,4.13c-0.06-0.23-0.12-0.47-0.19-0.71
	c-0.87-2.53-1.9-4.91-3.64-7c-0.72-0.64-1.46-1.26-2.21-1.86c-0.35-0.31-0.72-0.62-1.11-0.89c-0.03-0.02-0.05-0.04-0.08-0.07
	c0.02,0.02,0.04,0.03,0.06,0.05c-1.16-0.82-2.45-1.33-3.85-0.61c-0.92,0.07-1.66,0.47-2.23,1.21c-0.57,0.41-1.07,0.88-1.5,1.4
	c-2.58-3.55-6.49-5.22-10.41-0.45c-3.15,3.39-4.92,7.79-6.22,12.25c-0.53-2.58-1.18-5.15-2.83-7.25c-0.45-1-1.13-1.79-2.04-2.38
	c-0.92-1.05-2.11-1.58-3.57-1.6c-0.82,0.22-1.64,0.44-2.46,0.66c-0.83,0.49-1.53,1.09-2.13,1.77c-0.78-1-1.69-1.9-2.76-2.67
	c-3.28-1.66-5.87,0.02-7.77,2.58c-2.06-2.12-4.84-2.59-7.92,0.91c-2.56,3.49-3.73,7.7-4.49,11.91c-0.5,3.2-0.58,6.44-0.72,9.68
	c-1.05,12.1-0.92,10.67-1.63,25.38c-0.22,11.1-0.06,22.2,0.25,33.3c-0.02,0.6-0.06,1.19-0.08,1.79c0.12,3.23-0.34,6.69,0.88,9.75
	c0.64,2,1.89,3,3.14,3.01c0.22,1.95,0.44,3.89,0.65,5.83c0.54,4.39,3.03,13,8,13.79c0.24,0.12,0.47,0.2,0.7,0.26
	c0.23,0.79,0.5,1.58,0.84,2.34c0.98,2.83,2.81,6.45,6.03,6.96c1.23,0.55,2.46,0.44,3.69-0.33c0.05-0.04,0.1-0.08,0.15-0.11
	c0.81,1.22,1.75,2.32,3.08,3.09c1.2,0.76,2.41,0.86,3.61,0.32c1.67-0.25,2.99-1.43,4.03-2.93c0.22,3.72,0.75,7.44,2.44,10.81
	c1.29,3.17,4.7,5.87,8.11,4.29c2.82-1.65,3.93-4.73,4.98-7.66c0.71-2.44,1.02-4.93,1.12-7.45c0.11-0.13,0.23-0.25,0.34-0.39
	c-0.11,0.09-0.22,0.19-0.33,0.28c0,0,0-0.01,0-0.01c0.25-0.21,0.5-0.42,0.75-0.64c0.08-0.09,0.16-0.2,0.24-0.29
	c0.44,1.81,1.04,3.58,1.9,5.26c1.26,2.11,2.76,4.28,5.05,5.34c0.29,0.06,0.58,0.15,0.86,0.24c1.26,2.67,3.32,5.31,6.14,4.37
	c1.07-0.15,1.93-0.7,2.58-1.65c2.68-3.87,3.76-7.8,5.04-14.76c1.06-2.55,1.99-5.14,2.85-7.76c0.86,2.66,2,5.21,3.64,7.5
	c1.01,1.12,2.21,2.2,3.57,2.87c1.05,0.28,2.13,0.79,3.22,0.7c3.54-0.55,5.27-3.29,6.99-6.15c0.91-1.69,1.6-3.45,2.16-5.26
	c0.2-0.06,0.41-0.12,0.61-0.16c1.03-0.54,1.97-1.43,2.74-2.29c2.64-3.47,3.63-7.77,4.34-11.99c0.84-4.38,1.39-8.81,1.8-13.25
	c0.14-0.78,1.62-16.97,3.59-29.22c1.28-8.34,2.77-16.65,4.3-24.95C917.36,512.85,917.81,508.13,917.25,503.41z"/>
<path class="st2" d="M1025.6,543.03c-3.88,0.37-7.81,0.07-11.65,0.79c-5.72,1.19-11.2,3.31-16.36,6.02
	c-0.03,0.02-0.07,0.04-0.1,0.05c-2.97,0.09-5.9,0.82-8.76,1.62c-4.82,1.18-9.29,3.44-13.86,5.32c-0.78,0.33-1.55,0.68-2.32,1.01
	c-0.47,0.04-0.93,0.09-1.4,0.15c-4.57-3.27-10.03-5.53-15.98-6.88c-1.34-0.35-2.7-0.62-4.08-0.83c0.86,0.23,1.73,0.46,2.59,0.7
	c-11.02-3.43-27.55,2.09-37.63,7.03c-14.3,7.57-28.25,16.19-40.08,27.3c-11.17,10.62-17.99,21.19-22.41,31.43
	c-8.15-9.34-17.18-17.95-26.4-26.21c-5.33-4.67-7.79-6.77-9.65-8.33c0.02-0.12,0.04-0.23,0.05-0.35c1.6,0.82,3.21,1.61,4.84,2.37
	c5.95,2.73,11.8,6.74,18.58,6.59c2.98-0.34,4.8-3.02,5.66-5.68c1.73-3.92,1.63-8.38,1.29-12.57c-0.4-3.07-1.37-6.17-3.31-8.62
	c-1.8-1.94-3.54-3.94-5.38-5.84c1.74-4.23,1.72-9.42,1.36-13.8c-0.42-4-2.1-7.69-4.63-10.78c-1.43-2.06-2.84-4.16-4.57-5.98
	c-3.89-4-8.03-7.74-12.24-11.39c-0.17-0.66-0.34-1.31-0.52-1.97c-1.71-7.53-4.11-14.89-6.64-22.18
	c-4.83-12.76-9.45-25.64-15.46-37.89c-3.15-6.7-6.34-13.39-9.49-20.1c-2.42-5.58-4.94-11.29-9.06-15.85
	c-1.67-1.56-3.51-2.89-5.53-3.97c-1.4-1.02-3.07-1.48-4.65-0.55c-1.99,1.17-2.96,3.2-3.92,5.21c-2.11,3.56-3.65,7.4-4.6,11.4
	c-0.85-1.85-1.7-3.71-2.56-5.56c-1.85-4.02-3.7-8.03-6.29-11.64c-1.67-2.5-4.18-4.28-6.72-5.83c-3.05-2.35-5.73-0.06-7.46,2.62
	c-0.32-0.4-0.65-0.8-1.01-1.18c-0.77-0.67-1.56-1.32-2.35-1.97c-0.68-0.96-1.57-1.52-2.67-1.67c-0.98-0.44-1.95-0.35-2.93,0.26
	c-2.5,1.97-5.15,3.75-7.5,5.91c-2.51,2.65-4.59,5.62-6.39,8.75c0.32-2.59,0.63-5.17,0.92-7.76c-0.02-1.75-0.12-3.55-0.38-5.33
	c2.61-6.49,5.21-12.98,7.75-19.49c2.44-6.36,5.4-12.98,4.56-19.94c-0.23-4.75-1.55-10.03-5.58-12.95c-1.04-0.65-2.07-0.74-3.1-0.28
	c-1.2,0.17-2.17,0.78-2.9,1.85c-1.68,1.57-3.39,3.1-4.95,4.78c-1.52-0.09-3.13,0.34-4.44,1.09c-0.44,0.32-0.87,0.66-1.29,1
	c-2.9-1.12-6.44,1.36-8.73,3.2c-2.69,2.02-5.27,4.19-7.84,6.37c-1.48,1.28-2.84,2.45-4.12,3.56c-0.59,0.37-1.19,0.73-1.79,1.09
	c-0.37,0.08-0.75,0.21-1.14,0.39c-0.94,0.51-1.76,1.14-2.52,1.85c-3.38,2.1-6.68,4.31-9.67,6.95c-1.66,2.16-2.66,4.64-3.21,7.25
	c-0.89,0.96-1.81,1.95-2.79,3.03c-3.09,3.77-4.46,10.89-3.67,17.27c-0.26,0.18-0.5,0.37-0.73,0.56c-1.05-0.37-2.19-0.35-3.34,0.3
	c-2.12,1.28-3.3,3.42-4.1,5.7c-0.35,0.8-0.67,1.62-0.98,2.44c-1.32,1.3-2.58,3.42-3.63,6.53c-0.85,2.52-1.27,5.11-1.48,7.73
	c-1.45,2.87-1.89,6.36-2.39,9.47c-0.94,11.68-0.53,23.44,0.59,35.13c-0.23,2.11-0.13,4.25,0.03,6.37c-0.59,0.83-1.09,1.74-1.6,2.53
	c-2.11,4.32-2.68,9.44-2.33,14.19c0.69,9.21,4.7,17.9,9.17,25.87c0.97,1.61,2.76,4.65,4.99,7.96c0.6,2.86,1.23,5.71,1.87,8.56
	c1.15,5.86,3.08,11.61,6.63,16.47c0.74,1.09,1.73,1.72,2.96,1.89c0.7,0.38,1.41,0.38,2.11,0c1.06-0.09,1.83-0.66,2.55-1.38
	c0.08,0.09,0.16,0.17,0.24,0.26c0.01,0.12,0.02,0.25,0.03,0.36c0.14,6.01,2.76,11.66,6.12,16.55c3.42,5.36,7.36,10.37,11.18,15.44
	c0.42,0.54,0.83,1.08,1.24,1.62c4.24,6.55,8.77,12.91,13.43,19.15c4.09,5.16,8.16,10.34,12.27,15.49
	c7.46,8.23,15.16,16.24,23.38,23.71c0.97,0.78,1.86,1.68,2.91,2.35c1.33,0.62,2.84,0.97,4.3,1.08c0.17,0.02,0.33,0.01,0.49,0.01
	c0.15,0.13,0.3,0.26,0.45,0.39c2.18,1.84,4.58,3.4,7.04,4.83c1.25,0.89,2.66,1.57,4.14,1.96c0.41,1.79,0.97,3.54,1.74,5.22
	c4.24,8.44,11.4,15.06,19.11,20.35c8.51,5.69,17.73,10.58,27.78,12.83c2.09,0.48,4.21,0.96,6.37,1.02c0.79-0.27,1.68-0.37,2.45-0.69
	c4.71,1.81,9.49,3.48,14.22,5.25c1.97,0.73,3.96,1.43,5.96,2.1c1.38,0.47,2.86,0.92,4.25,0.16c2.77-1.62,4.13-4.83,4.67-7.86
	c0.17-0.67,0.28-1.35,0.37-2.03c2.86,0.79,5.73,1.53,8.57,2.29c6.18,1.52,12.45,2.81,18.8,3.26c1.22,1.69,2.79,3.25,4.99,2.63
	c0.27-0.04,0.57-0.11,0.84-0.08c0.3,0.22,0.48,0.57,0.77,0.8c3.89,3.6,15.42-1.69,19.67-3.65c1.18-0.55,2.34-1.16,3.53-1.7
	c-0.14,0.01-0.28,0.02-0.42,0.03c-4.24,0.38-8.43,1.14-12.65,1.63c-1.97,0.2-3.94,0.35-5.92,0.35c-0.81,0.02-1.68,0.05-2.44-0.22
	c4.6-1.12,7.71-4.41,9.48-9.75c0.96-0.06,1.92-0.12,2.87-0.18c15.93-0.3,31.93-3.85,46.01-11.43c5.32-2.85,10.3-6.28,15.07-9.99
	c2.43-1.29,4.79-2.74,7.1-4.25c6.72-3.99,13.27-8.28,19.31-13.27c7.53-6.08,14.74-12.61,20.69-20.28
	c8.07-10.51,11.56-16.37,15.15-21.89c6.12-9.58,11.51-20.65,13.05-32.06c3.66-6.37,5.68-13.66,6.54-20.93
	C1035.04,558.65,1033.65,543.88,1025.6,543.03z M720.15,448.05c1.05-2.38,2.18-4.73,3.47-6.99c-1.73,8.69-2.47,17.63-2.85,26.42
	c-0.64-0.53-1.3-1.03-2.02-1.46c-1.53-0.81-2.9-2-4.59-2.46C716.1,457.6,718.09,452.3,720.15,448.05z M743.31,440.81
	c-0.04-0.6-0.09-1.21-0.13-1.81c0.29,0.55,0.57,1.1,0.85,1.65C743.78,440.69,743.54,440.74,743.31,440.81z M782.73,485.16
	c-2.74-6.95-5.18-13.03-7.95-19.69c-1.66-7.82-2.64-16.38-2.61-20.45c0-0.22,0-0.44,0-0.67c0.14,0.18,0.28,0.37,0.41,0.56
	c2.18,3.72,3.67,7.78,5.58,11.64c2.79,5.79,5.53,11.6,8.3,17.39c3.24,6.49,6.11,13.12,8.65,19.91c0.38,0.94,0.75,1.85,1.12,2.74
	C791.47,492.57,787.15,488.92,782.73,485.16z M875.76,704.29c-3-0.73-5.93-1.71-8.81-2.82c-0.88-1.05-1.77-2.1-2.7-3.11
	c0.45,0.86,0.89,1.72,1.34,2.58c-0.94-0.38-1.87-0.76-2.79-1.16c-3.76-1.69-7.79-3.57-11.81-5.56c0.73-2.67,1.01-5.54,1.05-8.28
	c1-0.86,1.9-1.8,2.68-2.84c3.81,5.84,8.8,10.85,14.86,14.07c5.68,2.56,11.85,2.55,17.95,2.21
	C885.18,703.62,880.59,705.88,875.76,704.29z M798.12,493.72c-0.3-0.62-1.09-0.63-1.67-0.82c-0.63-0.14-1.3-0.25-1.96-0.22
	c-0.02,0-0.03,0-0.05-0.01c-0.56-0.18-1.26-0.48-2.07-0.26c-0.2,0.17-0.35,0.37-0.48,0.6c-0.03,0.01-0.06,0.01-0.09,0.03
	c-0.24-0.06-0.49-0.06-0.67,0.05c-0.09,0.01-0.18,0.01-0.26,0.04c-0.47,0.37-0.45,1.08-0.33,1.61c0.08,0.42,0.46,0.62,0.83,0.73
	c0.05,0.01,0.08,0.04,0.13,0.05c0.04,0.08,0.07,0.16,0.13,0.23c0.1,0.38,0.26,0.73,0.46,1.02c0.63,0.76,1.67,0.89,2.58,1.09
	c0.99,0.15,2.03,0.59,3.02,0.27C798.89,497.13,798.85,495.01,798.12,493.72z"/>
<path class="st2" d="M882.01,511.65c0.09-0.71,0.21-1.42,0.34-2.12c1.67-7.27,4.3-14.29,5.51-21.67c0.51-4.27,0.05-8.99-2.55-12.53
	c-1.91-1.95-3.98-2.02-5.9,0.04c-2.31,3.13-3.64,6.83-5.01,10.45c-1.66,4.25-3.32,8.49-5.04,12.72
	c-7.47,18.67-16.11,37.33-18.51,57.46c-1.12,6.12-1.88,12.31-2.3,18.52c-0.24,2.61-0.42,5.22-0.56,7.83
	c-0.66,2.62-1.22,5.26-1.62,7.93c-1.53,11.9-2.07,23.94-0.43,35.86c0.8,5.32,3.3,7.44,5.53,6.55c0.83,4.98,1.99,9.89,3.71,14.66
	c1.14,1.93,3.13,4.78,5.67,3.71c0.7-0.05,1.27-0.36,1.7-0.92c0.67-0.43,1.16-1.01,1.49-1.73c3.1-5.03,3.12-11.44,2.96-17.19
	c-0.58-8.73-1.78-21.95-2.02-40.9c0.29-5.92,0.85-10.24,2.57-21.36c1.85-11.38,1.31-8.45,3.29-15.69c0.09-0.27,0.17-0.55,0.25-0.82
	c1.76-2.22,3.48-4.49,4.91-6.94c4.42-7.29,7.04-15.75,6.41-24.33c-0.08-1.45-0.19-2.91-0.31-4.36
	C882.03,515.09,881.98,513.37,882.01,511.65z"/>
<path class="st3" d="M700.67,700.45L700.67,700.45c-1.57,0.22-3.15,0.44-4.72,0.66l-11.44,1.59l-9.52,1.33l0,0
	c-10.14,1.76-20.29,3.74-30.25,6.29l0,0c-5.68,1.45-11.48,2.84-16.85,5.14l0,0c-2.74,1.17-5.36,2.73-7.82,4.41l0,0
	c-1.52,1.04-2.95,2.23-4.28,3.5l0,0c-0.77,0.74-2,1.51-2.14,2.4l0,0c-0.29,1.78,1.34,4.21,2.57,5.9l0,0
	c1.22,1.69,2.98,3.22,4.79,4.27l0,0c2.6,1.52,5.77,2.21,8.74,2.97l0,0c4.56,1.16,9.27,1.88,13.95,2.42l0,0
	c6.45,0.75,12.97,0.9,19.46,1.17l22.93,0.58l25.09-0.16l24.88-0.19l26.31,0.76l25.33,1.79l25.53,1.88l25.07,1.92l24.73,1.9l22.47,2
	l25.55,2.59l23.67,1.89l11.78,0.75l9.05-0.03l10.17,0.13l6.61,0.12l3.58-0.04l2.71-0.12l0,0c0.77-0.03,1.55-0.1,2.32-0.09l0,0
	c0.75,0.01,1.51,0.12,2.26,0.17l2.21,0.13l3.14-0.03l3.43-0.14"/>
<path class="st2" d="M713.39,463.93c-5.27-1.18-10.69-0.37-15.99-0.96c2.84,1.92,6.24,2.85,9.46,3.96c3.08,1.07,6.11,2.26,9.35,2.74
	c4.62,1.41,8.95,3.58,13.15,5.95C725.43,470.36,720.39,464.46,713.39,463.93z"/>
<path class="st3" d="M691.84,696.82L691.84,696.82c-0.99,0.05-1.98,0.09-2.97,0.14l-7.23,0.34l0,0c-2.01,0.1-4.03,0.08-6.02,0.29
	l0,0c-13.03,1.39-26.04,3.63-38.85,6.4l0,0c-5.12,1.11-10.2,2.48-15.19,4.08l0,0c-1.42,0.45-2.82,0.98-4.18,1.57l0,0
	c-2.58,1.12-5.03,2.52-7.57,3.73l0,0c-2.09,1-4.25,1.86-6.3,2.93l0,0c-2.86,1.5-5.77,3-8.36,4.91l0,0
	c-3.9,2.86-7.39,6.34-10.81,9.78l0,0c-2.76,2.78-5.3,5.78-7.82,8.77l0,0c-1.54,1.82-3.64,3.47-4.47,5.6l0,0
	c-0.65,1.64-1.09,4.06-0.41,5.53l0,0c1.24,2.67,5.22,4.4,8.17,5.96l0,0c2.27,1.2,4.84,1.88,7.32,2.59l0,0
	c2.73,0.78,5.54,1.27,8.33,1.85l0,0c2.33,0.49,4.65,1.04,7,1.39l0,0c4.38,0.66,8.81,0.99,13.22,1.35l10.39,0.66l21.96,0.56l30.26,0
	l31.97,0.99l31.51,2.48l31.19,2.47l31.94,1.43l25.69,0.62l12.56,0.11l17.01-0.05l11.84,0.3l17.12,0.69L901,774.7l15.54,0.27
	l23.96-0.01l13.14-0.01l24.79-1.05l15.24-0.65l7.08,0.2l6.41,0.65"/>
<path class="st2" d="M644.41,751.05c-1.6-2.48-4.66-3.65-7.14-5.11c-2.11-1.17-4.19-2.38-6.26-3.61c-0.8-0.78-1.66-1.51-2.53-2.21
	c-0.95-1.04-1.95-2.03-3-2.98c0.84,0.47,1.68,0.91,2.58,1.17c-0.63-0.42-1.21-0.91-1.76-1.43c-1.52-1.42-5.03-5.46-7.1-4.96
	c-0.23-0.18-0.45-0.36-0.68-0.54c-1.45-0.93-3.08-2.29-4.81-2.68c-1.62-1.26-3.31-2.44-5.41-2.69c-4.7,0.54-5.91,6.6-6.22,10.55
	c-0.82,7.66,3.25,14.96,9.25,19.51c5.44,4.65,11.73,8.42,18.61,10.46c2.5,0.67,4.99,1.38,7.52,1.92c1.73,0.37,3.63,0.61,5.27-0.19
	C647.26,764.92,647.25,755.46,644.41,751.05z"/>
<path class="st2" d="M1273.81,483.26c-0.48-3.4-1.08-6.79-1.47-10.2c-0.24-2.59-0.46-5.23-1.59-7.61c-0.38-1.08-0.82-2-1.32-2.78
	c-1.32-4.76-3.33-9.28-6.39-13.28c-0.46-0.44-0.91-0.79-1.34-1.07c-1.02-5.95-2.81-11.74-6.01-16.86c-0.33-0.87-0.68-1.74-1.09-2.59
	c-0.14-11.97-7.28-23.17-20.21-26.1c-4.44-1.2-9.57-1.73-13.78,0.44c-3.17,2.09-5.32,5.02-6.72,8.34c-0.54-0.63-1.16-1.21-1.87-1.7
	c-0.92-0.43-1.96-0.64-2.98-0.82c-5.81,0.4-11.16,3.69-15.86,7.63c-0.3,0.09-0.6,0.21-0.91,0.38c-3.59,2.76-6.72,6.04-9.9,9.26
	c-4.14,4.52-8.61,8.75-12.35,13.61c-3.86,5.62-7.29,11.59-10.38,17.66c-1.88,3.88-2.77,9.84-2.04,15.26
	c-1.51-0.76-3.4-0.51-4.97,0.14c-2.97,1.87-4.69,5.04-6.5,7.94c-2.3,4.13-3.69,8.68-5.62,12.97c0.37-1.8,0.74-3.61,1.11-5.41
	c2.99-12.15,3.21-24.88,0.33-37.08c-1.58-6.74-3.9-13.29-6.57-19.69c-0.16-0.55-0.32-1.1-0.49-1.65
	c-2.86-11.43-9.87-21.01-15.03-31.42c-2.15-4.39-4.37-8.76-7.16-12.78c-2.13-3.73-4.98-2.91-6.24,1.33
	c-1.44,6.43,0.44,9.19,2.68,12.48c-0.65,3.16-0.12,6.72,1.67,9.26c0,0,0,0.01,0,0.01c0.03,0.03,0.05,0.07,0.08,0.1
	c-0.63-0.6-1.28-1.18-1.96-1.73c-5.17-3.92-6.68,6.02-5.62,9.38c0.14,1.24,0.7,2.32,1.37,3.35c-0.42,0.65-0.81,1.31-1.21,1.91
	c-1.37,3.02-2.2,6.24-2.57,9.52c-0.27-0.22-0.53-0.46-0.82-0.67c-1.03-0.91-2.48-1.05-3.76-1.41c-1.19-0.09-2.46,0.45-3.58,0.82
	c-1.5,1.13-3.01,2.32-4.02,3.94c-2.86,3.9-4.67,8.38-6.73,12.71c-1.41,2.93-3.25,5.64-4.44,8.67c-1.58,3.41-2.36,7.08-2.73,10.79
	c0.04-0.71,0.06-1.01,0.01-0.2c-0.01,0.16-0.03,0.3-0.04,0.45c-2.21-4.78-5.77-8.38-10.84-6.08c-0.67-1.23-1.42-2.41-2.26-3.52
	c-8.76-10.37-22.68-6.72-33.82-2.89c-11.5,4.01-23.02,8.49-33.11,15.4c-5.44,3.67-10.9,7.45-15.81,11.83
	c-0.01-0.01-0.02-0.02-0.04-0.03c-4.57-1.82-9.54-2.45-14.44-2.13c-10.79,0.85-21.36,3.45-31.79,6.23
	c-3.24,0.92-6.54,1.92-9.74,3.14c-0.9-0.01-1.8-0.02-2.7,0.01c-8.03,0.64-16.59,1.54-23.53,5.95c-11.4,7.47-13.18,25.81-9.31,38.94
	c-2.22,0.19-4.43,0.42-6.62,0.86c-1.53,0.02-2.78,0.58-3.74,1.67c-4.11,3.71-5.56,9.8-5.8,15.17c-0.59,6.85,0.79,17.27,6.96,21.31
	c0.85,0.33,1.71,0.54,2.58,0.68c0,0.01,0,0.01,0,0.02c0.02,0,0.03,0,0.05-0.01c1.5,0.23,3.04,0.22,4.58,0.1
	c9.02-0.12,18.06-0.44,27-1.69c1.08-0.15,2.15-0.31,3.22-0.48c9.43-0.2,18.83-0.71,28.2-1.84c5.5-1.01,11.47-1.28,16.59-3.66
	c5.8-0.56,11.57-1.77,17.26-3.04c-0.35,6.13,0.64,12.31,3.23,17.93c5.43,10.6,14.36,12.13,25.05,8.68
	c3.68-1.12,7.24-2.59,10.72-4.25c1.09,1.57,2.45,2.84,4.09,3.6c-3.12,6.45-6.07,12.98-8.8,19.6c-0.57,0.48-1.14,0.98-1.66,1.52
	c-3.37,3.48-6.42,7.2-9.29,11.08c-0.29-0.24-0.57-0.49-0.88-0.71c-1.21-0.73-2.72-0.99-4.09-1.23c-1.06,0.03-2.07,0.48-3.1,0.71
	c-3.55,1.64-6.72,4.91-9,8.06c-2.38,3.45-4.7,6.96-6.48,10.77c-3.92,8.55-7.1,17.81-7.72,27.26c-0.95,0.52-1.91,1.04-2.88,1.53
	c-13.25,6.32-17.37,7.66-31.46,9.07c-5.39,0.3-10.8,0.25-16.16,0.87c-2.14,0.29-4.28,0.68-6.34,1.37c-2.19,1.16-4.04,2.88-5.05,5.19
	c-0.45,0.95-0.81,1.92-1.14,2.92c-3.04,0.19-6.1,0.01-9.08-0.68c-3.17-0.94-6.29-2.07-9.42-3.13c-7.6-2.63-15.22-5.17-22.74-8
	c-3.29-0.84-6.57-2.26-9.99-2.33c-6.31,0.74-9.34,6.7-10.77,12.49c-1.48-0.53-2.99-0.95-4.56-1.15c-5.45,0.78-7.94,5.97-9.14,10.98
	c-5.82-2.51-11.68-4.91-17.84-6.5c-11.81-3.58-24.15-4.96-36.45-4.04c-11.78,0.73-23.53,2.11-35.1,4.43
	c-10.29,1.85-20.69,3.06-31.14,3.34c-5.74,0.08-11.46-0.33-17.2-0.31c-6.09,0.08-12.14,0.75-18.18,1.52
	c-3.67,0.39-7.23,1.44-10.77,2.46c-2.78,0.92-5.66,1.84-8.02,3.62c-1.85,1.42-3.56,3.02-4.42,5.24c-0.38,0.9-0.73,1.8-1.05,2.72
	c-0.63,0.06-1.26,0.13-1.9,0.19c-2.53,0.2-5.06,0.38-7.6,0.52c-2.76-0.07-5.52,0.67-7.42,2.77c-5.57,6.9-5.75,21.81-0.89,29.03
	c1.2,2.74,3.77,3.5,6.39,4.14c2.26,0.73,4.58,1.26,6.88,1.86c6.96,1.46,14,3.14,21.13,3.24c4.15,7.08,10.19,13.21,16.04,18.82
	c11.4,10.58,22.02,15.86,37.38,18.34c8.28,1.19,17.62-0.35,25.81-3.71c0.88,1.87,1.95,3.64,3.29,5.25c5.75,5.87,14.8,5.34,22.4,4.96
	c7.03-0.33,13.98-1.34,20.97-2.08c17.95-1.32,35.82-3.47,53.81-4.24c9.45-0.79,18.83-2.32,28.32-2.58
	c7.05-0.27,14.12-0.15,21.16-0.71c5.72-0.44,11.39-1.4,17.04-2.39c4.47-0.68,10.13-2.1,15.86-3.75c1.69,0.55,3.41,1,5.15,1.35
	c0.22,0.36,0.44,0.71,0.69,1.04c3.05,3.45,8.5,2.24,12.63,2.24c1.04-0.08,2.07-0.2,3.11-0.31c9.07,0.27,18.16,0.22,27.21-0.27
	c10.2-0.03,20.39-0.49,30.54-1.65c3.85-0.38,7.69-0.87,11.51-1.51c2.99-0.48,6.32-1.42,7.65-4.41c0.42-0.64,0.79-1.33,1.12-2.04
	c3.82-0.44,7.62-0.96,11.43-1.45c13.11-1.83,26.2-3.76,39.25-6.02c7.09-0.83,14.02-2.51,20.95-4.17c7.27-1.68,14.82-3.15,21.25-7.13
	c0.67-0.49,1.31-1.01,1.93-1.55c0.4-0.15,0.81-0.33,1.21-0.52c9.39-3.31,14.24-8.58,16.42-17.79c2.62-5.61,2.84-12.28,1.14-18.23
	c-1.94-6.59-6.87-10.14-13.46-11.37c-0.29-0.05-0.57-0.06-0.85-0.03c-0.02,0-0.03-0.01-0.05-0.01c-2.26-0.34-4.11,0.05-5.62,0.96
	c-0.56-0.52-1.16-1.02-1.8-1.48c-2.21-1.79-4.96-2.66-7.53-3.77c-5.61-2.35-11.61-2.78-17.58-3.32c0.79-0.08,1.59-0.16,2.38-0.22
	c-1.28-0.36-2.55-0.74-3.85-1.01c-3.65-0.48-6.51-1.49-10.12-2.57c-3.05-0.94-6.22-1.35-9.35-1.96c-5.06-0.69-10.26-0.75-15.35-0.3
	c-2.41,0.35-4.86,0.3-7.19,1.09c-2.15,0.71-3.27,0.87-5.58,1.27c-1.4,0.42-2.78,0.88-4.17,1.34c-0.26-0.05-0.51-0.07-0.77-0.11
	c1.85-1.66,3.17-3.04,6.09-5.05c3.18-2.42,6.17-5.1,8.38-8.46c2.3-3.15,4.85-6.1,7.19-9.21c4.92-7.02,11.02-13.1,15.78-20.23
	c1.99-2.8,4.45-5.22,6.73-7.77c3.56-4.16,7.15-8.28,10.74-12.41c3.14-4.15,6.09-8.44,9.55-12.34c7-9.71,3.95-6.56,9.67-13.92
	c2.76-3.43,5.2-7.06,7.57-10.76c0.08-0.11,0.24-0.33,0.5-0.7c4.53-5.6,8.68-11.5,13.2-17.1c3.47-4.18,6.61-8.62,9.99-12.87
	c2.54-3.25,5.28-6.36,7.55-9.8c5.7-8.84,2.52-3.97,8.22-12.71c1.3-2.13,2.45-4.34,3.71-6.48c-0.18,1.89-0.32,3.76-0.4,5.62
	c-0.32,1.09-0.6,2.19-0.85,3.31c-0.21,0.35-0.4,0.71-0.58,1.1c-2.56,5.86-2.77,13.24-0.31,19.34c0.52,3.96,1.53,7.83,3.26,11.48
	c1.44,2.63,3.15,5.03,5.63,6.76c1.55,1.13,3.54,1.51,5.4,1.84c0.96-0.12,1.96-0.31,2.93-0.61c1.22,0.33,2.42,0.77,3.68,0.83
	c0.21-0.03,0.42-0.06,0.63-0.1c0.04,0.25,0.08,0.5,0.14,0.75c2,9.25,7.39,8.53,15.06,6.48c6.98-2.11,14.36-4.51,19.73-9.65
	c1.85-2.28,2.72-5.02,3.12-7.86c0.75-0.81,1.58-1.56,2.43-2.29c1,0.1,2.1-0.44,3.24-1.63c1.42-1.34,2.69-2.82,3.91-4.34
	c3.11-2.22,6-4.72,8.73-7.39c2.08,1.03,4.6-0.04,7.12-4.77c1.34-2.15,2.5-4.4,3.57-6.69c0.77-1.41,1.45-2.87,1.96-4.37
	c0.67-1.56,1.34-3.12,2.02-4.67c2.04-5.04,4.46-9.96,6.3-15.08c1.14-1.48,1.98-3.53,2.6-5.7c1.32,0.25,2.69-0.57,3.65-1.52
	c0.84-0.57,1.27-1.23,1.77-2.05C1276.31,504.03,1274.81,492.1,1273.81,483.26z M1120.48,484.67c0.05-2.4,0.08-4.79,0.12-7.19
	c0.17,1.48,0.37,2.95,0.57,4.42c-0.21,1.2-0.43,2.45-0.66,3.73C1120.5,485.31,1120.49,484.99,1120.48,484.67z M1119.63,524.69
	c0.15-0.71,0.27-1.42,0.39-2.13c0.43,0.63,0.97,1.14,1.6,1.41c-0.58,1.1-1.16,2.21-1.73,3.31
	C1119.82,526.41,1119.74,525.55,1119.63,524.69z M1002.65,687.35c0.11-0.27,0.21-0.54,0.32-0.81c0.09-0.12,0.18-0.24,0.27-0.36
	c-0.31,2.48-0.35,4.99-0.07,7.46c-1.35,0.03-2.7,0.05-4.04,0.08C1000.59,691.78,1001.72,689.56,1002.65,687.35z M1079.77,591.17
	c2.32-3.7,4.43-7.59,5.98-11.66c0.58-0.05,1.19-0.2,1.87-0.49c0.56-0.33,1.04-0.72,1.47-1.15
	C1086.04,582.35,1082.94,586.79,1079.77,591.17z"/>
<path class="st3" d="M709.04,697.7L709.04,697.7c-1.62,0.22-3.25,0.45-4.87,0.67l-11.82,1.62l-9.79,1.35l0,0
	c-16.12,2.81-32.47,5.4-48.07,10.16l0,0c-7.25,2.21-14.29,5.31-21.17,8.54l0,0c-3.11,1.46-6.15,3.13-9.1,4.9l0,0
	c-3.68,2.21-7.26,4.61-10.73,7.14l0,0c-3.33,2.43-6.59,4.99-9.69,7.71l0,0c-1.99,1.75-4.86,3.28-5.73,5.53l0,0
	c-1.08,2.79-0.39,6.84,0.61,9.86l0,0c0.8,2.42,2.45,4.89,4.34,6.62l0,0c3.14,2.89,7.52,4.74,11.59,6.29l0,0
	c11.84,4.53,24.78,6.41,37.32,8.85l0,0c6.35,1.23,12.77,2.43,19.21,2.92l0,0c5.79,0.44,11.65,0,17.47-0.01l12.77-0.03l19.89-0.21
	l13.82-0.09l18.87,0.33l12.27,0.48l37.64,1.37l21.49,1.11l35.6,0.28l0,0c6.69,0.03,13.42-0.43,20.08,0.04l0,0
	c12.34,0.87,24.58,3.33,36.84,5.17l21.44,3.42l14.98,2.58l0,0c3.83,0.58,7.66,1.24,11.52,1.52l0,0c9.87,0.7,19.83,0.33,29.75,0.3
	l17.27-0.28l7.12-0.14l0,0c2-0.03,4,0.06,5.99-0.06l0,0c0.84-0.05,1.69-0.13,2.52-0.29"/>
<path class="st3" d="M700.1,721.91L700.1,721.91c-0.71-0.08-1.41-0.16-2.12-0.24l-5.23-0.59l0,0c-1.49-0.17-2.98-0.43-4.47-0.5l0,0
	c-9.89-0.46-20.1-1.14-29.77,0.52l0,0c-7.8,1.35-15.52,4.37-22.78,7.66l0,0c-6.71,3.04-13.03,7.09-19.19,11.18l0,0
	c-5.03,3.33-10.21,6.7-14.49,10.88l0,0c-2.95,2.89-6.25,6.12-7.72,9.83l0,0c-1.46,3.68-1.95,8.48-1.1,12.32l0,0
	c1,4.52,3.85,9.52,7.29,12.6l0,0c5.57,4.99,14.11,7.35,21.61,9.49l0,0c7.23,2.06,15,2.52,22.55,3.23l0,0
	c4.48,0.42,8.99,0.54,13.49,0.62l24.07-0.28l16.24-0.34l34.4,0.17l58.25,4.67l28.52,3.3l35.97,4.4l29.21,2.22l30.13,0.23l34.49-0.91
	l23.2-1.22l0,0c5.42-0.47,10.92-0.82,16.22-1.97l0,0c3.4-0.73,7-1.49,9.99-3.15l0,0c1.79-0.99,3.5-2.45,4.77-4.05l0,0
	c0.83-1.06,1.3-2.42,1.84-3.67"/>
<g>
	<path d="M1281.96,469.74c-1.03-7.36-3.3-14.48-4.99-21.71c-1.89-6.51-3.35-13.19-6.6-19.2c-1.28-2.9-3.09-5.49-5.13-7.9
		c-2.32-3.17-4-6.75-6.09-10.08c-3.35-5.19-8.21-10.34-14.28-12.13c-4.54-0.92-9.15-2.07-13.81-1.9c-8.1,0.62-16.27,1.8-23.93,4.62
		c-11.37,4.36-20,13.4-27.64,22.56c-5.55,6.18-11.05,12.44-15.21,19.67c-6.25,9.18-11.59,18.91-17.39,28.37
		c-2.75,3.71-5.39,7.47-7.26,11.73c-2.42,4.49-4.95,8.92-7.42,13.39c-3.66,5.66-6.89,11.57-10.15,17.47
		c-1.33,2.02-2.6,4.09-3.82,6.16c-2.79,4.84-6.38,9.37-7.93,14.79c-0.53,0.95-1.06,1.9-1.59,2.84c-3.71,5.87-7.33,11.8-10.77,17.83
		c-2.21,3.7-4.09,7.59-6.52,11.16c-2.85,4-5.96,7.82-8.48,12.05c-2.31,5.97-9.45,15.02-15.6,24.3c-2.81,4.21-5.14,8.74-8.12,12.84
		c-1.76,2.59-0.01-0.23-3.78,4.69c-3.5,4.47-6.97,8.96-10.49,13.41c-3.73,4.75-7.6,9.38-11.53,13.97
		c-4.45,5.58-9.1,11.01-14.34,15.86c-7.22,6.69-12.09,9.61-21.53,17.92c-5.12,4.97-17.81,10.91-28.88,15.67
		c-2.59,1.25-4.92,2.37-7.09,3.41c-3.99,3.46-8.69,5.96-13.61,8.05c-6.77,2.88-13.91,5.69-21.15,7.04c-4.98,0.93-10,1.34-15.02,1.68
		c-0.91,0.14-1.82,0.27-2.73,0.39c-2.82,0.27-5.64,0.62-8.47,0.82c-3.17,0.29-6.34,0.41-9.52,0.46c-0.31,0.06-0.63,0.11-0.96,0.12
		c-1.51,0.05-3.08,0.03-4.67-0.06c-1.49,0.01-2.97,0.01-4.45,0.03c-8.2-0.08-9.96,0.06-15.2-1.02c-4.04-0.81-8.12-1.42-12.06-2.64
		c-0.67-0.29-11.84-4.82-17.91-7.26c-8.95-3.65-14.16-5.3-19.64-7.94c-6.43-3.12-12.2-7.41-18.22-11.21
		c-6.14-3.6-12.62-6.64-18.66-10.41c-7.17-4.82-14.16-9.94-21.36-14.74c-9.72-6-12.47-7.94-19.66-14.27
		c-9.1-6.82-16.74-15.26-24.77-23.25c-5.31-5.49-10.02-11.54-14.94-17.38c-4.4-5.04-9.36-10.7-10.33-12.39
		c-7.87-13.09-17.11-25.37-23.83-39.14c-7.19-14.36-9.25-20.88-14.89-35.55c-2.2-5.48-4.54-10.93-5.88-16.7
		c-2.65-12.22-2.65-15.23-3.51-26.93c-0.77-7.6-1.01-15.21-0.29-22.82c0.04-0.53,0.1-1.05,0.16-1.58c0.08-0.42,0.17-0.93,0.25-1.37
		c1.23-4.4,2.39-8.82,3.86-13.15c1.15-3.75,3.97-8.82,7.28-16.13c4.64-11.14,8.38-12.63,16.2-22.29c3.29-3.86,6.37-8.01,10.36-11.19
		c0.18-0.13,0.36-0.27,0.55-0.4c3.54-2.65,7.33-4.96,10.84-7.66c6.14-4.59,13.86-10.75,24.3-16.2c3.11-1.34,19.26-7.5,28.53-9.83
		c21.76-6.03,43.21-13.55,65.59-16.97c7.98-1.28,20.16-2.28,32.93-2.85c8.87-0.44,17.72-1.16,26.61-1.21
		c21.84-0.6,43.69,0.93,65.42,3.05c23.95,1.92,47.09,3.59,66.19,6.36c15.04,2.46,29.77,6.42,44.41,10.6
		c6.79,1.6,19.02,5.69,19.82,6.38c4.76,2.36,9.08,5.48,13.5,8.39c9.51,6.23,12.03,8.16,20.09,17.4c2.17,2.5,4.44,4.91,6.62,7.39
		c1.58,2.34,2.94,4.84,4.37,7.28c1.52,2.85,1.45,3.33,3.54,9.27c0.29,0.95,0.54,1.91,0.7,2.89c0.05,0.46,0.1,0.98,0.14,1.44
		c0.2,2.29,0.66,4.58,0.5,6.89c-0.01,0.32-0.06,0.64-0.09,0.96c-0.11,0.67-0.23,1.34-0.36,2c-0.47,2.48-0.91,4.99-1.71,7.38
		c-2.2,4.23-4.93,8.2-7.56,12.17c-0.46,0.55-1.04,1.68-4.23,5.1c-2.29,2.42-4.76,4.67-7.38,6.72c-0.3,0.22-0.6,0.45-0.9,0.67
		c-4.8,3.62-10.32,6.05-15.53,8.99c-7.66,4.64-8.29,4.52-17.48,7.84c-12.81,4.63-26.09,7.92-39.56,9.88
		c-21.8,3.35-34.19,6.67-55.1,7.15c-16.66,0.34-33.32,1.15-49.99,0.96c-6.88-0.28-13.77-0.66-20.65-1.02
		c-8.5-0.03-16.99-0.36-25.45-1.24c-14.6-1.58-35.41-6.06-55.07-8.89c-11.59-1.79-16.44-1.77-29.79-4.84
		c-12.01-3.25-23.63-7.78-35.53-11.41c-6.68-2.06-13.63-3.31-20.14-5.9c-5.59-2.66-10.91-5.83-16.1-9.2
		c-2.2-2.32-4.31-4.73-6.5-7.06c-8.62-8.21-17.19-16.5-26.4-24.05c6.67,9.97,13.2,20.1,21.02,29.23c3.45,4.54,7.01,9.1,11.68,12.45
		c2.15,1.75,4.79,2.66,7.27,3.81c0.72,0.33,1.43,0.69,2.14,1.04c3.14,2.36,6.5,4.42,10.19,5.88c11.24,4.47,25.36,11.23,42.81,16.69
		c12.4,4.03,28.9,5.56,36.23,6.74c19.07,2.81,37.91,7.07,57.07,9.3c11.99,1.45,24.07,1.06,36.1,1.87
		c15.23,1.01,30.48,0.34,45.73-0.06c8.47-0.18,16.95-0.37,25.41-0.8c12.56-1.21,25.04-3.1,37.45-5.41
		c16.17-2.42,32.17-5.15,47.67-10.54c5.29-1.97,10.67-3.7,15.86-5.92c3.55-1.55,6.72-3.83,10.17-5.59
		c11.5-5.64,22.24-13.24,29.79-23.73c3.47-4.93,6.97-9.97,9.53-15.44c1.42-3.21,1.87-6.72,2.54-10.14c0.82-3.93,0.98-7.93,0.3-11.9
		c-0.26-2.53-0.44-5.1-1.09-7.57c-2.8-9.38-6.85-18.73-13.71-25.87c-4.21-4.61-8.17-9.45-12.67-13.78
		c-3.72-3.36-7.83-6.26-11.98-9.06c-7.15-4.8-14.17-10.02-22.37-12.9c-6.58-2.54-13.43-4.21-20.21-6.12
		c-11.85-3.31-23.74-6.6-35.87-8.75c-23.42-4.05-47.18-5.65-70.85-7.44c-16.48-1.75-33.02-2.79-49.57-3.57
		c-15.27-0.22-30.52,0.21-45.75,1.22c-22.15,0.8-44.16,3.42-65.55,9.38c-14.77,4.22-29.5,8.61-44.27,12.84
		c-5.33,1.54-10.52,3.54-15.74,5.43c-6.5,2.29-12.83,5.08-18.52,9c-5.82,3.91-11.53,7.98-17.07,12.3
		c-6.51,4.59-13.58,8.71-18.63,15.01c-2.96,3.39-5.73,6.96-8.71,10.33c-3.22,3.27-6.23,6.75-8.89,10.5
		c-4.2,5.92-6.58,12.89-9.83,19.35c-3.88,8.28-6.9,17.07-8.47,26.07c-1.33,9.84-0.77,19.36,0.15,29.19
		c0.89,13.24,2.37,26.72,7.53,39.06c3.54,8.43,6.45,17.11,9.93,25.56c4.37,10.56,9.34,20.86,15.08,30.75
		c4.19,6.63,8.47,13.2,12.77,19.76c2.12,3.15,3.79,6.6,6.16,9.58c4.68,6.17,10.06,11.75,14.9,17.79
		c6.47,8.13,13.75,15.5,21.13,22.79c4.86,5.18,10.37,9.66,15.92,14.08c6.48,6.03,13.89,10.89,21.41,15.52
		c7.27,4.82,14.26,10.05,21.55,14.83c5.05,3.12,10.4,5.7,15.56,8.63c7.1,3.92,13.43,9.18,20.79,12.66
		c8.84,4.16,18.14,7.27,27.16,11.02c7.77,3.1,6.7,2.86,13.72,5.59c4.34,1.33,8.85,1.98,13.29,2.88c6.63,1.35,13.41,1.36,20.15,1.26
		c6.07-0.02,12.14-0.04,18.19-0.6c8.75-0.84,17.52-1.88,26.07-3.94c15.6-4.2,30.61-10.49,44.92-17.93
		c8.41-3.78,17.01-7.28,24.99-11.94c6.23-3.97,11.74-8.95,17.39-13.68c3.69-3.25,3.29-2.54,8.79-6.95
		c5.62-4.69,10.81-9.92,15.49-15.55c8.37-10.02,16.69-20.07,24.6-30.45c4.87-5.95,9.61-11.97,13.32-18.73
		c5.03-8.59,11.83-16.09,16.41-24.93c0.31-2.1,6.55-10.2,10.73-16.2c3.58-6.01,6.92-12.17,10.51-18.18
		c3.39-5.39,6.77-10.78,9.78-16.39c5.4-9.65,10.83-19.28,16.21-28.95c3.77-5.68,6.89-11.74,10.23-17.67
		c1.61-2.98,2.92-6.15,4.97-8.87c2.67-3.34,4.75-7.08,7-10.71c4.07-7.35,8.53-14.45,13.16-21.46c4.87-7.82,5.5-8.45,12.31-16.04
		c10.72-12.51,16.4-18.72,27.88-21.68c6.45-1.61,9.22-1.86,12.58-2.21c7.06-0.42,4.93-0.13,12.65,1.39
		c0.03,0.01,0.05,0.02,0.08,0.03c0.09,0.05,0.17,0.1,0.26,0.15c1.45,1.21,2.92,2.41,4.11,3.88c0.4,0.55,1.01,1.41,1.32,2.02
		c2.58,4.47,5.05,9.01,8.39,12.96c0.52,0.75,1,1.53,1.42,2.35c2.95,6.03,2.13,3.64,4,9.83c1.54,5.46,3.06,10.92,4.37,16.44
		c0.92,3.94,2.08,7.83,2.7,11.83c0.99,8.23,1,16.11,0.16,19.56c-2.08,10.27-5.8,20.11-9.65,29.82c-1.56,3.95-2.95,7.98-4.52,11.93
		c-2.71,6.21-6.74,11.73-10.37,17.42c-3.12,4.01-2.07,3.56-7.11,8.38c-5.98,4.79-11.82,9.76-17.87,14.47
		c-0.89,0.62-3.07,2.15-3.86,2.56c-0.65,0.45-2.49,1.34-3.52,1.84c-10.59,3.81-13.06,3.56-23.37,4.14c-4.95-0.15-3.93-0.18-6.2-0.69
		c-2.04-0.57-3.25-1.15-7.52-3.92c-0.25-0.24-0.49-0.49-0.71-0.76c-0.52-0.68-1.48-1.93-1.91-2.5c-3.64-4.76-3.8-4.39-7.02-10.45
		c-1.09-3.55-0.53-1.72-0.97-7.56c-0.02-0.87-0.13-1.74-0.09-2.61c0.21-1.02,0.54-2,0.92-2.97c0.5-1.15,0.99-2.31,1.53-3.45
		c2.19-4.4,3.21-9.23,4.93-13.8c0.26-0.57,0.51-1.14,0.78-1.71c2.97-5.93,2.06-3.89,5.52-8.29c2.16-2.61,4.6-4.99,7.1-7.28
		c2.45-1.69,1.37-2.04,9.75-3.47c0.12-0.02,0.24-0.04,0.35-0.07c0.05,0,0.1-0.01,0.15-0.01c0.81,0.21,1.62,0.44,2.43,0.65
		c4.02,1.24,0.53-0.1,5.41,2.48c0.29,0.16,0.57,0.33,0.84,0.51c0.36,0.34,0.69,0.7,1,1.09c0.93,1.28,1.75,2.65,2.63,3.97
		c1.61,2.98,1.49,3.62,1.9,8.69c0.13,2.77-0.11,5.58-1.12,8.19c-1.21,3.59-4.37,5.74-7.85,6.85c-1.08,0.27-2.21,1.02-3.34,0.59
		c0.37,0.57,1.13,0.4,1.72,0.45c1.74,0,3.47-0.16,5.17-0.52c7.67-1.43,11.17-9.88,11.99-16.88c1.14-6.45-0.55-11.08-2.19-14.52
		c-1.21-3.14-3.31-5.86-6.08-7.77c-1.63-1.29-3.27-2.6-5.22-3.36c-0.87-0.34-1.99-0.83-2.05-0.86c-1.15-0.51-2.29-1.04-3.52-1.29
		c-4.24-0.55-8.64,0.05-12.8,0.92c-6.67,2.06-11.93,7.16-16.5,12.24c-2.3,2.77-4.74,5.51-6.4,8.73c-2.76,5.11-4.38,10.66-6.14,16.16
		c-0.12,0.36-0.28,0.71-0.42,1.06c-0.1,0.22-0.2,0.44-0.31,0.66c-2.11,4.76-4.64,9.68-4.07,15.04c0.16,3.93,0.38,7.92,1.4,11.73
		c1.95,5.2,5.13,9.85,8.69,14.08c0.92,1.22,2.77,3.64,3.37,4.4c1.57,2.15,3.91,3.61,6.16,4.97c2.93,1.76,6.02,3.32,9.35,4.16
		c5.59,1.3,11.39,1.21,17.07,0.56c5.77-0.47,11.53-1.41,17.03-3.29c7.94-2.43,14.51-7.59,20.81-12.81c3.49-2.8,6.93-5.66,10.38-8.51
		c2.05-1.59,4.06-3.24,5.71-5.27c4.47-5.17,8.12-10.96,11.76-16.72c3.76-5.58,6.19-11.88,8.44-18.17
		c4.81-12.81,10.48-25.53,12.4-39.18C1283.55,484.23,1282.84,476.91,1281.96,469.74z"/>
	<path d="M1200.07,501.93c0.37,0.16,0.73,0.32,1.1,0.47C1200.33,502.03,1200.04,501.91,1200.07,501.93z"/>
</g>
<path d="M1143.82,708.65c-3.78-2.71-8.39-3.72-12.75-5.12c-10.16-3.35-20.87-4.62-31.52-5.16c-8.36-0.48-16.79-0.64-25.08,0.72
	c-6.15,0.97-12.38,1.59-18.43,3.12c-5.84,1.73-11.4,4.29-17.07,6.49c-1.54,0.57-3.1,1.1-4.71,1.47c2.5,0.05,4.99-0.25,7.46-0.64
	c5.13-0.73,10.22-1.75,15.38-2.26c5.4-0.33,10.82,0.05,16.23-0.04c9.15-0.14,13.27,0.34,23.48,1.58c9.84,1.3,19.71,2.75,29.28,5.42
	c8.67,2.63,12.57,4.2,13.65,8.62c-0.01,0.06-0.03,0.12-0.04,0.17c-1.85,4.1-0.89,2.1-3.69,5.99c-4.82,5.43-4.69,4.65-10.41,9.78
	c-6.08,5.35-10.68,8.44-14.58,9.93c-6.34,2.5-13.07,3.78-19.55,5.85c-15.29,4.68-35.31,10.26-45.57,12.02
	c-26.76,4.87-53.98,6.31-81.03,8.79c-29.81,2.25-59.6,4.74-89.48,5.65c-61.67,2.09-115.52,1.44-174.54-6.18
	c-13.95-1.8-40.15-7.77-46.92-10.26c-7.04-2.39-13.57-6.01-20.46-8.79c-6.55-2.39-18.93-8.4-19.36-9.25
	c-2.43-1.76-4.53-3.9-6.54-6.12c-1.24-1.4-2.42-2.86-3.35-4.47c-0.02-0.05-0.04-0.09-0.06-0.14c0.9-5.38,0.36-3.64,2.44-8.07
	c2.13-3.7,2.66-4.87,7.1-9.17c1.93-1.62,3.99-3.07,6.07-4.49c4.38-2.69,2.95-2.01,5.11-2.94c9.13-3.35,19.05-5.7,25.13-6.76
	c15.85-2.22,31.92-0.59,47.79,0.58c-18.91-5.84-38.76-11.79-58.72-8.71c-6.74,1.1-13.66,1.79-20.08,4.24
	c-10.21,4.48-19.15,11.99-24.45,21.88c-2.38,4.66-3.96,10-3.68,15.25c0.44,2.89,1.86,5.52,3.53,7.88
	c9.04,12.01,18.22,16.48,31.79,21.87c7.35,2.9,14.28,6.8,21.76,9.38c9.7,3.41,19.74,5.7,29.79,7.83
	c18.13,3.98,36.64,5.46,55.05,7.55c24.72,2.03,49.47,3.33,74.27,3.67c22.26,0.18,44.52-0.38,66.77-0.92
	c12.12-0.52,24.24-1.04,36.36-1.57c17.89-1.35,35.78-2.72,53.66-4.12c26.65-2.5,53.46-4.03,79.85-8.65
	c17.37-3.09,34.3-8.15,51.14-13.33c20.72-6.07,25.52-6.06,42.27-21.65c4.52-3.88,8.87-8.03,11.9-13.21
	c2.06-3.14,3.57-6.89,3.13-10.7C1151.33,716.44,1148.16,711.59,1143.82,708.65z"/>
<g>
	<path class="st4" d="M1117.6,405.79c-1.25-3.56-3.16-6.52-5.25-9.61c-0.86-1.42-1.32-3.05-2.17-4.48c-0.9-1.41-2.01-2.69-3.02-4.02
		c-1.62-1.77-3.38-3.4-4.94-5.22c-1.4-1.91-2.86-3.79-4.66-5.35c-7.17-6.49-15.92-11.08-24.95-14.45
		c-9.24-4.03-8.59-3.56-16.89-6.88c-1.91-0.62-3.89-0.97-5.87-1.23c-1.22-0.17-2.44-0.33-3.65-0.49c-0.79-0.11-1.59-0.21-2.38-0.31
		c-0.01,0-0.02-0.01-0.03-0.01c-2.37-1.09-4.81-2.04-7.37-2.55c-2.97-0.6-5.85-1.53-8.72-2.5c-3.2-1.54-6.39-3.11-9.78-4.22
		c-3.18-0.79-6.38-1.5-9.51-2.44c-13.64-4.23-27.73-6.81-41.95-8.06c-0.15-0.02-0.29-0.03-0.44-0.05c-2.13-0.33-4.27-0.64-6.41-0.92
		c1.32,0.18,3.39,0.45,4.06,0.54c-3.08-0.65-6.17-1.12-9.3-1.51c-1.02-0.16-2.02-0.28-3.01-0.39c-0.88-0.16-1.76-0.32-2.63-0.5
		c-14.12-2.55-28.66-3.03-42.92-1.33c0.39-0.05,0.78-0.1,1.16-0.16c-0.18,0.02-0.35,0.04-0.53,0.06c-8.17,0.08-16.35-0.02-24.53,0
		c-5.08,0.21-10.15,0.54-15.24,0.43c-5.22,0.13-10.82-0.41-15.95,0.8c-2.78,0.36-5.56,0.78-8.33,1.24
		c-8.53,0.88-17.11,1.13-25.59,2.52c-6.02,0.83-11.96,2.05-17.93,3.17c-6.55,0.95-12.92,2.61-19.29,4.38
		c-2.83,0.95-5.83,1.14-8.76,1.59c-3.56,0.65-7.08,1.55-10.55,2.57c-1.74,0.29-3.43,0.8-5.03,1.48c-0.77,0.16-1.54,0.33-2.28,0.6
		c-3.55,1.34-7.03,2.85-10.43,4.51c-0.63,0.19-1.27,0.34-1.92,0.47c-1.99,0.26-3.97,0.6-5.88,1.26c-5.9,2.35-11.75,5.01-16.7,9.06
		c-4,2.99-8.63,5.71-10.82,10.4c-0.77,1.35-1.34,2.8-1.73,4.3c-6.05,4-11.8,8.85-15.89,14.86c-0.23,0.35-0.47,0.68-0.71,1.02
		c-1.15,1.47-2.28,2.95-3.43,4.43c-1.98,2.64-3.14,5.86-4.23,8.95c-1.03,3.96-0.83,7.98-0.08,11.97c1.55,5.51,5.15,10.2,9.4,13.94
		c0.8,0.81,1.55,1.65,2.29,2.52c2.17,3.03,4.31,6.09,6.82,8.85c2.89,2.82,6.27,5.12,9.63,7.33c3.92,2.03,8.01,3.77,11.67,6.26
		c1.21,0.87,2.45,1.7,3.73,2.46c0.8,0.61,1.66,1.12,2.58,1.53c6.55,2.72,12.65,6.42,19.34,8.84c7.29,1.56,14.69,2.6,21.98,4.23
		c4.58,0.94,9.25,1.49,13.73,2.84c0.27,0.08,0.54,0.17,0.8,0.26c1.44,0.61,2.88,1.21,4.33,1.79c6.37,2.01,13.04,2.74,19.44,4.64
		c6.12,1.1,12.15,2.67,18.25,3.84c5.61,0.94,11.27,1.31,16.92,1.79c1.53,0.24,3.06,0.46,4.6,0.66c3.9,0.58,7.81,1.01,11.73,1.46
		c9.95,1.37,19.95,2.44,29.98,2.79c2.88,0.14,5.74-0.2,8.61-0.38c5.23-0.1,10.46-0.02,15.68-0.05c5.87-0.17,11.71-0.66,17.55-1.21
		c6.7-0.03,13.39-0.59,20.09-0.32c8.92-0.65,17.88-0.51,26.78-1.35c3.08-0.34,6.12-0.8,9.08-1.73c2.46-0.47,4.94-0.87,7.4-1.35
		c1.92-0.37,3.81-0.84,5.73-1.2c2.21-0.2,4.42-0.33,6.62-0.7c3.05-0.63,4.61-0.98,5.64-1.2c2.81-0.35,5.62-0.73,8.38-1.28
		c2.92-0.66,5.79-1.4,8.62-2.23c0.18-0.02,0.37-0.03,0.55-0.05c5.27-0.64,10.59-1.15,15.49-3.31c2.03-0.74,4.03-1.56,6.02-2.4
		c0.85-0.12,1.69-0.26,2.54-0.39c3.69-0.37,7.5-0.39,10.98-1.77c3.77-1.67,2.63-0.9,9.21-3.45c5.76-2.57,5.67-3.1,8.12-4.03
		c2.49-1.23,4.58-3.11,6.73-4.84c1.24-0.9,0.23-0.13,4.38-3.3c2.7-2.23,6.52-5.73,8.39-9.52c0.44-0.33,0.88-0.67,1.28-1.04
		c0.45-0.53,0.93-1.03,1.44-1.5c0.43-0.29,0.86-0.58,1.29-0.88c8.48-6.09,14.31-16.17,13.93-26.75
		C1118.69,414.94,1119.29,410.15,1117.6,405.79z"/>
	<path class="st4" d="M1046.41,354.1c-0.87-0.12-1.74-0.23-2.61-0.35c0.8,0.11,1.61,0.22,2.41,0.32
		C1046.28,354.08,1046.34,354.09,1046.41,354.1z"/>
</g>
<g>
	<g>
		<path class="st4" d="M754.01,363.62c-5.27-1.53-11.16-0.88-16.4,0.49c-8.5,4.92-17,9.84-25.5,14.77
			c7.17-3.68,15.4-4.08,22.87-6.89c3.87-1.46,7.43-3.68,11.01-5.72c6.78-3.86,13.66-7.63,20.22-11.86c0.15-0.1,0.3-0.2,0.44-0.3
			c-10.17,1.62-20.64,3.22-29.8,8.18c-11.31,6.12-23.63,12.08-33.22,20.81c8.66-5,17.32-10,25.98-15c0.74-0.78,1.56-1.47,2.32-2.23
			c-11.23,11.41-26.55,14.58-17.34,10.27c1.79-0.84,3.53-1.73,5.26-2.68c8.02-4.42,15.93-9.05,23.78-13.76
			c0.6-0.33,1.18-0.7,1.74-1.09c-4.03,0.72-7.41,2.69-10.95,4.67c-0.74,0.41-4.93,2.09-2.95,1.6c1.47-0.36-0.77,0.68-0.01-0.48
			c1.23-1.86,4.87-3.96,6.65-5.07c-8.35,4.82-16.7,9.64-25.05,14.46c0.48-0.25,0.95-0.5,1.43-0.75c4.85-2.54,9.57-5.39,14.31-8.14
			c3.52-2.04,7.36-5.32,11.19-6.63c-7.15,2.45-13.71,7.01-20.19,10.77c-5.83,3.38-12.12,6.42-16.95,11.22
			c0.74-0.73,3.17-1.72,3.86-2.1c2.5-1.41,4.99-2.84,7.48-4.27c4.75-2.74,9.53-5.45,14.2-8.32c2.41-1.49,5.13-3.2,6.94-5.4
			c1.69-2.05,0.13-0.95-1.49-0.34c-1.08,0.4-2.17,0.97-3.18,1.5c-9.32,4.88-18.92,10.15-27.63,16.05c-0.9,0.61-1.98,1.21-2.71,2.02
			c-1.74,1.92,0.65,0.18,1.73-0.35c3.74-1.85,7.35-4.04,10.97-6.12c7.34-4.21,16.33-8.09,22.34-14.29c-2.08,2.15-7.1,3.94-9.61,5.38
			c-8.31,4.77-18.04,9.16-25.11,15.85c0.79-0.75,3.1-1.68,3.86-2.1c3.08-1.73,6.15-3.5,9.21-5.27c4.25-2.45,9.02-4.62,12.92-7.63
			c3.71-2.86,7.31-5.77,10.57-9.13c-0.7,0.72-3.23,1.75-3.86,2.1c-2.5,1.41-4.99,2.84-7.48,4.27c-4.74,2.73-9.63,5.32-14.2,8.32
			c-1.75,1.15-3.51,2.27-5.26,3.42c22.01-11.73,28.24-15.44,18.71-11.11c0.71-0.6,1.47-1.12,2.28-1.55c3.06-1.96,6.1-3.54,8.53-6.29
			c-1.09,1.23-3.72,2.03-5.18,2.85c-3.79,2.15-7.57,4.33-11.34,6.51c10.79-6.18,13.21-7.58,7.26-4.2c-1.04,0.59-2.07,1.19-3.11,1.78
			c-3.78,2.17-7.55,4.35-11.31,6.56c-2.99,1.76-6.22,3.37-8.73,5.8c0.77-0.75,3.13-1.69,3.86-2.1c7.04-3.98,14.05-8.01,21.01-12.13
			c3.49-2.07,6.87-4.03,9.51-7.18c-0.55,0.65-3.43,1.87-3.86,2.1c-3.08,1.73-6.15,3.5-9.21,5.27c-4.01,2.32-9.59,4.35-12.92,7.63
			c-2.28,2.25-4.86,4.05-7.47,5.91c0.16-0.08,0.32-0.16,0.48-0.23c2.19-1.19,4.37-2.41,6.55-3.62c8.03-4.46,15.83-10.24,24.17-14.04
			c-9.17,4.18-17.83,9.76-26.49,14.88c-0.38,0.23-7.91,4.38-7.73,4.94c-0.01-0.03,11.11-6.03,11.17-6.07
			c5.64-3.22,11.3-6.42,16.84-9.81c1.12-0.69,2.22-1.39,3.3-2.13c1.38-0.94,3.67-2.14,0.31-0.66c-4.35,1.92-8.5,4.72-12.6,7.08
			c-3.2,1.84-6.4,3.69-9.58,5.57c-1.11,0.65-2.22,1.31-3.32,1.97c-7.85,4.68-1.93,1.24,17.76-10.3c-8.79,4.3-16.66,10.65-25.5,14.77
			c11.47-5.34,22.97-11.9,33.38-19.1c-1.14,0.79-2.69,1.45-3.86,2.1c-9.85,5.57-19.71,11.14-29.25,17.23
			c-0.61,0.38-0.59,0.4,0.04,0.07c7.05-3.52,13.82-7.7,20.61-11.68c2.44-1.43,5.01-2.78,7.33-4.4c1.12-0.79,4.66-3.22,1.16-1.96
			c-6.63,2.39-13.09,7.36-19.14,10.89c-4.64,2.7-8.78,4.95-12.32,9.01c0.62-0.29,1.22-0.61,1.81-0.96
			c9.63-5.38,19.3-10.74,28.5-16.82c1.61-1.06-2.17,1.09-1.37,0.66c-2.62,1.42-5.21,2.94-7.8,4.42c-5.31,3.05-10.8,5.95-15.93,9.32
			c-0.29,0.19-5.41,3.49-5.19,3.74c0.4,0.46,9.39-5.12,9.44-5.15c7.35-4.2,14.81-8.28,21.8-13.07c-0.16,0.08-0.32,0.16-0.48,0.23
			c-6.43,3.38-12.69,7.1-18.96,10.76c-3.99,2.33-8.21,4.43-11.57,7.65c1.53-1.47,4.69-2.57,6.5-3.6c4.39-2.5,8.76-5.02,13.11-7.57
			c2.3-1.35,4.77-2.58,6.95-4.12c0.72-0.51,3.55-1.91,1.2-1.4c-1.55,0.34-3.55,1.9-4.87,2.64c-3.08,1.73-6.15,3.5-9.21,5.27
			c-8.56,4.94-15.69,8.66-21.32,16.87c-4.13,6.01-8.47,13.72-9.13,21.13c-0.65,7.21,3.42,12.3,9.26,15.99
			c1.13,0.71,11.68-6.57,13.07-7.37c3.06-1.77,6.12-3.54,9.16-5.34c0.44-0.26,3.55-2.41,3.75-2.29c-8.31-5.24-11.11-12.77-7.8-22.1
			c3.05-8.61,8.37-18.9,16.08-24.25c-8.5,4.92-17,9.84-25.5,14.77c3.36-1.78,0.32,0.37-0.22,0.79c2.12-1.28,4.25-2.55,6.37-3.83
			c-0.34,0.2-0.68,0.4-1.03,0.6c6.54-3.72,13.07-7.45,19.61-11.17c0.95-1.01,2.02-1.88,3.21-2.61c-8.35,4.82-16.7,9.64-25.05,14.46
			c-0.7,0.76-1.54,1.35-2.53,1.77c8.51-4.9,17.02-9.8,25.54-14.7c-3.56,1.69,2.05-1.91,2.91-2.48c-8.36,4.8-16.73,9.6-25.09,14.4
			c-7.45,4.92-11.71,6.46,18.95-10.66c0.6-0.32,1.21-0.64,1.81-0.96c1.38-1.57,2.74-3,4.41-4.28c-8.06,4.68-16.11,9.36-24.17,14.04
			c0.44-0.24,0.88-0.49,1.32-0.73c-0.6,0.32-1.21,0.64-1.81,0.96c3.82-1.25-1.72,2.22-1.92,2.35c8.35-4.82,16.7-9.64,25.05-14.46
			c0.08-0.35,0.34-0.56,0.79-0.62c6.31-4,0.86-0.87-16.35,9.39c-1.29,0.7-2.57,1.4-3.86,2.1c-0.46,0.32-0.92,0.63-1.37,0.95
			c0.58-0.36,1.16-0.73,1.74-1.09c21.93-11.93,28-15.52,18.22-10.76c-8.5,4.92-17,9.84-25.5,14.77c4.76-2.33,9.31-5.11,13.9-7.75
			c3.2-1.84,6.4-3.69,9.58-5.57c1.11-0.65,2.22-1.31,3.32-1.97c7.89-4.75,1.9-1.3-17.98,10.36c-0.6,0.32-1.21,0.64-1.81,0.96
			c1.76-0.93,2.05-1,0.86-0.22c-6.86,4.88-0.53,1.29,19.01-10.76c0.6-0.32,1.21-0.64,1.81-0.96c-1.94,1-2.1,0.99-0.49-0.04
			c7.44-5.13,1.16-1.48-18.84,10.94c8.06-4.68,16.11-9.36,24.17-14.04c-1.12,0.62-2.24,1.24-3.35,1.87
			c0.85-0.58,1.68-1.17,2.52-1.77c1.73-1.26,3.36-2.57,4.89-4.08c-8.66,5-17.32,10-25.98,15c-0.61,0.81-1.3,1.55-2.06,2.22
			c-6.25,5.02-0.99,2.12,15.79-8.7c1.29-0.7,2.57-1.4,3.86-2.1c0.67-0.75,1.44-1.38,2.29-1.91c-0.58,0.36-1.16,0.73-1.74,1.09
			c-18.08,10.39-23.51,13.54-16.29,9.44c1.48-0.84,2.96-1.68,4.43-2.53c2.76-1.58,5.51-3.18,8.26-4.77
			c-5.51,3.12-11.01,6.25-16.52,9.37c-0.53,0.6-5.32,4.37-3.33,3.09c-1.92,1.24-3.96,2.29-5.85,3.58c-0.72,0.49-3.19,1.78-0.3,0.62
			c1.57-0.63,3.07-1.53,4.55-2.35c10.75-5.93,21.48-12.04,31.74-18.79c-8.51,4.9-17.02,9.8-25.54,14.7
			c-3.26,3.36-6.87,6.28-10.57,9.13c8.66-5,17.32-10,25.98-15c0.71-0.72,1.47-1.39,2.26-2.01c4.7-3.46,1.4-1.66-9.9,5.4
			c-3.2,1.79-6.41,3.59-9.61,5.38c-1.69,1.74-3.45,3.1-5.53,4.37c8.35-4.82,16.7-9.64,25.05-14.46c-0.93,0.56-1.89,1.03-2.89,1.43
			c-1.01,0.51-0.92,0.32,0.29-0.57c4.06-3.15,1.17-1.56-8.68,4.79c-10.47,5.21-13.28,6.95-8.43,5.2c0.43-0.1,0.86-0.2,1.28-0.3
			c-0.76,0.76-1.54,1.5-2.33,2.23c-1.53,1.37-3.09,2.59-4.84,3.67c8.51-4.9,17.02-9.8,25.54-14.7c0.68-0.72,1.4-1.39,2.16-2.03
			c7.33-5.76,0.9-2.17-19.28,10.77c-0.6,0.32-1.21,0.64-1.81,0.96c1.36-0.65,2.68-1.2,4.11-1.68c8.5-4.92,17-9.84,25.5-14.77
			c-10.4,5.44-21.61,11.02-30.89,18.3c-0.84,0.68-1.67,1.37-2.5,2.07c-1.71,1.18-1.68,1.35,0.09,0.52c1-0.27,2.17-1.02,3.06-1.49
			c2.43-1.27,4.76-3,7.27-4.07c-3.98,1.68,2.1-0.11,2.86-0.25c0.58-0.36,1.16-0.73,1.74-1.09c21.71-11.76,28.34-15.63,19.9-11.6
			c-0.84,0.4-1.68,0.79-2.53,1.17c-0.85,0.4-1.69,0.79-2.53,1.21c-3.79,1.91-7.45,4.11-11.12,6.22
			c-6.99,4.01-15.56,7.62-21.21,13.58c0.67-0.71,3.26-1.77,3.86-2.1c3.08-1.73,6.15-3.5,9.21-5.27c4.1-2.37,9.39-4.42,12.92-7.63
			c2.02-1.84,4.07-3.48,6.26-5.1c-6.86,4.04-13.71,8.08-20.57,12.11c0.48-0.19,0.97-0.38,1.45-0.57c1.45-0.42,2.86-0.98,4.31-1.41
			c5.84-1.72,11.82-2.35,17.71-3.71c-6.12,1.42,32.63-15.69,21.5-12.17c-1.17,0.37-2.34,0.75-3.52,1.08
			c-2.18,0.6-4.39,1.08-6.59,1.6c-4.53,1.07-8.89,2.3-13.05,4.42c-4.87,2.5-9.57,5.39-14.31,8.14c-2.48,1.44-4.97,2.88-7.44,4.34
			c-1.09,0.64-2.57,1.98-3.75,2.29c5.24-1.37,11.13-2.02,16.4-0.49c0.43,0.12,4.06-2.22,3.86-2.1c3.08-1.73,6.15-3.5,9.21-5.27
			c3.06-1.77,6.12-3.54,9.16-5.34C750.83,365.57,753.53,363.48,754.01,363.62L754.01,363.62z"/>
	</g>
</g>
<g>
	<path class="st2" d="M641.04,489.95c0-0.02-0.01-0.05-0.01-0.07C641.03,489.9,641.04,489.93,641.04,489.95z"/>
	<path class="st2" d="M647.62,457.37c0.21-0.78,0.37-1.51,0.51-2.23c0.21-0.65,0.48-1.27,0.89-1.82c0.13-0.19,0.31-0.23,0.5-0.22
		c-0.41-0.24-0.78,0.17-1.05,0.45c-0.03,0.03-0.05,0.07-0.07,0.11c0.49-3.28,0.42-6.06,0.68-9.21c0.3-0.78,0.68-1.52,1.21-2.18
		c-0.43,0.33-0.79,0.72-1.11,1.14c0.07-0.64,0.16-1.3,0.27-1.99c-0.4,0.99-0.82,2.21-1.23,3.48c-0.35,0.64-0.68,1.29-1.02,1.91
		c-0.12,0.11-0.21,0.22-0.32,0.34c-0.14-0.59-0.35-1.16-0.65-1.66c-1.59-1.96-2.64-0.22-3.31,1.91c-0.46,0.18-0.89,0.59-1.26,1.18
		c-0.26,0.13-0.5,0.32-0.69,0.58c-0.39,0.57-0.68,1.17-0.91,1.79c-0.13,0.18-0.25,0.37-0.32,0.57c-0.95,2.23-0.83,4.62-0.56,7.01
		c0.01,0.18,0.01,0.35,0.02,0.53c-0.48,2.08-0.23,5.41,0.46,7.72c-0.45,2.42-0.19,4.98-0.07,7.42c0.1,1.6,0.38,5.05,0.91,8.46
		c-0.19,0.61-0.27,1.26-0.2,1.74c0.11,1.84,0.47,3.65,0.75,5.47c0-0.03,0.01-0.05,0.01-0.07c0.01,0.1,0.02,0.2,0.04,0.31
		c-0.02-0.06-0.03-0.11-0.03-0.16c0.02,0.12,0.04,0.23,0.05,0.35c0.07,0.99,0.89,2.98,2.05,2.34c0.41,0.73,0.85,1.02,1.3,0.43
		c0.16,0.14,0.32,0.28,0.51,0.4c5.24,1.65,4.48-10.32,3.95-13.27c-1-5.81-2.02-9.97-2.39-15.3c0.26-2.23,0.35-4.64,1-7.36
		C647.54,457.48,647.58,457.44,647.62,457.37z"/>
</g>
<g>
	<path class="st5" d="M935.39,416.09c0.41-0.17,0.77-0.32,1.11-0.47c0.08-0.03,0.15-0.07,0.24-0.1
		C936.29,415.71,935.84,415.9,935.39,416.09z"/>
	<path class="st5" d="M1068.66,396.74c-0.9-8.61-7-21.43-16.19-23.41c-7.19-1.61-14.72-0.93-21.83,0.79
		c-10.03,2.14-19.79,8.95-22.42,19.29c-0.61,2.17,0.18,4.44,1.02,6.45c0.75,2.17,2.58,3.67,4.68,4.45c0.7,0.31,1.46,0.47,2.21,0.64
		c-0.51-0.26-1.02-0.53-1.51-0.84c-2.87-1.65-3.7-4.5-3.53-7.63c-0.08-1.42,0.89-2.54,1.57-3.7c1.72-2.47,4.01-4.57,6.64-6.04
		c4.76-2.83,8.1-3.21,11.94-3.62c7.34-0.65,12.81-0.2,16.83,0.87c0.64,0.17,1.26,0.37,1.88,0.6c0.08,0.04,0.16,0.09,0.24,0.13
		c0.49,0.44,0.94,0.91,1.37,1.42c0.25,0.35,0.52,0.69,0.75,1.06c0.62,0.82,1.82,3.41,2.38,4.65c1.82,4.98,1.42,4.8,1.71,7.72
		c-0.05,3.05,0.12,1.7-1.21,6.84c-2.38,7.22-1.94,7.06-4.98,12.18c-0.19,0.3-0.35,0.53-0.48,0.73c-1.08,1.33-2.38,2.45-3.72,3.51
		c-1.67,1.22-0.87,0.79-4.59,3.56c-1.87,1.5-3.42,3.35-5.23,4.92c-8.71,5.02-13.48,6.38-25.18,8.69c-15,3.09-25.16,4.07-42.58,4.85
		c-15.11,0.33-30.19,1.56-45.07,4.2c-4.29,0.36-8.25,2.06-12.21,3.61c-2.52,0.99-5.11,2.1-7.51,3.49c0.39-3.88,1.23-8.09,2.77-11.47
		c1.13,2.62,1.44,5.57,1.97,8.35c0-1.63,0.32-3.25,0.26-4.89c-0.09-1.97,0-4.04-0.73-5.91c-0.02-0.04-0.05-0.09-0.07-0.13
		c0.15-0.22,0.3-0.44,0.46-0.64c2.15-2.49,4.99-4.28,7.45-6.45c3.17-2.59,4.52-3.91,9.69-4.93c9.85-2.11,19.78-4.6,28.52-9.78
		c4.56-3.02,2.29-1.77,6.87-4.69c3.36-1.95,6.8-3.85,9.66-6.52c2.25-2.24,4.16-4.8,5.98-7.39c3.65-5.51,7.56-11.65,6.22-18.57
		c-0.6-4.35-2.05-9.03-5.8-11.66c-6.71-4.2-13.1-5.89-19.52-0.09c-0.33,0.29-0.64,0.6-0.96,0.9c0.23-0.12,0.46-0.24,0.69-0.35
		c2.88-1.47,6.36-2.3,9.51-1.27c2.84,1.27,4.91,3,7.15,5.22c1.3,2.33,1.37,2.61,1.4,7.29c-0.37,2.97,0.02,2.97-2.44,6.79
		c-0.02,0.03-0.03,0.04-0.05,0.06c-4.28,5.28-8.9,10.5-11.71,11.8c-2.9,1.68-6.01,2.95-8.78,4.85c-4.38,2.9-1.99,1.75-6.77,4.48
		c-5.06,2.92-5.82,3.23-8.89,4.51c-5.13,2.21-6.32,2.57-13.18,5.3c-2.01,1-3.07,0.81-6.77,3.38c-3.37,2.44-5.8,5.86-8.36,9.1
		c0.81-2.9,2.95-5.26,4.5-7.8c2.95-4.12,5.22-7.77,7.27-10.11c6.84-7.37,14.56-14.14,19.6-22.97c5.45-10.09,4.35-26.45-7.61-31.18
		c-5.74-1.77-11.41,0.4-15.71,4.25c-1.65-3.1-3.61-6.03-6.14-8.48c-3.01-3.25-6.57-6.12-10.87-7.42c-8.8-2.85-19.74-1.09-25.11,7.05
		c-3.56,4.96-6.69,10.9-6.22,17.17c0.18,3.2,1.84,5.99,3.14,8.84c1.95,5.05,5.72,9.19,10.89,11c2.01,0.47,9.43,5.19,12.52,8.43
		c0.44,0.46,1.27,1.93,2.15,2.88c0.75,0.9,1.83,1.92,2.3,2.62c0.98,1.63,1.45,3.47,2.07,5.3c1.71,4.93,3.02,10,2.86,15.26
		c1.08-4.98,0.82-10.03-0.01-15.02c-0.4-2.42-0.57-4.92-1.45-7.22c-0.5-1.28-1.37-2.36-2.04-3.56c-0.21-0.35-0.42-0.71-0.6-1.08
		c-0.02-0.04-0.02-0.05-0.03-0.06c0,0,0,0,0,0c-1.86-4.59-5.91-7.89-9.43-11.21c-3.29-2.84-5.75-3.72-7.08-5.23
		c-0.27-0.25-0.65-0.68-0.92-1c-0.14-0.19-0.29-0.38-0.4-0.59c-0.12-0.22-0.2-0.39-0.27-0.54c-0.27-0.67-0.54-1.34-0.79-2.01
		c-0.69-2.27-1.72-4.45-2.23-6.76c-0.01-0.35-0.01-0.7,0.01-1.05c0.02-0.09,0.03-0.18,0.05-0.3c0.17-0.82,0.41-1.61,0.71-2.39
		c0.21-0.44,0.43-0.88,0.68-1.31c2.96-4.8,2.43-4.35,5.05-6.94c0.55-0.37,1.11-0.72,1.7-1.02c0.69-0.25,1.4-0.45,2.13-0.59
		c1.77-0.08,5.88-0.49,9.54,2.05c0.57,0.5,2.2,1.91,2.69,2.54c0.53,0.5,1.81,1.94,2.45,2.62c1.39,2.33,2.8,4.67,3.93,7.14
		c1.47,4.12,1.6,9.24,7.24,9.39c3.03,0.09,5.17-2.3,6.1-4.97c0.31-0.62,0.65-1.23,1-1.83c0.28-0.47,0.59-0.93,0.9-1.38
		c0.3-0.36,0.59-0.72,0.93-1.05c0.33-0.33,0.69-0.63,1.05-0.93c0.45-0.31,0.92-0.6,1.4-0.85c0.43-0.15,0.87-0.27,1.32-0.36
		c0.19-0.01,0.39-0.02,0.58-0.02c0.13,0.08,0.26,0.16,0.39,0.25c0.02,0.02,0.04,0.03,0.06,0.05c0.36,0.33,0.69,0.7,1.01,1.07
		c0.21,0.3,0.4,0.61,0.58,0.93c1.33,4.26,1,2.76,1.05,8.39c-0.01,0.08-0.02,0.15-0.03,0.22c-0.03,0.19-0.06,0.38-0.09,0.56
		c-0.05,0.74-0.7,2.65-0.96,3.44c-1.34,3-3.12,5.78-4.87,8.55c-3.1,5.17-7.16,9.71-10.34,14.83c-3.38,6.07-6.06,12.58-8.37,19.13
		c-0.51,1.24-0.53,2.59-0.5,3.91c0.03,0.66,0.02,1.33,0.04,2c-0.29,0.39-0.56,0.8-0.81,1.23c-0.51-0.91-1-1.82-1.44-2.76
		c-1.7-3.53-3.14-7.24-5.52-10.38c-2.98-3.93-7-6.91-10.52-10.33c-9.26-8.96-22.31-12.48-34.88-13.27
		c-4.14-0.39-8.3-0.13-12.43,0.24c-5.17,0.44-10.36,0.84-15.45,1.85c-7.42,1.14-8.65,2.25-15.21,1.6c-6.05-1.03-7.29-2.23-7.84-4.97
		c-0.04-0.19-0.07-0.35-0.09-0.47c-0.01-0.14-0.03-0.28-0.03-0.42c0-0.03,0-0.04,0.01-0.06c0.14-0.67,0.38-1.31,0.63-1.94
		c0.2-0.44,1.29-3.27,2.12-4.2c1.77-2.07,3.99-3.7,6.02-5.5c3.85-3.21,7.77-6.45,12.35-8.57c-5.38,1.41-10.23,4.25-15,7.05
		c-2.2,1.35-4.52,2.52-6.5,4.2c-2.01,1.84-3.51,4.21-4.89,6.54c-3.8,9.27,4.07,15.33,12.36,17.2c4.84,1.3,9.86,0.86,14.79,0.48
		c13.9-1.1,32.64-1.56,41.51,0.37c10.14,2.12,13.65,4.56,22.62,10.67c4.27,2.7,4.99,2.97,8.39,7.04c1.76,2.49,4.64,6.17,7.39,9.35
		c-1.48,4.74-1.43,10.47-0.57,15.52c-1.6,0.98-3.1,2.1-4.4,3.43c-2.3-2.55-5.14-4.52-7.84-6.61c0.45,0.35,0.91,0.7,1.36,1.05
		c-3.87-2.91-7.54-6.13-11.66-8.7c-6.91-4-14.47-7.03-22.25-8.79c-9.41-2.34-18.99-3.71-28.63-4.56
		c-8.32-0.85-16.65-1.71-25.01-1.99c-15.98-0.6-31.97,0.66-47.95,0.12c-6.1-0.54-5.34-0.05-12.2-2.3c-2.75-1.33-5.27-3.08-7.73-4.88
		c-0.08-0.07-0.16-0.14-0.28-0.24c-3.54-3.33-4.58-6.18-1.95-13.36c0.36-0.74,0.97-1.99,1.27-2.52c3.47-6.08,4.83-8.86,8.4-12.1
		c2.14-1.91,12.91-8.22,19.1-11.03c7.19-2.9,14.78-4.86,22.45-5.93c-8.33-0.8-16.84-0.36-25,1.5c-6.53,1.86-12.98,4.22-19.19,6.97
		c-4.9,2.03-8.58,5.94-11.91,9.94c-3.03,3.71-6.05,7.52-7.63,12.1c-3.32,8.58-1.24,18.6,6.22,24.31c3.6,2.77,7.34,5.47,11.58,7.18
		c3.96,1.74,8.29,2.39,12.56,2.86c15.59,1.25,31.25-0.1,46.87,0.36c14.29,0.3,28.5,2.05,42.68,3.76
		c18.64,3.35,29.19,6.99,38.95,15.4c4.97,4.13,4.91,3.06,9.52,8.49c1.41,2,2.58,4.19,4.27,5.98c3.23,3.3,8.72,2.19,10.89-1.76
		c1.07-1.65,1.3-3.63,1.91-5.47c0.12-0.23,0.23-0.42,0.32-0.57c1-1.03,0.89-0.89,4.69-3.06c1.14-0.46,6.62-3.24,12.28-4.36
		c3.63-0.56,7.26-1.07,10.87-1.78c7.97-0.99,16-1.55,24.01-2.03c17.55-0.47,35.14-1.61,52.37-5.08c4.75-0.98,9.55-1.78,14.21-3.14
		c3.88-1.24,7.6-2.91,11.29-4.61c5.02-1.85,8.79-5.62,12.47-9.34c0.12-0.1,0.24-0.19,0.37-0.29c0.37-0.28,0.75-0.56,1.11-0.84
		c4.34-3.19,8.44-6.84,10.88-11.74c2.09-3.96,3.44-8.26,4.76-12.52C1068.37,405.93,1069.41,401.33,1068.66,396.74z"/>
</g>
<path class="st5" d="M702.27,434.77c-1.87-2.53-2.49-4.47-3.52-7.33c-1.32-3.68-3.25-9.14-3.67-12.03
	c0.04-4.72-0.29-10.32,0.56-14.14c0.79-2.47,3.54-5.77,5.63-8.38c2.63-3.17,5.47-6.21,9.08-8.26c-3.98,1.65-7.24,4.51-10.21,7.59
	c-2.34,2.58-4.97,5.12-6.29,8.41c-1.24,4.85-0.72,10-0.79,14.96c1.12,6.04,3.41,11.92,6.19,17.38c2.41,4.26,8.65,8.42,11.76,9.98
	C707.84,440.53,704.69,437.97,702.27,434.77z"/>
<path class="st5" d="M1101.75,418.06c-0.55-2.57-1.76-4.97-2.19-7.58c0.11,2.72,1.12,5.31,1.36,8.01c0.2,4.25-1.97,9.32-3.22,12.45
	c-2.1,5.22-5.91,8.36-9.2,13.18c-1.53,2.28-2.72,4.76-4.01,7.17c-2.18,3.59-4.05,5.97-7.23,8.93c-4.83,4.24-12.64,5.76-19.92,7.41
	c-8.22,2.11-16.7,3.14-24.81,5.64c-5.87,1.98-11.36,4.96-16.34,8.61c5.25-2.83,10.77-5.16,16.52-6.72
	c8.4-2.06,16.98-3.31,25.37-5.45c4.7-1.09,9.48-2.07,13.96-3.89c4.14-1.67,7.66-4.49,10.41-7.98c3.9-4.32,5.63-10.02,9.16-14.59
	c2.81-3.41,7.12-8.24,8.56-13.82C1101.24,425.78,1102.45,421.9,1101.75,418.06z"/>
<path class="st5" d="M846.74,475.5c-2.76-0.94-5.51-1.91-8.23-2.96c-1.68-0.76-3.38-1.51-5.21-1.84c-5.3-1.21-10.77-0.98-16.17-1.4
	c-1.82-0.14-3.64-0.1-5.47-0.01c-2.41-0.13-4.81-0.42-7.22-0.61c-4.93-0.42-10.42-1.78-15.75-3.46c-4.24-1.12-8.58-1.77-12.91-2.41
	c-6.3-0.94-12.23-1.05-17.99-2.12c-7.1-1.32-13.91-3.87-21-5.21c6.68,2.04,13.08,5.01,19.89,6.65c6.15,1.48,12.51,1.48,18.74,2.43
	c2.76,0.44,8.16,1.19,11.73,2.16c5.01,1.35,9.94,3.05,15.15,3.54c4.17,0.49,8.36,1.03,12.56,0.8c5.32,0.36,10.67,0.37,15.96,0.99
	c4.45,0.46,11.19,3.38,16.49,4.37c1.98,0.49,4.34,1.03,6.15,1.27C851.18,477.06,848.96,476.27,846.74,475.5z"/>
<path class="st6" d="M635.61,686.82c-2.17-0.77-4.33-1.64-6.56-2.21c-1.85-0.28-3.73-0.31-5.6-0.4
	c-13.1,1.05-32.38,9.15-32.29,24.52c0.36,7.84,7.51,13.71,14.83,15.16c0.42,0.05,0.84,0.08,1.27,0.12c8.95,4.86,20.21,4.98,30,2.87
	c3.3-0.84,6.26-2.83,8.77-5.09c3.55-2.78,6.37-6.47,7.25-10.97C655.24,699.41,645.8,690.03,635.61,686.82z"/>
<path class="st6" d="M707.45,687.76c-1.41-1.71-3.43-2.7-5.22-3.95c-1.83-0.74-3.74-1.53-5.7-1.81c-1.58-0.04-3.17-0.32-4.74-0.19
	c-1.41,0.31-2.84,0.56-4.24,0.91c-0.04,0.02-0.08,0.04-0.12,0.06c-1.31,0.07-2.58,0.51-3.88,0.73c-4.3,1.56-7.58,4.87-9.61,8.92
	c-1.28,3.05-1.73,5.9-1.69,9.2c0.21,2.88,1,5.69,1.67,8.48c2.7,7.43,7.3,14.52,14,18.89c2.28,1.89,4.91,3.33,7.81,4.03
	c3.36,0.61,6.82-0.02,9.82-1.56c1.58-0.32,3.11-1.07,4.41-2.33c0.93-0.82,1.72-1.74,2.4-2.73c1.49-1.68,2.73-3.58,3.66-5.61
	c0.54-1.7,1.29-3.36,1.59-5.12c0.13-1.87,0.31-3.75,0.31-5.63C717,701.7,713.52,693.65,707.45,687.76z"/>
<path class="st6" d="M684.94,757.89c0.17-2.41-0.1-4.55-0.76-6.96c-1.87-6.18-6.81-10.61-11.35-14.92
	c-3.53-3.33-7.68-6.37-12.55-7.28c-1.47-0.04-2.95-0.29-4.41-0.19c-1.76,0.44-3.63,0.57-5.3,1.31c-4.4,1.9-8.28,5.07-10.78,9.2
	c-2.45,3.42-3.65,7.64-3.91,11.77c-0.08,1.76-0.32,3.48-0.23,5.18c0.23,1.66,0.66,3.28,0.98,4.92c1.11,3.77,3.22,7.3,5.92,10.15
	c2.4,3.02,5.26,5.55,8.59,7.49c2.22,1.39,4.81,1.97,7.25,2.85c2.44,0.71,5.08,0.77,7.6,0.72c8.99-1.29,16.73-5.38,19.06-14.75
	C685.64,764.27,685.64,761,684.94,757.89z"/>
<path class="st7" d="M640.36,706.34c-9.39-8.19-22.74-3.65-32.74,1c6.01-0.26,11.99-0.97,17.98-1.58c5.03-0.73,8.59-0.9,13.31,0.63
	c0.58,0.19,1.85,0.68,2.66,1.03C641.17,707.05,640.77,706.69,640.36,706.34z"/>
<path class="st7" d="M693.18,696.58c1.97,3.49,3.31,7.26,4.99,10.88c1.13,2.27,2.74,5.6,4.14,9.07
	C702.23,709.01,699.02,701.42,693.18,696.58z"/>
<path class="st7" d="M666.34,765.54c-5.44-7.16-8.04-15.78-11.54-24c-0.63,10.69,2.02,20.73,12.34,25.73
	c0.37,0.17,0.73,0.33,1.1,0.49C667.59,767.03,666.94,766.31,666.34,765.54z"/>
<path class="st7" d="M650.83,699.41c-0.58-8.34-10.07-12.38-17.48-11.02c3.34,0.98,6.6,2.16,9.54,4.07
	c2.61,1.45,5.25,3.11,6.73,5.81c0.46,0.8,0.92,1.6,1.36,2.42C650.93,700.26,650.89,699.84,650.83,699.41z"/>
<path class="st8" d="M678.3,699.61c-0.86-3-2.32-5.79-3.91-8.46c-1.9-3.18-4.22-6.19-7.5-8.03c-4.92-2.96-11.31-1.28-14.9,3
	c-0.45,0.59-0.88,1.21-1.28,1.85c-1.95,1.3-3.66,3.11-4.93,5.26c-1.67,2.89-1.62,6.35-1.48,9.59c0.27,6.2,2.59,12.06,5.89,17.27
	c6.1,9.73,18.08,12.54,23.59,4.15c1.13-0.88,2.19-2.13,3.13-3.83C681.03,714.44,679.96,706.27,678.3,699.61z"/>
<path class="st8" d="M650.07,731.19c-2.79-8.61-10.67-14.44-19.27-16.48c-3.04-0.7-6.13-0.53-8.8,0.55
	c-2.08,0.03-4.14,0.29-6.15,0.82c-0.13,0.04-0.24,0.1-0.37,0.14c-1.41,0.35-2.78,0.87-4.04,1.64c-10.4,6.21-7.56,16.95,1.44,22.93
	c1.88,1.37,3.97,2.39,6.17,3.14c1.97,1.35,4.09,2.46,6.38,3.21c3.79,1.61,7.87,2.22,11.73,1.44c4.61,1.89,9.93,1.83,12.51-3.05
	C651.86,741.13,651.34,735.79,650.07,731.19z"/>
<path class="st9" d="M657.12,697.7c2.71,5.93,4.64,12.37,7.8,17.96C664.09,709.06,662.15,702.34,657.12,697.7z"/>
<path class="st9" d="M637.94,733.82c-3.9-3.3-8.88-5.6-13.98-6.09c-2.8-0.24-5.54,0.47-8.24,1.1c3.25,0.29,6.56,0.31,9.7,1.3
	c4.05,1.31,8.22,2.35,12.11,4.09c0.58,0.26,1.14,0.56,1.72,0.83C638.81,734.64,638.39,734.22,637.94,733.82z"/>
<path class="st10" d="M816.7,669.28c-10.62-3.53-20.43-9.11-29.55-15.54c-7.64-6.1-15.47-11.92-23.51-17.48
	c-8.91-6.76-18.22-12.93-26.81-20.11c-4.69-3.59-7.86-5.8-10.76-8.43c-2.15-2.1-4.21-4.3-6.4-6.37c-4.25-4.21-9-7.9-13.17-12.19
	c-2.59-2.89-4.9-6.02-7.06-9.25c-6.38-10.16-10.9-21.33-16.38-31.98c-4.53-8.63-8.81-18.21-11.53-25.95
	c-2.65-7.3-5.73-14.54-6.69-22.3c0.2,7.09,2.18,13.91,3.94,20.73c2.7,10.03,5.75,19.97,9.93,29.49c4.88,11.33,9.03,23,14.67,33.99
	c2.85,5.45,6.2,10.68,10.15,15.4c3.6,3.97,7.81,7.33,11.65,11.07c2.8,2.58,5.34,5.43,8.1,8.04c3.74,3.39,7.93,6.22,12.03,9.15
	c6.71,5.13,13.76,9.73,21.07,13.97c7.12,4.64,14.65,8.59,21.95,12.95c11.85,7.91,25.32,13.52,39.49,15.42
	c0.37,0.06,0.75,0.12,1.12,0.18C818.2,669.81,817.45,669.54,816.7,669.28z"/>
<path class="st10" d="M838.56,768.77c-2.14,0.21-4.29,0.28-6.44,0.29c-6.4,0.02-12.66-1.44-18.94-2.48
	c-6.75-1-13.48-2.21-20.26-2.99c-5.78-0.58-11.61-0.41-17.42-0.67c-7.56-0.45-15.11-1.16-22.64-1.93
	c-6.49-0.67-12.97-1.56-19.47-2.08c-6.78,0.04-13.55-0.14-20.28-1.03c-5.16-0.52-10.32-1.18-15.32-2.6
	c6.09,3.24,12.74,5.15,19.35,7.06c5.59,1.74,11.41,2.4,17.15,3.39c9.42,2.2,18.85,4.42,28.45,5.64c9.33,1.4,18.76,0.99,28.13,0.43
	c8.8,0.13,17.59,0.43,26.39,0.34c7.66,0.19,15.42-0.65,22.62-3.4C841.31,768.23,839.16,768.77,838.56,768.77z"/>
<path class="st10" d="M1240.03,441.69c-3.24-5.33-8.4-15.7-15.45-15.64c-4.98-0.14-9.8,1.5-14.45,3.08
	c-2.54,0.95-5.13,1.84-7.48,3.22c-2.15,1.38-4.13,3.01-6.17,4.54c2.28-1.14,4.5-2.45,6.89-3.34c2.75-0.88,5.61-1.32,8.44-1.82
	c4.6-0.69,9.37-1.33,13.96-0.2c1.83,0.57,3,2.01,4.27,3.41c2.95,3.6,4.95,7.8,7.12,12.24c4.85,10.67,6.56,18.49,7.98,30.67
	c1.11,9.37-0.27,17.97-4.18,29.55c-1.76,6.67-5,12.65-8.81,18.06c-4.4,6.55-8.82,13.1-12.43,20.13c-0.33,0.65-0.65,1.3-0.98,1.94
	c0.34-0.48,0.67-0.97,1.01-1.45c6.84-10.28,17.02-18.25,22.34-29.52c3.46-8.47,6.92-17.13,7.81-26.31
	C1251.3,473.63,1247.83,456.44,1240.03,441.69z"/>
<path class="st10" d="M997.21,656.82c-5.44,3.27-10.8,6.67-15.99,10.33c-4.83,3.59-10,6.63-15.56,8.96
	c-9.07,4.22-22.73,7.52-28.25,9.06c-9.8,2.44-19.85,3.63-29.69,5.86c-6.45,1.47-12.88,3-19.33,4.44c-6.39,1.4-12.93,2.95-19.51,2.24
	c-5.45-0.47-10.8-1.78-16.01-3.4c-4.6-1.35-9.2-2.75-13.33-5.26c3.21,2.81,6.78,5.09,10.6,6.96c6.19,3.32,12.62,6.35,19.5,7.92
	c10.4,2.32,21.15-0.03,31.56-1.28c9.68-1.61,19.46-2.69,29.04-4.86c15.75-4.16,31.46-9.99,44.48-20.01
	c4.87-4.01,9.22-8.61,13.86-12.87c3.11-2.89,6.26-5.73,9.41-8.57C997.73,656.5,997.47,656.66,997.21,656.82z"/>
<path class="st10" d="M1087.76,511.71c-2.17,4.93-5.21,13.9-6.36,17.12c-2.3,6.11-5.84,11.62-9,17.3
	c-3.35,6.25-6.43,12.65-10.07,18.75c-5.72,9.79-10.15,20.23-15.56,30.18c-3.82,6.77-7.26,13.76-11.04,20.55
	c-0.11,0.2-0.23,0.41-0.34,0.61c0.12-0.15,0.24-0.29,0.36-0.43c3.59-4.28,6.86-8.82,10.26-13.25c6.04-7.6,10.8-16.06,16.03-24.21
	c-0.24,0.36-0.39,0.6-0.47,0.73c3.56-5.67,5.24-7.79,8.95-14.16c4.09-7.48,8.21-14.98,11.77-22.72c3.43-7.93,4.93-16.49,7.39-24.74
	c3.52-10.48,6.59-21.19,7.32-32.27C1094.99,495.03,1091.9,502.98,1087.76,511.71z"/>
<path class="st10" d="M803.21,514.36c-7.99-3.02-15.95-6.14-23.7-9.75c-6.79-3.25-13.4-6.87-20.21-10.09
	c-11.84-5.5-24-10.3-35.51-16.5c-10.73-5.49-20.23-13.1-31.24-18.05c-3.75-1.64-7.35-4.1-11.49-4.56c4.28,1.69,7.56,5.18,11.26,7.83
	c10.08,7.36,19.05,17.19,30.23,24.71c11.35,8.05,24.11,13.61,37.18,18.19c7.75,2.91,15.49,5.88,23.58,7.72
	c7.4,1.76,14.98,2.69,22.55,3.33c2.17,0.17,4.35,0.3,6.52,0.42C809.31,516.56,806.25,515.48,803.21,514.36z"/>
<path class="st10" d="M1084.14,739.61c-6.95,1.52-13.88,3.14-20.91,4.23c-6.71,0.85-13.5,1.18-20.17,2.3
	c-15.72,2.61-30.97,7.44-46.56,10.7c-4.55,1.05-9.05,2.25-13.54,3.52c2.85,0.05,5.7,0.1,8.56,0.14c14.28,0.73,28.55-0.14,42.71-2.11
	c9.56-1.06,19.17-1.84,28.59-3.85c8.65-2.1,16.91-5.5,25.15-8.81c9.87-4.02,19.78-8.33,28.19-14.99
	C1105.68,735.54,1095.5,737.06,1084.14,739.61z"/>
<path class="st10" d="M760.59,694.67c-12.69-4.33-26.39-5.99-38.51,0.94c7.31-1.14,14.72-0.57,22.06-0.05
	c5.26,0.36,10.54,0.33,15.81,0.29c1.27-0.02,2.53-0.06,3.8-0.09C762.7,695.38,761.65,695.01,760.59,694.67z"/>
</svg>
